G04*
G04 #@! TF.GenerationSoftware,Altium Limited,Altium Designer,21.6.4 (81)*
G04*
G04 Layer_Physical_Order=1*
G04 Layer_Color=255*
%FSLAX43Y43*%
%MOMM*%
G71*
G04*
G04 #@! TF.SameCoordinates,38FC9672-5BFE-4C4D-A481-017CD4E88717*
G04*
G04*
G04 #@! TF.FilePolarity,Positive*
G04*
G01*
G75*
%ADD13C,0.200*%
%ADD18C,0.500*%
%ADD58R,1.525X0.650*%
%ADD59R,0.600X1.500*%
%ADD60R,1.500X0.600*%
%ADD61R,0.900X1.000*%
%ADD62R,1.000X0.900*%
%ADD63R,1.000X1.000*%
%ADD64R,1.000X1.000*%
%ADD65R,1.600X1.500*%
%ADD66R,1.300X3.400*%
%ADD67R,1.500X0.600*%
%ADD68R,1.750X1.000*%
%ADD69R,1.200X0.600*%
%ADD70R,1.321X0.559*%
%ADD71R,1.321X0.508*%
%ADD72R,0.750X2.050*%
%ADD73R,1.528X0.650*%
%ADD74R,0.600X1.500*%
%ADD75R,1.300X1.800*%
%ADD76R,1.000X1.750*%
%ADD77R,2.050X2.050*%
%ADD78R,2.200X3.050*%
%ADD79R,1.020X2.160*%
%ADD80R,8.330X6.990*%
%ADD81R,1.235X1.910*%
%ADD82R,1.200X1.500*%
%ADD83R,1.400X1.640*%
%ADD84R,1.800X2.000*%
%ADD85C,1.000*%
%ADD86C,0.800*%
%ADD87C,0.600*%
%ADD88R,1.500X1.500*%
%ADD89C,1.500*%
%ADD90C,1.800*%
G04:AMPARAMS|DCode=91|XSize=1.8mm|YSize=1.8mm|CornerRadius=0mm|HoleSize=0mm|Usage=FLASHONLY|Rotation=90.000|XOffset=0mm|YOffset=0mm|HoleType=Round|Shape=Octagon|*
%AMOCTAGOND91*
4,1,8,0.450,0.900,-0.450,0.900,-0.900,0.450,-0.900,-0.450,-0.450,-0.900,0.450,-0.900,0.900,-0.450,0.900,0.450,0.450,0.900,0.0*
%
%ADD91OCTAGOND91*%

%ADD92R,1.500X1.500*%
%ADD93C,1.400*%
G04:AMPARAMS|DCode=94|XSize=1.6mm|YSize=1.6mm|CornerRadius=0mm|HoleSize=0mm|Usage=FLASHONLY|Rotation=90.000|XOffset=0mm|YOffset=0mm|HoleType=Round|Shape=Octagon|*
%AMOCTAGOND94*
4,1,8,0.400,0.800,-0.400,0.800,-0.800,0.400,-0.800,-0.400,-0.400,-0.800,0.400,-0.800,0.800,-0.400,0.800,0.400,0.400,0.800,0.0*
%
%ADD94OCTAGOND94*%

%ADD95C,1.600*%
G04:AMPARAMS|DCode=96|XSize=1.6mm|YSize=1.6mm|CornerRadius=0mm|HoleSize=0mm|Usage=FLASHONLY|Rotation=180.000|XOffset=0mm|YOffset=0mm|HoleType=Round|Shape=Octagon|*
%AMOCTAGOND96*
4,1,8,-0.800,0.400,-0.800,-0.400,-0.400,-0.800,0.400,-0.800,0.800,-0.400,0.800,0.400,0.400,0.800,-0.400,0.800,-0.800,0.400,0.0*
%
%ADD96OCTAGOND96*%

G04:AMPARAMS|DCode=97|XSize=1.8mm|YSize=1.8mm|CornerRadius=0mm|HoleSize=0mm|Usage=FLASHONLY|Rotation=0.000|XOffset=0mm|YOffset=0mm|HoleType=Round|Shape=Octagon|*
%AMOCTAGOND97*
4,1,8,0.900,-0.450,0.900,0.450,0.450,0.900,-0.450,0.900,-0.900,0.450,-0.900,-0.450,-0.450,-0.900,0.450,-0.900,0.900,-0.450,0.0*
%
%ADD97OCTAGOND97*%

%ADD98C,2.100*%
%ADD99C,0.650*%
%ADD100C,0.700*%
G36*
X206792Y64962D02*
X206974Y64886D01*
X207137Y64777D01*
X207277Y64637D01*
X207386Y64474D01*
X207462Y64292D01*
X207465Y64276D01*
X207500Y64000D01*
Y64000D01*
X207500Y64000D01*
X207500Y64000D01*
X207500Y21500D01*
X207500Y21297D01*
X207447Y20894D01*
X207342Y20501D01*
X207186Y20126D01*
X206983Y19774D01*
X206736Y19452D01*
X206448Y19164D01*
X206126Y18917D01*
X205774Y18714D01*
X205399Y18558D01*
X205006Y18453D01*
X204695Y18412D01*
X204400Y18400D01*
X204400Y18400D01*
X184913D01*
X148819D01*
X148699Y18520D01*
X148551Y18606D01*
X148386Y18650D01*
X148214D01*
X148049Y18606D01*
X147901Y18520D01*
X147789Y18408D01*
X147069D01*
X146208Y19269D01*
Y22140D01*
X146498Y22163D01*
Y22163D01*
X146987D01*
Y21563D01*
X147033Y21329D01*
X147166Y21130D01*
X147517Y20779D01*
X147716Y20646D01*
X147950Y20599D01*
X155522D01*
X155550Y20576D01*
Y20514D01*
X155594Y20349D01*
X155680Y20201D01*
X155801Y20080D01*
X155949Y19994D01*
X156114Y19950D01*
X156286D01*
X156451Y19994D01*
X156599Y20080D01*
X156711Y20192D01*
X157900D01*
X157900Y20192D01*
X158056Y20223D01*
X158188Y20312D01*
X158988Y21112D01*
X158988Y21112D01*
X159077Y21244D01*
X159108Y21400D01*
X159108Y21400D01*
Y22095D01*
X159796D01*
Y23045D01*
Y23995D01*
X159108D01*
Y25183D01*
X159077Y25339D01*
X158988Y25471D01*
X158645Y25815D01*
X158759Y26092D01*
X164295D01*
X164435Y25979D01*
X164449Y25626D01*
X164412Y25588D01*
X164323Y25456D01*
X164292Y25300D01*
X164292Y25300D01*
Y21111D01*
X164180Y20999D01*
X164094Y20851D01*
X164050Y20686D01*
Y20514D01*
X164094Y20349D01*
X164180Y20201D01*
X164301Y20080D01*
X164449Y19994D01*
X164614Y19950D01*
X164786D01*
X164951Y19994D01*
X165099Y20080D01*
X165220Y20201D01*
X165306Y20349D01*
X165350Y20514D01*
Y20686D01*
X165306Y20851D01*
X165220Y20999D01*
X165108Y21111D01*
Y25131D01*
X165127Y25150D01*
X165286D01*
X165451Y25194D01*
X165599Y25280D01*
X165720Y25401D01*
X165806Y25549D01*
X165850Y25714D01*
Y25886D01*
X165855Y25892D01*
X183845D01*
X183850Y25886D01*
Y25714D01*
X183894Y25549D01*
X183980Y25401D01*
X184101Y25280D01*
X184249Y25194D01*
X184414Y25150D01*
X184586D01*
X184751Y25194D01*
X184899Y25280D01*
X185011Y25392D01*
X185779D01*
X185933Y25119D01*
X185926Y25092D01*
X185801Y25020D01*
X185680Y24899D01*
X185594Y24751D01*
X185550Y24586D01*
Y24414D01*
X185555Y24395D01*
X185379Y24121D01*
X185337Y24095D01*
X185137D01*
Y21995D01*
X185626D01*
Y21051D01*
X185672Y20817D01*
X185805Y20619D01*
X186156Y20267D01*
X186355Y20135D01*
X186589Y20088D01*
X195300D01*
X195534Y20135D01*
X195733Y20267D01*
X196241Y20775D01*
X196373Y20974D01*
X196420Y21208D01*
Y21995D01*
X196901D01*
Y24095D01*
X196623D01*
X196449Y24395D01*
X196458Y24428D01*
Y24599D01*
X196414Y24765D01*
X196328Y24913D01*
X196207Y25034D01*
X196106Y25092D01*
X196108Y25254D01*
X196159Y25392D01*
X199800D01*
X199800Y25392D01*
X199956Y25423D01*
X200089Y25512D01*
X201188Y26612D01*
X201188Y26612D01*
X201277Y26744D01*
X201308Y26900D01*
X201308Y26900D01*
Y31700D01*
X201308Y31700D01*
X201277Y31856D01*
X201188Y31988D01*
X201188Y31988D01*
X200387Y32790D01*
X200255Y32878D01*
X200099Y32909D01*
X200099Y32909D01*
X195702D01*
X195490Y33121D01*
Y33301D01*
X195478Y33462D01*
X195693Y33762D01*
X200861D01*
X201892Y32731D01*
Y26500D01*
X201892Y26500D01*
X201923Y26344D01*
X202012Y26212D01*
X202562Y25662D01*
X202562Y25662D01*
X202694Y25573D01*
X202850Y25542D01*
X202850Y25542D01*
X202956D01*
X202980Y25501D01*
X203101Y25380D01*
X203249Y25294D01*
X203414Y25250D01*
X203586D01*
X203751Y25294D01*
X203899Y25380D01*
X204020Y25501D01*
X204106Y25649D01*
X204150Y25814D01*
Y25986D01*
X204106Y26151D01*
X204020Y26299D01*
X203899Y26420D01*
X203751Y26506D01*
X203586Y26550D01*
X203414D01*
X203249Y26506D01*
X203101Y26420D01*
X202821Y26556D01*
X202708Y26669D01*
Y32900D01*
X202708Y32900D01*
X202677Y33056D01*
X202588Y33188D01*
X202588Y33188D01*
X201319Y34458D01*
X201186Y34547D01*
X201030Y34578D01*
X201030Y34578D01*
X195680D01*
X195468Y34790D01*
X195468Y34970D01*
X195336Y35215D01*
X195336Y35270D01*
Y35721D01*
X194686D01*
X194036D01*
Y35289D01*
X193994Y35295D01*
X193736Y35557D01*
Y36671D01*
X192336D01*
X192236Y36671D01*
X192036Y36888D01*
Y37151D01*
X192150Y37404D01*
X192336Y37404D01*
X193592D01*
X193750Y37404D01*
X194009Y37504D01*
X194400D01*
Y38204D01*
Y38904D01*
X194009D01*
X193750Y39004D01*
X193622Y39300D01*
Y39471D01*
X193578Y39636D01*
X193492Y39784D01*
X193371Y39905D01*
X193223Y39991D01*
X193058Y40035D01*
X192887D01*
X192721Y39991D01*
X192573Y39905D01*
X192452Y39784D01*
X192367Y39636D01*
X192322Y39471D01*
Y39300D01*
X192150Y39004D01*
X192036Y38805D01*
X191433D01*
X191212Y38997D01*
Y40597D01*
X189812D01*
X189512Y40597D01*
X189412Y40597D01*
X188012D01*
Y39106D01*
X187414Y38508D01*
X186612D01*
Y38805D01*
X185064D01*
X182457Y41411D01*
X182572Y41689D01*
X193435D01*
X195712Y39412D01*
X195844Y39323D01*
X196000Y39292D01*
X198889D01*
X199001Y39180D01*
X199149Y39094D01*
X199314Y39050D01*
X199486D01*
X199651Y39094D01*
X199799Y39180D01*
X199920Y39301D01*
X200006Y39449D01*
X200050Y39614D01*
Y39786D01*
X200006Y39951D01*
X199920Y40099D01*
X199799Y40220D01*
X199651Y40306D01*
X199486Y40350D01*
X199314D01*
X199149Y40306D01*
X199001Y40220D01*
X198889Y40108D01*
X196169D01*
X193892Y42385D01*
X193760Y42473D01*
X193604Y42504D01*
X193604Y42504D01*
X171473D01*
X170164Y43813D01*
X170216Y44152D01*
X170258Y44215D01*
X170283Y44252D01*
X170306Y44369D01*
Y46568D01*
X180849D01*
X180919Y46400D01*
X180946Y46268D01*
X180822Y46083D01*
X180776Y45849D01*
Y45166D01*
X180287D01*
Y43066D01*
X182487D01*
Y43290D01*
X182787Y43471D01*
X182799Y43468D01*
X182970D01*
X183135Y43512D01*
X183284Y43598D01*
X183405Y43719D01*
X183490Y43867D01*
X183535Y44032D01*
Y44204D01*
X183490Y44369D01*
X183405Y44517D01*
X183284Y44638D01*
X183135Y44724D01*
X182970Y44768D01*
X182799D01*
X182787Y44765D01*
X182487Y44953D01*
Y45166D01*
X181999D01*
Y45588D01*
X192147D01*
X192218Y45517D01*
Y45166D01*
X191730D01*
Y43066D01*
X193930D01*
Y43381D01*
X193959Y43414D01*
X194230Y43540D01*
X194274Y43514D01*
X194439Y43470D01*
X194610D01*
X194776Y43514D01*
X194924Y43600D01*
X195039Y43715D01*
X195066Y43714D01*
X195339Y43630D01*
Y43200D01*
X195382Y42985D01*
X195503Y42803D01*
X197459Y40848D01*
X197641Y40726D01*
X197856Y40683D01*
X203596D01*
Y38954D01*
X205496D01*
Y40683D01*
X205751D01*
X205966Y40726D01*
X206148Y40848D01*
X206897Y41596D01*
X207018Y41778D01*
X207061Y41993D01*
Y50650D01*
X207018Y50865D01*
X206897Y51047D01*
X205489Y52454D01*
X205496Y52479D01*
Y52729D01*
X205431Y52971D01*
X205306Y53188D01*
X205129Y53364D01*
X204913Y53489D01*
X204671Y53554D01*
X204421D01*
X204179Y53489D01*
X203963Y53364D01*
X203786Y53188D01*
X203661Y52971D01*
X203596Y52729D01*
Y52479D01*
X203661Y52238D01*
X203786Y52021D01*
X203963Y51844D01*
X204179Y51719D01*
X204421Y51654D01*
X204671D01*
X204696Y51661D01*
X205264Y51093D01*
X205080Y50853D01*
X204913Y50949D01*
X204671Y51014D01*
X204421D01*
X204179Y50949D01*
X203963Y50824D01*
X203786Y50648D01*
X203661Y50431D01*
X203596Y50189D01*
Y49939D01*
X203661Y49698D01*
X203786Y49481D01*
X203963Y49304D01*
X204179Y49179D01*
X204421Y49114D01*
X204671D01*
X204913Y49179D01*
X205129Y49304D01*
X205306Y49481D01*
X205431Y49698D01*
X205496Y49939D01*
Y50189D01*
X205431Y50431D01*
X205335Y50598D01*
X205575Y50782D01*
X205939Y50418D01*
Y42225D01*
X205724Y42009D01*
X205455Y42165D01*
X205496Y42319D01*
Y42569D01*
X205431Y42811D01*
X205306Y43028D01*
X205129Y43204D01*
X204913Y43329D01*
X204671Y43394D01*
X204421D01*
X204179Y43329D01*
X203963Y43204D01*
X203814Y43056D01*
X198609D01*
X198373Y43292D01*
Y47899D01*
X198327Y48133D01*
X198194Y48332D01*
X197901Y48625D01*
X198016Y48903D01*
X201663D01*
X201878Y48945D01*
X202060Y49067D01*
X203003Y50010D01*
X203125Y50192D01*
X203167Y50407D01*
Y54339D01*
X204765D01*
X204979Y54382D01*
X205161Y54503D01*
X205454Y54796D01*
X205576Y54978D01*
X205619Y55193D01*
Y65000D01*
X206500D01*
X206598Y65000D01*
X206792Y64962D01*
D02*
G37*
G36*
X161539Y65000D02*
Y58500D01*
X161582Y58285D01*
X161703Y58103D01*
X162701Y57106D01*
X162577Y56806D01*
X161046D01*
Y57872D01*
X161000Y58106D01*
X160867Y58305D01*
X160516Y58656D01*
X160317Y58789D01*
X160083Y58835D01*
X159018D01*
Y60100D01*
X159517D01*
Y60535D01*
X159817Y60560D01*
X159864Y60548D01*
X160035D01*
X160200Y60592D01*
X160349Y60677D01*
X160470Y60798D01*
X160555Y60947D01*
X160599Y61112D01*
Y61283D01*
X160555Y61448D01*
X160470Y61597D01*
X160349Y61718D01*
X160200Y61803D01*
X160035Y61847D01*
X159864D01*
X159817Y61835D01*
X159553Y61992D01*
X159517Y62039D01*
Y62200D01*
X159029D01*
Y62849D01*
X158982Y63083D01*
X158850Y63281D01*
X158498Y63633D01*
X158300Y63765D01*
X158066Y63812D01*
X147712D01*
X147478Y63765D01*
X147280Y63633D01*
X146928Y63281D01*
X146795Y63083D01*
X146749Y62849D01*
Y62200D01*
X146261D01*
Y60100D01*
X148461D01*
Y60538D01*
X148972D01*
X149055Y60516D01*
X149226D01*
X149391Y60560D01*
X149540Y60646D01*
X149661Y60767D01*
X149746Y60915D01*
X149791Y61080D01*
Y61251D01*
X149746Y61417D01*
X149661Y61565D01*
X149540Y61686D01*
X149391Y61772D01*
X149226Y61816D01*
X149055D01*
X148890Y61772D01*
X148872Y61762D01*
X148461D01*
Y62200D01*
X147972D01*
Y62588D01*
X157805D01*
Y62200D01*
X157317D01*
Y60100D01*
X157794D01*
Y58575D01*
X157841Y58341D01*
X157974Y58142D01*
X158325Y57791D01*
X158524Y57658D01*
X158758Y57612D01*
X159823D01*
Y56806D01*
X158448D01*
X135471Y56806D01*
Y57170D01*
X133895D01*
X133871Y57170D01*
X133589Y57127D01*
X133571Y57127D01*
X132605D01*
X132490Y57364D01*
X132474Y57427D01*
X132552Y57561D01*
X132596Y57726D01*
Y57898D01*
X132552Y58063D01*
X132466Y58211D01*
X132345Y58332D01*
X132197Y58418D01*
X132032Y58462D01*
X131861D01*
X131695Y58418D01*
X131547Y58332D01*
X131435Y58220D01*
X130414D01*
X130156Y58319D01*
X130129Y58520D01*
X130164Y58529D01*
X130255Y58554D01*
X130403Y58639D01*
X130524Y58760D01*
X130610Y58908D01*
X130654Y59074D01*
Y59245D01*
X130610Y59410D01*
X130603Y59422D01*
Y59777D01*
X130926Y60100D01*
X132333D01*
Y62200D01*
X130133D01*
Y60893D01*
X129646Y60406D01*
X129524Y60224D01*
X129482Y60010D01*
Y59554D01*
X129399Y59410D01*
X129354Y59245D01*
Y59074D01*
X129399Y58908D01*
X129484Y58760D01*
X129605Y58639D01*
X129753Y58554D01*
X129845Y58529D01*
X129879Y58520D01*
X129853Y58319D01*
X129594Y58220D01*
X128659D01*
X128659Y58220D01*
X128503Y58189D01*
X128370Y58100D01*
X128370Y58100D01*
X128232Y57962D01*
X127932Y58087D01*
Y58285D01*
X127901Y58442D01*
X127813Y58574D01*
X127813Y58574D01*
X126692Y59695D01*
X126559Y59784D01*
X126403Y59815D01*
X126403Y59815D01*
X119807D01*
X119807Y59815D01*
X119651Y59784D01*
X119519Y59695D01*
X119519Y59695D01*
X116540Y56717D01*
X108025D01*
Y57109D01*
X106625D01*
X106325Y57109D01*
X106225Y57109D01*
X104825D01*
Y55589D01*
X104825Y55509D01*
X104828Y55211D01*
Y53743D01*
X104828Y53690D01*
X104869Y53407D01*
Y51860D01*
X106269D01*
X106569Y51860D01*
X106669Y51860D01*
X108069D01*
Y52342D01*
X112995D01*
X113109Y52065D01*
X112552Y51508D01*
X97690D01*
X97072Y52126D01*
X97171Y52426D01*
X97171D01*
Y54026D01*
X95771D01*
X95471Y54026D01*
X95371Y54026D01*
X93971D01*
Y52426D01*
X94266D01*
Y51805D01*
X94257Y51800D01*
X94052Y51595D01*
X93907Y51344D01*
X93832Y51064D01*
Y50775D01*
X93907Y50495D01*
X94052Y50244D01*
X94257Y50039D01*
X94508Y49895D01*
X94787Y49820D01*
X95077D01*
X95357Y49895D01*
X95608Y50039D01*
X95813Y50244D01*
X95957Y50495D01*
X96032Y50775D01*
Y51064D01*
X95957Y51344D01*
X95813Y51595D01*
X95608Y51800D01*
X95387Y51927D01*
Y52386D01*
X95671Y52426D01*
X95830Y52426D01*
X96013Y52200D01*
X96044Y52044D01*
X96132Y51912D01*
X97233Y50812D01*
X97365Y50723D01*
X97521Y50692D01*
X97521Y50692D01*
X98694D01*
Y49065D01*
X98394Y48947D01*
X98357Y48984D01*
X98209Y49070D01*
X98043Y49114D01*
X97872D01*
X97707Y49070D01*
X97559Y48984D01*
X97438Y48863D01*
X97352Y48715D01*
X97308Y48550D01*
Y48378D01*
X97352Y48213D01*
X97438Y48065D01*
X97559Y47944D01*
X97707Y47858D01*
X97872Y47814D01*
X98043D01*
X98209Y47858D01*
X98357Y47944D01*
X98394Y47981D01*
X98694Y47863D01*
Y44067D01*
X97676D01*
Y43844D01*
X95888D01*
X95813Y43975D01*
X95608Y44180D01*
X95357Y44325D01*
X95077Y44400D01*
X94787D01*
X94508Y44325D01*
X94257Y44180D01*
X94052Y43975D01*
X93986Y43860D01*
X93339D01*
X93273Y43975D01*
X93068Y44180D01*
X92817Y44325D01*
X92537Y44400D01*
X92247D01*
X91968Y44325D01*
X91717Y44180D01*
X91512Y43975D01*
X91446Y43860D01*
X90799D01*
X90733Y43975D01*
X90528Y44180D01*
X90277Y44325D01*
X89997Y44400D01*
X89707D01*
X89428Y44325D01*
X89177Y44180D01*
X88972Y43975D01*
X88906Y43860D01*
X88259D01*
X88193Y43975D01*
X87988Y44180D01*
X87737Y44325D01*
X87457Y44400D01*
X87167D01*
X86888Y44325D01*
X86820Y44286D01*
X86520Y44459D01*
Y49760D01*
X86820Y49934D01*
X86888Y49895D01*
X87167Y49820D01*
X87457D01*
X87737Y49895D01*
X87988Y50039D01*
X88193Y50244D01*
X88337Y50495D01*
X88412Y50775D01*
Y51064D01*
X88337Y51344D01*
X88193Y51595D01*
X87988Y51800D01*
X87854Y51877D01*
Y52315D01*
X88074D01*
Y53815D01*
X88074D01*
Y54015D01*
X88074D01*
Y55515D01*
X87982D01*
X87939Y55570D01*
Y55742D01*
X87895Y55907D01*
X87810Y56055D01*
X87689Y56176D01*
X87540Y56262D01*
X87452Y56285D01*
X87491Y56585D01*
X89244D01*
X89386Y56314D01*
X89378Y56285D01*
X89249Y56211D01*
X89128Y56090D01*
X89042Y55942D01*
X88970Y55674D01*
X88925Y55508D01*
X88925D01*
X88925Y55231D01*
Y54108D01*
X88925Y53808D01*
X88925Y53708D01*
Y52308D01*
X89228D01*
Y51829D01*
X89177Y51800D01*
X88972Y51595D01*
X88827Y51344D01*
X88752Y51064D01*
Y50775D01*
X88827Y50495D01*
X88972Y50244D01*
X89177Y50039D01*
X89428Y49895D01*
X89707Y49820D01*
X89997D01*
X90277Y49895D01*
X90528Y50039D01*
X90733Y50244D01*
X90877Y50495D01*
X90952Y50775D01*
Y51064D01*
X90877Y51344D01*
X90733Y51595D01*
X90528Y51800D01*
X90349Y51903D01*
Y52308D01*
X90525D01*
Y53708D01*
X90525Y54008D01*
X90525Y54108D01*
Y55508D01*
X90373D01*
X90298Y55605D01*
Y55777D01*
X90254Y55942D01*
X90168Y56090D01*
X90047Y56211D01*
X89918Y56285D01*
X89910Y56314D01*
X90052Y56585D01*
X91860D01*
X91942Y56430D01*
X91966Y56285D01*
X91880Y56199D01*
X91794Y56051D01*
X91750Y55886D01*
Y55714D01*
X91615Y55540D01*
X91615D01*
Y54140D01*
X91615Y53840D01*
X91615Y53740D01*
Y52340D01*
X91843D01*
Y51873D01*
X91717Y51800D01*
X91512Y51595D01*
X91367Y51344D01*
X91292Y51064D01*
Y50775D01*
X91367Y50495D01*
X91512Y50244D01*
X91717Y50039D01*
X91968Y49895D01*
X92247Y49820D01*
X92537D01*
X92817Y49895D01*
X93068Y50039D01*
X93273Y50244D01*
X93417Y50495D01*
X93492Y50775D01*
Y51064D01*
X93417Y51344D01*
X93273Y51595D01*
X93068Y51800D01*
X92965Y51859D01*
Y52340D01*
X93215D01*
Y53740D01*
X93215Y54040D01*
X93215Y54140D01*
Y55540D01*
X93215D01*
X93050Y55714D01*
Y55886D01*
X93006Y56051D01*
X92920Y56199D01*
X92834Y56285D01*
X92858Y56430D01*
X92940Y56585D01*
X98993D01*
X98993Y56585D01*
X99149Y56616D01*
X99282Y56705D01*
X99827Y57250D01*
X99986D01*
X100151Y57294D01*
X100299Y57380D01*
X100420Y57501D01*
X100506Y57649D01*
X100550Y57814D01*
Y57986D01*
X100506Y58151D01*
X100420Y58299D01*
X100299Y58420D01*
X100151Y58506D01*
X99986Y58550D01*
X99814D01*
X99649Y58506D01*
X99501Y58420D01*
X99380Y58299D01*
X99294Y58151D01*
X99250Y57986D01*
Y57827D01*
X98824Y57401D01*
X89441D01*
X89246Y57701D01*
X89250Y57714D01*
Y57886D01*
X89206Y58051D01*
X89120Y58199D01*
X88999Y58320D01*
X88851Y58406D01*
X88686Y58450D01*
X88514D01*
X88349Y58406D01*
X88201Y58320D01*
X88089Y58208D01*
X86719D01*
X86719Y58208D01*
X86563Y58177D01*
X86431Y58088D01*
X85474Y57131D01*
X85386Y56999D01*
X85354Y56843D01*
X85354Y56843D01*
Y41302D01*
X84030D01*
Y41113D01*
X82834D01*
X82619Y41070D01*
X82437Y40948D01*
X82257Y40768D01*
X81690D01*
X81544Y41007D01*
X81544D01*
X81544Y41007D01*
X81379Y41307D01*
X81387Y41337D01*
Y41509D01*
X81342Y41674D01*
X81257Y41822D01*
X81136Y41943D01*
X80988Y42029D01*
X80822Y42073D01*
X80651D01*
X80486Y42029D01*
X80338Y41943D01*
X80217Y41822D01*
X80131Y41674D01*
X80087Y41509D01*
Y41337D01*
X80095Y41307D01*
X79944Y41007D01*
X79685Y40907D01*
X79294D01*
Y40207D01*
Y39507D01*
X79685D01*
X79944Y39407D01*
X80102Y39407D01*
X81544D01*
Y39647D01*
X82489D01*
X82704Y39689D01*
X82886Y39811D01*
X83066Y39991D01*
X83808D01*
X84030Y39802D01*
Y39602D01*
X84030D01*
Y38102D01*
X84126D01*
X84215Y37986D01*
Y37814D01*
X84133Y37708D01*
X79231D01*
X78614Y38325D01*
Y38488D01*
X78569Y38653D01*
X78484Y38801D01*
X78363Y38922D01*
X78215Y39008D01*
X78049Y39052D01*
X77878D01*
X77713Y39008D01*
X77565Y38922D01*
X77444Y38801D01*
X77372Y38678D01*
X77216Y38709D01*
X77216Y38709D01*
X76270D01*
X76155Y38986D01*
X77684Y40515D01*
X77684Y40515D01*
X77772Y40647D01*
X77803Y40803D01*
X77803Y40803D01*
Y46227D01*
X81788Y50212D01*
X81788Y50212D01*
X81877Y50344D01*
X81908Y50500D01*
Y56885D01*
X81908Y56885D01*
X81877Y57041D01*
X81788Y57173D01*
X81073Y57888D01*
X80941Y57977D01*
X80785Y58008D01*
X80785Y58008D01*
X78611D01*
X78499Y58120D01*
X78351Y58206D01*
X78186Y58250D01*
X78014D01*
X77849Y58206D01*
X77701Y58120D01*
X77580Y57999D01*
X77494Y57851D01*
X77450Y57686D01*
Y57514D01*
X77494Y57349D01*
X77580Y57201D01*
X77701Y57080D01*
X77849Y56994D01*
X78014Y56950D01*
X78186D01*
X78351Y56994D01*
X78499Y57080D01*
X78611Y57192D01*
X80616D01*
X81092Y56716D01*
Y50669D01*
X77107Y46684D01*
X77019Y46552D01*
X76988Y46396D01*
X76988Y46396D01*
Y45923D01*
X75853D01*
X75708Y46163D01*
Y47800D01*
X75708Y47800D01*
X75677Y47956D01*
X75588Y48088D01*
X75588Y48088D01*
X74386Y49291D01*
X74271Y49367D01*
X74268Y49389D01*
X74420Y49667D01*
X78775D01*
X78990Y49710D01*
X79172Y49832D01*
X79465Y50124D01*
X79586Y50306D01*
X79629Y50521D01*
Y52423D01*
X79743D01*
Y55073D01*
X78393D01*
Y52423D01*
X78508D01*
Y50789D01*
X68720D01*
X68560Y50948D01*
X68355Y51067D01*
X68126Y51128D01*
X67889D01*
X67660Y51067D01*
X67455Y50948D01*
X67296Y50789D01*
X66461D01*
Y55268D01*
X66872Y55679D01*
X67727D01*
Y55396D01*
X69027D01*
X69327Y55396D01*
X69566Y55249D01*
Y54461D01*
X68293D01*
X68078Y54418D01*
X67896Y54297D01*
X67603Y54004D01*
X67482Y53822D01*
X67439Y53607D01*
Y53472D01*
X67288Y53321D01*
X67169Y53115D01*
X67108Y52887D01*
Y52650D01*
X67169Y52421D01*
X67288Y52215D01*
X67455Y52048D01*
X67660Y51929D01*
X67889Y51868D01*
X68126D01*
X68355Y51929D01*
X68560Y52048D01*
X68728Y52215D01*
X68846Y52421D01*
X68908Y52650D01*
Y52887D01*
X68867Y53039D01*
X68978Y53251D01*
X69064Y53339D01*
X70773D01*
Y52423D01*
X72123D01*
Y55073D01*
X72123D01*
X72191Y55345D01*
X73245D01*
X73313Y55073D01*
X73313Y55045D01*
Y52423D01*
X74663D01*
Y55045D01*
X74663Y55073D01*
X74731Y55345D01*
X75050D01*
Y55639D01*
X75468D01*
X75769Y55338D01*
X75853Y55073D01*
X75853D01*
Y52423D01*
X77203D01*
Y55073D01*
X77089D01*
Y55372D01*
X77046Y55586D01*
X76925Y55768D01*
X76097Y56597D01*
X75915Y56718D01*
X75700Y56761D01*
X75050D01*
Y56945D01*
X74860D01*
Y58043D01*
X74818Y58257D01*
X74696Y58439D01*
X74089Y59047D01*
X73907Y59168D01*
X73692Y59211D01*
X56785D01*
X56570Y59168D01*
X56388Y59047D01*
X56350Y59008D01*
X56053Y59033D01*
X55912Y59297D01*
X55916Y59303D01*
X55959Y59518D01*
Y60139D01*
X56498D01*
Y62239D01*
X54500D01*
Y63500D01*
X54500Y63648D01*
X54558Y63938D01*
X54671Y64211D01*
X54835Y64456D01*
X55044Y64665D01*
X55289Y64829D01*
X55562Y64942D01*
X55852Y65000D01*
X56000Y65000D01*
X56000Y65000D01*
X161539Y65000D01*
D02*
G37*
G36*
X40438Y63942D02*
X40711Y63829D01*
X40956Y63665D01*
X41165Y63456D01*
X41329Y63211D01*
X41442Y62938D01*
X41474Y62776D01*
X41500Y62500D01*
Y62500D01*
X41500Y62500D01*
X41500Y62500D01*
Y55500D01*
X41505Y55402D01*
X41543Y55210D01*
X41618Y55029D01*
X41727Y54866D01*
X41866Y54727D01*
X42029Y54618D01*
X42210Y54543D01*
X42402Y54505D01*
X42500Y54500D01*
X47696D01*
Y52744D01*
X47738Y52529D01*
X47860Y52347D01*
X49103Y51103D01*
X49285Y50982D01*
X49500Y50939D01*
X58100D01*
X58315Y50982D01*
X58497Y51103D01*
X58878Y51485D01*
X59000Y51667D01*
X59043Y51882D01*
Y52423D01*
X59157D01*
Y55073D01*
X57807D01*
Y52423D01*
X57921D01*
Y52114D01*
X57868Y52061D01*
X49732D01*
X48817Y52976D01*
Y54500D01*
X52727D01*
Y52423D01*
X54077D01*
Y54966D01*
X54160Y55048D01*
X54323Y55293D01*
X54435Y55565D01*
X54493Y55853D01*
X54500Y56000D01*
Y56483D01*
X54800Y56607D01*
X55381Y56026D01*
Y55073D01*
X55267D01*
Y52423D01*
X56617D01*
Y55073D01*
X56503D01*
Y56258D01*
X56460Y56473D01*
X56338Y56655D01*
X55417Y57576D01*
X55542Y57876D01*
X56571D01*
X56786Y57918D01*
X56968Y58040D01*
X57017Y58089D01*
X64241D01*
X64356Y57812D01*
X63512Y56968D01*
X63423Y56835D01*
X63392Y56679D01*
X63392Y56679D01*
Y49900D01*
X63392Y49900D01*
X63423Y49744D01*
X63512Y49612D01*
X64409Y48714D01*
X64409Y48714D01*
X64542Y48626D01*
X64563Y48621D01*
X64534Y48321D01*
X63509D01*
X63275Y48275D01*
X63077Y48142D01*
X62467Y47533D01*
X62335Y47334D01*
X62288Y47100D01*
Y45212D01*
X61697D01*
Y45923D01*
X61633D01*
Y46573D01*
X61587Y46807D01*
X61454Y47006D01*
X61103Y47357D01*
X60904Y47490D01*
X60670Y47536D01*
X44169D01*
X43935Y47490D01*
X43736Y47357D01*
X43373Y46994D01*
X42738D01*
X42238Y46494D01*
Y45494D01*
X42532Y45200D01*
Y42231D01*
X41908Y41606D01*
X38998D01*
Y42384D01*
X38306D01*
Y42966D01*
X38282Y43149D01*
X38211Y43319D01*
X38099Y43465D01*
X37631Y43934D01*
X37484Y44046D01*
X37314Y44117D01*
X37131Y44141D01*
X35587D01*
X35532Y44196D01*
Y46957D01*
X35716Y47181D01*
X35936Y47181D01*
X37336D01*
Y49941D01*
X37232D01*
Y52234D01*
X37468Y52470D01*
X42883D01*
Y52376D01*
X44383D01*
Y53976D01*
X42883D01*
Y53882D01*
X37176D01*
X36993Y53858D01*
X36823Y53787D01*
X36677Y53675D01*
X36027Y53025D01*
X35915Y52879D01*
X35844Y52709D01*
X35820Y52526D01*
Y50165D01*
X35636Y49941D01*
X35416Y49941D01*
X34095D01*
X34016Y49941D01*
X33758Y49841D01*
X33716Y49841D01*
X33276D01*
Y48561D01*
Y47281D01*
X33758Y47281D01*
X34016Y47181D01*
X34120Y47077D01*
Y43903D01*
X34144Y43721D01*
X34215Y43550D01*
X34327Y43404D01*
X34795Y42935D01*
X34942Y42823D01*
X35112Y42753D01*
X35295Y42729D01*
X36599D01*
X36642Y42684D01*
X36513Y42384D01*
X36198D01*
Y39768D01*
X36196Y39766D01*
X35844Y39415D01*
X35712Y39216D01*
X35665Y38982D01*
Y34728D01*
X35590Y34650D01*
X35365Y34529D01*
X35286Y34550D01*
X35114D01*
X34949Y34506D01*
X34801Y34420D01*
X34680Y34299D01*
X34594Y34151D01*
X34550Y33986D01*
Y33814D01*
X34594Y33649D01*
X34680Y33501D01*
X34773Y33407D01*
Y30590D01*
X34763Y30584D01*
X34642Y30463D01*
X34557Y30315D01*
X34512Y30150D01*
Y29979D01*
X34557Y29813D01*
X34642Y29665D01*
X34763Y29544D01*
X34911Y29459D01*
X35077Y29414D01*
X35248D01*
X35365Y29446D01*
X35525Y29370D01*
X35665Y29258D01*
Y22479D01*
X28980D01*
Y22800D01*
X29468D01*
Y24900D01*
X29133D01*
X28991Y25200D01*
X29017Y25295D01*
Y25467D01*
X28973Y25632D01*
X28887Y25780D01*
X28766Y25901D01*
X28618Y25987D01*
X28453Y26031D01*
X28281D01*
X28116Y25987D01*
X27968Y25901D01*
X27847Y25780D01*
X27761Y25632D01*
X27717Y25467D01*
Y25295D01*
X27743Y25200D01*
X27598Y24900D01*
X27268D01*
Y22800D01*
X27756D01*
Y22219D01*
X27803Y21985D01*
X27935Y21787D01*
X28287Y21435D01*
X28485Y21302D01*
X28719Y21256D01*
X38624D01*
X38858Y21302D01*
X39057Y21435D01*
X39408Y21787D01*
X39541Y21985D01*
X39587Y22219D01*
Y22800D01*
X40076D01*
Y24900D01*
X39587D01*
Y25209D01*
X39594Y25222D01*
X39639Y25387D01*
Y25558D01*
X39594Y25723D01*
X39509Y25872D01*
X39388Y25993D01*
X39240Y26078D01*
X39074Y26122D01*
X38903D01*
X38738Y26078D01*
X38590Y25993D01*
X38469Y25872D01*
X38383Y25723D01*
X38339Y25558D01*
Y25387D01*
X38364Y25293D01*
Y24900D01*
X37876D01*
Y22800D01*
X38364D01*
Y22479D01*
X36889D01*
Y38024D01*
X37189Y38115D01*
X37201Y38096D01*
X37494Y37803D01*
X37676Y37682D01*
X37891Y37639D01*
X39570D01*
X39782Y37427D01*
Y37405D01*
X39882Y37146D01*
Y36755D01*
X41282D01*
Y37146D01*
X41382Y37405D01*
Y37443D01*
X41391Y37452D01*
X41810D01*
X41819Y37443D01*
Y37276D01*
X41819Y37176D01*
Y35776D01*
X42096D01*
Y35592D01*
X42143Y35358D01*
X42275Y35160D01*
X42488Y34947D01*
Y34440D01*
X42266D01*
Y32090D01*
X43866D01*
Y34440D01*
X43712D01*
Y35200D01*
X43665Y35434D01*
X43533Y35633D01*
X43506Y35659D01*
X43419Y35776D01*
Y37176D01*
X43419Y37476D01*
X43419Y37576D01*
Y38976D01*
X41819D01*
Y38776D01*
X41382D01*
Y39005D01*
X39782D01*
Y38761D01*
X38998D01*
Y40194D01*
X42200D01*
X42383Y40218D01*
X42553Y40289D01*
X42699Y40401D01*
X43737Y41439D01*
X43850Y41585D01*
X43920Y41755D01*
X43944Y41938D01*
Y45200D01*
X44238Y45494D01*
Y46129D01*
X44422Y46313D01*
X60410D01*
Y45923D01*
X60347D01*
Y43273D01*
X60410D01*
Y42878D01*
X60457Y42644D01*
X60490Y42593D01*
X60330Y42293D01*
X59945D01*
Y42387D01*
X58545D01*
X58245Y42387D01*
X58145Y42387D01*
X56745D01*
X56503Y42526D01*
Y43273D01*
X56617D01*
Y45923D01*
X55267D01*
Y43273D01*
X55381D01*
Y42058D01*
X55424Y41844D01*
X55545Y41662D01*
X56016Y41191D01*
X56198Y41069D01*
X56413Y41027D01*
X56598D01*
X56745Y40787D01*
X56852Y40487D01*
X56824Y40382D01*
Y40211D01*
X56868Y40046D01*
X56954Y39897D01*
X57075Y39776D01*
X57044Y39449D01*
X57018Y39409D01*
X52236D01*
X52080Y39378D01*
X51947Y39289D01*
X51947Y39289D01*
X51849Y39191D01*
X51572Y39306D01*
Y39805D01*
X51572Y39805D01*
X51406Y40105D01*
X51421Y40158D01*
Y40329D01*
X51376Y40494D01*
X51291Y40643D01*
X51170Y40764D01*
X51022Y40849D01*
X50856Y40894D01*
X50685D01*
X50520Y40849D01*
X50372Y40764D01*
X50250Y40643D01*
X50165Y40494D01*
X50121Y40329D01*
Y40158D01*
X50135Y40105D01*
X49972Y39805D01*
X49713Y39705D01*
X49322D01*
Y39005D01*
Y38305D01*
X49713D01*
X49972Y38205D01*
X50130Y38205D01*
X50471D01*
X50586Y37928D01*
X46404Y33746D01*
X46104Y33871D01*
Y35000D01*
X46213Y35109D01*
X46299Y35257D01*
X46343Y35423D01*
Y35594D01*
X46299Y35759D01*
X46213Y35907D01*
X46092Y36028D01*
X45944Y36114D01*
X45779Y36158D01*
X45608D01*
X45442Y36114D01*
X45410Y36095D01*
X45121Y36238D01*
X45110Y36252D01*
Y36572D01*
X45159Y36621D01*
X45501Y36680D01*
X45649Y36594D01*
X45814Y36550D01*
X45986D01*
X46151Y36594D01*
X46299Y36680D01*
X46420Y36801D01*
X46506Y36949D01*
X46550Y37114D01*
Y37286D01*
X46506Y37451D01*
X46420Y37599D01*
X46299Y37720D01*
X46151Y37806D01*
X45986Y37850D01*
X45814D01*
X45649Y37806D01*
X45501Y37720D01*
X45389Y37608D01*
X45161D01*
X45161Y37608D01*
X45005Y37577D01*
X44873Y37488D01*
X44873Y37488D01*
X44414Y37029D01*
X44325Y36897D01*
X44294Y36741D01*
X44294Y36741D01*
Y29049D01*
X44294Y29049D01*
X44325Y28893D01*
X44414Y28760D01*
X47200Y25974D01*
X47200Y25974D01*
X47332Y25886D01*
X47488Y25855D01*
X47488Y25855D01*
X48652D01*
X48814Y25555D01*
X48806Y25541D01*
X48761Y25376D01*
Y25204D01*
X48763Y25200D01*
X48574Y24915D01*
X48545Y24900D01*
X48360D01*
Y22800D01*
X48848D01*
Y22126D01*
X48895Y21892D01*
X49027Y21693D01*
X49379Y21342D01*
X49577Y21209D01*
X49811Y21163D01*
X59649D01*
X59883Y21209D01*
X60081Y21342D01*
X60433Y21693D01*
X60565Y21892D01*
X60612Y22126D01*
Y22594D01*
X61062D01*
Y24694D01*
X60565D01*
Y25047D01*
X60595Y25158D01*
Y25329D01*
X60551Y25494D01*
X60465Y25642D01*
X60344Y25763D01*
X60196Y25849D01*
X60030Y25893D01*
X59859D01*
X59694Y25849D01*
X59546Y25763D01*
X59425Y25642D01*
X59339Y25494D01*
X59295Y25329D01*
Y25158D01*
X59339Y24992D01*
X59342Y24988D01*
Y24694D01*
X58862D01*
Y22594D01*
X58648Y22386D01*
X50072D01*
Y22800D01*
X50560D01*
Y24900D01*
X50074D01*
Y25213D01*
X50061Y25274D01*
Y25376D01*
X50017Y25541D01*
X50009Y25555D01*
X50171Y25855D01*
X56500D01*
Y25744D01*
X56544Y25579D01*
X56630Y25431D01*
X56751Y25310D01*
X56899Y25224D01*
X57064Y25180D01*
X57236D01*
X57401Y25224D01*
X57549Y25310D01*
X57670Y25431D01*
X57756Y25579D01*
X57800Y25744D01*
Y25916D01*
X57756Y26081D01*
X57670Y26229D01*
X57549Y26350D01*
X57401Y26436D01*
X57236Y26480D01*
X57064D01*
X57059Y26479D01*
X56986Y26551D01*
X56854Y26640D01*
X56698Y26671D01*
X56698Y26671D01*
X53440D01*
X53370Y26747D01*
X53246Y26971D01*
X53262Y27055D01*
Y29189D01*
X55446Y31372D01*
X55696Y31198D01*
X55670Y31101D01*
Y30930D01*
X55715Y30765D01*
X55800Y30617D01*
X55921Y30496D01*
X56069Y30410D01*
X56235Y30366D01*
X56393D01*
X60148Y26612D01*
X60280Y26523D01*
X60436Y26492D01*
X60436Y26492D01*
X66089D01*
X66201Y26380D01*
X66349Y26294D01*
X66514Y26250D01*
X66686D01*
X66851Y26294D01*
X66999Y26380D01*
X67053Y26434D01*
X67332Y26346D01*
X67353Y26330D01*
Y23938D01*
X67400Y23704D01*
X67532Y23505D01*
X67819Y23219D01*
X68017Y23086D01*
X68251Y23040D01*
X68417D01*
X68456Y23032D01*
X68943D01*
Y22594D01*
X69431D01*
Y22083D01*
X69478Y21849D01*
X69611Y21651D01*
X69962Y21299D01*
X70160Y21167D01*
X70395Y21120D01*
X79437D01*
X79671Y21167D01*
X79870Y21299D01*
X80221Y21651D01*
X80354Y21849D01*
X80400Y22083D01*
Y22594D01*
X80889D01*
Y24694D01*
X80683D01*
X80636Y24724D01*
X80467Y24994D01*
X80474Y25021D01*
Y25193D01*
X80430Y25358D01*
X80344Y25506D01*
X80223Y25627D01*
X80075Y25713D01*
X79910Y25757D01*
X79739D01*
X79573Y25713D01*
X79425Y25627D01*
X79304Y25506D01*
X79219Y25358D01*
X79174Y25193D01*
Y25021D01*
X79177Y25012D01*
Y24694D01*
X78689D01*
Y22594D01*
X78568Y22344D01*
X76344D01*
X76223Y22594D01*
X76223Y22644D01*
Y24694D01*
X74023D01*
Y22644D01*
X74023Y22594D01*
X73902Y22344D01*
X71264D01*
X71143Y22594D01*
Y24694D01*
X70645D01*
Y24979D01*
X70673Y25084D01*
Y25255D01*
X70629Y25420D01*
X70543Y25568D01*
X70422Y25689D01*
X70274Y25775D01*
X70108Y25819D01*
X69937D01*
X69772Y25775D01*
X69624Y25689D01*
X69503Y25568D01*
X69417Y25420D01*
X69373Y25255D01*
Y25084D01*
X69397Y24994D01*
X69240Y24694D01*
X68943D01*
Y24255D01*
X68577D01*
Y28221D01*
X68765D01*
Y28408D01*
X69230D01*
Y28220D01*
X70830D01*
Y28220D01*
X71130Y28376D01*
X71132Y28375D01*
X71303D01*
X71468Y28419D01*
X71617Y28505D01*
X71738Y28626D01*
X71823Y28774D01*
X71867Y28940D01*
Y29111D01*
X71823Y29276D01*
X71738Y29424D01*
X71617Y29545D01*
X71468Y29631D01*
X71303Y29675D01*
X71132D01*
X71130Y29675D01*
X70950Y29761D01*
X70830Y29874D01*
X70830Y30120D01*
Y31420D01*
X70590D01*
Y31723D01*
X70606Y31749D01*
X70650Y31914D01*
Y32086D01*
X70606Y32251D01*
X70520Y32399D01*
X70651Y32692D01*
X74089D01*
X74201Y32580D01*
X74349Y32494D01*
X74514Y32450D01*
X74686D01*
X74851Y32494D01*
X74999Y32580D01*
X75120Y32701D01*
X75206Y32849D01*
X75250Y33014D01*
Y33186D01*
X75206Y33351D01*
X75120Y33499D01*
X74999Y33620D01*
X74851Y33706D01*
X74686Y33750D01*
X74514D01*
X74349Y33706D01*
X74201Y33620D01*
X74089Y33508D01*
X73638D01*
X73415Y33779D01*
Y33950D01*
X73370Y34116D01*
X73285Y34264D01*
X73256Y34292D01*
X73381Y34592D01*
X77189D01*
X77301Y34480D01*
X77449Y34394D01*
X77614Y34350D01*
X77786D01*
X77951Y34394D01*
X78099Y34480D01*
X78220Y34601D01*
X78306Y34749D01*
X78350Y34914D01*
Y35086D01*
X78584Y35343D01*
X92000D01*
X92082Y35232D01*
X92148Y35043D01*
X92094Y34951D01*
X92050Y34786D01*
Y34614D01*
X92094Y34449D01*
X92180Y34301D01*
X92301Y34180D01*
X92449Y34094D01*
X92614Y34050D01*
X92786D01*
X92951Y34094D01*
X93099Y34180D01*
X93220Y34301D01*
X93306Y34449D01*
X93350Y34614D01*
Y34786D01*
X93306Y34951D01*
X93252Y35043D01*
X93318Y35232D01*
X93400Y35343D01*
X98380D01*
X98666Y35058D01*
Y34212D01*
X98509Y33985D01*
X98400Y33950D01*
X98314D01*
X98149Y33906D01*
X98001Y33820D01*
X97889Y33708D01*
X96017D01*
X96017Y33708D01*
X95861Y33677D01*
X95729Y33588D01*
X95729Y33588D01*
X94912Y32771D01*
X94823Y32639D01*
X94792Y32483D01*
X94792Y32483D01*
Y26045D01*
X94792Y26045D01*
X94823Y25889D01*
X94912Y25756D01*
X95856Y24812D01*
X95856Y24812D01*
X95907Y24778D01*
X95816Y24478D01*
X95673Y24478D01*
X93752D01*
Y22378D01*
X95951D01*
Y24212D01*
X95951Y24425D01*
X95952Y24428D01*
X96104Y24636D01*
X96158Y24692D01*
X96194Y24692D01*
X98071D01*
X98278Y24478D01*
X98278Y24392D01*
Y24039D01*
X97986D01*
X97830Y24081D01*
X97658D01*
X97493Y24037D01*
X97345Y23951D01*
X97224Y23830D01*
X97138Y23682D01*
X97094Y23517D01*
Y23346D01*
X97138Y23180D01*
X97224Y23032D01*
X97345Y22911D01*
X97493Y22826D01*
X97658Y22781D01*
X97830D01*
X97959Y22816D01*
X98278D01*
Y22378D01*
X98888D01*
Y21912D01*
X90383D01*
Y22378D01*
X90871D01*
Y24478D01*
X90383D01*
Y24795D01*
X90422Y24939D01*
Y25111D01*
X90378Y25276D01*
X90292Y25424D01*
X90171Y25545D01*
X90023Y25631D01*
X89857Y25675D01*
X89686D01*
X89521Y25631D01*
X89373Y25545D01*
X89252Y25424D01*
X89166Y25276D01*
X89122Y25111D01*
Y24939D01*
X89160Y24798D01*
Y24478D01*
X88672D01*
Y22378D01*
X89160D01*
Y21651D01*
X89206Y21417D01*
X89339Y21219D01*
X89690Y20867D01*
X89889Y20735D01*
X90123Y20688D01*
X99149D01*
X99383Y20735D01*
X99581Y20867D01*
X99933Y21219D01*
X100065Y21417D01*
X100112Y21651D01*
Y22378D01*
X100478D01*
Y24392D01*
X100478Y24478D01*
X100684Y24692D01*
X102549D01*
X102549Y24692D01*
X102705Y24723D01*
X102837Y24812D01*
X103134Y25109D01*
X103591D01*
X103648Y25066D01*
X103801Y24809D01*
X103789Y24763D01*
Y24591D01*
X103701Y24478D01*
X103358D01*
Y22378D01*
X105558D01*
Y23962D01*
X105734Y24094D01*
X105858Y24147D01*
X105984Y24113D01*
X106155D01*
X106321Y24158D01*
X106469Y24243D01*
X106590Y24364D01*
X106675Y24513D01*
X106720Y24678D01*
Y24849D01*
X106675Y25014D01*
X106590Y25163D01*
X106469Y25284D01*
X106420Y25312D01*
X106404Y25396D01*
X106315Y25528D01*
X106315Y25528D01*
X106038Y25805D01*
X105906Y25893D01*
X105750Y25924D01*
X105750Y25924D01*
X103763D01*
X103645Y26080D01*
X103581Y26224D01*
X103614Y26393D01*
Y26665D01*
X104443D01*
Y27635D01*
X104444Y27915D01*
X104709Y27999D01*
X105040D01*
X105255Y28041D01*
X105437Y28163D01*
X105937Y28663D01*
X105965Y28682D01*
X106319Y28688D01*
X106844Y28163D01*
X107026Y28041D01*
X107240Y27999D01*
X107477D01*
X107743Y27915D01*
X107743Y27635D01*
Y26665D01*
X109868D01*
X109868Y26665D01*
X110167Y26663D01*
X110214Y26650D01*
X110386D01*
X110551Y26694D01*
X110699Y26780D01*
X110820Y26901D01*
X111084Y26975D01*
X111171Y26939D01*
X111249Y26894D01*
X111414Y26850D01*
X111586D01*
X111751Y26894D01*
X111899Y26980D01*
X112020Y27101D01*
X112106Y27249D01*
X112150Y27414D01*
Y27586D01*
X112106Y27751D01*
X112047Y27852D01*
X112103Y28022D01*
X112192Y28152D01*
X112671D01*
X113512Y27312D01*
X113512Y27312D01*
X113644Y27223D01*
X113800Y27192D01*
X142000D01*
X142000Y27192D01*
X142156Y27223D01*
X142288Y27312D01*
X143650Y28673D01*
X145595Y26729D01*
X145565Y26520D01*
X145514Y26385D01*
X145401Y26320D01*
X145280Y26199D01*
X145194Y26051D01*
X145150Y25886D01*
Y25714D01*
X145194Y25549D01*
X145280Y25401D01*
X145392Y25289D01*
Y19100D01*
X145392Y19100D01*
X145423Y18944D01*
X145512Y18812D01*
X145646Y18677D01*
X145531Y18400D01*
X7100Y18400D01*
X6992D01*
X6779Y18442D01*
X6579Y18525D01*
X6399Y18646D01*
X6246Y18799D01*
X6125Y18979D01*
X6042Y19179D01*
X6000Y19392D01*
Y21328D01*
X16549D01*
X16783Y21374D01*
X16981Y21507D01*
X17333Y21858D01*
X17465Y22057D01*
X17512Y22291D01*
Y22800D01*
X17946D01*
Y24900D01*
X17458D01*
Y25211D01*
X17498Y25359D01*
Y25530D01*
X17453Y25696D01*
X17368Y25844D01*
X17247Y25965D01*
X17098Y26051D01*
X16933Y26095D01*
X16762D01*
X16597Y26051D01*
X16448Y25965D01*
X16327Y25844D01*
X16242Y25696D01*
X16198Y25530D01*
Y25359D01*
X16234Y25222D01*
Y24900D01*
X15746D01*
Y22800D01*
X15623Y22551D01*
X10764D01*
X10640Y22800D01*
X10640Y22851D01*
Y24900D01*
X8440D01*
Y22851D01*
X8440Y22800D01*
X8316Y22551D01*
X6000D01*
Y22900D01*
X6850D01*
Y23850D01*
Y24800D01*
X6000D01*
Y40994D01*
X18800D01*
X18983Y41018D01*
X19153Y41089D01*
X19299Y41201D01*
X20505Y42407D01*
X20617Y42553D01*
X20688Y42723D01*
X20712Y42906D01*
Y43931D01*
X20800Y44019D01*
X28925D01*
X29107Y44043D01*
X29278Y44113D01*
X29424Y44225D01*
X30225Y45027D01*
X30338Y45173D01*
X30408Y45343D01*
X30432Y45526D01*
Y46688D01*
X30616Y46814D01*
X30755Y46748D01*
Y44054D01*
X30308Y43606D01*
X28869D01*
X28686Y43582D01*
X28516Y43511D01*
X28369Y43399D01*
X27901Y42931D01*
X27789Y42784D01*
X27718Y42614D01*
X27694Y42431D01*
Y42384D01*
X26898D01*
Y41265D01*
X22195D01*
X22012Y41241D01*
X21842Y41170D01*
X21695Y41058D01*
X21227Y40589D01*
X21115Y40443D01*
X21044Y40273D01*
X21020Y40090D01*
Y38190D01*
X20395D01*
Y35540D01*
X23045D01*
Y38190D01*
X22432D01*
Y39798D01*
X22487Y39853D01*
X26898D01*
Y38734D01*
X29698D01*
Y42194D01*
X30600D01*
X30783Y42218D01*
X30953Y42289D01*
X31099Y42401D01*
X31960Y43262D01*
X32073Y43408D01*
X32143Y43578D01*
X32167Y43761D01*
Y46901D01*
X32236Y47181D01*
X32495Y47281D01*
X32536Y47281D01*
X32976D01*
Y48561D01*
Y49841D01*
X32495Y49841D01*
X32236Y49941D01*
X32158Y49941D01*
X30836D01*
X30616Y49941D01*
X30316Y49941D01*
X28916D01*
Y47181D01*
X29020D01*
Y45819D01*
X28632Y45431D01*
X20800D01*
X20712Y45519D01*
Y46894D01*
X20688Y47077D01*
X20617Y47247D01*
X20505Y47393D01*
X19299Y48599D01*
X19153Y48711D01*
X18983Y48782D01*
X18800Y48806D01*
X16647D01*
X16592Y48861D01*
Y50290D01*
X16686D01*
Y50384D01*
X17290D01*
X17473Y50408D01*
X17643Y50479D01*
X17790Y50591D01*
X18467Y51269D01*
X18579Y51415D01*
X18650Y51585D01*
X18674Y51768D01*
Y52151D01*
X18882D01*
Y54251D01*
X17082D01*
Y52151D01*
X17082D01*
X17061Y51860D01*
X16998Y51796D01*
X16686D01*
Y51890D01*
X15244D01*
X15086Y51890D01*
X14827Y51790D01*
X14436D01*
Y51090D01*
Y50390D01*
X14827D01*
X15068Y50297D01*
X15180Y50171D01*
Y48569D01*
X15204Y48386D01*
X15274Y48216D01*
X15387Y48069D01*
X15855Y47601D01*
X16001Y47489D01*
X16172Y47418D01*
X16354Y47394D01*
X18508D01*
X19300Y46602D01*
Y45519D01*
X19006Y45225D01*
Y44225D01*
X19300Y43931D01*
Y43198D01*
X18508Y42406D01*
X6000D01*
Y51000D01*
Y51098D01*
X6038Y51292D01*
X6114Y51474D01*
X6223Y51637D01*
X6363Y51777D01*
X6526Y51886D01*
X6708Y51962D01*
X6901Y52000D01*
X7000D01*
X7000Y52000D01*
X11000Y52000D01*
Y55500D01*
Y55648D01*
X11058Y55938D01*
X11171Y56211D01*
X11335Y56456D01*
X11544Y56665D01*
X11789Y56829D01*
X12062Y56942D01*
X12352Y57000D01*
X12500D01*
X12500Y57000D01*
X25000D01*
X25098Y57005D01*
X25290Y57043D01*
X25471Y57118D01*
X25634Y57227D01*
X25773Y57366D01*
X25882Y57529D01*
X25957Y57710D01*
X25995Y57902D01*
X26000Y58000D01*
X26000Y58000D01*
Y62500D01*
Y62648D01*
X26058Y62938D01*
X26171Y63210D01*
X26335Y63456D01*
X26544Y63665D01*
X26789Y63829D01*
X27062Y63942D01*
X27352Y64000D01*
X27500D01*
X27500Y64000D01*
X35806Y64000D01*
Y63998D01*
X35850Y63832D01*
X35936Y63684D01*
X36057Y63563D01*
X36205Y63478D01*
X36370Y63433D01*
X36541D01*
X36707Y63478D01*
X36855Y63563D01*
X36976Y63684D01*
X37052Y63817D01*
X37279Y63990D01*
X37493Y63947D01*
X39125D01*
X39339Y63990D01*
X39355Y64000D01*
X40000D01*
X40148Y64000D01*
X40438Y63942D01*
D02*
G37*
G36*
X193239Y65000D02*
Y62200D01*
X192812D01*
Y62800D01*
X192765Y63034D01*
X192633Y63233D01*
X192112Y63753D01*
X191914Y63886D01*
X191679Y63932D01*
X180399D01*
X180366Y63939D01*
X169833D01*
X169599Y63892D01*
X169400Y63760D01*
X169049Y63408D01*
X168916Y63210D01*
X168870Y62976D01*
Y62200D01*
X168381D01*
Y60100D01*
X170581D01*
Y60532D01*
X170881Y60656D01*
X170894Y60644D01*
X171042Y60558D01*
X171208Y60514D01*
X171379D01*
X171544Y60558D01*
X171692Y60644D01*
X171814Y60765D01*
X171899Y60913D01*
X171943Y61078D01*
Y61249D01*
X171899Y61415D01*
X171814Y61563D01*
X171692Y61684D01*
X171544Y61769D01*
X171379Y61814D01*
X171208D01*
X171042Y61769D01*
X170894Y61684D01*
X170881Y61671D01*
X170581Y61795D01*
Y62200D01*
X170093D01*
Y62715D01*
X180106D01*
Y62200D01*
X179618D01*
Y60100D01*
X181818D01*
Y60538D01*
X182450D01*
X182510Y60550D01*
X182586D01*
X182751Y60594D01*
X182899Y60680D01*
X183020Y60801D01*
X183106Y60949D01*
X183150Y61114D01*
Y61286D01*
X183106Y61451D01*
X183020Y61599D01*
X182899Y61720D01*
X182751Y61806D01*
X182586Y61850D01*
X182414D01*
X182249Y61806D01*
X182173Y61762D01*
X181818D01*
Y62200D01*
X181329D01*
Y62709D01*
X191426D01*
X191588Y62547D01*
Y62200D01*
X191055D01*
Y60100D01*
X191319D01*
X191585Y59945D01*
Y59774D01*
X191629Y59608D01*
X191715Y59460D01*
X191836Y59339D01*
X191984Y59253D01*
X192149Y59209D01*
X192321D01*
X192486Y59253D01*
X192634Y59339D01*
X192755Y59460D01*
X192841Y59608D01*
X192871Y59722D01*
X192951Y59808D01*
X193185Y59932D01*
X193239Y59914D01*
Y57956D01*
X192526Y57243D01*
X192415Y57318D01*
X192200Y57361D01*
X182186D01*
X181971Y57318D01*
X181790Y57197D01*
X180991Y56398D01*
X180869Y56216D01*
X180827Y56001D01*
Y54866D01*
X180287D01*
Y52766D01*
X182487D01*
Y54866D01*
X181948D01*
Y55769D01*
X182418Y56239D01*
X191968D01*
X192269Y55938D01*
Y54866D01*
X191730D01*
Y52766D01*
X192269D01*
Y51970D01*
X192311Y51756D01*
X192433Y51574D01*
X193017Y50990D01*
X192892Y50690D01*
X188903D01*
X188404Y51189D01*
X188222Y51311D01*
X188007Y51354D01*
X185961D01*
X185746Y51311D01*
X185564Y51189D01*
X185272Y50897D01*
X185150Y50715D01*
X185107Y50500D01*
Y49446D01*
X185024Y49302D01*
X184980Y49136D01*
Y48965D01*
X184901Y48863D01*
X174803D01*
X173612Y50053D01*
Y55449D01*
X173565Y55683D01*
X173433Y55881D01*
X173081Y56233D01*
X172883Y56365D01*
X172649Y56412D01*
X168267D01*
X168264Y56419D01*
X168452Y56719D01*
X178339D01*
Y54866D01*
X177747D01*
Y52766D01*
X179947D01*
Y54866D01*
X179461D01*
Y56987D01*
X179418Y57202D01*
X179297Y57384D01*
X179004Y57677D01*
X178822Y57798D01*
X178607Y57841D01*
X177913D01*
X177834Y57944D01*
Y58116D01*
X177790Y58281D01*
X177704Y58429D01*
X177583Y58550D01*
X177435Y58636D01*
X177270Y58680D01*
X177098D01*
X176933Y58636D01*
X176785Y58550D01*
X176664Y58429D01*
X176578Y58281D01*
X176534Y58116D01*
Y57944D01*
X176454Y57841D01*
X166945D01*
X166683Y58022D01*
Y58193D01*
X166639Y58359D01*
X166553Y58507D01*
X166432Y58628D01*
X166284Y58714D01*
X166119Y58758D01*
X165948D01*
X165782Y58714D01*
X165634Y58628D01*
X165513Y58507D01*
X165428Y58359D01*
X165383Y58193D01*
Y58022D01*
X165121Y57841D01*
X163552D01*
X163141Y58252D01*
X163296Y58521D01*
X163353Y58506D01*
X163525D01*
X163690Y58550D01*
X163768Y58595D01*
X164007D01*
X164222Y58638D01*
X164404Y58759D01*
X164697Y59052D01*
X164818Y59234D01*
X164861Y59449D01*
Y60100D01*
X165501D01*
Y62200D01*
X163301D01*
Y60100D01*
X163339D01*
X163353Y59806D01*
X163188Y59762D01*
X163040Y59676D01*
X162961Y59597D01*
X162790Y59631D01*
X162661Y59706D01*
Y65000D01*
X193239Y65000D01*
D02*
G37*
G36*
X158448Y56500D02*
X159823D01*
Y52150D01*
X159080D01*
X158891Y52338D01*
X158791Y52597D01*
Y52988D01*
X158091D01*
X157391D01*
Y52597D01*
X157334Y52449D01*
X157289Y52433D01*
X156989Y52643D01*
Y53955D01*
X155389D01*
Y53816D01*
X155065D01*
X154853Y54028D01*
Y54054D01*
X154753Y54312D01*
Y54704D01*
X154053D01*
Y54854D01*
D01*
Y54704D01*
X153353D01*
Y54424D01*
X153211Y54307D01*
X153096Y54336D01*
X153002Y54406D01*
Y55197D01*
X151102D01*
Y51197D01*
X153002D01*
Y52336D01*
X153253Y52454D01*
X154853D01*
Y52593D01*
X155238D01*
X155389Y52355D01*
X155389Y52055D01*
Y50755D01*
X156989D01*
Y50935D01*
X157291D01*
Y50738D01*
X158891D01*
Y50927D01*
X160083D01*
X160317Y50973D01*
X160516Y51106D01*
X160867Y51457D01*
X161000Y51656D01*
X161046Y51890D01*
Y56500D01*
X167568D01*
X167655Y56334D01*
X167675Y56200D01*
X167357Y55881D01*
X167224Y55683D01*
X167177Y55449D01*
Y54366D01*
X167005Y54137D01*
X166707Y53993D01*
X166536D01*
X166371Y53949D01*
X166223Y53863D01*
X166102Y53742D01*
X166016Y53594D01*
X165972Y53428D01*
Y53257D01*
X166016Y53092D01*
X166102Y52944D01*
X166223Y52823D01*
X166371Y52737D01*
X166536Y52693D01*
X166707D01*
X167005Y52537D01*
Y52537D01*
X168505D01*
Y52537D01*
X168545D01*
X168845Y52295D01*
Y51986D01*
X168283D01*
Y50386D01*
X170000D01*
Y48886D01*
X168283D01*
Y48752D01*
X166520D01*
X166461Y48741D01*
X165670D01*
Y49691D01*
X164680D01*
X164620Y49702D01*
X163192D01*
Y49732D01*
X161592D01*
Y49594D01*
X161052D01*
Y49732D01*
X159452D01*
Y48332D01*
X159452Y48032D01*
X159152Y47903D01*
X159044Y47932D01*
X158873D01*
X158707Y47887D01*
X158559Y47802D01*
X158438Y47681D01*
X158352Y47533D01*
X158308Y47367D01*
Y47196D01*
X158352Y47031D01*
X158438Y46883D01*
X158559Y46762D01*
X158707Y46676D01*
X158873Y46632D01*
X159044D01*
X159152Y46661D01*
X159452Y46532D01*
Y46532D01*
X161052D01*
Y47932D01*
X161052Y48232D01*
X161190Y48370D01*
X161592D01*
Y48232D01*
X163192D01*
Y48479D01*
X164620D01*
X164680Y48491D01*
X165470D01*
Y47799D01*
X165470Y47691D01*
X165333Y47691D01*
X164770D01*
Y47341D01*
X165570D01*
Y47432D01*
X165570Y47541D01*
X165708Y47541D01*
X166461D01*
X166520Y47529D01*
X168283D01*
Y47286D01*
X170000D01*
Y44369D01*
X169723Y44254D01*
X169688Y44288D01*
X169556Y44377D01*
X169400Y44408D01*
X169400Y44408D01*
X162194D01*
X162037Y44377D01*
X161905Y44288D01*
X161905Y44288D01*
X153818Y36201D01*
X153518Y36325D01*
X153518Y36619D01*
X153518Y36719D01*
Y38119D01*
X153126D01*
Y39782D01*
X153126Y39782D01*
X153095Y39938D01*
X153006Y40070D01*
X152927Y40150D01*
X153051Y40450D01*
X153418D01*
Y40950D01*
X152718D01*
X152018D01*
X152018Y40450D01*
X151735Y40408D01*
X151358Y40786D01*
Y41409D01*
X151258D01*
Y41609D01*
X150458D01*
X149658D01*
Y41409D01*
X149558D01*
Y40209D01*
X150781D01*
X151278Y39712D01*
X151278Y39712D01*
X151411Y39623D01*
X151567Y39592D01*
X151567Y39592D01*
X152310D01*
Y38119D01*
X151918D01*
Y36719D01*
X151918Y36419D01*
X151918Y36319D01*
Y34919D01*
X151918Y34919D01*
X152010Y34619D01*
X152005Y34601D01*
Y34430D01*
X152049Y34264D01*
X152135Y34116D01*
X152256Y33995D01*
X152404Y33910D01*
X152569Y33865D01*
X152741D01*
X152906Y33910D01*
X153054Y33995D01*
X153175Y34116D01*
X153261Y34264D01*
X153305Y34430D01*
Y34601D01*
X153300Y34619D01*
X153477Y34895D01*
X153518Y34919D01*
Y35261D01*
X153862D01*
X153863Y35261D01*
X154019Y35292D01*
X154151Y35381D01*
X162362Y43592D01*
X166260D01*
X166288Y43568D01*
X166418Y43292D01*
X166394Y43251D01*
X166350Y43086D01*
Y42914D01*
X166394Y42749D01*
X166430Y42688D01*
X166328Y42447D01*
X166269Y42388D01*
X166156D01*
Y40788D01*
X167656D01*
Y40788D01*
X167856D01*
Y40788D01*
X169356D01*
Y41180D01*
X170000D01*
Y40408D01*
X169422D01*
X169266Y40377D01*
X169133Y40288D01*
X169133Y40288D01*
X168157Y39312D01*
X167999D01*
X167833Y39268D01*
X167685Y39182D01*
X167564Y39061D01*
X167478Y38913D01*
X167434Y38748D01*
Y38577D01*
X167478Y38411D01*
X167564Y38263D01*
X167685Y38142D01*
X167833Y38057D01*
X167999Y38012D01*
X168170D01*
X168335Y38057D01*
X168483Y38142D01*
X168604Y38263D01*
X168690Y38411D01*
X168734Y38577D01*
Y38736D01*
X169591Y39592D01*
X170000D01*
X170000Y34000D01*
X170000Y33901D01*
X169924Y33717D01*
X169783Y33576D01*
X169771Y33571D01*
X169500Y33500D01*
X169500D01*
X169500Y33500D01*
X169500Y33500D01*
X161543D01*
X161528Y33556D01*
X161443Y33704D01*
X161322Y33825D01*
X161174Y33911D01*
X161008Y33955D01*
X160837D01*
X160672Y33911D01*
X160524Y33825D01*
X160403Y33704D01*
X160317Y33556D01*
X160302Y33500D01*
X153141D01*
X146321D01*
Y37040D01*
X146278Y37255D01*
X146156Y37437D01*
X144402Y39191D01*
X144220Y39313D01*
X144005Y39356D01*
X141728D01*
Y39659D01*
X141728Y39660D01*
X141731Y39959D01*
X142544D01*
Y40018D01*
X142668Y40100D01*
X142844Y40180D01*
X142969Y40146D01*
X143140D01*
X143306Y40190D01*
X143454Y40276D01*
X143575Y40397D01*
X143660Y40545D01*
X143705Y40710D01*
Y40882D01*
X143660Y41047D01*
X143575Y41195D01*
X143454Y41316D01*
X143306Y41402D01*
X143140Y41446D01*
X142969D01*
X142968Y41446D01*
X142671Y41629D01*
X142669Y41643D01*
X142674Y41648D01*
X142882Y41862D01*
X143036D01*
X143201Y41906D01*
X143350Y41992D01*
X143471Y42113D01*
X143556Y42261D01*
X143600Y42426D01*
Y42597D01*
X143556Y42763D01*
X143471Y42911D01*
X143350Y43032D01*
X143201Y43118D01*
X143036Y43162D01*
X142865D01*
X142825Y43151D01*
X142764Y43188D01*
X142525Y43335D01*
X142525Y43335D01*
X142525Y43335D01*
X141083D01*
X140925Y43335D01*
X140666Y43235D01*
X140275D01*
Y42535D01*
Y41835D01*
X140666D01*
X140746Y41804D01*
Y41483D01*
X140682Y41459D01*
X140294D01*
Y40759D01*
Y40059D01*
X140685D01*
X140944Y39959D01*
X140941Y39660D01*
X140028Y39660D01*
X139928Y39660D01*
X139321D01*
X138665Y40317D01*
X138716Y40368D01*
X138802Y40516D01*
X138846Y40682D01*
Y40853D01*
X138802Y41018D01*
X138716Y41166D01*
X138595Y41287D01*
X138447Y41373D01*
X138282Y41417D01*
X138110D01*
X137945Y41373D01*
X137880Y41335D01*
X137525D01*
Y41382D01*
X137425D01*
Y41432D01*
X135525D01*
Y41382D01*
X135425D01*
Y40182D01*
Y39382D01*
Y38582D01*
Y37940D01*
X135353Y37754D01*
X135166Y37682D01*
X130638D01*
X130545Y37869D01*
X130514Y37982D01*
X130550Y38114D01*
Y38286D01*
X130506Y38451D01*
X130420Y38599D01*
X130299Y38720D01*
X130151Y38806D01*
X129986Y38850D01*
X129814D01*
X129649Y38806D01*
X129501Y38720D01*
X129380Y38599D01*
X129294Y38451D01*
X129250Y38286D01*
X128950Y38277D01*
X128934Y38338D01*
X128848Y38486D01*
X128727Y38607D01*
X128579Y38692D01*
X128414Y38737D01*
X128243D01*
X128232Y38734D01*
X127932Y38931D01*
Y45312D01*
X127932Y45312D01*
X127901Y45468D01*
X127813Y45601D01*
X127813Y45601D01*
X123699Y49715D01*
X123813Y49992D01*
X125369D01*
X125369Y49992D01*
X125526Y50023D01*
X125658Y50112D01*
X126213Y50667D01*
X126301Y50799D01*
X126332Y50955D01*
X126581Y51082D01*
X129839D01*
X129929Y50986D01*
X130035Y50782D01*
X130010Y50688D01*
Y50517D01*
X130054Y50352D01*
X130139Y50203D01*
X130260Y50082D01*
X130409Y49997D01*
X130530Y49964D01*
X130581Y49943D01*
X130750Y49686D01*
X130750Y49672D01*
Y49514D01*
X130794Y49349D01*
X130880Y49201D01*
X131001Y49080D01*
X131149Y48994D01*
X131314Y48950D01*
X131486D01*
X131651Y48994D01*
X131729Y49039D01*
X133312D01*
X133526Y49082D01*
X133708Y49203D01*
X134321Y49817D01*
X134443Y49998D01*
X134485Y50213D01*
Y51082D01*
X135166D01*
X135353Y51009D01*
X135425Y50823D01*
Y49782D01*
X135525D01*
Y49732D01*
X137425D01*
Y49782D01*
X137525D01*
Y49821D01*
X140647D01*
X140836Y49632D01*
X140936Y49373D01*
Y48982D01*
X142336D01*
Y49373D01*
X142436Y49632D01*
X142436Y49790D01*
Y51232D01*
X142247D01*
Y52082D01*
X142709Y52543D01*
X143735D01*
X143923Y52355D01*
X144023Y52097D01*
Y51705D01*
X145423D01*
Y52097D01*
X145523Y52355D01*
X145711Y52543D01*
X146802D01*
Y51197D01*
X148702D01*
Y55197D01*
X146802D01*
Y53767D01*
X145523D01*
Y53955D01*
X143923D01*
Y53767D01*
X142455D01*
X142221Y53720D01*
X142023Y53588D01*
X141203Y52768D01*
X141070Y52570D01*
X141024Y52336D01*
Y51232D01*
X140836D01*
Y50942D01*
X139591D01*
Y51470D01*
X139548Y51685D01*
X139427Y51867D01*
X139072Y52221D01*
X138890Y52342D01*
X138676Y52385D01*
X137387D01*
X137351Y52406D01*
X137186Y52450D01*
X137014D01*
X136849Y52406D01*
X136701Y52320D01*
X136580Y52199D01*
X136494Y52051D01*
X136450Y51886D01*
Y51714D01*
X136494Y51549D01*
X136580Y51401D01*
X136699Y51282D01*
X136699Y51274D01*
X136618Y50982D01*
X135583D01*
X135397Y51054D01*
X135325Y51240D01*
Y53182D01*
X135258D01*
Y53970D01*
X135471D01*
Y55470D01*
X135471D01*
Y55670D01*
X135471D01*
Y56500D01*
X158448Y56500D01*
D02*
G37*
G36*
X121001Y51259D02*
X120887Y50982D01*
X119925D01*
Y49782D01*
Y48539D01*
X119554D01*
X119461Y48632D01*
Y49200D01*
X119418Y49415D01*
X119297Y49597D01*
X118799Y50094D01*
X118617Y50215D01*
X118403Y50258D01*
X118201D01*
Y50447D01*
X116601D01*
Y50447D01*
X116373Y50483D01*
X116373Y50483D01*
X116315Y50483D01*
X114931D01*
X114773Y50483D01*
X114514Y50383D01*
X114123D01*
Y49683D01*
Y48983D01*
X114514D01*
X114773Y48883D01*
X114931Y48883D01*
X115899D01*
X115939Y48831D01*
X116001Y48520D01*
X115880Y48399D01*
X115794Y48251D01*
X115750Y48086D01*
Y47914D01*
X115794Y47749D01*
X115880Y47601D01*
X116001Y47480D01*
X116149Y47394D01*
X116314Y47350D01*
X116486D01*
X116601Y47262D01*
Y47247D01*
X117407D01*
X117870Y46785D01*
X118052Y46663D01*
X118266Y46621D01*
X119925D01*
Y46582D01*
X120025D01*
Y46532D01*
X121925D01*
Y46582D01*
X122025D01*
Y47332D01*
X122143Y47417D01*
X122325Y47466D01*
X122449Y47394D01*
X122614Y47350D01*
X122786D01*
X122951Y47394D01*
X123099Y47480D01*
X123220Y47601D01*
X123306Y47749D01*
X123350Y47914D01*
Y48086D01*
X123306Y48251D01*
X123220Y48399D01*
X123099Y48520D01*
X122951Y48606D01*
X122786Y48650D01*
X122614D01*
X122449Y48606D01*
X122325Y48534D01*
X122245Y48547D01*
X122025Y48668D01*
Y49843D01*
X122302Y49958D01*
X127117Y45143D01*
Y37682D01*
X125965D01*
X125884Y37762D01*
X125767Y37982D01*
X125789Y38065D01*
Y38236D01*
X125745Y38401D01*
X125659Y38549D01*
X125538Y38670D01*
X125390Y38756D01*
X125225Y38800D01*
X125053D01*
X124888Y38756D01*
X124740Y38670D01*
X124619Y38549D01*
X124533Y38401D01*
X124489Y38236D01*
Y38065D01*
X124511Y37982D01*
X124385Y37746D01*
X124323Y37682D01*
X122283D01*
X122097Y37754D01*
X122025Y37940D01*
Y38582D01*
Y39382D01*
Y40182D01*
Y40982D01*
Y41782D01*
Y42582D01*
Y43382D01*
Y44182D01*
Y44982D01*
Y46182D01*
X121925D01*
Y46232D01*
X120025D01*
Y46182D01*
X119925D01*
Y45342D01*
X117239D01*
Y46035D01*
X114839D01*
Y43435D01*
X117239D01*
Y44221D01*
X118261D01*
X118375Y43944D01*
X117301Y42869D01*
X117213Y42737D01*
X117182Y42581D01*
X117182Y42581D01*
Y42018D01*
X117139Y41735D01*
X116189D01*
Y40535D01*
Y39268D01*
X116314Y39035D01*
X116290Y39000D01*
X112314D01*
X112159Y39235D01*
X112159Y39300D01*
Y41835D01*
X109759D01*
Y41295D01*
X109459Y41179D01*
X109032Y41606D01*
X109032Y42506D01*
X109244Y42718D01*
X109603D01*
X109818Y42761D01*
X109999Y42883D01*
X110552Y43435D01*
X112159D01*
Y46035D01*
X111454D01*
Y46712D01*
X111635Y46937D01*
X113076D01*
X113235Y46937D01*
X113494Y47037D01*
X113885D01*
Y47737D01*
X114035D01*
D01*
X113885D01*
Y48437D01*
X113494D01*
X113235Y48537D01*
X113076Y48537D01*
X111635D01*
Y48298D01*
X111186D01*
X110971Y48255D01*
X110789Y48133D01*
X110496Y47840D01*
X110375Y47659D01*
X110332Y47444D01*
Y46035D01*
X109759D01*
Y44229D01*
X109371Y43840D01*
X109032D01*
Y44029D01*
X107432D01*
Y43843D01*
X106327D01*
X106112Y43800D01*
X105930Y43678D01*
X105637Y43385D01*
X105516Y43203D01*
X105473Y42989D01*
Y42503D01*
X105405Y42385D01*
X105360Y42219D01*
Y42048D01*
X105405Y41883D01*
X105490Y41735D01*
X105611Y41614D01*
X105760Y41528D01*
X105925Y41484D01*
X106096D01*
X106261Y41528D01*
X106410Y41614D01*
X106531Y41735D01*
X106616Y41883D01*
X106660Y42048D01*
Y42219D01*
X106616Y42385D01*
X106594Y42422D01*
Y42721D01*
X107220D01*
X107432Y42509D01*
Y42329D01*
X107432Y42229D01*
Y40829D01*
X108223D01*
X108913Y40139D01*
X109095Y40017D01*
X109309Y39975D01*
X109759D01*
Y39300D01*
X109759Y39235D01*
X109605Y39000D01*
X101718D01*
X101708Y39010D01*
Y40090D01*
X101708Y40090D01*
X101677Y40246D01*
X101588Y40379D01*
X101588Y40379D01*
X101471Y40496D01*
X101339Y40584D01*
X101183Y40615D01*
X101133Y40908D01*
Y41007D01*
X99633D01*
Y41007D01*
X99433D01*
Y41007D01*
X99000D01*
Y42467D01*
X99176D01*
Y44067D01*
X99000D01*
Y50692D01*
X112721D01*
X112721Y50692D01*
X112877Y50723D01*
X113010Y50812D01*
X114190Y51992D01*
X120268D01*
X121001Y51259D01*
D02*
G37*
G36*
X74892Y47631D02*
Y46095D01*
X74663Y45923D01*
X74592Y45923D01*
X73313D01*
Y43273D01*
X73489D01*
Y42930D01*
X73277Y42718D01*
X73161D01*
X73061Y42718D01*
X71661D01*
Y41118D01*
X71799D01*
Y40612D01*
X63816D01*
X63757Y40887D01*
X63757Y40912D01*
Y41437D01*
X63057D01*
Y41587D01*
X62907D01*
Y42287D01*
X62516D01*
X62257Y42387D01*
X62124D01*
X61960Y42552D01*
X61914Y42786D01*
X61781Y42984D01*
X61764Y43001D01*
X61697Y43273D01*
X61697D01*
Y43988D01*
X62549D01*
X62783Y44035D01*
X62981Y44167D01*
X63333Y44519D01*
X63465Y44717D01*
X63512Y44951D01*
Y46847D01*
X63763Y47098D01*
X67325D01*
X67455Y46968D01*
X67660Y46849D01*
X67889Y46788D01*
X68126D01*
X68355Y46849D01*
X68560Y46968D01*
X68728Y47135D01*
X68846Y47341D01*
X68908Y47570D01*
Y47807D01*
X68846Y48035D01*
X68728Y48241D01*
X68674Y48295D01*
X68798Y48595D01*
X73929D01*
X74892Y47631D01*
D02*
G37*
G36*
X197150Y47646D02*
Y43167D01*
X196850Y43043D01*
X196461Y43432D01*
Y46836D01*
X196418Y47050D01*
X196297Y47232D01*
X196004Y47525D01*
X195822Y47647D01*
X195607Y47689D01*
X186966D01*
X186806Y47989D01*
X186857Y48067D01*
X196729D01*
X197150Y47646D01*
D02*
G37*
G36*
X114105Y36194D02*
Y34706D01*
X113875Y34620D01*
X113805Y34615D01*
X113699Y34720D01*
X113551Y34806D01*
X113386Y34850D01*
X113214D01*
X113030Y34960D01*
Y34960D01*
X111630D01*
X111330Y34960D01*
X111230Y34960D01*
X109868D01*
X109868Y35535D01*
X109768Y35793D01*
Y35835D01*
Y36030D01*
X108805D01*
X107843D01*
Y35793D01*
X107743Y35535D01*
X107743Y35396D01*
Y34285D01*
X107743D01*
Y34265D01*
X107743D01*
Y33015D01*
X107743D01*
Y32995D01*
X107743D01*
Y31745D01*
X107743D01*
Y31725D01*
X107743D01*
Y30755D01*
X107743Y30475D01*
X107743D01*
Y30455D01*
X107743D01*
Y29205D01*
X107645Y29173D01*
X107443Y29151D01*
X107161Y29432D01*
Y31371D01*
X107206Y31449D01*
X107250Y31614D01*
Y31786D01*
X107206Y31951D01*
X107120Y32099D01*
X106999Y32220D01*
X106851Y32306D01*
X106686Y32350D01*
X106514D01*
X106349Y32306D01*
X106201Y32220D01*
X106080Y32099D01*
X105994Y31951D01*
X105950Y31786D01*
Y31614D01*
X105994Y31449D01*
X106039Y31371D01*
Y30862D01*
X105932Y30766D01*
X105739Y30668D01*
X105639Y30695D01*
X105467D01*
X105302Y30651D01*
X105154Y30565D01*
X105033Y30444D01*
X104947Y30296D01*
X104903Y30131D01*
Y29960D01*
X104947Y29794D01*
X104992Y29717D01*
Y29304D01*
X104808Y29120D01*
X104709D01*
X104443Y29205D01*
Y30455D01*
X104444Y30455D01*
Y30475D01*
X104444D01*
X104443Y30755D01*
Y31725D01*
X104444D01*
Y31745D01*
X104443D01*
Y32995D01*
X104444D01*
Y33015D01*
X104443D01*
Y34265D01*
X104444Y34265D01*
Y34285D01*
X104444D01*
X104443Y34565D01*
Y35535D01*
X104444D01*
Y35555D01*
X104443D01*
Y36805D01*
X104724Y36853D01*
X107604D01*
X107842Y36705D01*
X107843Y36553D01*
Y36330D01*
X108805D01*
X109768D01*
X109768Y36705D01*
X110006Y36853D01*
X113446D01*
X114105Y36194D01*
D02*
G37*
G36*
X182584Y39294D02*
X182580Y39199D01*
X182494Y39051D01*
X182450Y38886D01*
Y38780D01*
X182251Y38660D01*
X182161Y38636D01*
X182110Y38636D01*
X180710D01*
Y38539D01*
X180647Y38491D01*
X180476D01*
X180311Y38446D01*
X180163Y38361D01*
X180042Y38240D01*
X179956Y38092D01*
X179912Y37926D01*
Y37755D01*
X179956Y37590D01*
X180042Y37442D01*
X180163Y37321D01*
X180311Y37235D01*
X180476Y37191D01*
X180647D01*
X180710Y37143D01*
Y37036D01*
X181417D01*
X181429Y36741D01*
X181429Y36736D01*
Y36191D01*
X182079D01*
Y35891D01*
X181429D01*
Y35391D01*
X181395Y35106D01*
X181395Y35055D01*
Y34556D01*
X182045D01*
Y34256D01*
X181395D01*
Y33772D01*
X181395Y33706D01*
X181409Y33412D01*
Y32928D01*
X182059D01*
Y32628D01*
X181409D01*
Y32157D01*
X181390Y31865D01*
X181390Y31785D01*
Y31315D01*
X182040D01*
X182690D01*
Y31485D01*
X182990Y31776D01*
Y30365D01*
X184275D01*
X184487Y30153D01*
X184487Y29935D01*
X184587Y29676D01*
Y29440D01*
X186512D01*
Y29676D01*
X186612Y29935D01*
X186612Y30073D01*
Y31185D01*
X186612Y31185D01*
Y31205D01*
X186612D01*
X186612Y31485D01*
Y32455D01*
X186612D01*
Y32475D01*
X186612D01*
Y33725D01*
X186612D01*
Y33745D01*
X186612D01*
Y34995D01*
X186612D01*
Y35015D01*
X186612D01*
Y36265D01*
X186764Y36502D01*
X187404D01*
X187827Y36079D01*
Y28347D01*
X186658D01*
Y28108D01*
X174216D01*
X174125Y28168D01*
X173911Y28211D01*
X150277D01*
X146321Y32167D01*
Y33194D01*
X160279D01*
X160317Y33054D01*
X160403Y32906D01*
X160524Y32785D01*
X160672Y32699D01*
X160837Y32655D01*
X161008D01*
X161174Y32699D01*
X161322Y32785D01*
X161443Y32906D01*
X161528Y33054D01*
X161566Y33194D01*
X169500D01*
X169511Y33196D01*
X169522Y33195D01*
X169549Y33202D01*
X169578Y33204D01*
X169848Y33275D01*
X169867Y33284D01*
X169888Y33288D01*
X169900Y33294D01*
X169938Y33319D01*
X169955Y33327D01*
X169962Y33335D01*
X170000Y33360D01*
X170140Y33500D01*
X170206Y33600D01*
X170283Y33783D01*
X170306Y33901D01*
X170306Y34000D01*
X170306Y39592D01*
X182297D01*
X182584Y39294D01*
D02*
G37*
G36*
X98001Y32780D02*
X98149Y32694D01*
X98296Y32655D01*
X98324Y32636D01*
X98496Y32363D01*
X98452Y32232D01*
X98441Y32226D01*
X98321D01*
X98156Y32182D01*
X98007Y32096D01*
X97886Y31975D01*
X97801Y31827D01*
X97757Y31662D01*
Y31490D01*
X97801Y31325D01*
X97886Y31177D01*
X98007Y31056D01*
X98156Y30970D01*
X98275Y30938D01*
X98385Y30782D01*
X98437Y30664D01*
X98390Y30550D01*
X98388Y30549D01*
X98386Y30550D01*
X98214D01*
X98049Y30506D01*
X97901Y30420D01*
X97780Y30299D01*
X97694Y30151D01*
X97650Y29986D01*
Y29814D01*
X97694Y29649D01*
X97780Y29501D01*
X97901Y29380D01*
X98049Y29294D01*
X98214Y29250D01*
X98262D01*
X98494Y29022D01*
X98386Y28802D01*
X98215D01*
X98049Y28758D01*
X97901Y28672D01*
X97780Y28551D01*
X97695Y28403D01*
X97650Y28238D01*
Y28066D01*
X97695Y27901D01*
X97780Y27753D01*
X97901Y27632D01*
X98049Y27546D01*
X98215Y27502D01*
X98386D01*
X98438Y27516D01*
X98501Y27479D01*
X98738Y27325D01*
X98738Y27325D01*
X98738Y27325D01*
X100138D01*
X100438Y27325D01*
X100538Y27325D01*
X101938D01*
Y27626D01*
X102019Y27680D01*
X102086Y27670D01*
X102319Y27518D01*
Y27042D01*
X102222Y26782D01*
X102067Y26782D01*
X100622D01*
Y26782D01*
X100522Y26682D01*
X99972D01*
Y25982D01*
X99822D01*
Y25832D01*
X99122D01*
Y25508D01*
X96314D01*
X95608Y26214D01*
Y32314D01*
X96186Y32892D01*
X97889D01*
X98001Y32780D01*
D02*
G37*
G36*
X62167Y34887D02*
Y34716D01*
X62212Y34550D01*
X62297Y34402D01*
X62360Y34339D01*
X62420Y34238D01*
X62429Y33940D01*
X62399Y33791D01*
X62374Y33776D01*
X62253Y33655D01*
X62167Y33507D01*
X62123Y33341D01*
Y33170D01*
X62167Y33005D01*
X62253Y32857D01*
X62374Y32736D01*
X62496Y32665D01*
X62531Y32615D01*
X62576Y32446D01*
X62549Y32332D01*
X62449Y32306D01*
X62301Y32220D01*
X62180Y32099D01*
X62094Y31951D01*
X62050Y31786D01*
Y31614D01*
X62094Y31449D01*
X62180Y31301D01*
X62301Y31180D01*
X62449Y31094D01*
X62614Y31050D01*
X62786D01*
X62951Y31094D01*
X63099Y31180D01*
X63220Y31301D01*
X63306Y31449D01*
X63350Y31614D01*
Y31786D01*
X63317Y31908D01*
X64101Y32692D01*
X69349D01*
X69480Y32399D01*
X69394Y32251D01*
X69350Y32086D01*
Y31914D01*
X69394Y31749D01*
X69411Y31720D01*
X69275Y31420D01*
X69230D01*
Y30120D01*
X69230Y29904D01*
X68977Y29706D01*
X68765Y29767D01*
Y29821D01*
X67324D01*
X67165Y29821D01*
X66906Y29721D01*
X66515D01*
Y29021D01*
Y28321D01*
X66906D01*
X67165Y28221D01*
X67353Y28033D01*
Y27470D01*
X67332Y27454D01*
X67053Y27366D01*
X66999Y27420D01*
X66851Y27506D01*
X66686Y27550D01*
X66514D01*
X66349Y27506D01*
X66201Y27420D01*
X66089Y27308D01*
X60605D01*
X56970Y30943D01*
Y31101D01*
X56926Y31267D01*
X56840Y31415D01*
X56719Y31536D01*
X56571Y31622D01*
X56406Y31666D01*
X56235D01*
X56138Y31640D01*
X55964Y31890D01*
X59067Y34993D01*
X62086D01*
X62167Y34887D01*
D02*
G37*
G36*
X193449Y25748D02*
Y25715D01*
X193494Y25549D01*
X193579Y25401D01*
X193700Y25280D01*
X193849Y25195D01*
X194014Y25150D01*
X194185D01*
X194350Y25195D01*
X194499Y25280D01*
X194611Y25392D01*
X195457D01*
X195508Y25254D01*
X195510Y25092D01*
X195409Y25034D01*
X195288Y24913D01*
X195202Y24765D01*
X195158Y24599D01*
Y24428D01*
X195167Y24395D01*
X194993Y24095D01*
X194701D01*
Y21995D01*
X195196D01*
Y21461D01*
X195047Y21312D01*
X186849D01*
Y21995D01*
X187337D01*
Y24095D01*
X186849D01*
Y24411D01*
X186850Y24414D01*
Y24586D01*
X186806Y24751D01*
X186720Y24899D01*
X186599Y25020D01*
X186474Y25092D01*
X186467Y25119D01*
X186621Y25392D01*
X192500D01*
X192500Y25392D01*
X192656Y25423D01*
X192788Y25512D01*
X193149Y25873D01*
X193449Y25748D01*
D02*
G37*
G36*
X154750Y25986D02*
Y25814D01*
X154794Y25649D01*
X154880Y25501D01*
X155001Y25380D01*
X155149Y25294D01*
X155314Y25250D01*
X155486D01*
X155651Y25294D01*
X155799Y25380D01*
X155911Y25492D01*
X156868D01*
X156948Y25192D01*
X156924Y25178D01*
X156803Y25057D01*
X156717Y24909D01*
X156673Y24744D01*
Y24573D01*
X156711Y24430D01*
Y24095D01*
X156306D01*
Y22861D01*
X155268Y21823D01*
X148210D01*
Y22163D01*
X148698D01*
Y24263D01*
X148210D01*
Y24677D01*
X148241Y24792D01*
Y24963D01*
X148197Y25128D01*
X148111Y25276D01*
X147990Y25397D01*
X147842Y25483D01*
X147676Y25527D01*
X147505D01*
X147340Y25483D01*
X147192Y25397D01*
X147071Y25276D01*
X146985Y25128D01*
X146941Y24963D01*
Y24792D01*
X146985Y24626D01*
X146987Y24623D01*
Y24263D01*
X146498D01*
Y24263D01*
X146208Y24285D01*
Y25289D01*
X146320Y25401D01*
X146406Y25549D01*
X146450Y25714D01*
Y25886D01*
X146705Y26092D01*
X154668D01*
X154750Y25986D01*
D02*
G37*
%LPC*%
G36*
X204671Y48474D02*
X204421D01*
X204179Y48409D01*
X203963Y48284D01*
X203786Y48108D01*
X203661Y47891D01*
X203596Y47649D01*
Y47399D01*
X203661Y47158D01*
X203786Y46941D01*
X203963Y46764D01*
X204179Y46639D01*
X204421Y46574D01*
X204671D01*
X204913Y46639D01*
X205129Y46764D01*
X205306Y46941D01*
X205431Y47158D01*
X205496Y47399D01*
Y47649D01*
X205431Y47891D01*
X205306Y48108D01*
X205129Y48284D01*
X204913Y48409D01*
X204671Y48474D01*
D02*
G37*
G36*
X191290Y45066D02*
X190440D01*
Y44266D01*
X191290D01*
Y45066D01*
D02*
G37*
G36*
X190140D02*
X189290D01*
Y44266D01*
X190140D01*
Y45066D01*
D02*
G37*
G36*
X179847D02*
X178997D01*
Y44266D01*
X179847D01*
Y45066D01*
D02*
G37*
G36*
X178697D02*
X177847D01*
Y44266D01*
X178697D01*
Y45066D01*
D02*
G37*
G36*
X204671Y45934D02*
X204421D01*
X204179Y45869D01*
X203963Y45744D01*
X203786Y45568D01*
X203661Y45351D01*
X203596Y45109D01*
Y44859D01*
X203661Y44618D01*
X203786Y44401D01*
X203963Y44224D01*
X204179Y44099D01*
X204421Y44034D01*
X204671D01*
X204913Y44099D01*
X205129Y44224D01*
X205306Y44401D01*
X205431Y44618D01*
X205496Y44859D01*
Y45109D01*
X205431Y45351D01*
X205306Y45568D01*
X205129Y45744D01*
X204913Y45869D01*
X204671Y45934D01*
D02*
G37*
G36*
X191290Y43966D02*
X190440D01*
Y43166D01*
X191290D01*
Y43966D01*
D02*
G37*
G36*
X190140D02*
X189290D01*
Y43166D01*
X190140D01*
Y43966D01*
D02*
G37*
G36*
X179847D02*
X178997D01*
Y43166D01*
X179847D01*
Y43966D01*
D02*
G37*
G36*
X178697D02*
X177847D01*
Y43166D01*
X178697D01*
Y43966D01*
D02*
G37*
G36*
X188850Y45166D02*
X186650D01*
Y44900D01*
X186538Y44815D01*
X186367D01*
X186202Y44770D01*
X186054Y44685D01*
X185933Y44564D01*
X185847Y44416D01*
X185803Y44250D01*
Y44079D01*
X185847Y43914D01*
X185933Y43766D01*
X186054Y43645D01*
X186202Y43559D01*
X186367Y43515D01*
X186538D01*
X186650Y43429D01*
Y43066D01*
X188850D01*
Y45166D01*
D02*
G37*
G36*
X177407D02*
X175207D01*
Y44867D01*
X175186Y44850D01*
X175014D01*
X174849Y44806D01*
X174701Y44720D01*
X174580Y44599D01*
X174494Y44451D01*
X174450Y44286D01*
Y44114D01*
X174494Y43949D01*
X174580Y43801D01*
X174701Y43680D01*
X174849Y43594D01*
X175014Y43550D01*
X175186D01*
X175207Y43533D01*
Y43066D01*
X177407D01*
Y45166D01*
D02*
G37*
G36*
X194700Y38904D02*
Y38354D01*
X195250D01*
Y38904D01*
X194700D01*
D02*
G37*
G36*
X195250Y38054D02*
X194700D01*
Y37504D01*
X195250D01*
Y38054D01*
D02*
G37*
G36*
X195336Y36571D02*
X194836D01*
Y36021D01*
X195336D01*
Y36571D01*
D02*
G37*
G36*
X194536D02*
X194036D01*
Y36021D01*
X194536D01*
Y36571D01*
D02*
G37*
G36*
X204686Y37359D02*
X204396D01*
X204117Y37284D01*
X203866Y37139D01*
X203661Y36934D01*
X203516Y36684D01*
X203441Y36404D01*
Y36114D01*
X203516Y35834D01*
X203661Y35584D01*
X203866Y35379D01*
X204117Y35234D01*
X204396Y35159D01*
X204686D01*
X204966Y35234D01*
X205217Y35379D01*
X205421Y35584D01*
X205566Y35834D01*
X205641Y36114D01*
Y36404D01*
X205566Y36684D01*
X205421Y36934D01*
X205217Y37139D01*
X204966Y37284D01*
X204686Y37359D01*
D02*
G37*
G36*
Y34819D02*
X204396D01*
X204117Y34744D01*
X203866Y34599D01*
X203661Y34394D01*
X203516Y34144D01*
X203441Y33864D01*
Y33574D01*
X203516Y33294D01*
X203661Y33044D01*
X203866Y32839D01*
X204117Y32694D01*
X204396Y32619D01*
X204686D01*
X204966Y32694D01*
X205217Y32839D01*
X205421Y33044D01*
X205566Y33294D01*
X205641Y33574D01*
Y33864D01*
X205566Y34144D01*
X205421Y34394D01*
X205217Y34599D01*
X204966Y34744D01*
X204686Y34819D01*
D02*
G37*
G36*
Y32279D02*
X204396D01*
X204117Y32204D01*
X203866Y32059D01*
X203661Y31854D01*
X203516Y31604D01*
X203441Y31324D01*
Y31034D01*
X203516Y30754D01*
X203661Y30504D01*
X203866Y30299D01*
X204117Y30154D01*
X204396Y30079D01*
X204686D01*
X204966Y30154D01*
X205217Y30299D01*
X205421Y30504D01*
X205566Y30754D01*
X205641Y31034D01*
Y31324D01*
X205566Y31604D01*
X205421Y31854D01*
X205217Y32059D01*
X204966Y32204D01*
X204686Y32279D01*
D02*
G37*
G36*
X205091Y29739D02*
X203991D01*
X203441Y29189D01*
Y28089D01*
X203991Y27539D01*
X205091D01*
X205641Y28089D01*
Y29189D01*
X205091Y29739D01*
D02*
G37*
G36*
X199341Y23995D02*
X198491D01*
Y23195D01*
X199341D01*
Y23995D01*
D02*
G37*
G36*
X179983D02*
X179133D01*
Y23195D01*
X179983D01*
Y23995D01*
D02*
G37*
G36*
X160946D02*
X160096D01*
Y23195D01*
X160946D01*
Y23995D01*
D02*
G37*
G36*
X170339D02*
X169489D01*
Y23195D01*
X170339D01*
Y23995D01*
D02*
G37*
G36*
X178833D02*
X177983D01*
Y23195D01*
X178833D01*
Y23995D01*
D02*
G37*
G36*
X198191D02*
X197341D01*
Y23195D01*
X198191D01*
Y23995D01*
D02*
G37*
G36*
X169189D02*
X168339D01*
Y23195D01*
X169189D01*
Y23995D01*
D02*
G37*
G36*
X199341Y22895D02*
X198491D01*
Y22095D01*
X199341D01*
Y22895D01*
D02*
G37*
G36*
X198191D02*
X197341D01*
Y22095D01*
X198191D01*
Y22895D01*
D02*
G37*
G36*
X179983D02*
X179133D01*
Y22095D01*
X179983D01*
Y22895D01*
D02*
G37*
G36*
X178833D02*
X177983D01*
Y22095D01*
X178833D01*
Y22895D01*
D02*
G37*
G36*
X170339D02*
X169489D01*
Y22095D01*
X170339D01*
Y22895D01*
D02*
G37*
G36*
X169189D02*
X168339D01*
Y22095D01*
X169189D01*
Y22895D01*
D02*
G37*
G36*
X160946D02*
X160096D01*
Y22095D01*
X160946D01*
Y22895D01*
D02*
G37*
G36*
X201981Y24095D02*
X199781D01*
Y21995D01*
X201981D01*
Y24095D01*
D02*
G37*
G36*
X182623D02*
X180423D01*
Y21995D01*
X182623D01*
Y24095D01*
D02*
G37*
G36*
X163586D02*
X161386D01*
Y21995D01*
X163586D01*
Y24095D01*
D02*
G37*
G36*
X173691Y25550D02*
X173520D01*
X173355Y25506D01*
X173207Y25420D01*
X173086Y25299D01*
X173000Y25151D01*
X172956Y24986D01*
Y24814D01*
X173000Y24649D01*
X173086Y24501D01*
X173145Y24442D01*
Y24327D01*
X172979Y24095D01*
X170779D01*
Y21995D01*
X172766D01*
X172850Y21886D01*
Y21714D01*
X172851Y21712D01*
X172650Y21412D01*
X167411D01*
Y21995D01*
X167899D01*
Y24095D01*
X167411D01*
Y24533D01*
X167438Y24634D01*
Y24806D01*
X167394Y24971D01*
X167308Y25119D01*
X167187Y25240D01*
X167039Y25326D01*
X166874Y25370D01*
X166703D01*
X166537Y25326D01*
X166389Y25240D01*
X166268Y25119D01*
X166183Y24971D01*
X166138Y24806D01*
Y24634D01*
X166183Y24469D01*
X166187Y24461D01*
Y24095D01*
X165699D01*
Y21995D01*
X166187D01*
Y21151D01*
X166234Y20917D01*
X166367Y20719D01*
X166718Y20367D01*
X166917Y20235D01*
X167151Y20188D01*
X176049D01*
X176283Y20235D01*
X176481Y20367D01*
X176833Y20719D01*
X176965Y20917D01*
X177012Y21151D01*
Y21995D01*
X177543D01*
Y24095D01*
X177055D01*
Y24486D01*
X177096Y24640D01*
Y24811D01*
X177052Y24977D01*
X176966Y25125D01*
X176845Y25246D01*
X176697Y25331D01*
X176532Y25376D01*
X176361D01*
X176195Y25331D01*
X176047Y25246D01*
X175926Y25125D01*
X175840Y24977D01*
X175796Y24811D01*
Y24640D01*
X175831Y24509D01*
Y24095D01*
X175343D01*
Y21995D01*
X175788D01*
Y21412D01*
X174350D01*
X174149Y21712D01*
X174150Y21714D01*
Y21886D01*
X174106Y22051D01*
X174020Y22199D01*
X173961Y22258D01*
Y24354D01*
X174005Y24380D01*
X174126Y24501D01*
X174212Y24649D01*
X174256Y24814D01*
Y24986D01*
X174212Y25151D01*
X174126Y25299D01*
X174005Y25420D01*
X173857Y25506D01*
X173691Y25550D01*
D02*
G37*
G36*
X123661Y62151D02*
X122811D01*
Y61351D01*
X123661D01*
Y62151D01*
D02*
G37*
G36*
X122511D02*
X121661D01*
Y61351D01*
X122511D01*
Y62151D01*
D02*
G37*
G36*
X69319Y62139D02*
X68469D01*
Y61339D01*
X69319D01*
Y62139D01*
D02*
G37*
G36*
X68169D02*
X67319D01*
Y61339D01*
X68169D01*
Y62139D01*
D02*
G37*
G36*
X58938D02*
X58088D01*
Y61339D01*
X58938D01*
Y62139D01*
D02*
G37*
G36*
X57788D02*
X56938D01*
Y61339D01*
X57788D01*
Y62139D01*
D02*
G37*
G36*
X156877Y62100D02*
X156027D01*
Y61300D01*
X156877D01*
Y62100D01*
D02*
G37*
G36*
X155727D02*
X154877D01*
Y61300D01*
X155727D01*
Y62100D01*
D02*
G37*
G36*
X145821D02*
X144971D01*
Y61300D01*
X145821D01*
Y62100D01*
D02*
G37*
G36*
X144671D02*
X143821D01*
Y61300D01*
X144671D01*
Y62100D01*
D02*
G37*
G36*
X134773D02*
X133923D01*
Y61300D01*
X134773D01*
Y62100D01*
D02*
G37*
G36*
X133623D02*
X132773D01*
Y61300D01*
X133623D01*
Y62100D01*
D02*
G37*
G36*
X80000Y62100D02*
X79150D01*
Y61300D01*
X80000D01*
Y62100D01*
D02*
G37*
G36*
X78850D02*
X78000D01*
Y61300D01*
X78850D01*
Y62100D01*
D02*
G37*
G36*
X112615Y62100D02*
X111765D01*
Y61300D01*
X112615D01*
Y62100D01*
D02*
G37*
G36*
X111465D02*
X110615D01*
Y61300D01*
X111465D01*
Y62100D01*
D02*
G37*
G36*
X101715D02*
X100865D01*
Y61300D01*
X101715D01*
Y62100D01*
D02*
G37*
G36*
X100565D02*
X99715D01*
Y61300D01*
X100565D01*
Y62100D01*
D02*
G37*
G36*
X90620D02*
X89770D01*
Y61300D01*
X90620D01*
Y62100D01*
D02*
G37*
G36*
X89470D02*
X88620D01*
Y61300D01*
X89470D01*
Y62100D01*
D02*
G37*
G36*
X91800Y63812D02*
X81891D01*
X81657Y63765D01*
X81459Y63633D01*
X81107Y63281D01*
X80975Y63083D01*
X80928Y62849D01*
Y62200D01*
X80440D01*
Y60100D01*
X82640D01*
Y60395D01*
X82927Y60510D01*
X83093Y60466D01*
X83264D01*
X83429Y60510D01*
X83577Y60596D01*
X83699Y60717D01*
X83784Y60865D01*
X83828Y61030D01*
Y61202D01*
X83784Y61367D01*
X83699Y61515D01*
X83577Y61636D01*
X83429Y61722D01*
X83264Y61766D01*
X83093D01*
X83076Y61761D01*
X82640D01*
Y62200D01*
X82152D01*
Y62588D01*
X91547D01*
X91548Y62587D01*
Y62200D01*
X91060D01*
Y60100D01*
X93260D01*
Y60543D01*
X93614D01*
X93739Y60509D01*
X93910D01*
X94075Y60553D01*
X94224Y60639D01*
X94345Y60760D01*
X94430Y60908D01*
X94474Y61073D01*
Y61245D01*
X94430Y61410D01*
X94345Y61558D01*
X94224Y61679D01*
X94075Y61765D01*
X93910Y61809D01*
X93739D01*
X93579Y61766D01*
X93260D01*
Y62200D01*
X92771D01*
Y62840D01*
X92725Y63074D01*
X92592Y63273D01*
X92233Y63633D01*
X92034Y63765D01*
X91800Y63812D01*
D02*
G37*
G36*
X113804Y63712D02*
X103800D01*
X103566Y63665D01*
X103367Y63533D01*
X102822Y62988D01*
X102690Y62789D01*
X102643Y62555D01*
Y62200D01*
X102155D01*
Y60100D01*
X104355D01*
Y60361D01*
X104655Y60518D01*
X104725Y60499D01*
X104896D01*
X105062Y60543D01*
X105210Y60629D01*
X105331Y60750D01*
X105417Y60898D01*
X105461Y61063D01*
Y61234D01*
X105417Y61400D01*
X105331Y61548D01*
X105210Y61669D01*
X105062Y61755D01*
X104896Y61799D01*
X104725D01*
X104655Y61780D01*
X104392Y61915D01*
X104355Y62200D01*
X104355D01*
X104383Y62488D01*
X107947D01*
X107975Y62200D01*
X107975Y62188D01*
Y60100D01*
X108037D01*
X108196Y59800D01*
X108141Y59720D01*
X108021D01*
X108010Y59727D01*
X107844Y59771D01*
X107673D01*
X107508Y59727D01*
X107360Y59641D01*
X107239Y59520D01*
X107153Y59372D01*
X107109Y59207D01*
Y59035D01*
X107153Y58870D01*
X107239Y58722D01*
X107360Y58601D01*
X107508Y58515D01*
X107673Y58471D01*
X107844D01*
X108010Y58515D01*
X108154Y58599D01*
X108585D01*
X108799Y58641D01*
X108981Y58763D01*
X109472Y59253D01*
X109593Y59435D01*
X109636Y59650D01*
Y60100D01*
X110175D01*
Y62188D01*
X110175Y62200D01*
X110203Y62488D01*
X113027D01*
X113055Y62200D01*
X113055D01*
Y60100D01*
X115255D01*
Y60367D01*
X115549Y60494D01*
X115714Y60450D01*
X115886D01*
X116051Y60494D01*
X116199Y60580D01*
X116320Y60701D01*
X116406Y60849D01*
X116450Y61014D01*
Y61186D01*
X116406Y61351D01*
X116320Y61499D01*
X116199Y61620D01*
X116051Y61706D01*
X115886Y61750D01*
X115808D01*
X115750Y61761D01*
X115255D01*
Y62200D01*
X114767D01*
Y62749D01*
X114720Y62983D01*
X114588Y63181D01*
X114236Y63533D01*
X114038Y63665D01*
X113804Y63712D01*
D02*
G37*
G36*
X123661Y61051D02*
X122811D01*
Y60251D01*
X123661D01*
Y61051D01*
D02*
G37*
G36*
X122511D02*
X121661D01*
Y60251D01*
X122511D01*
Y61051D01*
D02*
G37*
G36*
X69319Y61039D02*
X68469D01*
Y60239D01*
X69319D01*
Y61039D01*
D02*
G37*
G36*
X68169D02*
X67319D01*
Y60239D01*
X68169D01*
Y61039D01*
D02*
G37*
G36*
X58938D02*
X58088D01*
Y60239D01*
X58938D01*
Y61039D01*
D02*
G37*
G36*
X57788D02*
X56938D01*
Y60239D01*
X57788D01*
Y61039D01*
D02*
G37*
G36*
X156877Y61000D02*
X156027D01*
Y60200D01*
X156877D01*
Y61000D01*
D02*
G37*
G36*
X155727D02*
X154877D01*
Y60200D01*
X155727D01*
Y61000D01*
D02*
G37*
G36*
X145821D02*
X144971D01*
Y60200D01*
X145821D01*
Y61000D01*
D02*
G37*
G36*
X144671D02*
X143821D01*
Y60200D01*
X144671D01*
Y61000D01*
D02*
G37*
G36*
X134773D02*
X133923D01*
Y60200D01*
X134773D01*
Y61000D01*
D02*
G37*
G36*
X133623D02*
X132773D01*
Y60200D01*
X133623D01*
Y61000D01*
D02*
G37*
G36*
X80000Y61000D02*
X79150D01*
Y60200D01*
X80000D01*
Y61000D01*
D02*
G37*
G36*
X78850D02*
X78000D01*
Y60200D01*
X78850D01*
Y61000D01*
D02*
G37*
G36*
X112615Y61000D02*
X111765D01*
Y60200D01*
X112615D01*
Y61000D01*
D02*
G37*
G36*
X111465D02*
X110615D01*
Y60200D01*
X111465D01*
Y61000D01*
D02*
G37*
G36*
X101715D02*
X100865D01*
Y60200D01*
X101715D01*
Y61000D01*
D02*
G37*
G36*
X100565D02*
X99715D01*
Y60200D01*
X100565D01*
Y61000D01*
D02*
G37*
G36*
X90620D02*
X89770D01*
Y60200D01*
X90620D01*
Y61000D01*
D02*
G37*
G36*
X89470D02*
X88620D01*
Y60200D01*
X89470D01*
Y61000D01*
D02*
G37*
G36*
X120174Y63150D02*
X120003D01*
X119838Y63106D01*
X119689Y63021D01*
X119568Y62900D01*
X119483Y62751D01*
X119439Y62586D01*
Y62415D01*
X119313Y62251D01*
X119021D01*
Y60151D01*
X121221D01*
Y62251D01*
X120864D01*
X120739Y62415D01*
Y62586D01*
X120694Y62751D01*
X120609Y62900D01*
X120488Y63021D01*
X120339Y63106D01*
X120174Y63150D01*
D02*
G37*
G36*
X70495Y63799D02*
X60829D01*
X60595Y63753D01*
X60397Y63620D01*
X60045Y63268D01*
X59913Y63070D01*
X59866Y62836D01*
Y62239D01*
X59378D01*
Y60139D01*
X61578D01*
Y60577D01*
X61937D01*
X62028Y60553D01*
X62199D01*
X62365Y60597D01*
X62513Y60683D01*
X62634Y60804D01*
X62719Y60952D01*
X62764Y61117D01*
Y61288D01*
X62719Y61454D01*
X62634Y61602D01*
X62513Y61723D01*
X62365Y61809D01*
X62199Y61853D01*
X62028D01*
X61863Y61809D01*
X61578Y61902D01*
Y62239D01*
X61090D01*
Y62576D01*
X70235D01*
Y62239D01*
X69759D01*
Y60139D01*
X71959D01*
Y60333D01*
X72256Y60534D01*
X72427D01*
X72592Y60579D01*
X72741Y60664D01*
X72862Y60785D01*
X72947Y60933D01*
X72991Y61099D01*
Y61270D01*
X72947Y61435D01*
X72862Y61583D01*
X72741Y61704D01*
X72592Y61790D01*
X72427Y61834D01*
X72256D01*
X71959Y62018D01*
Y62239D01*
X71458D01*
Y62836D01*
X71412Y63070D01*
X71279Y63268D01*
X70928Y63620D01*
X70729Y63753D01*
X70495Y63799D01*
D02*
G37*
G36*
X66879Y62239D02*
X64679D01*
Y62147D01*
X64485Y61888D01*
X64314D01*
X64149Y61844D01*
X64001Y61758D01*
X63880Y61637D01*
X63794Y61489D01*
X63750Y61324D01*
Y61153D01*
X63794Y60987D01*
X63880Y60839D01*
X64001Y60718D01*
X64149Y60633D01*
X64314Y60588D01*
X64485D01*
X64679Y60330D01*
Y60139D01*
X66879D01*
Y62239D01*
D02*
G37*
G36*
X135900Y63912D02*
X125552D01*
X125318Y63865D01*
X125120Y63733D01*
X124768Y63381D01*
X124636Y63183D01*
X124589Y62949D01*
Y62251D01*
X124101D01*
Y60151D01*
X126301D01*
Y60484D01*
X126601Y60580D01*
X126714Y60550D01*
X126886D01*
X127051Y60594D01*
X127199Y60680D01*
X127320Y60801D01*
X127406Y60949D01*
X127450Y61114D01*
Y61286D01*
X127406Y61451D01*
X127320Y61599D01*
X127199Y61720D01*
X127051Y61806D01*
X126886Y61850D01*
X126714D01*
X126601Y61820D01*
X126301Y61842D01*
Y62251D01*
X125813D01*
Y62688D01*
X135647D01*
X135701Y62634D01*
Y62200D01*
X135213D01*
Y60100D01*
X137413D01*
Y60538D01*
X137850D01*
X137910Y60550D01*
X137986D01*
X138151Y60594D01*
X138299Y60680D01*
X138420Y60801D01*
X138506Y60949D01*
X138550Y61114D01*
Y61286D01*
X138506Y61451D01*
X138420Y61599D01*
X138299Y61720D01*
X138151Y61806D01*
X137986Y61850D01*
X137814D01*
X137713Y61823D01*
X137511Y61924D01*
X137413Y62008D01*
Y62200D01*
X136924D01*
Y62887D01*
X136878Y63121D01*
X136745Y63320D01*
X136333Y63733D01*
X136134Y63865D01*
X135900Y63912D01*
D02*
G37*
G36*
X88180Y62200D02*
X85980D01*
Y62087D01*
X85730Y61847D01*
X85559D01*
X85393Y61803D01*
X85245Y61717D01*
X85124Y61596D01*
X85039Y61448D01*
X84994Y61283D01*
Y61112D01*
X85039Y60946D01*
X85124Y60798D01*
X85245Y60677D01*
X85393Y60591D01*
X85559Y60547D01*
X85730D01*
X85980Y60307D01*
Y60100D01*
X88180D01*
Y62200D01*
D02*
G37*
G36*
X99275D02*
X97075D01*
Y61710D01*
X96850D01*
X96635Y61668D01*
X96453Y61546D01*
X96436Y61529D01*
X96349Y61506D01*
X96201Y61420D01*
X96080Y61299D01*
X95994Y61151D01*
X95950Y60986D01*
Y60814D01*
X95994Y60649D01*
X96080Y60501D01*
X96201Y60380D01*
X96349Y60294D01*
X96514Y60250D01*
X96686D01*
X96775Y60274D01*
X96834Y60243D01*
X97075Y60100D01*
X97075Y60100D01*
X97075Y60100D01*
X99275D01*
Y62200D01*
D02*
G37*
G36*
X154437Y62200D02*
X152237D01*
Y60100D01*
X152237D01*
X152213Y59810D01*
X152188Y59772D01*
X152027D01*
X152015Y59779D01*
X151850Y59823D01*
X151679D01*
X151513Y59779D01*
X151365Y59693D01*
X151244Y59572D01*
X151159Y59424D01*
X151114Y59259D01*
Y59087D01*
X151159Y58922D01*
X151244Y58774D01*
X151365Y58653D01*
X151513Y58567D01*
X151679Y58523D01*
X151850D01*
X152015Y58567D01*
X152159Y58650D01*
X152705D01*
X152920Y58693D01*
X153102Y58815D01*
X153734Y59446D01*
X153855Y59628D01*
X153898Y59843D01*
Y60100D01*
X154437D01*
Y62200D01*
D02*
G37*
G36*
X143381D02*
X141181D01*
Y60100D01*
X141539D01*
Y59699D01*
X141003D01*
X140926Y59744D01*
X140760Y59788D01*
X140589D01*
X140424Y59744D01*
X140276Y59658D01*
X140155Y59537D01*
X140069Y59389D01*
X140025Y59224D01*
Y59052D01*
X140069Y58887D01*
X140155Y58739D01*
X140276Y58618D01*
X140424Y58532D01*
X140589Y58488D01*
X140760D01*
X140926Y58532D01*
X141003Y58577D01*
X141807D01*
X142022Y58620D01*
X142204Y58742D01*
X142497Y59034D01*
X142618Y59216D01*
X142661Y59431D01*
Y60100D01*
X143381D01*
Y62200D01*
D02*
G37*
G36*
X77560Y62200D02*
X75360D01*
Y60344D01*
X75360Y60100D01*
X75338Y59842D01*
X75309Y59810D01*
X75144Y59766D01*
X74996Y59680D01*
X74875Y59559D01*
X74789Y59411D01*
X74745Y59245D01*
Y59074D01*
X74789Y58909D01*
X74875Y58761D01*
X74996Y58640D01*
X75144Y58554D01*
X75309Y58510D01*
X75481D01*
X75646Y58554D01*
X75724Y58599D01*
X76207D01*
X76422Y58642D01*
X76604Y58763D01*
X76897Y59056D01*
X77018Y59238D01*
X77061Y59453D01*
Y60100D01*
X77560D01*
Y62200D01*
D02*
G37*
G36*
X134386Y59450D02*
X134214D01*
X134049Y59406D01*
X133901Y59320D01*
X133780Y59199D01*
X133694Y59051D01*
X133650Y58886D01*
Y58714D01*
X133694Y58549D01*
X133780Y58401D01*
X133901Y58280D01*
X134049Y58194D01*
X134214Y58150D01*
X134386D01*
X134551Y58194D01*
X134699Y58280D01*
X134820Y58401D01*
X134906Y58549D01*
X134950Y58714D01*
Y58886D01*
X134906Y59051D01*
X134820Y59199D01*
X134699Y59320D01*
X134551Y59406D01*
X134386Y59450D01*
D02*
G37*
G36*
X143486Y58850D02*
X143314D01*
X143149Y58806D01*
X143001Y58720D01*
X142880Y58599D01*
X142794Y58451D01*
X142750Y58286D01*
Y58114D01*
X142794Y57949D01*
X142880Y57801D01*
X143001Y57680D01*
X143149Y57594D01*
X143314Y57550D01*
X143486D01*
X143651Y57594D01*
X143799Y57680D01*
X143920Y57801D01*
X144006Y57949D01*
X144050Y58114D01*
Y58286D01*
X144006Y58451D01*
X143920Y58599D01*
X143799Y58720D01*
X143651Y58806D01*
X143486Y58850D01*
D02*
G37*
G36*
X155005Y58794D02*
X154834D01*
X154668Y58749D01*
X154520Y58664D01*
X154399Y58543D01*
X154313Y58395D01*
X154269Y58229D01*
Y58058D01*
X154313Y57893D01*
X154399Y57745D01*
X154520Y57624D01*
X154668Y57538D01*
X154834Y57494D01*
X155005D01*
X155170Y57538D01*
X155318Y57624D01*
X155439Y57745D01*
X155525Y57893D01*
X155569Y58058D01*
Y58229D01*
X155525Y58395D01*
X155439Y58543D01*
X155318Y58664D01*
X155170Y58749D01*
X155005Y58794D01*
D02*
G37*
G36*
X110686Y58650D02*
X110514D01*
X110349Y58606D01*
X110201Y58520D01*
X110080Y58399D01*
X109994Y58251D01*
X109950Y58086D01*
Y57914D01*
X109994Y57749D01*
X110080Y57601D01*
X110201Y57480D01*
X110349Y57394D01*
X110514Y57350D01*
X110686D01*
X110851Y57394D01*
X110999Y57480D01*
X111120Y57601D01*
X111206Y57749D01*
X111250Y57914D01*
Y58086D01*
X111206Y58251D01*
X111120Y58399D01*
X110999Y58520D01*
X110851Y58606D01*
X110686Y58650D01*
D02*
G37*
G36*
X82634Y47806D02*
X82463D01*
X82298Y47762D01*
X82149Y47677D01*
X82028Y47556D01*
X81943Y47407D01*
X81898Y47242D01*
Y47071D01*
X81943Y46906D01*
X82028Y46757D01*
X82149Y46636D01*
X82298Y46551D01*
X82463Y46506D01*
X82634D01*
X82799Y46551D01*
X82948Y46636D01*
X83069Y46757D01*
X83154Y46906D01*
X83198Y47071D01*
Y47242D01*
X83154Y47407D01*
X83069Y47556D01*
X82948Y47677D01*
X82799Y47762D01*
X82634Y47806D01*
D02*
G37*
G36*
X79743Y45923D02*
X78393D01*
Y43273D01*
X79743D01*
Y45923D01*
D02*
G37*
G36*
X78994Y40907D02*
X78444D01*
Y40357D01*
X78994D01*
Y40907D01*
D02*
G37*
G36*
Y40057D02*
X78444D01*
Y39507D01*
X78994D01*
Y40057D01*
D02*
G37*
G36*
X38726Y62931D02*
X38059D01*
Y61926D01*
X38726D01*
Y62931D01*
D02*
G37*
G36*
X28194D02*
X27526D01*
Y61926D01*
X28194D01*
Y62931D01*
D02*
G37*
G36*
X38726Y61626D02*
X38059D01*
Y60621D01*
X38726D01*
Y61626D01*
D02*
G37*
G36*
X28194D02*
X27526D01*
Y60621D01*
X28194D01*
Y61626D01*
D02*
G37*
G36*
X37759Y62931D02*
X33276D01*
Y59386D01*
X37491D01*
Y60621D01*
X37759D01*
Y61776D01*
Y62931D01*
D02*
G37*
G36*
X32976D02*
X28494D01*
Y61776D01*
Y60621D01*
X28761D01*
Y59386D01*
X32976D01*
Y62931D01*
D02*
G37*
G36*
X37491Y59086D02*
X33276D01*
Y55541D01*
X37491D01*
Y59086D01*
D02*
G37*
G36*
X32976D02*
X28761D01*
Y55541D01*
X32976D01*
Y59086D01*
D02*
G37*
G36*
X23782Y54151D02*
X23132D01*
Y53351D01*
X23782D01*
Y54151D01*
D02*
G37*
G36*
X22832D02*
X22182D01*
Y53351D01*
X22832D01*
Y54151D01*
D02*
G37*
G36*
X13445D02*
X12795D01*
Y53351D01*
X13445D01*
Y54151D01*
D02*
G37*
G36*
X12495D02*
X11845D01*
Y53351D01*
X12495D01*
Y54151D01*
D02*
G37*
G36*
X45983Y53876D02*
X45483D01*
Y53326D01*
X45983D01*
Y53876D01*
D02*
G37*
G36*
X45183D02*
X44683D01*
Y53326D01*
X45183D01*
Y53876D01*
D02*
G37*
G36*
X45983Y53026D02*
X45483D01*
Y52476D01*
X45983D01*
Y53026D01*
D02*
G37*
G36*
X45183D02*
X44683D01*
Y52476D01*
X45183D01*
Y53026D01*
D02*
G37*
G36*
X61697Y55073D02*
X60347D01*
Y52423D01*
X61697D01*
Y55073D01*
D02*
G37*
G36*
X23782Y53051D02*
X23132D01*
Y52251D01*
X23782D01*
Y53051D01*
D02*
G37*
G36*
X22832D02*
X22182D01*
Y52251D01*
X22832D01*
Y53051D01*
D02*
G37*
G36*
X13445D02*
X12795D01*
Y52251D01*
X13445D01*
Y53051D01*
D02*
G37*
G36*
X12495D02*
X11845D01*
Y52251D01*
X12495D01*
Y53051D01*
D02*
G37*
G36*
X14136Y51790D02*
X13586D01*
Y51240D01*
X14136D01*
Y51790D01*
D02*
G37*
G36*
Y50940D02*
X13586D01*
Y50390D01*
X14136D01*
Y50940D01*
D02*
G37*
G36*
X43388Y50489D02*
Y49644D01*
X44233D01*
X44170Y49880D01*
X44038Y50108D01*
X43852Y50294D01*
X43624Y50426D01*
X43388Y50489D01*
D02*
G37*
G36*
X43088Y50489D02*
X42852Y50426D01*
X42624Y50294D01*
X42438Y50108D01*
X42306Y49880D01*
X42243Y49644D01*
X43088D01*
Y50489D01*
D02*
G37*
G36*
X44233Y49344D02*
X43388D01*
Y48499D01*
X43624Y48562D01*
X43852Y48694D01*
X44038Y48880D01*
X44170Y49108D01*
X44233Y49344D01*
D02*
G37*
G36*
X43088D02*
X42243D01*
X42306Y49108D01*
X42438Y48880D01*
X42624Y48694D01*
X42852Y48562D01*
X43088Y48499D01*
Y49344D01*
D02*
G37*
G36*
X9958Y45823D02*
Y44875D01*
X10906D01*
X10833Y45149D01*
X10688Y45400D01*
X10483Y45605D01*
X10232Y45750D01*
X9958Y45823D01*
D02*
G37*
G36*
X9658D02*
X9383Y45750D01*
X9132Y45605D01*
X8927Y45400D01*
X8783Y45149D01*
X8709Y44875D01*
X9658D01*
Y45823D01*
D02*
G37*
G36*
X16656Y45720D02*
Y44875D01*
X17501D01*
X17438Y45111D01*
X17306Y45339D01*
X17120Y45525D01*
X16892Y45657D01*
X16656Y45720D01*
D02*
G37*
G36*
X16356D02*
X16120Y45657D01*
X15892Y45525D01*
X15706Y45339D01*
X15574Y45111D01*
X15511Y44875D01*
X16356D01*
Y45720D01*
D02*
G37*
G36*
X53977Y45823D02*
X53552D01*
Y44748D01*
X53977D01*
Y45823D01*
D02*
G37*
G36*
X53252D02*
X52827D01*
Y44748D01*
X53252D01*
Y45823D01*
D02*
G37*
G36*
X17501Y44575D02*
X16656D01*
Y43730D01*
X16892Y43793D01*
X17120Y43925D01*
X17306Y44111D01*
X17438Y44339D01*
X17501Y44575D01*
D02*
G37*
G36*
X16356D02*
X15511D01*
X15574Y44339D01*
X15706Y44111D01*
X15892Y43925D01*
X16120Y43793D01*
X16356Y43730D01*
Y44575D01*
D02*
G37*
G36*
X10906Y44575D02*
X9958D01*
Y43626D01*
X10232Y43700D01*
X10483Y43845D01*
X10688Y44049D01*
X10833Y44300D01*
X10906Y44575D01*
D02*
G37*
G36*
X9658D02*
X8709D01*
X8783Y44300D01*
X8927Y44049D01*
X9132Y43845D01*
X9383Y43700D01*
X9658Y43626D01*
Y44575D01*
D02*
G37*
G36*
X53977Y44448D02*
X53552D01*
Y43373D01*
X53977D01*
Y44448D01*
D02*
G37*
G36*
X53252D02*
X52827D01*
Y43373D01*
X53252D01*
Y44448D01*
D02*
G37*
G36*
X59157Y45923D02*
X57807D01*
Y43273D01*
X59157D01*
Y45923D01*
D02*
G37*
G36*
X49022Y39705D02*
X48472D01*
Y39155D01*
X49022D01*
Y39705D01*
D02*
G37*
G36*
Y38855D02*
X48472D01*
Y38305D01*
X49022D01*
Y38855D01*
D02*
G37*
G36*
X18645Y38090D02*
X17570D01*
Y37015D01*
X18645D01*
Y38090D01*
D02*
G37*
G36*
X17270D02*
X16195D01*
Y37015D01*
X17270D01*
Y38090D01*
D02*
G37*
G36*
X41282Y36455D02*
X40732D01*
Y35905D01*
X41282D01*
Y36455D01*
D02*
G37*
G36*
X40432D02*
X39882D01*
Y35905D01*
X40432D01*
Y36455D01*
D02*
G37*
G36*
X18645Y36715D02*
X17570D01*
Y35640D01*
X18645D01*
Y36715D01*
D02*
G37*
G36*
X17270D02*
X16195D01*
Y35640D01*
X17270D01*
Y36715D01*
D02*
G37*
G36*
X40666Y34340D02*
X40116D01*
Y33415D01*
X40666D01*
Y34340D01*
D02*
G37*
G36*
X39816D02*
X39266D01*
Y33415D01*
X39816D01*
Y34340D01*
D02*
G37*
G36*
X92686Y33750D02*
X92514D01*
X92349Y33706D01*
X92201Y33620D01*
X92080Y33499D01*
X91994Y33351D01*
X91950Y33186D01*
Y33014D01*
X91994Y32849D01*
X92080Y32701D01*
X92201Y32580D01*
X92349Y32494D01*
X92514Y32450D01*
X92686D01*
X92851Y32494D01*
X92999Y32580D01*
X93120Y32701D01*
X93206Y32849D01*
X93250Y33014D01*
Y33186D01*
X93206Y33351D01*
X93120Y33499D01*
X92999Y33620D01*
X92851Y33706D01*
X92686Y33750D01*
D02*
G37*
G36*
X40666Y33115D02*
X40116D01*
Y32190D01*
X40666D01*
Y33115D01*
D02*
G37*
G36*
X39816D02*
X39266D01*
Y32190D01*
X39816D01*
Y33115D01*
D02*
G37*
G36*
X22624Y30625D02*
X22376D01*
X22146Y30530D01*
X21970Y30354D01*
X21875Y30124D01*
Y29876D01*
X21970Y29646D01*
X22146Y29470D01*
X22376Y29375D01*
X22624D01*
X22854Y29470D01*
X23030Y29646D01*
X23125Y29876D01*
Y30124D01*
X23030Y30354D01*
X22854Y30530D01*
X22624Y30625D01*
D02*
G37*
G36*
X17624Y28125D02*
X17376D01*
X17146Y28030D01*
X16970Y27854D01*
X16875Y27624D01*
Y27376D01*
X16970Y27146D01*
X17146Y26970D01*
X17376Y26875D01*
X17624D01*
X17854Y26970D01*
X18030Y27146D01*
X18125Y27376D01*
Y27624D01*
X18030Y27854D01*
X17854Y28030D01*
X17624Y28125D01*
D02*
G37*
G36*
X116678Y26486D02*
X116507D01*
X116342Y26442D01*
X116193Y26357D01*
X116072Y26236D01*
X115987Y26087D01*
X115942Y25922D01*
Y25751D01*
X115987Y25586D01*
X116072Y25437D01*
X116193Y25316D01*
X116342Y25231D01*
X116507Y25186D01*
X116678D01*
X116843Y25231D01*
X116992Y25316D01*
X117113Y25437D01*
X117198Y25586D01*
X117242Y25751D01*
Y25922D01*
X117198Y26087D01*
X117113Y26236D01*
X116992Y26357D01*
X116843Y26442D01*
X116678Y26486D01*
D02*
G37*
G36*
X136468Y26458D02*
X136297D01*
X136131Y26414D01*
X135983Y26328D01*
X135862Y26207D01*
X135777Y26059D01*
X135732Y25894D01*
Y25722D01*
X135777Y25557D01*
X135862Y25409D01*
X135983Y25288D01*
X136131Y25202D01*
X136297Y25158D01*
X136468D01*
X136633Y25202D01*
X136781Y25288D01*
X136902Y25409D01*
X136988Y25557D01*
X137032Y25722D01*
Y25894D01*
X136988Y26059D01*
X136902Y26207D01*
X136781Y26328D01*
X136633Y26414D01*
X136468Y26458D01*
D02*
G37*
G36*
X126985Y26450D02*
X126814D01*
X126649Y26406D01*
X126501Y26320D01*
X126380Y26199D01*
X126294Y26051D01*
X126250Y25886D01*
Y25714D01*
X126294Y25549D01*
X126380Y25401D01*
X126501Y25280D01*
X126649Y25194D01*
X126814Y25150D01*
X126985D01*
X127151Y25194D01*
X127299Y25280D01*
X127420Y25401D01*
X127505Y25549D01*
X127550Y25714D01*
Y25886D01*
X127505Y26051D01*
X127420Y26199D01*
X127299Y26320D01*
X127151Y26406D01*
X126985Y26450D01*
D02*
G37*
G36*
X31908Y24800D02*
X31058D01*
Y24000D01*
X31908D01*
Y24800D01*
D02*
G37*
G36*
X20386D02*
X19536D01*
Y24000D01*
X20386D01*
Y24800D01*
D02*
G37*
G36*
X42516D02*
X41666D01*
Y24000D01*
X42516D01*
Y24800D01*
D02*
G37*
G36*
X30758D02*
X29908D01*
Y24000D01*
X30758D01*
Y24800D01*
D02*
G37*
G36*
X19236D02*
X18386D01*
Y24000D01*
X19236D01*
Y24800D01*
D02*
G37*
G36*
X41366D02*
X40516D01*
Y24000D01*
X41366D01*
Y24800D01*
D02*
G37*
G36*
X8000Y24800D02*
X7150D01*
Y24000D01*
X8000D01*
Y24800D01*
D02*
G37*
G36*
X53000Y24800D02*
X52150D01*
Y24000D01*
X53000D01*
Y24800D01*
D02*
G37*
G36*
X51850D02*
X51000D01*
Y24000D01*
X51850D01*
Y24800D01*
D02*
G37*
G36*
X63502Y24594D02*
X62652D01*
Y23794D01*
X63502D01*
Y24594D01*
D02*
G37*
G36*
X73583D02*
X72733D01*
Y23794D01*
X73583D01*
Y24594D01*
D02*
G37*
G36*
X83329D02*
X82479D01*
Y23794D01*
X83329D01*
Y24594D01*
D02*
G37*
G36*
X62352D02*
X61502D01*
Y23794D01*
X62352D01*
Y24594D01*
D02*
G37*
G36*
X82179D02*
X81329D01*
Y23794D01*
X82179D01*
Y24594D01*
D02*
G37*
G36*
X72433D02*
X71583D01*
Y23794D01*
X72433D01*
Y24594D01*
D02*
G37*
G36*
X131921Y24378D02*
X131071D01*
Y23578D01*
X131921D01*
Y24378D01*
D02*
G37*
G36*
X122120D02*
X121270D01*
Y23578D01*
X122120D01*
Y24378D01*
D02*
G37*
G36*
X102918D02*
X102068D01*
Y23578D01*
X102918D01*
Y24378D01*
D02*
G37*
G36*
X93311D02*
X92461D01*
Y23578D01*
X93311D01*
Y24378D01*
D02*
G37*
G36*
X112417D02*
X111567D01*
Y23578D01*
X112417D01*
Y24378D01*
D02*
G37*
G36*
X92161D02*
X91312D01*
Y23578D01*
X92161D01*
Y24378D01*
D02*
G37*
G36*
X130771D02*
X129921D01*
Y23578D01*
X130771D01*
Y24378D01*
D02*
G37*
G36*
X120970D02*
X120120D01*
Y23578D01*
X120970D01*
Y24378D01*
D02*
G37*
G36*
X101768D02*
X100918D01*
Y23578D01*
X101768D01*
Y24378D01*
D02*
G37*
G36*
X111267D02*
X110417D01*
Y23578D01*
X111267D01*
Y24378D01*
D02*
G37*
G36*
X141497Y24163D02*
X140647D01*
Y23363D01*
X141497D01*
Y24163D01*
D02*
G37*
G36*
X140347D02*
X139497D01*
Y23363D01*
X140347D01*
Y24163D01*
D02*
G37*
G36*
X42516Y23700D02*
X41666D01*
Y22900D01*
X42516D01*
Y23700D01*
D02*
G37*
G36*
X41366D02*
X40516D01*
Y22900D01*
X41366D01*
Y23700D01*
D02*
G37*
G36*
X31908D02*
X31058D01*
Y22900D01*
X31908D01*
Y23700D01*
D02*
G37*
G36*
X30758D02*
X29908D01*
Y22900D01*
X30758D01*
Y23700D01*
D02*
G37*
G36*
X20386D02*
X19536D01*
Y22900D01*
X20386D01*
Y23700D01*
D02*
G37*
G36*
X19236D02*
X18386D01*
Y22900D01*
X19236D01*
Y23700D01*
D02*
G37*
G36*
X53000Y23700D02*
X52150D01*
Y22900D01*
X53000D01*
Y23700D01*
D02*
G37*
G36*
X51850D02*
X51000D01*
Y22900D01*
X51850D01*
Y23700D01*
D02*
G37*
G36*
X8000Y23700D02*
X7150D01*
Y22900D01*
X8000D01*
Y23700D01*
D02*
G37*
G36*
X45156Y24900D02*
X42956D01*
Y22800D01*
X45156D01*
Y24900D01*
D02*
G37*
G36*
X34548D02*
X32348D01*
Y22800D01*
X34548D01*
Y24900D01*
D02*
G37*
G36*
X23026D02*
X20826D01*
Y22800D01*
X23026D01*
Y24900D01*
D02*
G37*
G36*
X55640Y24900D02*
X53440D01*
Y22800D01*
X55640D01*
Y24900D01*
D02*
G37*
G36*
X83329Y23494D02*
X82479D01*
Y22694D01*
X83329D01*
Y23494D01*
D02*
G37*
G36*
X82179D02*
X81329D01*
Y22694D01*
X82179D01*
Y23494D01*
D02*
G37*
G36*
X73583D02*
X72733D01*
Y22694D01*
X73583D01*
Y23494D01*
D02*
G37*
G36*
X72433D02*
X71583D01*
Y22694D01*
X72433D01*
Y23494D01*
D02*
G37*
G36*
X63502D02*
X62652D01*
Y22694D01*
X63502D01*
Y23494D01*
D02*
G37*
G36*
X62352D02*
X61502D01*
Y22694D01*
X62352D01*
Y23494D01*
D02*
G37*
G36*
X85969Y24694D02*
X83769D01*
Y22594D01*
X85969D01*
Y24694D01*
D02*
G37*
G36*
X66142D02*
X63942D01*
Y22594D01*
X66142D01*
Y24694D01*
D02*
G37*
G36*
X131921Y23278D02*
X131071D01*
Y22478D01*
X131921D01*
Y23278D01*
D02*
G37*
G36*
X130771D02*
X129921D01*
Y22478D01*
X130771D01*
Y23278D01*
D02*
G37*
G36*
X122120D02*
X121270D01*
Y22478D01*
X122120D01*
Y23278D01*
D02*
G37*
G36*
X120970D02*
X120120D01*
Y22478D01*
X120970D01*
Y23278D01*
D02*
G37*
G36*
X102918D02*
X102068D01*
Y22478D01*
X102918D01*
Y23278D01*
D02*
G37*
G36*
X101768D02*
X100918D01*
Y22478D01*
X101768D01*
Y23278D01*
D02*
G37*
G36*
X93311D02*
X92461D01*
Y22478D01*
X93311D01*
Y23278D01*
D02*
G37*
G36*
X92161D02*
X91312D01*
Y22478D01*
X92161D01*
Y23278D01*
D02*
G37*
G36*
X134561Y24478D02*
X132361D01*
Y22378D01*
X134561D01*
Y24478D01*
D02*
G37*
G36*
X124760D02*
X122560D01*
Y22378D01*
X124760D01*
Y24478D01*
D02*
G37*
G36*
X118532Y25480D02*
X118361D01*
X118195Y25436D01*
X118047Y25350D01*
X117926Y25229D01*
X117841Y25081D01*
X117796Y24916D01*
Y24744D01*
X117580Y24478D01*
X117480D01*
Y22378D01*
X117207Y22312D01*
X115330D01*
X115057Y22378D01*
X115057Y22612D01*
Y24478D01*
X112857D01*
X112857Y22487D01*
X112681Y22422D01*
X112417Y22612D01*
Y23278D01*
X111417D01*
X110417D01*
Y22612D01*
X110153Y22422D01*
X109977Y22487D01*
Y24478D01*
X109618D01*
X109388Y24725D01*
Y24897D01*
X109343Y25062D01*
X109258Y25210D01*
X109137Y25331D01*
X108989Y25417D01*
X108823Y25461D01*
X108652D01*
X108487Y25417D01*
X108339Y25331D01*
X108218Y25210D01*
X108132Y25062D01*
X108088Y24897D01*
Y24725D01*
X107857Y24478D01*
X107777D01*
Y22378D01*
X108388D01*
Y22051D01*
X108435Y21817D01*
X108567Y21619D01*
X108919Y21267D01*
X109117Y21135D01*
X109351Y21088D01*
X118228D01*
X118462Y21135D01*
X118661Y21267D01*
X119012Y21619D01*
X119145Y21817D01*
X119191Y22051D01*
Y22378D01*
X119680D01*
Y24478D01*
X119312D01*
X119096Y24744D01*
Y24916D01*
X119052Y25081D01*
X118966Y25229D01*
X118845Y25350D01*
X118697Y25436D01*
X118532Y25480D01*
D02*
G37*
G36*
X141497Y23063D02*
X140647D01*
Y22263D01*
X141497D01*
Y23063D01*
D02*
G37*
G36*
X140347D02*
X139497D01*
Y22263D01*
X140347D01*
Y23063D01*
D02*
G37*
G36*
X144137Y24263D02*
X141937D01*
Y22163D01*
X144137D01*
Y24263D01*
D02*
G37*
G36*
X128431Y25452D02*
X128260D01*
X128095Y25408D01*
X127946Y25322D01*
X127825Y25201D01*
X127740Y25053D01*
X127695Y24888D01*
Y24717D01*
X127449Y24478D01*
X127281D01*
Y22378D01*
X127770D01*
Y21719D01*
X127816Y21485D01*
X127949Y21286D01*
X128683Y20552D01*
X128881Y20420D01*
X129115Y20373D01*
X137560D01*
X137794Y20420D01*
X137992Y20552D01*
X138344Y20904D01*
X138476Y21102D01*
X138523Y21336D01*
Y22163D01*
X139057D01*
Y24263D01*
X138743D01*
X138617Y24507D01*
X138609Y24563D01*
X138646Y24701D01*
Y24872D01*
X138602Y25038D01*
X138516Y25186D01*
X138395Y25307D01*
X138247Y25392D01*
X138082Y25437D01*
X137911D01*
X137745Y25392D01*
X137597Y25307D01*
X137476Y25186D01*
X137391Y25038D01*
X137346Y24872D01*
Y24753D01*
X137345Y24747D01*
Y24263D01*
X136857D01*
Y22163D01*
X137299D01*
Y21597D01*
X129369D01*
X128993Y21972D01*
Y22378D01*
X129481D01*
Y24478D01*
X129166D01*
X128995Y24717D01*
Y24888D01*
X128951Y25053D01*
X128866Y25201D01*
X128745Y25322D01*
X128596Y25408D01*
X128431Y25452D01*
D02*
G37*
G36*
X190615Y62100D02*
X189765D01*
Y61300D01*
X190615D01*
Y62100D01*
D02*
G37*
G36*
X189465D02*
X188615D01*
Y61300D01*
X189465D01*
Y62100D01*
D02*
G37*
G36*
X179178D02*
X178328D01*
Y61300D01*
X179178D01*
Y62100D01*
D02*
G37*
G36*
X178028D02*
X177178D01*
Y61300D01*
X178028D01*
Y62100D01*
D02*
G37*
G36*
X167941D02*
X167091D01*
Y61300D01*
X167941D01*
Y62100D01*
D02*
G37*
G36*
X166791D02*
X165941D01*
Y61300D01*
X166791D01*
Y62100D01*
D02*
G37*
G36*
X190615Y61000D02*
X189765D01*
Y60200D01*
X190615D01*
Y61000D01*
D02*
G37*
G36*
X189465D02*
X188615D01*
Y60200D01*
X189465D01*
Y61000D01*
D02*
G37*
G36*
X179178D02*
X178328D01*
Y60200D01*
X179178D01*
Y61000D01*
D02*
G37*
G36*
X178028D02*
X177178D01*
Y60200D01*
X178028D01*
Y61000D01*
D02*
G37*
G36*
X167941D02*
X167091D01*
Y60200D01*
X167941D01*
Y61000D01*
D02*
G37*
G36*
X166791D02*
X165941D01*
Y60200D01*
X166791D01*
Y61000D01*
D02*
G37*
G36*
X188175Y62200D02*
X185975D01*
Y61931D01*
X185847Y61832D01*
X185676D01*
X185510Y61788D01*
X185362Y61703D01*
X185241Y61582D01*
X185156Y61433D01*
X185111Y61268D01*
Y61097D01*
X185156Y60932D01*
X185241Y60783D01*
X185362Y60662D01*
X185510Y60577D01*
X185676Y60532D01*
X185847D01*
X185975Y60434D01*
Y60100D01*
X188175D01*
Y62200D01*
D02*
G37*
G36*
X176738D02*
X174538D01*
Y60893D01*
X174216Y60572D01*
X174173D01*
X174008Y60527D01*
X173860Y60442D01*
X173739Y60321D01*
X173653Y60173D01*
X173609Y60007D01*
Y59836D01*
X173653Y59671D01*
X173739Y59522D01*
X173860Y59401D01*
X174008Y59316D01*
X174173Y59272D01*
X174344D01*
X174510Y59316D01*
X174658Y59401D01*
X174779Y59522D01*
X174814Y59583D01*
X175331Y60100D01*
X176738D01*
Y62200D01*
D02*
G37*
G36*
X190370Y55300D02*
X190199D01*
X190033Y55256D01*
X189885Y55170D01*
X189764Y55049D01*
X189678Y54901D01*
X189669Y54866D01*
X189190D01*
Y52766D01*
X191390D01*
Y54866D01*
X190899D01*
X190890Y54901D01*
X190804Y55049D01*
X190683Y55170D01*
X190535Y55256D01*
X190370Y55300D01*
D02*
G37*
G36*
X188850Y54866D02*
X186650D01*
Y52766D01*
X188850D01*
Y54866D01*
D02*
G37*
G36*
X177407D02*
X175207D01*
Y52766D01*
X177407D01*
Y54866D01*
D02*
G37*
G36*
X180486Y50650D02*
X180314D01*
X180149Y50606D01*
X180001Y50520D01*
X179880Y50399D01*
X179794Y50251D01*
X179750Y50086D01*
Y49914D01*
X179794Y49749D01*
X179880Y49601D01*
X180001Y49480D01*
X180149Y49394D01*
X180314Y49350D01*
X180486D01*
X180651Y49394D01*
X180799Y49480D01*
X180920Y49601D01*
X181006Y49749D01*
X181050Y49914D01*
Y50086D01*
X181006Y50251D01*
X180920Y50399D01*
X180799Y50520D01*
X180651Y50606D01*
X180486Y50650D01*
D02*
G37*
G36*
X154753Y55554D02*
X154203D01*
Y55004D01*
X154753D01*
Y55554D01*
D02*
G37*
G36*
X153903D02*
X153353D01*
Y55004D01*
X153903D01*
Y55554D01*
D02*
G37*
G36*
X138186Y55250D02*
X138014D01*
X137849Y55206D01*
X137701Y55120D01*
X137580Y54999D01*
X137494Y54851D01*
X137450Y54686D01*
Y54514D01*
X137494Y54349D01*
X137580Y54201D01*
X137701Y54080D01*
X137849Y53994D01*
X138014Y53950D01*
X138186D01*
X138351Y53994D01*
X138499Y54080D01*
X138620Y54201D01*
X138706Y54349D01*
X138750Y54514D01*
Y54686D01*
X138706Y54851D01*
X138620Y54999D01*
X138499Y55120D01*
X138351Y55206D01*
X138186Y55250D01*
D02*
G37*
G36*
X158791Y53838D02*
X158241D01*
Y53288D01*
X158791D01*
Y53838D01*
D02*
G37*
G36*
X157941D02*
X157391D01*
Y53288D01*
X157941D01*
Y53838D01*
D02*
G37*
G36*
X145423Y51405D02*
X144873D01*
Y50855D01*
X145423D01*
Y51405D01*
D02*
G37*
G36*
X144573D02*
X144023D01*
Y50855D01*
X144573D01*
Y51405D01*
D02*
G37*
G36*
X142336Y48682D02*
X141786D01*
Y48132D01*
X142336D01*
Y48682D01*
D02*
G37*
G36*
X141486D02*
X140936D01*
Y48132D01*
X141486D01*
Y48682D01*
D02*
G37*
G36*
X163092Y47932D02*
X162542D01*
Y47432D01*
X163092D01*
Y47932D01*
D02*
G37*
G36*
X162242D02*
X161692D01*
Y47432D01*
X162242D01*
Y47932D01*
D02*
G37*
G36*
X164470Y47691D02*
X163670D01*
Y47341D01*
X164470D01*
Y47691D01*
D02*
G37*
G36*
X165570Y47041D02*
X164770D01*
Y46691D01*
X165570D01*
Y47041D01*
D02*
G37*
G36*
X164470D02*
X163670D01*
Y46691D01*
X164470D01*
Y47041D01*
D02*
G37*
G36*
X163092Y47132D02*
X162542D01*
Y46632D01*
X163092D01*
Y47132D01*
D02*
G37*
G36*
X162242D02*
X161692D01*
Y46632D01*
X162242D01*
Y47132D01*
D02*
G37*
G36*
X137425Y49432D02*
X135525D01*
Y49382D01*
X135425D01*
Y48182D01*
Y47382D01*
Y46582D01*
Y45782D01*
Y44778D01*
X135342Y44708D01*
X135125Y44598D01*
X135026Y44624D01*
X134855D01*
X134689Y44580D01*
X134541Y44494D01*
X134420Y44373D01*
X134335Y44225D01*
X134290Y44060D01*
Y43889D01*
X134335Y43723D01*
X134420Y43575D01*
X134541Y43454D01*
X134664Y43383D01*
X134665Y43380D01*
X134685Y43267D01*
X134676Y43062D01*
X134624Y43032D01*
X134503Y42911D01*
X134418Y42763D01*
X134373Y42597D01*
Y42426D01*
X134418Y42261D01*
X134503Y42113D01*
X134624Y41992D01*
X134772Y41906D01*
X134938Y41862D01*
X135109D01*
X135125Y41866D01*
X135425Y41844D01*
Y41782D01*
X135525D01*
Y41732D01*
X137425D01*
Y41782D01*
X137525D01*
Y42468D01*
X137765Y42582D01*
X137812Y42590D01*
X137825Y42590D01*
X137962Y42553D01*
X138133D01*
X138299Y42598D01*
X138447Y42683D01*
X138568Y42804D01*
X138654Y42952D01*
X138698Y43118D01*
Y43289D01*
X138654Y43454D01*
X138568Y43602D01*
X138447Y43723D01*
X138299Y43809D01*
X138323Y44107D01*
X138489Y44151D01*
X138637Y44237D01*
X138758Y44358D01*
X138843Y44506D01*
X138888Y44672D01*
Y44843D01*
X138843Y45008D01*
X138758Y45156D01*
X138637Y45277D01*
X138489Y45363D01*
X138323Y45407D01*
X138152D01*
X137987Y45363D01*
X137951Y45342D01*
X137525D01*
Y46582D01*
Y47382D01*
Y48235D01*
X137972D01*
X138339Y47868D01*
Y47393D01*
X138382Y47178D01*
X138503Y46996D01*
X138930Y46569D01*
X139112Y46448D01*
X139327Y46405D01*
X140565D01*
X140642Y46360D01*
X140808Y46316D01*
X140979D01*
X141144Y46360D01*
X141292Y46446D01*
X141413Y46567D01*
X141499Y46715D01*
X141543Y46880D01*
Y47052D01*
X141499Y47217D01*
X141413Y47365D01*
X141292Y47486D01*
X141144Y47572D01*
X140979Y47616D01*
X140808D01*
X140642Y47572D01*
X140565Y47527D01*
X139559D01*
X139461Y47625D01*
Y48100D01*
X139418Y48315D01*
X139297Y48497D01*
X138601Y49192D01*
X138419Y49314D01*
X138204Y49356D01*
X137525D01*
Y49382D01*
X137425D01*
Y49432D01*
D02*
G37*
G36*
X147001Y45432D02*
X146901Y45432D01*
X145501D01*
Y45432D01*
X145225Y45374D01*
X145114D01*
X144949Y45329D01*
X144801Y45244D01*
X144680Y45123D01*
X144594Y44974D01*
X144550Y44809D01*
Y44638D01*
X144594Y44473D01*
X144680Y44324D01*
X144801Y44203D01*
X144949Y44118D01*
X145114Y44074D01*
X145286D01*
X145501Y43832D01*
Y43832D01*
X146901D01*
X147185Y43832D01*
X147397Y43620D01*
Y43309D01*
X147058D01*
Y42109D01*
X148858D01*
Y43309D01*
X148518D01*
Y43832D01*
X148701D01*
Y45432D01*
X147301D01*
X147001Y45432D01*
D02*
G37*
G36*
X151302Y45489D02*
X151202Y45489D01*
X149802D01*
Y43889D01*
X149897D01*
Y43309D01*
X149558D01*
Y42109D01*
X149658D01*
Y41909D01*
X150458D01*
X151258D01*
Y42109D01*
X151358D01*
Y42147D01*
X151918D01*
Y42050D01*
X153518D01*
Y42050D01*
X153783Y42135D01*
X153950D01*
X154115Y42179D01*
X154263Y42265D01*
X154384Y42386D01*
X154470Y42534D01*
X154514Y42700D01*
Y42871D01*
X154470Y43036D01*
X154384Y43184D01*
X154263Y43305D01*
X154115Y43391D01*
X153950Y43435D01*
X153779D01*
X153518Y43550D01*
Y43550D01*
X151918D01*
Y43269D01*
X151358D01*
Y43309D01*
X151018D01*
Y43677D01*
X151231Y43889D01*
X151502Y43889D01*
X151602Y43889D01*
X153002D01*
Y43889D01*
X153248Y44018D01*
X153417D01*
X153583Y44063D01*
X153731Y44148D01*
X153852Y44269D01*
X153937Y44417D01*
X153982Y44583D01*
Y44754D01*
X153937Y44919D01*
X153852Y45067D01*
X153731Y45188D01*
X153583Y45274D01*
X153417Y45318D01*
X153246D01*
X153002Y45489D01*
Y45489D01*
X151602D01*
X151302Y45489D01*
D02*
G37*
G36*
X139975Y43235D02*
X139425D01*
Y42685D01*
X139975D01*
Y43235D01*
D02*
G37*
G36*
Y42385D02*
X139425D01*
Y41835D01*
X139975D01*
Y42385D01*
D02*
G37*
G36*
X153418Y41750D02*
X152868D01*
Y41250D01*
X153418D01*
Y41750D01*
D02*
G37*
G36*
X152568D02*
X152018D01*
Y41250D01*
X152568D01*
Y41750D01*
D02*
G37*
G36*
X139994Y41459D02*
X139444D01*
Y40909D01*
X139994D01*
Y41459D01*
D02*
G37*
G36*
X163911Y41741D02*
X163740D01*
X163574Y41697D01*
X163426Y41611D01*
X163305Y41490D01*
X163220Y41342D01*
X163175Y41177D01*
Y41005D01*
X162995Y40753D01*
X162964Y40734D01*
X162664Y40734D01*
X161364D01*
Y40726D01*
X161071Y40595D01*
X160923Y40681D01*
X160758Y40725D01*
X160586D01*
X160421Y40681D01*
X160273Y40595D01*
X160152Y40474D01*
X160066Y40326D01*
X160022Y40161D01*
Y39989D01*
X160066Y39824D01*
X160152Y39676D01*
X160273Y39555D01*
X160421Y39469D01*
X160586Y39425D01*
X160643D01*
X160645Y39424D01*
X160859Y39381D01*
X161364D01*
Y39134D01*
X162664D01*
X162964Y39134D01*
X163264Y39134D01*
X164564D01*
Y40734D01*
X164564D01*
X164475Y41005D01*
Y41177D01*
X164431Y41342D01*
X164345Y41490D01*
X164224Y41611D01*
X164076Y41697D01*
X163911Y41741D01*
D02*
G37*
G36*
X139994Y40609D02*
X139444D01*
Y40059D01*
X139994D01*
Y40609D01*
D02*
G37*
G36*
X148858Y41409D02*
X147058D01*
Y40209D01*
X147416D01*
Y39097D01*
X147196D01*
Y39050D01*
X146904Y38910D01*
X146738Y38954D01*
X146567D01*
X146402Y38910D01*
X146254Y38824D01*
X146133Y38703D01*
X146047Y38555D01*
X146003Y38390D01*
Y38218D01*
X146047Y38053D01*
X146133Y37905D01*
X146254Y37784D01*
X146402Y37698D01*
X146567Y37654D01*
X146738D01*
X146904Y37698D01*
X147196Y37577D01*
Y37497D01*
X147296Y37238D01*
Y36847D01*
X148696D01*
Y37238D01*
X148796Y37497D01*
Y37524D01*
X149008Y37736D01*
X149521D01*
X149733Y37524D01*
Y37497D01*
X149833Y37238D01*
Y36847D01*
X151233D01*
Y37238D01*
X151333Y37497D01*
X151333Y37655D01*
Y39097D01*
X149733D01*
Y38857D01*
X148796D01*
Y39097D01*
X148538D01*
Y40209D01*
X148858D01*
Y41409D01*
D02*
G37*
G36*
X151233Y36547D02*
X150683D01*
Y35997D01*
X151233D01*
Y36547D01*
D02*
G37*
G36*
X150383D02*
X149833D01*
Y35997D01*
X150383D01*
Y36547D01*
D02*
G37*
G36*
X148696D02*
X148146D01*
Y35997D01*
X148696D01*
Y36547D01*
D02*
G37*
G36*
X147846D02*
X147296D01*
Y35997D01*
X147846D01*
Y36547D01*
D02*
G37*
G36*
X160786Y38699D02*
X160614D01*
X160449Y38655D01*
X160301Y38569D01*
X160180Y38448D01*
X160094Y38300D01*
X160050Y38135D01*
Y37964D01*
X160094Y37798D01*
X160180Y37650D01*
X160301Y37529D01*
X160366Y37491D01*
X160390Y37409D01*
X160390Y37241D01*
X160366Y37158D01*
X160301Y37120D01*
X160180Y36999D01*
X160094Y36851D01*
X160050Y36686D01*
Y36514D01*
X160094Y36349D01*
X160180Y36201D01*
X160301Y36080D01*
X160449Y35994D01*
X160614Y35950D01*
X160786D01*
X160951Y35994D01*
X161099Y36080D01*
X161220Y36201D01*
X161306Y36349D01*
X161350Y36514D01*
Y36686D01*
X161306Y36851D01*
X161220Y36999D01*
X161099Y37120D01*
X161034Y37158D01*
X161010Y37241D01*
X161010Y37409D01*
X161034Y37491D01*
X161099Y37529D01*
X161220Y37650D01*
X161306Y37798D01*
X161350Y37964D01*
Y38135D01*
X161306Y38300D01*
X161220Y38448D01*
X161099Y38569D01*
X160951Y38655D01*
X160786Y38699D01*
D02*
G37*
G36*
X160986Y35650D02*
X160814D01*
X160649Y35606D01*
X160501Y35520D01*
X160380Y35399D01*
X160294Y35251D01*
X160250Y35086D01*
Y34914D01*
X160294Y34749D01*
X160380Y34601D01*
X160501Y34480D01*
X160649Y34394D01*
X160814Y34350D01*
X160986D01*
X161151Y34394D01*
X161299Y34480D01*
X161420Y34601D01*
X161506Y34749D01*
X161550Y34914D01*
Y35086D01*
X161506Y35251D01*
X161420Y35399D01*
X161299Y35520D01*
X161151Y35606D01*
X160986Y35650D01*
D02*
G37*
G36*
X113823Y50383D02*
X113273D01*
Y49833D01*
X113823D01*
Y50383D01*
D02*
G37*
G36*
Y49533D02*
X113273D01*
Y48983D01*
X113823D01*
Y49533D01*
D02*
G37*
G36*
X114185Y48437D02*
Y47887D01*
X114735D01*
Y48437D01*
X114185D01*
D02*
G37*
G36*
X104700Y49056D02*
X103100D01*
Y47615D01*
X103100Y47456D01*
X103200Y47198D01*
Y46806D01*
X104600D01*
Y47198D01*
X104700Y47456D01*
X105000Y47554D01*
X105014Y47550D01*
X105186D01*
X105351Y47594D01*
X105499Y47680D01*
X105620Y47801D01*
X105706Y47949D01*
X105750Y48114D01*
Y48286D01*
X105706Y48451D01*
X105620Y48599D01*
X105499Y48720D01*
X105351Y48806D01*
X105186Y48850D01*
X105014D01*
X105000Y48846D01*
X104700Y49019D01*
Y49056D01*
D02*
G37*
G36*
X114735Y47587D02*
X114185D01*
Y47037D01*
X114735D01*
Y47587D01*
D02*
G37*
G36*
X104600Y46506D02*
X104050D01*
Y45956D01*
X104600D01*
Y46506D01*
D02*
G37*
G36*
X103750D02*
X103200D01*
Y45956D01*
X103750D01*
Y46506D01*
D02*
G37*
G36*
X100776Y43967D02*
X100276D01*
Y43417D01*
X100776D01*
Y43967D01*
D02*
G37*
G36*
X99976D02*
X99476D01*
Y43417D01*
X99976D01*
Y43967D01*
D02*
G37*
G36*
X100776Y43117D02*
X100276D01*
Y42567D01*
X100776D01*
Y43117D01*
D02*
G37*
G36*
X99976D02*
X99476D01*
Y42567D01*
X99976D01*
Y43117D01*
D02*
G37*
G36*
X115889Y41735D02*
X114939D01*
Y40685D01*
X115889D01*
Y41735D01*
D02*
G37*
G36*
Y40385D02*
X114939D01*
Y39335D01*
X115889D01*
Y40385D01*
D02*
G37*
G36*
X68158Y46040D02*
Y45298D01*
X68899D01*
X68846Y45495D01*
X68728Y45701D01*
X68560Y45868D01*
X68355Y45987D01*
X68158Y46040D01*
D02*
G37*
G36*
X67858D02*
X67660Y45987D01*
X67455Y45868D01*
X67288Y45701D01*
X67169Y45495D01*
X67116Y45298D01*
X67858D01*
Y46040D01*
D02*
G37*
G36*
X68899Y44998D02*
X68158D01*
Y44256D01*
X68355Y44309D01*
X68560Y44428D01*
X68728Y44595D01*
X68846Y44801D01*
X68899Y44998D01*
D02*
G37*
G36*
X67858D02*
X67116D01*
X67169Y44801D01*
X67288Y44595D01*
X67455Y44428D01*
X67660Y44309D01*
X67858Y44256D01*
Y44998D01*
D02*
G37*
G36*
X72123Y45923D02*
X70773D01*
Y43273D01*
X72123D01*
Y45923D01*
D02*
G37*
G36*
X63207Y42287D02*
Y41737D01*
X63757D01*
Y42287D01*
X63207D01*
D02*
G37*
G36*
X106086Y35163D02*
X105914D01*
X105749Y35119D01*
X105601Y35033D01*
X105480Y34912D01*
X105394Y34764D01*
X105350Y34599D01*
Y34428D01*
X105394Y34262D01*
X105480Y34114D01*
X105601Y33993D01*
X105749Y33908D01*
X105914Y33863D01*
X106086D01*
X106251Y33908D01*
X106399Y33993D01*
X106520Y34114D01*
X106606Y34262D01*
X106650Y34428D01*
Y34599D01*
X106606Y34764D01*
X106520Y34912D01*
X106399Y35033D01*
X106251Y35119D01*
X106086Y35163D01*
D02*
G37*
G36*
X182690Y31015D02*
X182190D01*
Y30465D01*
X182690D01*
Y31015D01*
D02*
G37*
G36*
X181890D02*
X181390D01*
Y30465D01*
X181890D01*
Y31015D01*
D02*
G37*
G36*
X160768Y30620D02*
X160597D01*
X160432Y30576D01*
X160284Y30490D01*
X160163Y30369D01*
X160077Y30221D01*
X160033Y30056D01*
Y29885D01*
X160077Y29719D01*
X160163Y29571D01*
X160284Y29450D01*
X160432Y29364D01*
X160597Y29320D01*
X160768D01*
X160934Y29364D01*
X161082Y29450D01*
X161203Y29571D01*
X161288Y29719D01*
X161333Y29885D01*
Y30056D01*
X161288Y30221D01*
X161203Y30369D01*
X161082Y30490D01*
X160934Y30576D01*
X160768Y30620D01*
D02*
G37*
G36*
X186512Y29140D02*
X185700D01*
Y28765D01*
X186512D01*
Y29140D01*
D02*
G37*
G36*
X185400D02*
X184587D01*
Y28765D01*
X185400D01*
Y29140D01*
D02*
G37*
G36*
X99672Y26682D02*
X99122D01*
Y26132D01*
X99672D01*
Y26682D01*
D02*
G37*
G36*
X66215Y29721D02*
X65665D01*
Y29171D01*
X66215D01*
Y29721D01*
D02*
G37*
G36*
Y28871D02*
X65665D01*
Y28321D01*
X66215D01*
Y28871D01*
D02*
G37*
G36*
X189777Y23995D02*
X188927D01*
Y23195D01*
X189777D01*
Y23995D01*
D02*
G37*
G36*
X188627D02*
X187777D01*
Y23195D01*
X188627D01*
Y23995D01*
D02*
G37*
G36*
X189777Y22895D02*
X188927D01*
Y22095D01*
X189777D01*
Y22895D01*
D02*
G37*
G36*
X188627D02*
X187777D01*
Y22095D01*
X188627D01*
Y22895D01*
D02*
G37*
G36*
X192417Y24095D02*
X190217D01*
Y21995D01*
X192417D01*
Y24095D01*
D02*
G37*
G36*
X151138Y24163D02*
X150288D01*
Y23363D01*
X151138D01*
Y24163D01*
D02*
G37*
G36*
X149988D02*
X149138D01*
Y23363D01*
X149988D01*
Y24163D01*
D02*
G37*
G36*
X151138Y23063D02*
X150288D01*
Y22263D01*
X151138D01*
Y23063D01*
D02*
G37*
G36*
X149988D02*
X149138D01*
Y22263D01*
X149988D01*
Y23063D01*
D02*
G37*
G36*
X153778Y24263D02*
X151578D01*
Y22163D01*
X153778D01*
Y24263D01*
D02*
G37*
%LPD*%
D13*
X173553Y21853D02*
Y24847D01*
X173500Y21800D02*
X173553Y21853D01*
Y24847D02*
X173606Y24900D01*
X184151Y26300D02*
X184310Y26459D01*
X165549Y26300D02*
X184151D01*
X165349Y26500D02*
X165549Y26300D01*
X188076Y26459D02*
X188235Y26617D01*
X184310Y26459D02*
X188076D01*
X188235Y26617D02*
Y36248D01*
X143650Y29250D02*
X146400Y26500D01*
X165349D01*
X164700Y20600D02*
Y25300D01*
X165200Y25800D01*
X157983Y25900D02*
X158700Y25183D01*
X155400Y25900D02*
X157983D01*
X158700Y21400D02*
Y25183D01*
X157900Y20600D02*
X158700Y21400D01*
X156200Y20600D02*
X157900D01*
X145800Y19100D02*
Y25800D01*
Y19100D02*
X146900Y18000D01*
X148300D01*
X113260Y34160D02*
X113300Y34200D01*
X112280Y34160D02*
X113260D01*
X113252Y32552D02*
X113300Y32600D01*
X112286Y32552D02*
X113252D01*
X113364Y29364D02*
X113400Y29400D01*
X112298Y29364D02*
X113364D01*
X113361Y30961D02*
X113400Y31000D01*
X112297Y30961D02*
X113361D01*
X142022Y37022D02*
X142100Y37100D01*
X140986Y37022D02*
X142022D01*
X108805Y28560D02*
X112840D01*
X113800Y27600D01*
X142000D01*
X116791Y29006D02*
X140606D01*
X141400Y29800D01*
X142000Y27600D02*
X143650Y29250D01*
X99461Y28152D02*
X99488Y28125D01*
X98300Y28152D02*
X99461D01*
X98373Y29827D02*
X99438D01*
X98300Y29900D02*
X98373Y29827D01*
X98480Y31503D02*
X99436D01*
X98407Y31576D02*
X98480Y31503D01*
X96145Y25100D02*
X102549D01*
X95200Y26045D02*
X96145Y25100D01*
X95200Y26045D02*
Y32483D01*
X102965Y25516D02*
X105750D01*
X106027Y24807D02*
Y25240D01*
Y24807D02*
X106070Y24763D01*
X105750Y25516D02*
X106027Y25240D01*
X102549Y25100D02*
X102965Y25516D01*
X96017Y33300D02*
X98394D01*
X95200Y32483D02*
X96017Y33300D01*
X98400D02*
X98542Y33158D01*
X99436D01*
X98235Y36501D02*
X98244Y36510D01*
X99416D01*
X195881Y29078D02*
X195903Y29100D01*
X194859Y29078D02*
X195881D01*
X196134Y26600D02*
X196900Y27366D01*
X192500Y25800D02*
X193300Y26600D01*
X196134D01*
X194783Y30779D02*
X194862Y30700D01*
X196600D01*
X196900Y30400D01*
Y27366D02*
Y30400D01*
X184500Y25800D02*
X192500D01*
X200099Y32501D02*
X200900Y31700D01*
X194740Y32501D02*
X200099D01*
X200900Y26900D02*
Y31700D01*
X199800Y25800D02*
X200900Y26900D01*
X194099Y25800D02*
X199800D01*
X203450Y25950D02*
X203500Y25900D01*
X202850Y25950D02*
X203450D01*
X202300Y26500D02*
X202850Y25950D01*
X202300Y26500D02*
Y32900D01*
X194718Y34170D02*
X201030D01*
X202300Y32900D01*
X120993Y48000D02*
X122700D01*
X120975Y47982D02*
X120993Y48000D01*
X152655Y34515D02*
Y35606D01*
X152718Y35669D01*
X162194Y44000D02*
X169400D01*
X153863Y35669D02*
X162194Y44000D01*
X152718Y35669D02*
X153863D01*
X169400Y44000D02*
X171304Y42096D01*
X193604D01*
X196000Y39700D02*
X199400D01*
X193604Y42096D02*
X196000Y39700D01*
X152500Y40000D02*
X152718Y39782D01*
Y37369D02*
Y39782D01*
X151567Y40000D02*
X152500D01*
X150458Y40809D02*
X150758D01*
X151567Y40000D01*
X56320Y31016D02*
X60436Y26900D01*
X57131Y25830D02*
X57150D01*
X168084Y38662D02*
X169422Y40000D01*
X182749D01*
X188950Y37550D02*
X189590Y36910D01*
X190974D01*
X184450Y37550D02*
X188950D01*
X184200Y37800D02*
X184450Y37550D01*
X185550Y36910D02*
X187573D01*
X188235Y36248D01*
X184200Y37800D02*
Y38549D01*
X182749Y40000D02*
X184200Y38549D01*
X171100Y41588D02*
X181704D01*
X168606D02*
X171100D01*
X171121Y40774D02*
Y41566D01*
X171100Y41588D02*
X171121Y41566D01*
X188597Y39632D02*
X188762Y39797D01*
X188597Y39114D02*
Y39632D01*
X187583Y38100D02*
X188597Y39114D01*
X185550Y38180D02*
X185629Y38100D01*
X187583D01*
X181704Y41588D02*
X185112Y38180D01*
X185550D01*
X62867Y34850D02*
X70950D01*
X62818Y34801D02*
X62867Y34850D01*
X58898Y35401D02*
X71247D01*
X52855Y29357D02*
X58898Y35401D01*
X98549Y35751D02*
X99416Y34884D01*
X51897Y28895D02*
X58753Y35751D01*
X71247Y35401D02*
X71649Y35000D01*
X58753Y35751D02*
X98549D01*
X95877Y36976D02*
X96162Y37260D01*
X87209Y36950D02*
X87235Y36976D01*
X77216Y38301D02*
X78567Y36950D01*
X87209D01*
X87235Y36976D02*
X95877D01*
X77964Y38399D02*
X79062Y37300D01*
X77071Y37951D02*
X77700Y37322D01*
X55643Y38301D02*
X77216D01*
X77964Y38399D02*
Y38402D01*
X60207Y37951D02*
X77071D01*
X77700Y36800D02*
Y37322D01*
X47939Y30597D02*
X55643Y38301D01*
X98993Y56993D02*
X99900Y57900D01*
X86693Y56993D02*
X98993D01*
X86112Y56412D02*
X86693Y56993D01*
X85762Y56843D02*
X86719Y57800D01*
X86112Y39988D02*
Y56412D01*
X85762Y37417D02*
Y56843D01*
X79062Y37300D02*
X85645D01*
X85762Y37417D01*
X86112Y39988D02*
X88100Y38000D01*
X92700D01*
X46850Y29243D02*
X47758Y28334D01*
X50591D01*
X60207Y37951D01*
X46500Y28311D02*
Y33265D01*
X48160Y26651D02*
X52451D01*
X46500Y28311D02*
X48160Y26651D01*
X52451D02*
X52855Y27055D01*
X46850Y29243D02*
Y33120D01*
X46500Y33265D02*
X52236Y39001D01*
X47488Y26263D02*
X56698D01*
X52381Y38651D02*
X75243D01*
X46850Y33120D02*
X52381Y38651D01*
X52236Y39001D02*
X75098D01*
X47928Y30597D02*
X47939D01*
X75098Y39001D02*
X75300Y39203D01*
X75243Y38651D02*
X77396Y40803D01*
X75300Y39203D02*
Y47800D01*
X77396Y40803D02*
Y46396D01*
X81500Y50500D01*
Y56885D01*
X78100Y57600D02*
X80785D01*
X81500Y56885D01*
X52855Y27055D02*
Y29357D01*
X51897Y27346D02*
Y28895D01*
X63800Y49900D02*
X64698Y49002D01*
X74098D01*
X75300Y47800D01*
X63800Y56679D02*
X65021Y57900D01*
X67200D01*
X63800Y49900D02*
Y56679D01*
X44702Y29049D02*
X47488Y26263D01*
X56698D02*
X57131Y25830D01*
X71649Y35000D02*
X77700D01*
X63932Y33100D02*
X74600D01*
X86719Y57800D02*
X88600D01*
X113615Y37260D02*
X114513Y36363D01*
X96162Y37260D02*
X113615D01*
X62923Y33901D02*
X72728D01*
X72765Y33865D01*
X62806Y33289D02*
Y33784D01*
X62923Y33901D01*
X62700Y31700D02*
Y31835D01*
X62876Y32011D02*
Y32043D01*
X62700Y31835D02*
X62876Y32011D01*
Y32043D02*
X63932Y33100D01*
X62773Y33256D02*
X62806Y33289D01*
X70950Y34850D02*
X71000Y34800D01*
X60436Y26900D02*
X66600D01*
X99416Y34834D02*
Y34884D01*
X114513Y31284D02*
Y36363D01*
Y31284D02*
X116791Y29006D01*
X144500Y30900D02*
X147100Y28300D01*
X144500Y30900D02*
Y34503D01*
X141800Y35100D02*
X143903D01*
X144500Y34503D01*
X142229Y30671D02*
X143650Y29250D01*
X142229Y30671D02*
Y33214D01*
X141400Y34700D02*
X141800Y35100D01*
X141400Y29800D02*
Y34700D01*
X44702Y29049D02*
Y36741D01*
X45161Y37200D01*
X45900D01*
X45693Y35508D02*
X45697Y35505D01*
Y31203D02*
X45700Y31200D01*
X45697Y31203D02*
Y35505D01*
X35181Y30083D02*
Y33881D01*
X35200Y33900D01*
X35162Y30064D02*
X35181Y30083D01*
X166906Y41588D02*
X167000Y41682D01*
Y43000D01*
X128232Y54863D02*
Y57385D01*
X128659Y57812D02*
X131946D01*
X128232Y57385D02*
X128659Y57812D01*
X119807Y59407D02*
X126403D01*
X127525Y58285D01*
X116709Y56309D02*
X119807Y59407D01*
X115590Y54490D02*
X119953Y58853D01*
X126725Y53700D02*
Y58173D01*
X126044Y58853D02*
X126725Y58173D01*
X119953Y58853D02*
X126044D01*
X147951Y44632D02*
X147958Y44625D01*
X185475Y36985D02*
X185550Y36910D01*
X150458Y44595D02*
X150552Y44689D01*
X122995Y50400D02*
X125369D01*
X107409Y52750D02*
X120645D01*
X122995Y50400D01*
X114021Y52400D02*
X120437D01*
X127525Y45312D01*
Y36632D02*
Y45312D01*
X107319Y52660D02*
X107409Y52750D01*
X96421Y52200D02*
Y53226D01*
Y52200D02*
X97521Y51100D01*
X112721D01*
X114021Y52400D01*
X125369Y50400D02*
X125925Y50955D01*
Y52132D01*
X127525D02*
Y58285D01*
X107278Y54490D02*
X115590D01*
X107275Y56309D02*
X116709D01*
X101549Y38592D02*
X116700D01*
X101300Y38841D02*
Y40090D01*
Y38841D02*
X101549Y38592D01*
X101183Y40207D02*
X101300Y40090D01*
X117940Y42381D02*
X118727Y43169D01*
X117590Y42581D02*
X118990Y43982D01*
X120975D01*
X117590Y39481D02*
Y42581D01*
X118727Y43169D02*
X120962D01*
X117940Y39336D02*
Y42381D01*
X100383Y40207D02*
X101183D01*
X100391Y38242D02*
X116845D01*
X117940Y39336D01*
X116700Y38592D02*
X117590Y39481D01*
D18*
X142939Y42524D02*
X142950Y42512D01*
X135077D02*
X135158Y42432D01*
X136425D01*
X135023Y42512D02*
X135077D01*
X141736Y42524D02*
X142939D01*
X136425Y42432D02*
X136475Y42382D01*
X141725Y42535D02*
X141736Y42524D01*
X141781Y40796D02*
X143055D01*
X141744Y40759D02*
X141781Y40796D01*
X187451Y49962D02*
X187950Y49463D01*
X201663D02*
X202607Y50407D01*
X187950Y49463D02*
X201663D01*
X186453Y44165D02*
X187701D01*
X64400Y61238D02*
X65730D01*
X65779Y61189D01*
X187701Y44165D02*
X187750Y44116D01*
X87032Y61197D02*
X87080Y61150D01*
X85644Y61197D02*
X87032D01*
X195900Y43200D02*
Y46836D01*
X164972Y47128D02*
X195607D01*
X195900Y46836D01*
X162480Y47194D02*
X164617D01*
X195900Y43200D02*
X197856Y41244D01*
X206500Y41993D02*
Y50650D01*
X205751Y41244D02*
X206500Y41993D01*
X197856Y41244D02*
X205751D01*
X204546Y52604D02*
X206500Y50650D01*
X202607Y54607D02*
X202900Y54900D01*
X202607Y50407D02*
Y54607D01*
X152252Y44689D02*
X152262Y44679D01*
X153321D02*
X153332Y44668D01*
X152262Y44679D02*
X153321D01*
X130600Y26700D02*
X130907Y26393D01*
Y24743D02*
Y26393D01*
X121141Y26407D02*
X121434Y26700D01*
X130600D01*
X121141Y24767D02*
Y26407D01*
X123015Y20185D02*
X130539D01*
X121900Y21300D02*
X123015Y20185D01*
X140700Y20500D02*
Y23010D01*
X140497Y23213D02*
X140700Y23010D01*
X130539Y20185D02*
X140385D01*
X140700Y20500D01*
X121120Y21631D02*
Y23428D01*
X121413Y21338D02*
X121862D01*
X121120Y21631D02*
X121413Y21338D01*
X121862D02*
X121900Y21300D01*
X34193Y81301D02*
Y83507D01*
X33900Y83800D02*
X34193Y83507D01*
X23693Y83507D02*
X23986Y83800D01*
X23693Y81301D02*
Y83507D01*
X23986Y83800D02*
X33900D01*
X125125Y38136D02*
X125139Y38150D01*
X125125Y36632D02*
Y38136D01*
X98980Y25980D02*
X99820D01*
X99822Y25982D01*
X98978Y25978D02*
X98980Y25980D01*
X110290Y27290D02*
X110300Y27300D01*
X108805Y27290D02*
X110290D01*
X145760Y31935D02*
X150044Y27650D01*
X173911D01*
X174014Y27547D02*
X187408D01*
X173911Y27650D02*
X174014Y27547D01*
X101800Y23545D02*
Y24443D01*
Y23545D02*
X101918Y23428D01*
X190455Y42696D02*
Y43951D01*
X190284Y53821D02*
Y54650D01*
Y53821D02*
X190290Y53816D01*
X197799Y57274D02*
X197871D01*
X197900Y57303D01*
Y58100D01*
X197440Y51264D02*
Y52360D01*
X197400Y52400D02*
X197440Y52360D01*
X108805Y36180D02*
X110472D01*
X110483Y36191D01*
X111392Y24719D02*
X111417Y24694D01*
Y23428D02*
Y24694D01*
X160672Y40075D02*
X160726D01*
X160859Y39942D01*
X162157D01*
X162164Y39934D01*
X178900Y53800D02*
Y56987D01*
X178607Y57280D02*
X178900Y56987D01*
X162100Y58500D02*
X163320Y57280D01*
X178607D01*
X185431Y36941D02*
X185475Y36985D01*
X184005Y36941D02*
X185431D01*
X183160Y37786D02*
X184005Y36941D01*
X175100Y44200D02*
X176223D01*
X176307Y44116D01*
X180791Y34277D02*
X180845D01*
X180974Y34406D02*
X182045D01*
X180845Y34277D02*
X180974Y34406D01*
X182060Y31184D02*
Y36021D01*
X78061Y40207D02*
X79144D01*
X78055Y40214D02*
X78061Y40207D01*
X84847Y37918D02*
Y38834D01*
Y37918D02*
X84865Y37900D01*
X84830Y38852D02*
X84847Y38834D01*
X73692Y58650D02*
X74300Y58043D01*
X56785Y58650D02*
X73692D01*
X53100Y58943D02*
X53606Y58437D01*
X56571D01*
X56785Y58650D01*
X53100Y58943D02*
Y67834D01*
X57485Y40307D02*
Y41577D01*
X57474Y40297D02*
X57485Y40307D01*
Y41577D02*
X57495Y41587D01*
X92400Y54805D02*
Y55800D01*
Y54805D02*
X92415Y54790D01*
X130662Y50600D02*
X132832D01*
X130660Y50602D02*
X130662Y50600D01*
X122661Y61201D02*
X122711Y61151D01*
Y60016D02*
Y61151D01*
X134698Y52158D02*
Y54694D01*
X134671Y54720D02*
X134698Y54694D01*
Y52158D02*
X134725Y52132D01*
X131400Y49600D02*
X133312D01*
X133925Y50213D01*
Y52132D01*
X132832Y50600D02*
X133125Y50893D01*
Y52132D01*
X194618Y35939D02*
X194806Y35751D01*
X195826Y35589D02*
X195880D01*
X195664Y35751D02*
X195826Y35589D01*
X194806Y35751D02*
X195664D01*
X145200Y44724D02*
X145238Y44685D01*
X146198D02*
X146251Y44632D01*
X145238Y44685D02*
X146198D01*
X158958Y47282D02*
X158959Y47282D01*
X160252D01*
X140068Y43391D02*
X140096Y43363D01*
Y42564D02*
Y43363D01*
Y42564D02*
X140125Y42535D01*
X138026Y43182D02*
X138048Y43203D01*
X136475Y43182D02*
X138026D01*
X147958Y42709D02*
Y44625D01*
X126742Y32533D02*
X127686D01*
X127724Y32571D01*
X126704Y32495D02*
X126742Y32533D01*
X183100Y37895D02*
X183160Y37836D01*
X183100Y37895D02*
Y38800D01*
X145760Y31935D02*
Y37040D01*
X153850Y42800D02*
X153864Y42785D01*
X152718Y42800D02*
X153850D01*
X152627Y42708D02*
X152718Y42800D01*
X150458Y42708D02*
X152627D01*
X150458Y42709D02*
Y44595D01*
X58100Y51500D02*
X58482Y51882D01*
Y53748D01*
X49500Y51500D02*
X58100D01*
X48256Y52744D02*
Y59099D01*
Y52744D02*
X49500Y51500D01*
X130004Y59159D02*
X130043Y59198D01*
Y60010D02*
X131183Y61150D01*
X131233D01*
X130043Y59198D02*
Y60010D01*
X120089Y62500D02*
X120121Y62468D01*
Y61201D02*
Y62468D01*
X107797Y59159D02*
X108585D01*
X109075Y59650D02*
Y61150D01*
X107759Y59121D02*
X107797Y59159D01*
X108585D02*
X109075Y59650D01*
X96600Y60900D02*
X96850Y61150D01*
X98175D01*
X55105Y59225D02*
X55398Y59518D01*
X54263Y59225D02*
X55105D01*
X55398Y59518D02*
Y61189D01*
X54224Y59187D02*
X54263Y59225D01*
X74300Y56145D02*
Y58043D01*
X76460Y61150D02*
X76500Y61110D01*
X76207Y59160D02*
X76500Y59453D01*
X75395Y59160D02*
X76207D01*
X76500Y59453D02*
Y61110D01*
X142100Y60969D02*
X142281Y61150D01*
X142100Y59431D02*
Y60969D01*
X140675Y59138D02*
X141807D01*
X142100Y59431D01*
X151764Y59173D02*
X151803Y59211D01*
X152705D02*
X153337Y59843D01*
X151803Y59211D02*
X152705D01*
X153337Y59843D02*
Y61150D01*
X164300Y61048D02*
X164401Y61150D01*
X164007Y59156D02*
X164300Y59449D01*
X163439Y59156D02*
X164007D01*
X164300Y59449D02*
Y61048D01*
X175588Y61150D02*
X175638D01*
X174297Y59960D02*
X174398D01*
X175588Y61150D01*
X174259Y59922D02*
X174297Y59960D01*
X187043Y61182D02*
X187075Y61150D01*
X185761Y61182D02*
X187043D01*
X66640Y56240D02*
X68483D01*
X65900Y55500D02*
X66640Y56240D01*
X68483D02*
X68527Y56196D01*
X66193Y50228D02*
X68008D01*
X65900Y50521D02*
X66193Y50228D01*
X65900Y50521D02*
Y55500D01*
X79068Y50521D02*
Y53748D01*
X78775Y50228D02*
X79068Y50521D01*
X68008Y50228D02*
X78775D01*
X37318Y72618D02*
X37800Y73100D01*
X42300D01*
X37318Y70755D02*
Y72618D01*
X104439Y23447D02*
Y24677D01*
Y23447D02*
X104458Y23428D01*
X49416Y14165D02*
X49431D01*
X49447Y14150D02*
X49460D01*
X49431Y14165D02*
X49447Y14150D01*
X7000Y14150D02*
X7454Y13696D01*
Y12993D02*
X7747Y12700D01*
X7454Y12993D02*
Y13696D01*
X7747Y12700D02*
X9800D01*
X4510Y14150D02*
X5411Y15051D01*
X4460Y14150D02*
X4510D01*
X5411Y15051D02*
X5464D01*
X194478Y54722D02*
X195355Y53845D01*
X194478Y54722D02*
Y68755D01*
X195150Y69427D01*
X193800Y57724D02*
Y69255D01*
X192538Y56462D02*
X193800Y57724D01*
X192200Y70855D02*
X193800Y69255D01*
X195150Y69427D02*
X198264D01*
X198246Y50129D02*
X199142Y51026D01*
X188671Y50129D02*
X198246D01*
X199142Y51026D02*
Y53552D01*
X198849Y53845D02*
X199142Y53552D01*
X195355Y53845D02*
X198849D01*
X185961Y50793D02*
X188007D01*
X185668Y49089D02*
Y50500D01*
X185961Y50793D01*
X188007D02*
X188671Y50129D01*
X185630Y49051D02*
X185668Y49089D01*
X187397Y49962D02*
X187451D01*
X193536Y51264D02*
X195740D01*
X192830Y51970D02*
X193536Y51264D01*
X197828Y55424D02*
X198209D01*
X198879Y56093D02*
Y57079D01*
X199630Y57830D01*
X197799Y55394D02*
X197828Y55424D01*
X198209D02*
X198879Y56093D01*
X199630Y57830D02*
Y60106D01*
X199650Y60086D01*
X201479D01*
X197730Y60106D02*
Y61401D01*
X195528Y61693D02*
X197437D01*
X197730Y61401D01*
X196126Y57274D02*
X197799D01*
X195528Y57872D02*
X196126Y57274D01*
X195528Y57872D02*
Y59993D01*
X202262Y70330D02*
X204765D01*
X202900Y54900D02*
X204765D01*
X205058Y55193D01*
X204765Y70330D02*
X205058Y70037D01*
Y55193D02*
Y70037D01*
X198693Y81175D02*
X199660Y80208D01*
X198693Y81175D02*
Y81301D01*
X199660Y68691D02*
Y80208D01*
X198686Y67718D02*
X199660Y68691D01*
X198686Y62013D02*
Y67718D01*
X162100Y58500D02*
Y73800D01*
X162583Y74283D01*
X193411D01*
X198680Y62006D02*
X198686Y62013D01*
X171100Y9400D02*
Y10800D01*
X177307Y7800D02*
X177600Y7507D01*
X171100Y9400D02*
X172700Y7800D01*
X177600Y5805D02*
Y7507D01*
X172700Y7800D02*
X177307D01*
X177600Y5805D02*
X177707Y5698D01*
X34792Y7388D02*
X46509D01*
X34499Y7095D02*
X34792Y7388D01*
X34499Y6004D02*
Y7095D01*
X46509Y7388D02*
X47208Y8087D01*
X47262D01*
X34193Y5698D02*
X34499Y6004D01*
X28000Y8400D02*
X36907D01*
X36938Y8368D01*
X27193Y7593D02*
X28000Y8400D01*
X27193Y5698D02*
Y7593D01*
X20193Y7893D02*
X20800Y8500D01*
X26400D01*
X20193Y5698D02*
Y7893D01*
X192538Y56462D02*
X192830Y56170D01*
X192200Y56800D02*
X192538Y56462D01*
X192200Y70855D02*
Y70900D01*
X178306Y59758D02*
Y61022D01*
X181387Y53816D02*
Y56001D01*
X182186Y56800D02*
X192200D01*
X181387Y56001D02*
X182186Y56800D01*
X192830Y51970D02*
Y53816D01*
Y56170D01*
X70848Y70900D02*
X70859Y70889D01*
X70800Y70900D02*
X70848D01*
X60462Y70905D02*
X60478Y70889D01*
X60462Y70905D02*
Y70907D01*
X118580Y13728D02*
Y13769D01*
X118586Y13776D01*
X38963Y14159D02*
X38972Y14150D01*
X38976D01*
X28360Y14142D02*
X28368Y14150D01*
X28339Y14142D02*
X28360D01*
X16846Y14146D02*
Y14150D01*
Y14146D02*
X16868Y14124D01*
X39080Y66120D02*
X39101Y66099D01*
X38151Y68076D02*
Y68383D01*
X38201Y68433D02*
X39724D01*
X40030Y68126D02*
X42067D01*
X38151Y68383D02*
X38201Y68433D01*
X39724D02*
X40030Y68126D01*
X36456Y64083D02*
X37173Y64801D01*
X36456Y64083D02*
X36456D01*
X37173Y64801D02*
X37201D01*
X39125Y64508D02*
X40189Y65572D01*
X37493Y64508D02*
X39125D01*
X37201Y64801D02*
X37493Y64508D01*
X40189Y65572D02*
X42052D01*
X201479Y61786D02*
Y67079D01*
X201500Y67100D01*
X203314Y61786D02*
X203900Y61200D01*
X201479Y61786D02*
X203314D01*
X203900Y56800D02*
Y61200D01*
X203434Y56334D02*
X203900Y56800D01*
X199983Y56334D02*
X203434D01*
X126725Y52132D02*
Y53700D01*
X89648Y54835D02*
X89725Y54758D01*
X89648Y54835D02*
Y55691D01*
X87289Y54781D02*
Y55656D01*
X87274Y54765D02*
X87289Y54781D01*
X92392Y43300D02*
X94932D01*
X89852D02*
X92392D01*
X87312D02*
X89852D01*
X121512Y54648D02*
X121542Y54618D01*
X120416Y54678D02*
X120446Y54648D01*
X121512D01*
X134940Y43974D02*
X134948Y43982D01*
X136475D01*
X138213Y44782D02*
X138238Y44757D01*
X136475Y44782D02*
X138213D01*
X129900Y38200D02*
X129925Y38175D01*
Y36632D02*
Y38175D01*
X129125Y34575D02*
X129200Y34500D01*
X129125Y34575D02*
Y36632D01*
X128325D02*
Y38083D01*
X128328Y38087D01*
X162392Y46408D02*
Y47282D01*
Y46408D02*
X162400Y46400D01*
X154102Y54903D02*
Y55813D01*
X154053Y54854D02*
X154102Y54903D01*
X144723Y50415D02*
Y51555D01*
X144713Y50406D02*
X144723Y50415D01*
X152743Y41124D02*
X153655D01*
X152718Y41100D02*
X152743Y41124D01*
X152668Y41100D02*
X152718D01*
X150458Y41759D02*
X152009D01*
X152668Y41100D01*
X150500Y35400D02*
X150533Y35433D01*
Y36697D01*
X147961Y35284D02*
Y36661D01*
X147996Y36697D01*
X140068Y41598D02*
X140125Y41654D01*
X136491Y41598D02*
X140068D01*
X140134Y40768D02*
Y41582D01*
X140125Y41654D02*
Y42535D01*
X140134Y40768D02*
X140144Y40759D01*
X112819Y49697D02*
X112833Y49683D01*
X113973D01*
X103900Y45575D02*
Y46656D01*
Y45575D02*
X103966Y45509D01*
Y45455D02*
Y45509D01*
X101102Y43267D02*
X101107Y43272D01*
X100126Y43267D02*
X101102D01*
X184073Y29290D02*
X185550D01*
X184061Y29302D02*
X184073Y29290D01*
X180988Y31199D02*
X181023Y31165D01*
X182040D01*
X194550Y38204D02*
X195979D01*
X195987Y38211D01*
X190290Y44116D02*
X190455Y43951D01*
X178867Y42798D02*
Y44096D01*
Y42798D02*
X178909Y42756D01*
Y42702D02*
Y42756D01*
X189673Y59634D02*
Y61092D01*
X189615Y61150D02*
X189673Y61092D01*
X178178Y61150D02*
X178306Y61022D01*
X166941Y61150D02*
X167051Y61040D01*
Y59692D02*
Y61040D01*
X155877Y59823D02*
X155900Y59800D01*
X155877Y59823D02*
Y61150D01*
X144821D02*
X144841Y61129D01*
Y59774D02*
Y61129D01*
X133773Y59822D02*
Y61150D01*
Y59822D02*
X133781Y59814D01*
X111727Y59853D02*
Y61037D01*
X111615Y61150D02*
X111727Y61037D01*
X100715Y61150D02*
X100801Y61063D01*
Y59712D02*
Y61063D01*
X89620Y59699D02*
X89637Y59682D01*
X89620Y59699D02*
Y61150D01*
X79000Y61150D02*
X79100Y61050D01*
Y59700D02*
Y61050D01*
X68319Y59749D02*
X68332Y59735D01*
X68319Y59749D02*
Y61189D01*
X57938Y59850D02*
Y61189D01*
Y59850D02*
X57959Y59828D01*
X65002Y29018D02*
X65005Y29021D01*
X66365D01*
X64293Y41587D02*
X64327Y41621D01*
X63057Y41587D02*
X64293D01*
X53402Y42737D02*
Y44598D01*
X53395Y42730D02*
X53402Y42737D01*
X47879Y39005D02*
X49172D01*
Y43172D02*
X50598Y44598D01*
X53402D01*
X49172Y39005D02*
Y43172D01*
X12713Y53269D02*
X13746D01*
X12645Y53201D02*
X12713Y53269D01*
X12500Y51383D02*
Y53056D01*
X12793Y51090D02*
X14286D01*
X12500Y53056D02*
X12645Y53201D01*
X12500Y51383D02*
X12793Y51090D01*
X47879Y39005D02*
Y39011D01*
X39317Y36605D02*
X40582D01*
X39317D02*
Y36656D01*
X39966Y31500D02*
Y33265D01*
Y31500D02*
X40000D01*
X15919Y37023D02*
X17263D01*
X17420Y36865D01*
X198318Y23068D02*
X198341Y23045D01*
X198318Y23068D02*
Y24376D01*
X188756Y24547D02*
X188777Y24525D01*
Y23045D02*
Y24525D01*
X178900Y24500D02*
X178983Y24417D01*
Y23045D02*
Y24417D01*
X169334Y23050D02*
X169339Y23045D01*
X169334Y23050D02*
Y24641D01*
X159930Y24798D02*
X159946Y24782D01*
Y23045D02*
Y24782D01*
X150093Y23258D02*
X150138Y23213D01*
X150093Y23258D02*
Y24733D01*
X140497Y23213D02*
Y24678D01*
X130921Y23428D02*
Y24729D01*
X130907Y24743D02*
X130921Y24729D01*
X121120Y24745D02*
X121141Y24767D01*
X121120Y23428D02*
Y24745D01*
X30856Y23902D02*
Y25541D01*
Y23902D02*
X30908Y23850D01*
X19386D02*
X19438Y23902D01*
Y25531D01*
X7000Y23850D02*
Y25429D01*
X6992Y25436D02*
X7000Y25429D01*
X41400Y23966D02*
Y25500D01*
Y23966D02*
X41516Y23850D01*
X62472Y23674D02*
Y25164D01*
Y23674D02*
X62502Y23644D01*
X51921Y23928D02*
Y25327D01*
Y23928D02*
X52000Y23850D01*
X72583Y25090D02*
X72616Y25123D01*
X72583Y23644D02*
Y25090D01*
X82329Y23644D02*
Y25071D01*
X82300Y25100D02*
X82329Y25071D01*
X92300Y24900D02*
X92311Y24889D01*
Y23428D02*
Y24889D01*
X163764Y41030D02*
X163825Y41091D01*
X163764Y39934D02*
Y41030D01*
X102600Y26000D02*
X102638Y26038D01*
X102582Y25982D02*
X102600Y26000D01*
X103053Y26393D02*
Y27215D01*
X102638Y26038D02*
X102699D01*
X103053Y26393D01*
Y27215D02*
X103128Y27290D01*
X103381D01*
X101422Y25982D02*
X102582D01*
X50772Y39005D02*
Y40243D01*
X50771Y40244D02*
X50772Y40243D01*
X70030Y30620D02*
Y31970D01*
X70000Y32000D02*
X70030Y31970D01*
X194618Y35939D02*
Y38136D01*
X194550Y38204D02*
X194618Y38136D01*
X192950Y39363D02*
X192972Y39385D01*
X192950Y38204D02*
Y39363D01*
X180562Y37841D02*
X181455D01*
X181460Y37836D01*
X182040Y31165D02*
X182060Y31184D01*
Y36021D02*
X182079Y36041D01*
X106600Y29200D02*
Y31700D01*
Y29200D02*
X107240Y28560D01*
X108805D01*
X105553Y29072D02*
Y30045D01*
X105040Y28560D02*
X105553Y29072D01*
X103381Y28560D02*
X105040D01*
X140978Y38860D02*
X141043Y38795D01*
X144005D02*
X145760Y37040D01*
X141043Y38795D02*
X144005D01*
X189108Y28908D02*
X189490Y29290D01*
X190974D01*
X189108Y27547D02*
Y28908D01*
X94721Y53226D02*
X94826Y53120D01*
Y51025D02*
Y53120D01*
Y51025D02*
X94932Y50920D01*
X92404Y50931D02*
Y53078D01*
X92415Y53090D01*
X92392Y50920D02*
X92404Y50931D01*
X89725Y53058D02*
X89788Y52994D01*
Y50984D02*
Y52994D01*
Y50984D02*
X89852Y50920D01*
X87293Y50939D02*
Y53046D01*
Y50939D02*
X87312Y50920D01*
X87274Y53065D02*
X87293Y53046D01*
X76528Y42474D02*
Y44598D01*
X76526Y42471D02*
X76528Y42474D01*
X55942Y42058D02*
X56413Y41587D01*
X55942Y42058D02*
Y44598D01*
X56413Y41587D02*
X57495D01*
X116732Y29968D02*
X120110D01*
X120198Y30056D01*
X115238Y31462D02*
X116732Y29968D01*
X115238Y31462D02*
Y36994D01*
X117984Y32700D02*
X122120D01*
X122600Y30194D02*
Y32220D01*
X122120Y32700D02*
X122600Y32220D01*
X117346Y33338D02*
X117984Y32700D01*
X117346Y33338D02*
Y35068D01*
X122600Y30194D02*
X122738Y30056D01*
X74050Y41979D02*
Y44537D01*
Y41979D02*
X74111Y41918D01*
X73988Y44598D02*
X74050Y44537D01*
X118482Y42089D02*
X118775Y42382D01*
X120974D01*
X118482Y38588D02*
Y42089D01*
X116938Y37044D02*
X118482Y38588D01*
X119115Y35158D02*
X119132Y35175D01*
X119425Y41582D02*
X120975D01*
X119132Y35175D02*
Y41289D01*
X119425Y41582D01*
X190537Y38180D02*
X190974D01*
X190462Y38255D02*
Y39797D01*
Y38255D02*
X190537Y38180D01*
X183160Y37786D02*
Y37836D01*
X184132Y35638D02*
X185548D01*
X183779Y35991D02*
X184132Y35638D01*
X183959Y33028D02*
X184233D01*
X184252Y33047D02*
X185497D01*
X185550Y33100D01*
X183759Y32828D02*
X183959Y33028D01*
X184233D02*
X184252Y33047D01*
X183759Y32778D02*
Y32828D01*
X183740Y31215D02*
X184280Y31755D01*
X185475D02*
X185550Y31830D01*
X184280Y31755D02*
X185475D01*
X183740Y31165D02*
Y31215D01*
X183745Y34406D02*
X183763Y34388D01*
X185532D02*
X185550Y34370D01*
X183763Y34388D02*
X185532D01*
X183779Y35991D02*
Y36041D01*
X190987Y34356D02*
X192832D01*
X193018Y34170D01*
X192959Y29278D02*
Y29365D01*
X191839Y30485D02*
X192959Y29365D01*
Y29278D02*
X193159Y29078D01*
X191049Y30485D02*
X191839D01*
X190974Y30560D02*
X191049Y30485D01*
X192080Y31788D02*
X192839Y31029D01*
X191016Y31788D02*
X192080D01*
X190974Y31830D02*
X191016Y31788D01*
X192839Y31029D02*
X192883D01*
X192956Y30956D01*
Y30912D02*
Y30956D01*
X192469Y33122D02*
X193040Y32551D01*
X190996Y33122D02*
X192469D01*
X193040Y32501D02*
Y32551D01*
X192986Y35854D02*
Y35871D01*
X192786Y35654D02*
X192986Y35854D01*
X190988Y35654D02*
X192786D01*
X190986Y38192D02*
X192938D01*
X190974Y38180D02*
X190986Y38192D01*
X192938D02*
X192950Y38204D01*
X102038Y29265D02*
X102528Y29755D01*
X101714Y28375D02*
X102038Y28699D01*
Y29265D01*
X101388Y28375D02*
X101714D01*
X101188Y28175D02*
X101388Y28375D01*
X102528Y29755D02*
X103306D01*
X103381Y29830D01*
X101492Y30077D02*
X102440Y31025D01*
X101338Y30077D02*
X101492D01*
X102440Y31025D02*
X103306D01*
X101629Y33640D02*
X103381D01*
X101136Y33158D02*
Y33208D01*
X101398Y33408D02*
X101629Y33640D01*
X101336Y33408D02*
X101398D01*
X101136Y33208D02*
X101336Y33408D01*
X101188Y28125D02*
Y28175D01*
X101138Y29827D02*
Y29877D01*
X101338Y30077D01*
X101116Y36460D02*
X101316Y36260D01*
X101530D01*
X101608Y36182D01*
X103379D01*
X103381Y36180D01*
X101116Y36460D02*
Y36510D01*
X101136Y31553D02*
X101933Y32349D01*
X103361D01*
X102868Y34834D02*
X102944Y34910D01*
X101116Y34834D02*
X102868D01*
X102944Y34910D02*
X103381D01*
X101136Y31503D02*
Y31553D01*
X103306Y31025D02*
X103381Y31100D01*
X110182Y29830D02*
X110598Y29414D01*
Y29364D02*
Y29414D01*
X108805Y29830D02*
X110182D01*
X108805Y31100D02*
X108874Y31031D01*
X110528D01*
X110597Y30961D01*
X108805Y32370D02*
X110403D01*
X110586Y32552D01*
X108805Y33640D02*
X110110D01*
X110580Y34110D01*
Y34160D01*
X132868Y54671D02*
X133555Y53985D01*
X133925Y52132D02*
Y53632D01*
X131558Y53570D02*
X132824D01*
X133117Y53277D01*
X133571Y53985D02*
X133925Y53632D01*
X133555Y53985D02*
X133571D01*
X133117Y52139D02*
Y53277D01*
X131051Y54659D02*
X131066D01*
X131266Y54459D01*
Y53863D02*
X131558Y53570D01*
X131266Y53863D02*
Y54459D01*
X125125Y55926D02*
X125126Y55927D01*
X125125Y52132D02*
Y55926D01*
X125125Y52132D02*
X125125Y52132D01*
X123242Y54568D02*
X124325Y53486D01*
Y52132D02*
Y53486D01*
X123242Y54568D02*
Y54618D01*
X116938Y36994D02*
Y37044D01*
X126704Y34195D02*
X126714Y34205D01*
Y36621D01*
X126725Y36632D01*
X140511Y35185D02*
X140520Y35176D01*
Y33223D02*
X140529Y33214D01*
X140520Y33223D02*
Y35176D01*
X134718Y35515D02*
X135048Y35185D01*
X134718Y35515D02*
Y36625D01*
X135048Y35185D02*
X138811D01*
X134718Y36625D02*
X134725Y36632D01*
X137967Y38393D02*
X139086Y37274D01*
X136487Y38393D02*
X137967D01*
X139086Y37222D02*
Y37274D01*
Y37222D02*
X139286Y37022D01*
X136475Y39182D02*
X137767D01*
X137768Y39181D01*
X139278Y38860D02*
Y38910D01*
X136475Y39982D02*
X138207D01*
X139278Y38910D01*
X136482Y40774D02*
X138189D01*
X138196Y40767D01*
X136475Y40782D02*
X136482Y40774D01*
X162392Y47282D02*
X162480Y47194D01*
X164617D02*
X164620Y47191D01*
X166628Y53337D02*
X167755D01*
X166622Y53343D02*
X166628Y53337D01*
X146653Y38304D02*
X146660Y38297D01*
X147996D01*
X147977Y38309D02*
Y40790D01*
X147958Y40809D02*
X147977Y40790D01*
Y38309D02*
X147984Y38302D01*
X147996Y38297D02*
X150533D01*
X80740Y40211D02*
Y41420D01*
Y40211D02*
X80744Y40207D01*
X80737Y41423D02*
X80740Y41420D01*
X82489Y40207D02*
X82834Y40552D01*
X84830D01*
X80744Y40207D02*
X82489D01*
X94949Y43283D02*
X98410D01*
X98426Y43267D01*
X94932Y43300D02*
X94949Y43283D01*
X106034Y42157D02*
Y42989D01*
X106327Y43282D02*
X108229D01*
X106034Y42989D02*
X106327Y43282D01*
X106010Y42134D02*
X106034Y42157D01*
X110893Y44802D02*
Y47444D01*
Y44802D02*
X110959Y44735D01*
X110893Y47444D02*
X111186Y47737D01*
X112435D01*
X109603Y43279D02*
X111100Y44776D01*
X119321Y47979D02*
X120972D01*
X118900Y48400D02*
X119321Y47979D01*
X118900Y48400D02*
Y49200D01*
X118403Y49697D02*
X118900Y49200D01*
X117400Y49697D02*
X118403D01*
X115580Y49690D02*
X117393D01*
X115573Y49683D02*
X115580Y49690D01*
X117393D02*
X117400Y49697D01*
X113973Y49683D02*
X114004Y49652D01*
Y47768D02*
X114035Y47737D01*
X114004Y47768D02*
Y49652D01*
X114035Y41093D02*
Y47737D01*
Y41093D02*
X114328Y40800D01*
X115775D01*
X116039Y40535D01*
X108232Y43279D02*
X109603D01*
X108482Y41363D02*
X109309Y40535D01*
X108282Y41579D02*
X108482Y41379D01*
X109309Y40535D02*
X110959D01*
X108482Y41363D02*
Y41379D01*
X108232Y41579D02*
X108282D01*
X116085Y44782D02*
X120975D01*
X116039Y44735D02*
X116085Y44782D01*
X120973Y46383D02*
X120975Y46382D01*
X119325Y46385D02*
X119326Y46383D01*
X120973D01*
X118266Y47182D02*
X120975D01*
X37598Y40134D02*
Y40559D01*
Y38493D02*
Y40134D01*
X105044Y48256D02*
X105100Y48200D01*
X103900Y48256D02*
X105044D01*
X158072Y53158D02*
Y54388D01*
X157607Y54854D02*
X158072Y54388D01*
X154053Y54854D02*
X157607D01*
X158072Y53158D02*
X158091Y53138D01*
X117398Y48000D02*
X117400Y47997D01*
X116400Y48000D02*
X117398D01*
X117451Y47997D02*
X118266Y47182D01*
X117400Y47997D02*
X117451D01*
X141734Y40768D02*
Y42526D01*
Y40768D02*
X141744Y40759D01*
X141725Y42535D02*
X141734Y42526D01*
X136477Y49584D02*
X139716D01*
X140468Y48832D01*
X141636D02*
X142619D01*
X142628Y48841D01*
X140468Y48832D02*
X141636D01*
X136489Y48796D02*
X138204D01*
X138900Y48100D01*
Y47393D02*
X139327Y46966D01*
X138900Y47393D02*
Y48100D01*
X139327Y46966D02*
X140893D01*
X138676Y51824D02*
X139030Y51470D01*
X137124Y51824D02*
X138676D01*
X139030Y50382D02*
X141585D01*
X136475D02*
X139030D01*
Y51470D01*
X37598Y38493D02*
X37891Y38200D01*
X40577D01*
X40582Y38205D01*
X40592Y38215D01*
X42608D01*
X42619Y38226D01*
X45900Y66856D02*
X47489D01*
X45444D02*
X45900D01*
X46193Y65586D02*
X47489D01*
X45900Y65879D02*
X46193Y65586D01*
X45900Y65879D02*
Y66856D01*
X47489Y68126D02*
X52807D01*
X53100Y67834D01*
X70100Y53900D02*
X71323D01*
X68293D02*
X70100D01*
X70127Y53927D02*
Y56196D01*
X70100Y53900D02*
X70127Y53927D01*
X71448Y53748D02*
Y53775D01*
X68000Y52776D02*
Y53607D01*
X71323Y53900D02*
X71448Y53775D01*
X68000Y53607D02*
X68293Y53900D01*
X68000Y52776D02*
X68008Y52768D01*
X70152Y56170D02*
X72574D01*
X72600Y56145D01*
X70127Y56196D02*
X70152Y56170D01*
X75700Y56200D02*
X76528Y55372D01*
X74355Y56200D02*
X75700D01*
X76528Y53748D02*
Y55372D01*
X51000Y64700D02*
X52033D01*
X52035Y64698D01*
X45884Y62287D02*
X46983D01*
X46988Y62282D01*
X55942Y53748D02*
Y56258D01*
X50500Y57593D02*
X50793Y57300D01*
X54900D01*
X50500Y57593D02*
Y62600D01*
X54900Y57300D02*
X55942Y56258D01*
X48784Y64316D02*
X50500Y62600D01*
X47489Y64316D02*
X48784D01*
X49023Y65600D02*
X49040Y65584D01*
X47503Y65600D02*
X49023D01*
X47489Y65586D02*
X47503Y65600D01*
X47489Y66856D02*
X49544D01*
X50043Y66357D02*
X50943D01*
X51000Y66300D01*
X49544Y66856D02*
X50043Y66357D01*
X46585Y57936D02*
Y59070D01*
X46556Y59099D02*
X46585Y59070D01*
Y57936D02*
X46613Y57908D01*
X42067Y59533D02*
X42501Y59099D01*
X42067Y59533D02*
Y64316D01*
X42501Y59099D02*
X46556D01*
X42731Y71352D02*
X42752Y71331D01*
Y70217D02*
Y71331D01*
X33851Y64985D02*
X33859Y64993D01*
Y66234D01*
X44184Y62287D02*
Y64816D01*
X43414Y65586D02*
X44184Y64816D01*
X42067Y65586D02*
X43414D01*
X42052Y65572D02*
X42067Y65586D01*
X37201Y64801D02*
Y66099D01*
X42081Y66870D02*
X43248D01*
X43541Y67163D02*
Y68743D01*
X43248Y66870D02*
X43541Y67163D01*
X42923Y69361D02*
X43541Y68743D01*
X44510Y67790D02*
X45444Y66856D01*
X44452Y70217D02*
X44510Y70160D01*
Y67790D02*
Y70160D01*
X42923Y69361D02*
Y70047D01*
X42752Y70217D02*
X42923Y70047D01*
X39800Y66300D02*
X40356Y66856D01*
X42067D01*
X39151Y66300D02*
X39800D01*
X39101Y66099D02*
Y66250D01*
X39151Y66300D01*
X35628Y66392D02*
Y67442D01*
Y66392D02*
X35921Y66099D01*
X34924Y68146D02*
X35628Y67442D01*
X35921Y66099D02*
X37201D01*
X34924Y68146D02*
Y68196D01*
X38101Y68049D02*
X38151Y67999D01*
X37318Y69282D02*
X38101Y68499D01*
Y68049D02*
Y68499D01*
X37318Y69282D02*
Y70755D01*
D58*
X190974Y38180D02*
D03*
Y36910D02*
D03*
Y35640D02*
D03*
Y34370D02*
D03*
Y33100D02*
D03*
Y31830D02*
D03*
Y30560D02*
D03*
Y29290D02*
D03*
X185550D02*
D03*
Y30560D02*
D03*
Y31830D02*
D03*
Y33100D02*
D03*
Y34370D02*
D03*
Y35640D02*
D03*
Y36910D02*
D03*
Y38180D02*
D03*
X103381Y27290D02*
D03*
Y28560D02*
D03*
Y29830D02*
D03*
Y31100D02*
D03*
Y32370D02*
D03*
Y33640D02*
D03*
Y34910D02*
D03*
Y36180D02*
D03*
X108805D02*
D03*
Y34910D02*
D03*
Y33640D02*
D03*
Y32370D02*
D03*
Y31100D02*
D03*
Y29830D02*
D03*
Y28560D02*
D03*
Y27290D02*
D03*
D59*
X134725Y52132D02*
D03*
X133925D02*
D03*
X133125D02*
D03*
X132325D02*
D03*
X131525D02*
D03*
X130725D02*
D03*
X129925D02*
D03*
X129125D02*
D03*
X128325D02*
D03*
X127525D02*
D03*
X126725D02*
D03*
X125925D02*
D03*
X125125D02*
D03*
X124325D02*
D03*
X123525D02*
D03*
X122725D02*
D03*
Y36632D02*
D03*
X123525D02*
D03*
X124325D02*
D03*
X125125D02*
D03*
X125925D02*
D03*
X126725D02*
D03*
X127525D02*
D03*
X128325D02*
D03*
X129125D02*
D03*
X129925D02*
D03*
X130725D02*
D03*
X131525D02*
D03*
X132325D02*
D03*
X133125D02*
D03*
X133925D02*
D03*
X134725D02*
D03*
D60*
X120975Y50382D02*
D03*
Y49582D02*
D03*
Y48782D02*
D03*
Y47982D02*
D03*
Y47182D02*
D03*
Y46382D02*
D03*
Y45582D02*
D03*
Y44782D02*
D03*
Y43982D02*
D03*
Y43182D02*
D03*
Y42382D02*
D03*
Y41582D02*
D03*
Y40782D02*
D03*
Y39982D02*
D03*
Y39182D02*
D03*
Y38382D02*
D03*
X136475D02*
D03*
Y39182D02*
D03*
Y39982D02*
D03*
Y40782D02*
D03*
Y41582D02*
D03*
Y42382D02*
D03*
Y43182D02*
D03*
Y43982D02*
D03*
Y44782D02*
D03*
Y45582D02*
D03*
Y46382D02*
D03*
Y47182D02*
D03*
Y47982D02*
D03*
Y48782D02*
D03*
Y49582D02*
D03*
Y50382D02*
D03*
D61*
X99438Y29827D02*
D03*
X101138D02*
D03*
X183160Y37836D02*
D03*
X181460D02*
D03*
X166906Y41588D02*
D03*
X168606D02*
D03*
X43633Y53176D02*
D03*
X45333D02*
D03*
X188762Y39797D02*
D03*
X190462D02*
D03*
X140529Y33214D02*
D03*
X142229D02*
D03*
X187408Y27547D02*
D03*
X189108D02*
D03*
X193083Y30779D02*
D03*
X194783D02*
D03*
X193040Y32501D02*
D03*
X194740D02*
D03*
X193018Y34170D02*
D03*
X194718D02*
D03*
X183759Y32778D02*
D03*
X182059D02*
D03*
X183779Y36041D02*
D03*
X182079D02*
D03*
X183745Y34406D02*
D03*
X182045D02*
D03*
X192986Y35871D02*
D03*
X194686D02*
D03*
X193159Y29078D02*
D03*
X194859D02*
D03*
X183740Y31165D02*
D03*
X182040D02*
D03*
X101136Y33158D02*
D03*
X99436D02*
D03*
X101116Y36510D02*
D03*
X99416D02*
D03*
X110586Y32552D02*
D03*
X112286D02*
D03*
X110598Y29364D02*
D03*
X112298D02*
D03*
X110580Y34160D02*
D03*
X112280D02*
D03*
X101136Y31503D02*
D03*
X99436D02*
D03*
X101116Y34834D02*
D03*
X99416D02*
D03*
X110597Y30961D02*
D03*
X112297D02*
D03*
X101188Y28125D02*
D03*
X99488D02*
D03*
X169455Y53337D02*
D03*
X167755D02*
D03*
X147951Y44632D02*
D03*
X146251D02*
D03*
X150552Y44689D02*
D03*
X152252D02*
D03*
X140978Y38860D02*
D03*
X139278D02*
D03*
X140986Y37022D02*
D03*
X139286D02*
D03*
X140511Y35185D02*
D03*
X138811D02*
D03*
X98688Y38238D02*
D03*
X100388D02*
D03*
X98683Y40207D02*
D03*
X100383D02*
D03*
X119046Y35068D02*
D03*
X117346D02*
D03*
X116938Y36994D02*
D03*
X115238D02*
D03*
X123242Y54618D02*
D03*
X121542D02*
D03*
X105619Y52660D02*
D03*
X107319D02*
D03*
X105578Y54490D02*
D03*
X107278D02*
D03*
X105575Y56309D02*
D03*
X107275D02*
D03*
X100126Y43267D02*
D03*
X98426D02*
D03*
X94721Y53226D02*
D03*
X96421D02*
D03*
X197440Y51264D02*
D03*
X195740D02*
D03*
X72411Y41918D02*
D03*
X74111D02*
D03*
X72600Y56145D02*
D03*
X74300D02*
D03*
X59195Y41587D02*
D03*
X57495D02*
D03*
X46556Y59099D02*
D03*
X48256D02*
D03*
X44184Y62287D02*
D03*
X45884D02*
D03*
X44452Y70217D02*
D03*
X42752D02*
D03*
X33859Y66234D02*
D03*
X32159D02*
D03*
X34924Y68196D02*
D03*
X33224D02*
D03*
D62*
X84830Y38852D02*
D03*
Y40552D02*
D03*
X125126Y57627D02*
D03*
Y55927D02*
D03*
X152718Y37369D02*
D03*
Y35669D02*
D03*
X160252Y47282D02*
D03*
Y48982D02*
D03*
X162392Y47282D02*
D03*
Y48982D02*
D03*
X126704Y32495D02*
D03*
Y34195D02*
D03*
X152718Y41100D02*
D03*
Y42800D02*
D03*
X117400Y49697D02*
D03*
Y47997D02*
D03*
X131051Y54659D02*
D03*
Y56359D02*
D03*
X132813Y54677D02*
D03*
Y56377D02*
D03*
X134671Y56420D02*
D03*
Y54720D02*
D03*
X108232Y41579D02*
D03*
Y43279D02*
D03*
X87274Y53065D02*
D03*
Y54765D02*
D03*
X89725Y53058D02*
D03*
Y54758D02*
D03*
X195528Y59993D02*
D03*
Y61693D02*
D03*
X201479Y61786D02*
D03*
Y60086D02*
D03*
X42619Y38226D02*
D03*
Y36526D02*
D03*
X92415Y54790D02*
D03*
Y53090D02*
D03*
D63*
X66365Y29021D02*
D03*
X67965D02*
D03*
X194550Y38204D02*
D03*
X192950D02*
D03*
X162164Y39934D02*
D03*
X163764D02*
D03*
X99822Y25982D02*
D03*
X101422D02*
D03*
X79144Y40207D02*
D03*
X80744D02*
D03*
X49172Y39005D02*
D03*
X50772D02*
D03*
X140144Y40759D02*
D03*
X141744D02*
D03*
X113973Y49683D02*
D03*
X115573D02*
D03*
X140125Y42535D02*
D03*
X141725D02*
D03*
X114035Y47737D02*
D03*
X112435D02*
D03*
X68527Y56196D02*
D03*
X70127D02*
D03*
X61457Y41587D02*
D03*
X63057D02*
D03*
X15886Y51090D02*
D03*
X14286D02*
D03*
X15147Y71047D02*
D03*
X13547D02*
D03*
X9676Y71047D02*
D03*
X11276D02*
D03*
D64*
X70030Y30620D02*
D03*
Y29020D02*
D03*
X158091Y53138D02*
D03*
Y51538D02*
D03*
X156189Y53155D02*
D03*
Y51555D02*
D03*
X154053Y54854D02*
D03*
Y53254D02*
D03*
X141636Y48832D02*
D03*
Y50432D02*
D03*
X144723Y51555D02*
D03*
Y53155D02*
D03*
X150533Y36697D02*
D03*
Y38297D02*
D03*
X147996Y36697D02*
D03*
Y38297D02*
D03*
X103900Y46656D02*
D03*
Y48256D02*
D03*
X51000Y66300D02*
D03*
Y64700D02*
D03*
X40582Y38205D02*
D03*
Y36605D02*
D03*
D65*
X195801Y23045D02*
D03*
X198341D02*
D03*
X200881D02*
D03*
Y13345D02*
D03*
X198341D02*
D03*
X195801D02*
D03*
X186237Y23045D02*
D03*
X188777D02*
D03*
X191317D02*
D03*
Y13345D02*
D03*
X188777D02*
D03*
X186237D02*
D03*
X176443Y23045D02*
D03*
X178983D02*
D03*
X181523D02*
D03*
Y13345D02*
D03*
X178983D02*
D03*
X176443D02*
D03*
X166799Y23045D02*
D03*
X169339D02*
D03*
X171879D02*
D03*
Y13345D02*
D03*
X169339D02*
D03*
X166799D02*
D03*
X157406Y23045D02*
D03*
X159946D02*
D03*
X162486D02*
D03*
Y13345D02*
D03*
X159946D02*
D03*
X157406D02*
D03*
X147598Y23213D02*
D03*
X150138D02*
D03*
X152678D02*
D03*
Y13513D02*
D03*
X150138D02*
D03*
X147598D02*
D03*
X137957Y23213D02*
D03*
X140497D02*
D03*
X143037D02*
D03*
Y13513D02*
D03*
X140497D02*
D03*
X137957D02*
D03*
X128381Y23428D02*
D03*
X130921D02*
D03*
X133461D02*
D03*
Y13728D02*
D03*
X130921D02*
D03*
X128381D02*
D03*
X118580Y23428D02*
D03*
X121120D02*
D03*
X123660D02*
D03*
Y13728D02*
D03*
X121120D02*
D03*
X118580D02*
D03*
X108877Y23428D02*
D03*
X111417D02*
D03*
X113957D02*
D03*
Y13728D02*
D03*
X111417D02*
D03*
X108877D02*
D03*
X99378Y23428D02*
D03*
X101918D02*
D03*
X104458D02*
D03*
Y13728D02*
D03*
X101918D02*
D03*
X99378D02*
D03*
X89771Y23428D02*
D03*
X92311D02*
D03*
X94851D02*
D03*
Y13728D02*
D03*
X92311D02*
D03*
X89771D02*
D03*
X79789Y23644D02*
D03*
X82329D02*
D03*
X84869D02*
D03*
Y13944D02*
D03*
X82329D02*
D03*
X79789D02*
D03*
X70043Y23644D02*
D03*
X72583D02*
D03*
X75123D02*
D03*
Y13944D02*
D03*
X72583D02*
D03*
X70043D02*
D03*
X59962Y23644D02*
D03*
X62502D02*
D03*
X65042D02*
D03*
Y13944D02*
D03*
X62502D02*
D03*
X59962D02*
D03*
X49460Y23850D02*
D03*
X52000D02*
D03*
X54540D02*
D03*
Y14150D02*
D03*
X52000D02*
D03*
X49460D02*
D03*
X38976Y23850D02*
D03*
X41516D02*
D03*
X44056D02*
D03*
Y14150D02*
D03*
X41516D02*
D03*
X38976D02*
D03*
X16846Y23850D02*
D03*
X19386D02*
D03*
X21926D02*
D03*
Y14150D02*
D03*
X19386D02*
D03*
X16846D02*
D03*
X4460Y23850D02*
D03*
X7000D02*
D03*
X9540D02*
D03*
Y14150D02*
D03*
X7000D02*
D03*
X4460D02*
D03*
X192830Y44116D02*
D03*
X190290D02*
D03*
X187750D02*
D03*
Y53816D02*
D03*
X190290D02*
D03*
X192830D02*
D03*
X181387Y44116D02*
D03*
X178847D02*
D03*
X176307D02*
D03*
Y53816D02*
D03*
X178847D02*
D03*
X181387D02*
D03*
X192155Y61150D02*
D03*
X189615D02*
D03*
X187075D02*
D03*
Y70850D02*
D03*
X189615D02*
D03*
X192155D02*
D03*
X180718Y61150D02*
D03*
X178178D02*
D03*
X175638D02*
D03*
Y70850D02*
D03*
X178178D02*
D03*
X180718D02*
D03*
X169481Y61150D02*
D03*
X166941D02*
D03*
X164401D02*
D03*
Y70850D02*
D03*
X166941D02*
D03*
X169481D02*
D03*
X158417Y61150D02*
D03*
X155877D02*
D03*
X153337D02*
D03*
Y70850D02*
D03*
X155877D02*
D03*
X158417D02*
D03*
X28368Y23850D02*
D03*
X30908D02*
D03*
X33448D02*
D03*
Y14150D02*
D03*
X30908D02*
D03*
X28368D02*
D03*
X147361Y61150D02*
D03*
X144821D02*
D03*
X142281D02*
D03*
Y70850D02*
D03*
X144821D02*
D03*
X147361D02*
D03*
X136313Y61150D02*
D03*
X133773D02*
D03*
X131233D02*
D03*
Y70850D02*
D03*
X133773D02*
D03*
X136313D02*
D03*
X125201Y61201D02*
D03*
X122661D02*
D03*
X120121D02*
D03*
Y70901D02*
D03*
X122661D02*
D03*
X125201D02*
D03*
X114155Y61150D02*
D03*
X111615D02*
D03*
X109075D02*
D03*
Y70850D02*
D03*
X111615D02*
D03*
X114155D02*
D03*
X103255Y61150D02*
D03*
X100715D02*
D03*
X98175D02*
D03*
Y70850D02*
D03*
X100715D02*
D03*
X103255D02*
D03*
X92160D02*
D03*
X89620D02*
D03*
X87080D02*
D03*
Y61150D02*
D03*
X89620D02*
D03*
X92160D02*
D03*
X81540Y70850D02*
D03*
X79000D02*
D03*
X76460D02*
D03*
Y61150D02*
D03*
X79000D02*
D03*
X81540D02*
D03*
X70859Y70889D02*
D03*
X68319D02*
D03*
X65779D02*
D03*
Y61189D02*
D03*
X68319D02*
D03*
X70859D02*
D03*
X60478Y70889D02*
D03*
X57938D02*
D03*
X55398D02*
D03*
Y61189D02*
D03*
X57938D02*
D03*
X60478D02*
D03*
D66*
X147752Y53197D02*
D03*
X152052D02*
D03*
D67*
X166520Y48141D02*
D03*
X164620Y47191D02*
D03*
Y49091D02*
D03*
D68*
X169458Y51186D02*
D03*
Y48086D02*
D03*
D69*
X147958Y40809D02*
D03*
Y42709D02*
D03*
X150458D02*
D03*
Y41759D02*
D03*
Y40809D02*
D03*
D70*
X197799Y57274D02*
D03*
Y55394D02*
D03*
D71*
X199983Y56334D02*
D03*
D72*
X71448Y53748D02*
D03*
X73988D02*
D03*
X76528D02*
D03*
X79068D02*
D03*
Y44598D02*
D03*
X76528D02*
D03*
X73988D02*
D03*
X71448D02*
D03*
X61022D02*
D03*
X58482D02*
D03*
X55942D02*
D03*
X53402D02*
D03*
Y53748D02*
D03*
X55942D02*
D03*
X58482D02*
D03*
X61022D02*
D03*
D73*
X42067Y64316D02*
D03*
Y65586D02*
D03*
Y66856D02*
D03*
Y68126D02*
D03*
X47489D02*
D03*
Y66856D02*
D03*
Y65586D02*
D03*
Y64316D02*
D03*
D74*
X37201Y66099D02*
D03*
X39101D02*
D03*
X38151Y67999D02*
D03*
X197730Y60106D02*
D03*
X199630D02*
D03*
X198680Y62006D02*
D03*
D75*
X34418Y70755D02*
D03*
X37318D02*
D03*
X9678Y67838D02*
D03*
X6778D02*
D03*
D76*
X39966Y33265D02*
D03*
X43066D02*
D03*
D77*
X17420Y36865D02*
D03*
X21720D02*
D03*
D78*
X37598Y40559D02*
D03*
X28298D02*
D03*
D79*
X29726Y48561D02*
D03*
X31426D02*
D03*
X33126D02*
D03*
X34826D02*
D03*
X36526D02*
D03*
D80*
X33126Y59236D02*
D03*
D81*
X37909Y61776D02*
D03*
X28344D02*
D03*
D82*
X17982Y63201D02*
D03*
Y53201D02*
D03*
X22982Y63201D02*
D03*
Y53201D02*
D03*
X7645Y63201D02*
D03*
Y53201D02*
D03*
X12645Y63201D02*
D03*
Y53201D02*
D03*
D83*
X17412Y67313D02*
D03*
X13382D02*
D03*
D84*
X110959Y40535D02*
D03*
X116039D02*
D03*
Y44735D02*
D03*
X110959D02*
D03*
D85*
X13193Y71400D02*
X13547Y71047D01*
X13193Y71400D02*
Y81301D01*
X9676Y71047D02*
X9678Y71044D01*
D86*
X9676Y71047D02*
X9684Y71055D01*
Y81293D01*
X9693Y81301D01*
X45333Y51589D02*
Y53176D01*
X43238Y49494D02*
X45333Y51589D01*
X22935Y53248D02*
X22982Y53201D01*
X21627Y53248D02*
X22935D01*
X37600Y40561D02*
Y42966D01*
X59195Y41587D02*
X59195Y41587D01*
X61457D01*
X37600Y40561D02*
X37939Y40900D01*
X37598Y40559D02*
X37600Y40561D01*
X42200Y40900D02*
X43238Y41938D01*
Y45994D01*
X37939Y40900D02*
X42200D01*
X34418Y70755D02*
Y81076D01*
X34193Y81301D02*
X34418Y81076D01*
X30693Y69307D02*
X31804Y68196D01*
X30693Y69307D02*
Y81301D01*
X31804Y68196D02*
X33224D01*
X27193Y69707D02*
Y81301D01*
X30400Y66500D02*
X30666Y66234D01*
X27193Y69707D02*
X30400Y66500D01*
X30666Y66234D02*
X32159D01*
X32610Y51400D02*
X33078Y50931D01*
X23566Y51400D02*
X32610D01*
X33078Y48609D02*
Y50931D01*
X23097Y51869D02*
X23566Y51400D01*
X23097Y51869D02*
Y53086D01*
X22982Y53201D02*
X23097Y53086D01*
X36526Y52526D02*
X37176Y53176D01*
X43633D01*
X36526Y48561D02*
Y52526D01*
X34826Y43903D02*
Y48561D01*
X35295Y43435D02*
X37131D01*
X37600Y42966D01*
X34826Y43903D02*
X35295Y43435D01*
X30600Y42900D02*
X31461Y43761D01*
Y48526D01*
X28400Y40661D02*
Y42431D01*
X28869Y42900D01*
X30600D01*
X28298Y40559D02*
X28400Y40661D01*
X21726Y40090D02*
X22195Y40559D01*
X21726Y36870D02*
Y40090D01*
X22195Y40559D02*
X28298D01*
X28925Y44725D02*
X29726Y45526D01*
Y48561D01*
X20006Y44725D02*
X28925D01*
X15886Y48569D02*
Y51090D01*
Y48569D02*
X16354Y48100D01*
X18800D01*
X20006Y46894D01*
Y44725D02*
Y46894D01*
X18800Y41700D02*
X20006Y42906D01*
Y44725D01*
X5700Y41700D02*
X18800D01*
X4808Y42592D02*
X5700Y41700D01*
X4808Y42592D02*
Y44725D01*
X17968Y51768D02*
Y53187D01*
X17290Y51090D02*
X17968Y51768D01*
Y53187D02*
X17982Y53201D01*
X15886Y51090D02*
X17290D01*
X5301Y53201D02*
X7645D01*
X4808Y52708D02*
X5301Y53201D01*
X4808Y44725D02*
Y52708D01*
X12700Y63300D02*
X12799Y63201D01*
X13295Y67400D02*
X13382Y67313D01*
X17982Y63201D02*
X19399D01*
X19400Y63200D01*
X9800Y61100D02*
X22300D01*
X22968Y61768D02*
Y63187D01*
X22300Y61100D02*
X22968Y61768D01*
Y63187D02*
X22982Y63201D01*
X8831D02*
X9300Y62732D01*
Y61600D02*
Y62732D01*
X7645Y63201D02*
X8831D01*
X9300Y61600D02*
X9800Y61100D01*
X17412Y67313D02*
X17500Y67225D01*
Y65769D02*
Y67225D01*
Y65769D02*
X17969Y65300D01*
X22431D01*
X22900Y63283D02*
Y64831D01*
X22431Y65300D02*
X22900Y64831D01*
Y63283D02*
X22982Y63201D01*
X15700Y67416D02*
X17309D01*
X17412Y67313D01*
X15147Y67969D02*
X15700Y67416D01*
X15147Y67969D02*
Y71047D01*
X6778Y65422D02*
Y67838D01*
Y65422D02*
X7600Y64600D01*
Y63245D02*
Y64600D01*
Y63245D02*
X7645Y63201D01*
X9678Y67838D02*
Y71044D01*
X13547Y71047D02*
X13547Y71047D01*
X11276Y71047D02*
X11276Y71047D01*
X13547D01*
X12799Y63201D02*
X17982D01*
X13547Y71047D02*
X13600Y70994D01*
Y69600D02*
Y70994D01*
X13400Y69400D02*
X13600Y69600D01*
X13400Y67332D02*
Y69400D01*
X13382Y67313D02*
X13400Y67332D01*
D87*
X174549Y48251D02*
X185961D01*
X186389Y48678D02*
X196983D01*
X173000Y49800D02*
X174549Y48251D01*
X185961D02*
X186389Y48678D01*
X196983D02*
X197762Y47899D01*
X181739Y46200D02*
X192400D01*
X181387Y45849D02*
X181739Y46200D01*
X181387Y44116D02*
Y45849D01*
X128381Y21719D02*
X129115Y20985D01*
X137560D01*
X137911Y21336D01*
Y23167D01*
X147598Y21563D02*
Y24869D01*
X147950Y21211D02*
X155522D01*
X157356Y23045D01*
X147598Y21563D02*
X147950Y21211D01*
X157356Y23045D02*
X157406D01*
X128381Y23428D02*
Y24766D01*
Y21719D02*
Y23428D01*
X60670Y46925D02*
X61022Y46573D01*
X44169Y46925D02*
X60670D01*
X43238Y45994D02*
X44169Y46925D01*
X3159Y23851D02*
X4459D01*
X4460Y23850D01*
X3158Y23851D02*
X3159Y23851D01*
X197762Y43038D02*
Y47899D01*
X159930Y61178D02*
X159949Y61197D01*
X158417Y61150D02*
Y62849D01*
X158066Y63200D02*
X158417Y62849D01*
X158446Y61178D02*
X159930D01*
X147712Y63200D02*
X158066D01*
X137850Y61150D02*
X137900Y61200D01*
X136313Y61150D02*
X137850D01*
X62100Y61189D02*
X62114Y61203D01*
X60478Y61189D02*
X62100D01*
X147591Y24877D02*
X147598Y24869D01*
X118446Y23561D02*
X118580Y23428D01*
X118446Y23561D02*
Y24830D01*
X197762Y43038D02*
X198356Y42444D01*
X204546D01*
X160252Y48982D02*
X162392D01*
X160252Y48982D02*
X160252Y48982D01*
X162392D02*
X162392Y48982D01*
X162500Y49091D01*
X164620D01*
X169403Y48141D02*
X169458Y48086D01*
X166520Y48141D02*
X169403D01*
X169456Y51188D02*
Y53336D01*
X169455Y53337D02*
X169456Y53336D01*
Y51188D02*
X169458Y51186D01*
X168141Y55800D02*
X172649D01*
X173000Y49800D02*
Y55449D01*
X172649Y55800D02*
X173000Y55449D01*
X167789Y53371D02*
Y55449D01*
X168141Y55800D01*
X195808Y21208D02*
Y24514D01*
X37598Y40134D02*
X37600Y40136D01*
X36798Y39334D02*
X37598Y40134D01*
X37600Y40136D02*
Y40561D01*
X192155Y61150D02*
X192216Y61089D01*
Y59878D02*
X192235Y59859D01*
X192216Y59878D02*
Y61089D01*
X156140Y53204D02*
X156189Y53155D01*
X154053Y53254D02*
X154102Y53204D01*
X156140D01*
X152052Y53197D02*
X152108Y53254D01*
X154053D01*
X147710Y53155D02*
X147752Y53197D01*
X144723Y53155D02*
X147710D01*
X142455D02*
X144723D01*
X141636Y52336D02*
X142455Y53155D01*
X141636Y50432D02*
Y52336D01*
X141585Y50382D02*
X141636Y50432D01*
X28719Y21868D02*
X36277D01*
Y38982D01*
Y21868D02*
X38624D01*
X36628Y39334D02*
X36798D01*
X36277Y38982D02*
X36628Y39334D01*
X160435Y51890D02*
Y57872D01*
X158758Y58224D02*
X160083D01*
X160435Y57872D01*
X158406Y58575D02*
X158758Y58224D01*
X158406Y58575D02*
Y61139D01*
X160083Y51538D02*
X160435Y51890D01*
X158091Y51538D02*
X160083D01*
X158083Y51547D02*
X158091Y51538D01*
X156189Y51555D02*
X156198Y51547D01*
X158083D01*
X191679Y63321D02*
X192200Y62800D01*
X180373Y63321D02*
X191679D01*
X192200Y61195D02*
Y62800D01*
X192155Y61150D02*
X192200Y61195D01*
X180718Y61150D02*
Y63300D01*
X192830Y44116D02*
Y45770D01*
X192400Y46200D02*
X192830Y45770D01*
X169481Y61150D02*
Y62976D01*
X169833Y63327D01*
X180366D01*
X182450Y61150D02*
X182500Y61200D01*
X180718Y61150D02*
X182450D01*
X158417D02*
X158446Y61178D01*
X147361Y62849D02*
X147712Y63200D01*
X147361Y61150D02*
Y62849D01*
X136313Y61150D02*
Y62887D01*
X135900Y63300D02*
X136313Y62887D01*
X125552Y63300D02*
X135900D01*
X125201Y61201D02*
Y62949D01*
X125552Y63300D01*
X149124Y61150D02*
X149141Y61166D01*
X147361Y61150D02*
X149124D01*
X126799Y61201D02*
X126800Y61200D01*
X125201Y61201D02*
X126799D01*
X114155Y61150D02*
Y62749D01*
X103800Y63100D02*
X113804D01*
X114155Y62749D01*
X103255Y62555D02*
X103800Y63100D01*
X103255Y61150D02*
Y62555D01*
X115750Y61150D02*
X115800Y61100D01*
X114155Y61150D02*
X115750D01*
X104810D02*
X104811Y61149D01*
X103255Y61150D02*
X104810D01*
X91800Y63200D02*
X92160Y62840D01*
Y61150D02*
Y62840D01*
X81540Y61150D02*
Y62849D01*
X81891Y63200D01*
X91800D01*
X81540Y61150D02*
X83118D01*
X83151Y61116D02*
X83178D01*
X83118Y61150D02*
X83151Y61116D01*
X92160Y61150D02*
X92164Y61154D01*
X93820D02*
X93824Y61159D01*
X92164Y61154D02*
X93820D01*
X70495Y63187D02*
X70847Y62836D01*
X60829Y63187D02*
X70495D01*
X70847Y61201D02*
Y62836D01*
X60478Y61189D02*
Y62836D01*
X60829Y63187D01*
X72337Y61189D02*
X72341Y61184D01*
X70859Y61189D02*
X72337D01*
X67965Y23938D02*
X68251Y23651D01*
X68449D01*
X67965Y23938D02*
Y29021D01*
X68449Y23651D02*
X68456Y23644D01*
X70043D01*
X182882Y44116D02*
X182885Y44118D01*
X181387Y44116D02*
X182882D01*
X38976Y23850D02*
Y25459D01*
X38989Y25472D01*
X79789Y25071D02*
X79824Y25107D01*
X79789Y23644D02*
Y25071D01*
X16846Y25443D02*
X16848Y25445D01*
X16846Y23850D02*
Y25443D01*
X59962Y23644D02*
X60000Y23606D01*
X59954Y23652D02*
X59962Y23644D01*
X28368Y23850D02*
Y25380D01*
Y22219D02*
Y23850D01*
X16846D02*
X16900Y23796D01*
X195300Y20700D02*
X195808Y21208D01*
X186237Y21051D02*
X186589Y20700D01*
X186237Y21051D02*
Y23045D01*
X186589Y20700D02*
X195300D01*
X176400Y21151D02*
Y23002D01*
X176443Y23045D01*
X176049Y20800D02*
X176400Y21151D01*
X167151Y20800D02*
X176049D01*
X166799Y21151D02*
X167151Y20800D01*
X166799Y21151D02*
Y23045D01*
X137911Y23167D02*
X137957Y23213D01*
X186200Y24473D02*
X186237Y24436D01*
X186200Y24473D02*
Y24500D01*
X186237Y23045D02*
Y24436D01*
X176443Y24723D02*
X176446Y24726D01*
X176443Y23045D02*
Y24723D01*
X166799Y23045D02*
Y24709D01*
X166788Y24720D02*
X166799Y24709D01*
X157323Y23128D02*
Y24658D01*
Y23128D02*
X157406Y23045D01*
X137957Y24747D02*
X137996Y24787D01*
X137957Y23213D02*
Y24747D01*
X128345Y24802D02*
X128381Y24766D01*
X118228Y21700D02*
X118580Y22051D01*
X109351Y21700D02*
X118228D01*
X118580Y22051D02*
Y23428D01*
X109000Y22051D02*
Y23305D01*
Y22051D02*
X109351Y21700D01*
X108877Y23428D02*
X109000Y23305D01*
X108738Y23567D02*
X108877Y23428D01*
X108738Y23567D02*
Y24811D01*
X99378Y23428D02*
X99500Y23305D01*
X90123Y21300D02*
X99149D01*
X99500Y21651D02*
Y23305D01*
X99149Y21300D02*
X99500Y21651D01*
X89771D02*
Y23428D01*
Y21651D02*
X90123Y21300D01*
X97748Y23428D02*
X99378D01*
X97744Y23431D02*
X97748Y23428D01*
X16900Y22291D02*
Y23796D01*
X16549Y21939D02*
X16900Y22291D01*
X4811Y21939D02*
X16549D01*
X4460Y22291D02*
X4811Y21939D01*
X4460Y22291D02*
Y23850D01*
X38624Y21868D02*
X38976Y22219D01*
X28368D02*
X28719Y21868D01*
X38976Y22219D02*
Y23850D01*
X49460Y22126D02*
X49811Y21775D01*
X59649D02*
X60000Y22126D01*
Y23606D01*
X49811Y21775D02*
X59649D01*
X49460Y22126D02*
Y23850D01*
X79789Y22083D02*
Y23644D01*
X70395Y21732D02*
X79437D01*
X70043Y22083D02*
Y23644D01*
Y22083D02*
X70395Y21732D01*
X79437D02*
X79789Y22083D01*
X61457Y40351D02*
X61809Y40000D01*
X72059D01*
X61457Y40351D02*
Y41587D01*
X72059Y40000D02*
X72411Y40351D01*
Y41918D01*
X71212Y29020D02*
X71217Y29025D01*
X70030Y29020D02*
X71212D01*
X67966Y29020D02*
X70029D01*
X70030Y29020D01*
X67965Y29021D02*
X67966Y29020D01*
X62900Y47100D02*
X63509Y47709D01*
X67986D01*
X62549Y44600D02*
X62900Y44951D01*
Y47100D01*
X61022Y44598D02*
X61024Y44600D01*
X62549D01*
X49411Y25263D02*
Y25290D01*
X49462Y23852D02*
Y25213D01*
X49411Y25263D02*
X49462Y25213D01*
X49460Y23850D02*
X49462Y23852D01*
X59945Y25243D02*
X59954Y25235D01*
Y23652D02*
Y25235D01*
X70033Y23654D02*
Y25159D01*
Y23654D02*
X70043Y23644D01*
X70023Y25169D02*
X70033Y25159D01*
X89771Y23428D02*
Y25025D01*
X89772Y25025D01*
X28367Y25381D02*
X28368Y25380D01*
X42708Y35592D02*
X43100Y35200D01*
X42708Y35592D02*
Y36437D01*
X42619Y36526D02*
X42708Y36437D01*
X43100Y33299D02*
Y35200D01*
X43066Y33265D02*
X43100Y33299D01*
X61022Y44598D02*
Y46573D01*
Y42878D02*
X61348Y42552D01*
Y41696D02*
Y42552D01*
Y41696D02*
X61457Y41587D01*
X61457Y41587D01*
X61022Y42878D02*
Y44598D01*
X9678Y67838D02*
X9689Y67827D01*
Y65811D02*
Y67827D01*
Y65811D02*
X9700Y65800D01*
X12000Y67400D02*
X13295D01*
X9368Y62800D02*
X10300D01*
X6200Y63200D02*
X7644D01*
X6200Y63200D02*
X6200Y63200D01*
X7644D02*
X7645Y63201D01*
D88*
X120198Y30056D02*
D03*
D89*
X122738D02*
D03*
X204546Y52604D02*
D03*
Y50064D02*
D03*
Y47524D02*
D03*
Y44984D02*
D03*
Y42444D02*
D03*
D90*
X204541Y36259D02*
D03*
Y33719D02*
D03*
Y31179D02*
D03*
X94932Y50920D02*
D03*
X92392D02*
D03*
X89852D02*
D03*
X87312D02*
D03*
Y43300D02*
D03*
X89852D02*
D03*
X92392D02*
D03*
X94932D02*
D03*
X9808Y44725D02*
D03*
D91*
X204541Y28639D02*
D03*
D92*
X204546Y39904D02*
D03*
D93*
X68008Y45148D02*
D03*
Y47688D02*
D03*
Y50228D02*
D03*
Y52768D02*
D03*
D94*
X43238Y45994D02*
D03*
D95*
Y49494D02*
D03*
X16506Y44725D02*
D03*
D96*
X20006D02*
D03*
D97*
X4808D02*
D03*
D98*
X198707Y5698D02*
D03*
X177707D02*
D03*
X188207D02*
D03*
X195207D02*
D03*
X191707D02*
D03*
X184707D02*
D03*
X181207D02*
D03*
X174207D02*
D03*
X170707D02*
D03*
X167207D02*
D03*
X146207D02*
D03*
X125207D02*
D03*
X135707D02*
D03*
X142707D02*
D03*
X139207D02*
D03*
X132207D02*
D03*
X128707D02*
D03*
X121707D02*
D03*
X118207D02*
D03*
X114707D02*
D03*
X93707D02*
D03*
X72707D02*
D03*
X83207D02*
D03*
X90207D02*
D03*
X86707D02*
D03*
X79707D02*
D03*
X76207D02*
D03*
X69207D02*
D03*
X65707D02*
D03*
X62207D02*
D03*
X37693D02*
D03*
X16693D02*
D03*
X27193D02*
D03*
X34193D02*
D03*
X30693D02*
D03*
X23693D02*
D03*
X20193D02*
D03*
X13193D02*
D03*
X9693D02*
D03*
X6193D02*
D03*
X167193Y81301D02*
D03*
X188193D02*
D03*
X177693D02*
D03*
X170693D02*
D03*
X174193D02*
D03*
X181193D02*
D03*
X184693D02*
D03*
X191693D02*
D03*
X195193D02*
D03*
X198693D02*
D03*
X114693D02*
D03*
X135693D02*
D03*
X125193D02*
D03*
X118193D02*
D03*
X121693D02*
D03*
X128693D02*
D03*
X132193D02*
D03*
X139193D02*
D03*
X142693D02*
D03*
X146193D02*
D03*
X62193D02*
D03*
X83193D02*
D03*
X72693D02*
D03*
X65693D02*
D03*
X69193D02*
D03*
X76193D02*
D03*
X79693D02*
D03*
X86693D02*
D03*
X90193D02*
D03*
X93693D02*
D03*
X9693D02*
D03*
X30693D02*
D03*
X20193D02*
D03*
X13193D02*
D03*
X16693D02*
D03*
X23693D02*
D03*
X27193D02*
D03*
X34193D02*
D03*
X37693D02*
D03*
X41193D02*
D03*
D99*
X123905Y41337D02*
D03*
X125000Y40300D02*
D03*
X122900Y39300D02*
D03*
X133484Y38600D02*
D03*
X131628Y38491D02*
D03*
X129130Y43399D02*
D03*
X205000Y20000D02*
D03*
Y22500D02*
D03*
X130000Y46857D02*
D03*
Y45000D02*
D03*
X17500Y27500D02*
D03*
X22500Y30000D02*
D03*
X12500Y35000D02*
D03*
Y32500D02*
D03*
Y30000D02*
D03*
X10000Y35000D02*
D03*
Y32500D02*
D03*
Y30000D02*
D03*
X116039Y40535D02*
D03*
X33900Y57900D02*
D03*
X31600D02*
D03*
X34800Y58900D02*
D03*
X32700D02*
D03*
X30400Y58800D02*
D03*
X36400Y60100D02*
D03*
X35300D02*
D03*
X34300D02*
D03*
X33200D02*
D03*
X32100D02*
D03*
X31000D02*
D03*
X29900D02*
D03*
X37909Y61776D02*
D03*
X28344D02*
D03*
D100*
X135023Y42512D02*
D03*
X142950D02*
D03*
X143055Y40796D02*
D03*
X186453Y44165D02*
D03*
X64400Y61238D02*
D03*
X85644Y61197D02*
D03*
X190600Y47878D02*
D03*
X178006Y46378D02*
D03*
X153332Y44668D02*
D03*
X126900Y25800D02*
D03*
X173606Y24900D02*
D03*
X130539Y20185D02*
D03*
X164700Y20600D02*
D03*
X160651Y21230D02*
D03*
X156200Y20600D02*
D03*
X148300Y18000D02*
D03*
X173500Y21800D02*
D03*
X133500Y23557D02*
D03*
X165200Y25800D02*
D03*
X145800D02*
D03*
X155400Y25900D02*
D03*
X125139Y38150D02*
D03*
X98978Y25978D02*
D03*
X142100Y37100D02*
D03*
X110300Y27300D02*
D03*
X136382Y25808D02*
D03*
X116592Y25836D02*
D03*
X98300Y28152D02*
D03*
X98300Y29900D02*
D03*
X113400Y29400D02*
D03*
Y31000D02*
D03*
X113300Y32600D02*
D03*
Y34200D02*
D03*
X98407Y31576D02*
D03*
X101800Y24443D02*
D03*
X106070Y24763D02*
D03*
X98400Y33300D02*
D03*
X98235Y36501D02*
D03*
X195903Y29100D02*
D03*
X184500Y25800D02*
D03*
X194099Y25800D02*
D03*
X203500Y25900D02*
D03*
X122700Y48000D02*
D03*
X152655Y34515D02*
D03*
X190455Y42696D02*
D03*
X199400Y39700D02*
D03*
X190284Y54650D02*
D03*
X197900Y58100D02*
D03*
X197400Y52400D02*
D03*
X56320Y31016D02*
D03*
X72387Y20270D02*
D03*
X81675Y20151D02*
D03*
X111033Y20114D02*
D03*
X91800Y20100D02*
D03*
X110483Y36191D02*
D03*
X57150Y25830D02*
D03*
X94800Y23500D02*
D03*
X111392Y24719D02*
D03*
X160672Y40075D02*
D03*
X160700Y38049D02*
D03*
X160900Y35000D02*
D03*
X160700Y36600D02*
D03*
X160683Y29970D02*
D03*
X160923Y33305D02*
D03*
X177184Y58030D02*
D03*
X166033Y58108D02*
D03*
X154919Y58144D02*
D03*
X143400Y58200D02*
D03*
X175100Y44200D02*
D03*
X180791Y34277D02*
D03*
X100064Y63381D02*
D03*
X106000Y34513D02*
D03*
X62818Y34801D02*
D03*
X77964Y38402D02*
D03*
X92700Y38000D02*
D03*
Y34700D02*
D03*
X92600Y33100D02*
D03*
X47928Y30597D02*
D03*
X78055Y40214D02*
D03*
X74600Y33100D02*
D03*
X77700Y35000D02*
D03*
X84865Y37900D02*
D03*
X134300Y58800D02*
D03*
X121500Y57900D02*
D03*
X110600Y58000D02*
D03*
X99900Y57900D02*
D03*
X88600Y57800D02*
D03*
X78100Y57600D02*
D03*
X67200Y57900D02*
D03*
X77700Y36800D02*
D03*
X72765Y33865D02*
D03*
X62700Y31700D02*
D03*
X62773Y33256D02*
D03*
X71000Y34800D02*
D03*
X59337Y29652D02*
D03*
X66600Y26900D02*
D03*
X63325Y36626D02*
D03*
X147100Y28300D02*
D03*
X51897Y27346D02*
D03*
X57474Y40297D02*
D03*
X45900Y37200D02*
D03*
X45693Y35508D02*
D03*
X45700Y31200D02*
D03*
X35162Y30064D02*
D03*
X35200Y33900D02*
D03*
X171121Y40774D02*
D03*
X167000Y43000D02*
D03*
X92400Y55800D02*
D03*
X138100Y54600D02*
D03*
X128232Y54863D02*
D03*
X130660Y50602D02*
D03*
X122711Y60016D02*
D03*
X131946Y57812D02*
D03*
X131400Y49600D02*
D03*
X195880Y35589D02*
D03*
X145200Y44724D02*
D03*
X158958Y47282D02*
D03*
X140068Y43391D02*
D03*
X138048Y43203D02*
D03*
X127724Y32571D02*
D03*
X111500Y13800D02*
D03*
X168084Y38662D02*
D03*
X183100Y38800D02*
D03*
X153864Y42785D02*
D03*
X130004Y59159D02*
D03*
X120089Y62500D02*
D03*
X107759Y59121D02*
D03*
X96600Y60900D02*
D03*
X54224Y59187D02*
D03*
X75395Y59160D02*
D03*
X140675Y59138D02*
D03*
X151764Y59173D02*
D03*
X163439Y59156D02*
D03*
X174259Y59922D02*
D03*
X185761Y61182D02*
D03*
X42300Y73100D02*
D03*
X200800Y23200D02*
D03*
X191300D02*
D03*
X181400D02*
D03*
X171800D02*
D03*
X162500D02*
D03*
X152700Y23300D02*
D03*
X142900D02*
D03*
X123600Y23500D02*
D03*
X113900D02*
D03*
X104439Y24677D02*
D03*
X84800Y23700D02*
D03*
X75100D02*
D03*
X65000D02*
D03*
X54500Y23900D02*
D03*
X43953Y23862D02*
D03*
X33390Y23846D02*
D03*
X21955Y23901D02*
D03*
X198339Y13394D02*
D03*
X188823Y13373D02*
D03*
X186206Y13469D02*
D03*
X178900Y13400D02*
D03*
X169389Y13319D02*
D03*
X166712Y13399D02*
D03*
X159946Y13388D02*
D03*
X150225Y13461D02*
D03*
X140356Y13515D02*
D03*
X130850Y13740D02*
D03*
X121120Y13715D02*
D03*
X101900Y13800D02*
D03*
X99326Y13785D02*
D03*
X92300Y13800D02*
D03*
X82400Y13900D02*
D03*
X72600D02*
D03*
X69987Y13915D02*
D03*
X62561Y13854D02*
D03*
X52134Y14213D02*
D03*
X49416Y14165D02*
D03*
X41579Y14098D02*
D03*
X30955Y14198D02*
D03*
X19391Y14212D02*
D03*
X9800Y12700D02*
D03*
X9416Y23863D02*
D03*
X3158Y23851D02*
D03*
X5464Y15051D02*
D03*
X187397Y49962D02*
D03*
X185630Y49051D02*
D03*
X198264Y69427D02*
D03*
X193411Y74283D02*
D03*
X202262Y70330D02*
D03*
X189600Y71000D02*
D03*
X178200Y70800D02*
D03*
X166900Y70900D02*
D03*
X156000Y70800D02*
D03*
X144700Y70900D02*
D03*
X133700Y70800D02*
D03*
X122700Y70900D02*
D03*
X111600D02*
D03*
X100649Y70895D02*
D03*
X92100Y70900D02*
D03*
X89594Y70848D02*
D03*
X78900Y70879D02*
D03*
X68327Y70950D02*
D03*
X57946Y70891D02*
D03*
X171100Y10800D02*
D03*
X47262Y8087D02*
D03*
X36938Y8368D02*
D03*
X26400Y8500D02*
D03*
X178306Y59758D02*
D03*
X181387Y53816D02*
D03*
X196502Y71828D02*
D03*
X192200Y70900D02*
D03*
X180800Y70800D02*
D03*
X169400Y70900D02*
D03*
X158500Y70800D02*
D03*
X147400D02*
D03*
X136300Y70900D02*
D03*
X125200Y70800D02*
D03*
X114200Y70900D02*
D03*
X103200D02*
D03*
X81600D02*
D03*
X70800D02*
D03*
X60462Y70907D02*
D03*
X195700Y13400D02*
D03*
X176400D02*
D03*
X157372Y13394D02*
D03*
X147579Y13487D02*
D03*
X137888Y13519D02*
D03*
X128367Y13734D02*
D03*
X118586Y13776D02*
D03*
X108848Y13781D02*
D03*
X79711Y13923D02*
D03*
X89732Y13753D02*
D03*
X59938Y13981D02*
D03*
X38963Y14159D02*
D03*
X28339Y14142D02*
D03*
X16868Y14124D02*
D03*
X7788Y59364D02*
D03*
X6822Y58346D02*
D03*
X3410Y59300D02*
D03*
X36456Y64083D02*
D03*
X201500Y67100D02*
D03*
X180400Y50000D02*
D03*
X190000Y68700D02*
D03*
X178700D02*
D03*
X167400D02*
D03*
X155900D02*
D03*
X144300D02*
D03*
X133300Y68800D02*
D03*
X122400D02*
D03*
X111300Y68700D02*
D03*
X100200D02*
D03*
X89700Y68900D02*
D03*
X78700Y68700D02*
D03*
X67600Y68800D02*
D03*
X57300D02*
D03*
X8000Y60900D02*
D03*
X5500D02*
D03*
X7984Y72581D02*
D03*
X3400Y73600D02*
D03*
X198660Y16232D02*
D03*
X189072Y16216D02*
D03*
X179950Y16236D02*
D03*
X170300Y16200D02*
D03*
X160731Y16279D02*
D03*
X151000Y16200D02*
D03*
X141375Y16184D02*
D03*
X131274Y16286D02*
D03*
X121393Y16228D02*
D03*
X111742Y16192D02*
D03*
X102614Y16225D02*
D03*
X93450Y16226D02*
D03*
X83275Y16238D02*
D03*
X73367Y16260D02*
D03*
X59446Y16148D02*
D03*
X52645Y16225D02*
D03*
X42122Y16351D02*
D03*
X31304Y16317D02*
D03*
X19978Y16328D02*
D03*
X9278Y16386D02*
D03*
X7947Y75161D02*
D03*
X5051Y74871D02*
D03*
X126725Y53700D02*
D03*
X119600Y51800D02*
D03*
X89648Y55691D02*
D03*
X87289Y55656D02*
D03*
X120416Y54678D02*
D03*
X134940Y43974D02*
D03*
X138238Y44757D02*
D03*
X129900Y38200D02*
D03*
X129200Y34500D02*
D03*
X128328Y38087D02*
D03*
X162400Y46400D02*
D03*
X154102Y55813D02*
D03*
X144713Y50406D02*
D03*
X153655Y41124D02*
D03*
X150500Y35400D02*
D03*
X147961Y35284D02*
D03*
X111500Y27500D02*
D03*
X112819Y49697D02*
D03*
X104856Y40243D02*
D03*
X103966Y45455D02*
D03*
X101107Y43272D02*
D03*
X190100Y64400D02*
D03*
X178600Y64300D02*
D03*
X166200Y63100D02*
D03*
X156333Y64159D02*
D03*
X144200Y63100D02*
D03*
X134300Y64500D02*
D03*
X123300Y64400D02*
D03*
X112126Y64443D02*
D03*
X90145Y64312D02*
D03*
X78428Y63371D02*
D03*
X68800Y64500D02*
D03*
X57139Y63608D02*
D03*
X149600Y20000D02*
D03*
X141287Y21314D02*
D03*
X121900Y21300D02*
D03*
X102700Y21400D02*
D03*
X184061Y29302D02*
D03*
X180988Y31199D02*
D03*
X195987Y38211D02*
D03*
X178909Y42702D02*
D03*
X172500Y31000D02*
D03*
X197838Y20027D02*
D03*
X188396Y19736D02*
D03*
X179900Y21300D02*
D03*
X168971Y19953D02*
D03*
X89700Y31300D02*
D03*
X63040Y21417D02*
D03*
X51300Y20400D02*
D03*
X42470Y21435D02*
D03*
X30654Y20210D02*
D03*
X20242Y21408D02*
D03*
X6629Y20543D02*
D03*
X189673Y59634D02*
D03*
X167051Y59692D02*
D03*
X159949Y61197D02*
D03*
X155900Y59800D02*
D03*
X144841Y59774D02*
D03*
X133781Y59814D02*
D03*
X137900Y61200D02*
D03*
X111727Y59853D02*
D03*
X100801Y59712D02*
D03*
X89637Y59682D02*
D03*
X79100Y59700D02*
D03*
X68332Y59735D02*
D03*
X62114Y61203D02*
D03*
X57959Y59828D02*
D03*
X65002Y29018D02*
D03*
X64327Y41621D02*
D03*
X53395Y42730D02*
D03*
X21627Y53248D02*
D03*
X13746Y53269D02*
D03*
X47879Y39011D02*
D03*
X39317Y36656D02*
D03*
X40000Y31500D02*
D03*
X15919Y37023D02*
D03*
X198318Y24376D02*
D03*
X188756Y24547D02*
D03*
X178900Y24500D02*
D03*
X169334Y24641D02*
D03*
X159930Y24798D02*
D03*
X150093Y24733D02*
D03*
X140497Y24678D02*
D03*
X130907Y24743D02*
D03*
X121141Y24767D02*
D03*
X30856Y25541D02*
D03*
X19438Y25531D02*
D03*
X6992Y25436D02*
D03*
X41400Y25500D02*
D03*
X62472Y25164D02*
D03*
X51921Y25327D02*
D03*
X72616Y25123D02*
D03*
X82300Y25100D02*
D03*
X92300Y24900D02*
D03*
X147591Y24877D02*
D03*
X163825Y41091D02*
D03*
X118446Y24830D02*
D03*
X102600Y26000D02*
D03*
X50771Y40244D02*
D03*
X70000Y32000D02*
D03*
X192972Y39385D02*
D03*
X180562Y37841D02*
D03*
X106600Y31700D02*
D03*
X105553Y30045D02*
D03*
X76526Y42471D02*
D03*
X137768Y39181D02*
D03*
X138196Y40767D02*
D03*
X166622Y53343D02*
D03*
X146653Y38304D02*
D03*
X97958Y48464D02*
D03*
X82548Y47156D02*
D03*
X80737Y41423D02*
D03*
X106010Y42134D02*
D03*
X119325Y46385D02*
D03*
X192235Y59859D02*
D03*
X105100Y48200D02*
D03*
X116400Y48000D02*
D03*
X142628Y48841D02*
D03*
X140893Y46966D02*
D03*
X137100Y51800D02*
D03*
X182500Y61200D02*
D03*
X171293Y61164D02*
D03*
X149141Y61166D02*
D03*
X126800Y61200D02*
D03*
X115800Y61100D02*
D03*
X104811Y61149D02*
D03*
X83178Y61116D02*
D03*
X93824Y61159D02*
D03*
X72341Y61184D02*
D03*
X194525Y44120D02*
D03*
X182885Y44118D02*
D03*
X195808Y24514D02*
D03*
X38989Y25472D02*
D03*
X79824Y25107D02*
D03*
X16848Y25445D02*
D03*
X186200Y24500D02*
D03*
X176446Y24726D02*
D03*
X166788Y24720D02*
D03*
X157323Y24658D02*
D03*
X137996Y24787D02*
D03*
X128345Y24802D02*
D03*
X108738Y24811D02*
D03*
X97744Y23431D02*
D03*
X71217Y29025D02*
D03*
X49411Y25290D02*
D03*
X59945Y25243D02*
D03*
X70023Y25169D02*
D03*
X89772Y25025D02*
D03*
X28367Y25381D02*
D03*
X52035Y64698D02*
D03*
X46988Y62282D02*
D03*
X49040Y65584D02*
D03*
X46613Y57908D02*
D03*
X42731Y71352D02*
D03*
X33851Y64985D02*
D03*
X9700Y65800D02*
D03*
X12000Y67400D02*
D03*
X19400Y63200D02*
D03*
X10300Y62800D02*
D03*
X6200Y63200D02*
D03*
M02*
