G04*
G04 #@! TF.GenerationSoftware,Altium Limited,Altium Designer,21.6.4 (81)*
G04*
G04 Layer_Color=65535*
%FSLAX43Y43*%
%MOMM*%
G71*
G04*
G04 #@! TF.SameCoordinates,38FC9672-5BFE-4C4D-A481-017CD4E88717*
G04*
G04*
G04 #@! TF.FilePolarity,Positive*
G04*
G01*
G75*
%ADD10C,0.400*%
%ADD11C,0.250*%
%ADD12C,0.254*%
%ADD13C,0.200*%
%ADD14C,0.500*%
%ADD15C,0.100*%
%ADD16C,0.152*%
%ADD17C,0.220*%
%ADD18C,0.500*%
G36*
X8308Y39825D02*
Y49625D01*
X8908Y49475D01*
X9483Y49225D01*
X10108Y48875D01*
X10558Y48525D01*
X11183Y47900D01*
X11583Y47325D01*
X12083Y46300D01*
X12283Y45375D01*
X12308Y44275D01*
X12183Y43550D01*
X11983Y42900D01*
X11583Y42100D01*
X11083Y41450D01*
X10383Y40775D01*
X9658Y40325D01*
X8583Y39875D01*
X8333Y39825D01*
X8308D01*
D02*
G37*
G36*
X17756Y48725D02*
Y40725D01*
X16956Y40925D01*
X16206Y41275D01*
X15631Y41725D01*
X15131Y42225D01*
X14681Y42950D01*
X14406Y43625D01*
X14256Y44400D01*
X14281Y45150D01*
X14406Y45850D01*
X14706Y46575D01*
X15056Y47125D01*
X15556Y47675D01*
X16131Y48100D01*
X17031Y48525D01*
X17756Y48725D01*
D02*
G37*
G36*
X47238Y48244D02*
X39238D01*
X39438Y49044D01*
X39788Y49794D01*
X40238Y50369D01*
X40738Y50869D01*
X41463Y51319D01*
X42138Y51594D01*
X42913Y51744D01*
X43663Y51719D01*
X44363Y51594D01*
X45088Y51294D01*
X45638Y50944D01*
X46188Y50444D01*
X46613Y49869D01*
X47038Y48969D01*
X47238Y48244D01*
D02*
G37*
D10*
X136125Y52482D02*
G03*
X136125Y52482I-200J0D01*
G01*
D11*
X164745Y49941D02*
G03*
X164745Y49941I-125J0D01*
G01*
X36476Y66099D02*
G03*
X36476Y66099I-125J0D01*
G01*
X197005Y60106D02*
G03*
X197005Y60106I-125J0D01*
G01*
D12*
X96532Y51720D02*
G03*
X96532Y51720I-125J0D01*
G01*
X23382Y54501D02*
X24482D01*
X16682Y53901D02*
Y54801D01*
X16182Y54401D02*
X17182D01*
X13045Y54501D02*
X14145D01*
X6345Y53901D02*
Y54801D01*
X5845Y54401D02*
X6845D01*
X183991Y40580D02*
Y39581D01*
X184491D01*
X184657Y39747D01*
Y40414D01*
X184491Y40580D01*
X183991D01*
X184991D02*
Y39581D01*
X185491D01*
X185657Y39747D01*
Y40414D01*
X185491Y40580D01*
X184991D01*
X185990Y40414D02*
X186157Y40580D01*
X186490D01*
X186657Y40414D01*
Y40247D01*
X186490Y40081D01*
X186657Y39914D01*
Y39747D01*
X186490Y39581D01*
X186157D01*
X185990Y39747D01*
Y39914D01*
X186157Y40081D01*
X185990Y40247D01*
Y40414D01*
X186157Y40081D02*
X186490D01*
X110433Y26540D02*
Y25541D01*
X110933D01*
X111099Y25707D01*
Y26374D01*
X110933Y26540D01*
X110433D01*
X111432D02*
Y25541D01*
X111932D01*
X112099Y25707D01*
Y26374D01*
X111932Y26540D01*
X111432D01*
X112432D02*
X113099D01*
Y26374D01*
X112432Y25707D01*
Y25541D01*
X122057Y28235D02*
X122723D01*
X122390D01*
Y27235D01*
X123057Y28235D02*
X123723Y27235D01*
Y28235D02*
X123057Y27235D01*
X119353Y27276D02*
Y28275D01*
X119853D01*
X120020Y28109D01*
Y27776D01*
X119853Y27609D01*
X119353D01*
X119687D02*
X120020Y27276D01*
X120353Y28275D02*
X121020Y27276D01*
Y28275D02*
X120353Y27276D01*
X200233Y28947D02*
X200899D01*
X200566D01*
Y27947D01*
X201233Y28947D02*
Y27947D01*
X201732D01*
X201899Y28114D01*
Y28780D01*
X201732Y28947D01*
X201233D01*
X202232D02*
X202565D01*
X202399D01*
Y27947D01*
X202232D01*
X202565D01*
X199897Y31533D02*
X200563D01*
X200230D01*
Y30534D01*
X200896Y31533D02*
Y30534D01*
X201396D01*
X201563Y30700D01*
Y31367D01*
X201396Y31533D01*
X200896D01*
X202396D02*
X202063D01*
X201896Y31367D01*
Y30700D01*
X202063Y30534D01*
X202396D01*
X202562Y30700D01*
Y31367D01*
X202396Y31533D01*
X199914Y34219D02*
X200580D01*
X200247D01*
Y33219D01*
X200914D02*
Y34219D01*
X201247Y33886D01*
X201580Y34219D01*
Y33219D01*
X202580Y34052D02*
X202413Y34219D01*
X202080D01*
X201913Y34052D01*
Y33886D01*
X202080Y33719D01*
X202413D01*
X202580Y33553D01*
Y33386D01*
X202413Y33219D01*
X202080D01*
X201913Y33386D01*
X199782Y37007D02*
X200449D01*
X200115D01*
Y36007D01*
X201448Y36840D02*
X201282Y37007D01*
X200948D01*
X200782Y36840D01*
Y36174D01*
X200948Y36007D01*
X201282D01*
X201448Y36174D01*
X201782Y37007D02*
Y36007D01*
Y36340D01*
X202448Y37007D01*
X201948Y36507D01*
X202448Y36007D01*
X199103Y39192D02*
Y39858D01*
X199602D01*
X199769Y39692D01*
Y39192D01*
X200102D02*
Y40191D01*
X200602D01*
X200769Y40025D01*
Y39692D01*
X200602Y39525D01*
X200102D01*
X200436D02*
X200769Y39192D01*
X201768Y40025D02*
X201602Y40191D01*
X201269D01*
X201102Y40025D01*
Y39858D01*
X201269Y39692D01*
X201602D01*
X201768Y39525D01*
Y39358D01*
X201602Y39192D01*
X201269D01*
X201102Y39358D01*
X202102Y40191D02*
X202768D01*
X202435D01*
Y39192D01*
X199985Y42580D02*
X200652D01*
X200318Y42913D02*
Y42247D01*
X201651Y43080D02*
X200985D01*
Y42580D01*
X201318Y42746D01*
X201485D01*
X201651Y42580D01*
Y42247D01*
X201485Y42080D01*
X201151D01*
X200985Y42247D01*
X201985Y43080D02*
Y42413D01*
X202318Y42080D01*
X202651Y42413D01*
Y43080D01*
X200025Y44479D02*
Y45478D01*
X200525D01*
X200691Y45312D01*
Y44979D01*
X200525Y44812D01*
X200025D01*
X201024Y45478D02*
Y44479D01*
X201524D01*
X201691Y44645D01*
Y45312D01*
X201524Y45478D01*
X201024D01*
X202524D02*
X202191D01*
X202024Y45312D01*
Y44645D01*
X202191Y44479D01*
X202524D01*
X202691Y44645D01*
Y45312D01*
X202524Y45478D01*
X200099Y47060D02*
Y48060D01*
X200599D01*
X200765Y47893D01*
Y47560D01*
X200599Y47393D01*
X200099D01*
X201099Y48060D02*
Y47060D01*
X201598D01*
X201765Y47227D01*
Y47893D01*
X201598Y48060D01*
X201099D01*
X202098D02*
X202431D01*
X202265D01*
Y47060D01*
X202098D01*
X202431D01*
X200762Y50397D02*
X200595Y50563D01*
X200262D01*
X200096Y50397D01*
Y50230D01*
X200262Y50063D01*
X200595D01*
X200762Y49897D01*
Y49730D01*
X200595Y49564D01*
X200262D01*
X200096Y49730D01*
X201762Y50397D02*
X201595Y50563D01*
X201262D01*
X201095Y50397D01*
Y49730D01*
X201262Y49564D01*
X201595D01*
X201762Y49730D01*
X202095Y50563D02*
Y49564D01*
Y49897D01*
X202761Y50563D01*
X202262Y50063D01*
X202761Y49564D01*
X200736Y53218D02*
X200569Y53385D01*
X200236D01*
X200069Y53218D01*
Y52552D01*
X200236Y52385D01*
X200569D01*
X200736Y52552D01*
Y52885D01*
X200403D01*
X201069Y52385D02*
Y53385D01*
X201736Y52385D01*
Y53385D01*
X202069D02*
Y52385D01*
X202569D01*
X202735Y52552D01*
Y53218D01*
X202569Y53385D01*
X202069D01*
X124718Y30694D02*
X125384Y29694D01*
Y30694D02*
X124718Y29694D01*
X125717D02*
X126051D01*
X125884D01*
Y30694D01*
X125717Y30527D01*
X126550Y29694D02*
X126884D01*
X126717D01*
Y30694D01*
X126550Y30527D01*
X161120Y78738D02*
X161786Y77739D01*
Y78738D02*
X161120Y77739D01*
X162120D02*
X162453D01*
X162286D01*
Y78738D01*
X162120Y78572D01*
X162953D02*
X163119Y78738D01*
X163453D01*
X163619Y78572D01*
Y77905D01*
X163453Y77739D01*
X163119D01*
X162953Y77905D01*
Y78572D01*
X203853Y8604D02*
X203186Y9603D01*
Y8604D02*
X203853Y9603D01*
X202853Y9437D02*
X202686Y9603D01*
X202353D01*
X202187Y9437D01*
Y8770D01*
X202353Y8604D01*
X202686D01*
X202853Y8770D01*
Y8937D01*
X202686Y9104D01*
X202187D01*
X109181Y78722D02*
X109847Y77722D01*
Y78722D02*
X109181Y77722D01*
X110181Y78555D02*
X110347Y78722D01*
X110680D01*
X110847Y78555D01*
Y78388D01*
X110680Y78222D01*
X110847Y78055D01*
Y77889D01*
X110680Y77722D01*
X110347D01*
X110181Y77889D01*
Y78055D01*
X110347Y78222D01*
X110181Y78388D01*
Y78555D01*
X110347Y78222D02*
X110680D01*
X151350Y8557D02*
X150683Y9557D01*
Y8557D02*
X151350Y9557D01*
X150350Y8557D02*
X149684D01*
Y8724D01*
X150350Y9390D01*
Y9557D01*
X56730Y78728D02*
X57396Y77728D01*
Y78728D02*
X56730Y77728D01*
X58396Y78728D02*
X58063Y78561D01*
X57729Y78228D01*
Y77895D01*
X57896Y77728D01*
X58229D01*
X58396Y77895D01*
Y78061D01*
X58229Y78228D01*
X57729D01*
X98572Y8526D02*
X97906Y9526D01*
Y8526D02*
X98572Y9526D01*
X96906Y8526D02*
X97572D01*
Y9026D01*
X97239Y8860D01*
X97073D01*
X96906Y9026D01*
Y9360D01*
X97073Y9526D01*
X97406D01*
X97572Y9360D01*
X4382Y79197D02*
X5048Y78197D01*
Y79197D02*
X4382Y78197D01*
X5881D02*
Y79197D01*
X5381Y78697D01*
X6048D01*
X42676Y8591D02*
X42009Y9591D01*
Y8591D02*
X42676Y9591D01*
X41676Y8758D02*
X41510Y8591D01*
X41176D01*
X41010Y8758D01*
Y8924D01*
X41176Y9091D01*
X41343D01*
X41176D01*
X41010Y9258D01*
Y9424D01*
X41176Y9591D01*
X41510D01*
X41676Y9424D01*
X203527Y55566D02*
X204193Y54566D01*
Y55566D02*
X203527Y54566D01*
X205193D02*
X204526D01*
X205193Y55233D01*
Y55399D01*
X205026Y55566D01*
X204693D01*
X204526Y55399D01*
X203916Y26539D02*
X204582Y25539D01*
Y26539D02*
X203916Y25539D01*
X204916D02*
X205249D01*
X205082D01*
Y26539D01*
X204916Y26372D01*
X163086Y51849D02*
Y51182D01*
X163419Y50849D01*
X163752Y51182D01*
Y51849D01*
X164086D02*
X164752D01*
X164419D01*
Y50849D01*
X165085Y51682D02*
X165252Y51849D01*
X165585D01*
X165752Y51682D01*
Y51515D01*
X165585Y51349D01*
X165419D01*
X165585D01*
X165752Y51182D01*
Y51016D01*
X165585Y50849D01*
X165252D01*
X165085Y51016D01*
X166751Y51849D02*
X166418Y51682D01*
X166085Y51349D01*
Y51016D01*
X166252Y50849D01*
X166585D01*
X166751Y51016D01*
Y51182D01*
X166585Y51349D01*
X166085D01*
X196894Y64823D02*
Y64157D01*
X197227Y63823D01*
X197561Y64157D01*
Y64823D01*
X197894D02*
X198560D01*
X198227D01*
Y63823D01*
X199560D02*
X198893D01*
X199560Y64490D01*
Y64656D01*
X199393Y64823D01*
X199060D01*
X198893Y64656D01*
X199893D02*
X200060Y64823D01*
X200393D01*
X200560Y64656D01*
Y63990D01*
X200393Y63823D01*
X200060D01*
X199893Y63990D01*
Y64656D01*
X12443Y37194D02*
Y36527D01*
X12777Y36194D01*
X13110Y36527D01*
Y37194D01*
X13443D02*
Y36194D01*
X13943D01*
X14110Y36361D01*
Y37027D01*
X13943Y37194D01*
X13443D01*
X14943Y36194D02*
Y37194D01*
X14443Y36694D01*
X15109D01*
X19573Y67998D02*
Y67332D01*
X19907Y66999D01*
X20240Y67332D01*
Y67998D01*
X20573D02*
Y66999D01*
X21073D01*
X21240Y67165D01*
Y67832D01*
X21073Y67998D01*
X20573D01*
X21573Y67832D02*
X21739Y67998D01*
X22073D01*
X22239Y67832D01*
Y67665D01*
X22073Y67498D01*
X21906D01*
X22073D01*
X22239Y67332D01*
Y67165D01*
X22073Y66999D01*
X21739D01*
X21573Y67165D01*
X39077Y70666D02*
Y70000D01*
X39410Y69667D01*
X39743Y70000D01*
Y70666D01*
X40077D02*
Y69667D01*
X40576D01*
X40743Y69833D01*
Y70500D01*
X40576Y70666D01*
X40077D01*
X41076Y69667D02*
X41410D01*
X41243D01*
Y70666D01*
X41076Y70500D01*
X90263Y47866D02*
X90096Y48033D01*
X89763D01*
X89596Y47866D01*
Y47699D01*
X89763Y47533D01*
X90096D01*
X90263Y47366D01*
Y47199D01*
X90096Y47033D01*
X89763D01*
X89596Y47199D01*
X90596Y48033D02*
Y47033D01*
X91096D01*
X91262Y47199D01*
Y47366D01*
X91096Y47533D01*
X90596D01*
X91096D01*
X91262Y47699D01*
Y47866D01*
X91096Y48033D01*
X90596D01*
X91596Y47033D02*
X91929D01*
X91762D01*
Y48033D01*
X91596Y47866D01*
X34267Y72536D02*
Y73536D01*
X34767D01*
X34934Y73370D01*
Y73036D01*
X34767Y72870D01*
X34267D01*
X34600D02*
X34934Y72536D01*
X35267Y73370D02*
X35434Y73536D01*
X35767D01*
X35933Y73370D01*
Y73203D01*
X35767Y73036D01*
X35600D01*
X35767D01*
X35933Y72870D01*
Y72703D01*
X35767Y72536D01*
X35434D01*
X35267Y72703D01*
X36933Y72536D02*
X36267D01*
X36933Y73203D01*
Y73370D01*
X36766Y73536D01*
X36433D01*
X36267Y73370D01*
X37933Y72536D02*
X37266D01*
X37933Y73203D01*
Y73370D01*
X37766Y73536D01*
X37433D01*
X37266Y73370D01*
X43154Y39584D02*
X42154D01*
Y40084D01*
X42321Y40250D01*
X42654D01*
X42821Y40084D01*
Y39584D01*
Y39917D02*
X43154Y40250D01*
X42321Y40584D02*
X42154Y40750D01*
Y41083D01*
X42321Y41250D01*
X42487D01*
X42654Y41083D01*
Y40917D01*
Y41083D01*
X42821Y41250D01*
X42987D01*
X43154Y41083D01*
Y40750D01*
X42987Y40584D01*
X43154Y42250D02*
Y41583D01*
X42487Y42250D01*
X42321D01*
X42154Y42083D01*
Y41750D01*
X42321Y41583D01*
X43154Y42583D02*
Y42916D01*
Y42750D01*
X42154D01*
X42321Y42583D01*
X46521Y52637D02*
Y53637D01*
X47021D01*
X47188Y53470D01*
Y53137D01*
X47021Y52970D01*
X46521D01*
X46854D02*
X47188Y52637D01*
X47521Y53470D02*
X47687Y53637D01*
X48021D01*
X48187Y53470D01*
Y53303D01*
X48021Y53137D01*
X47854D01*
X48021D01*
X48187Y52970D01*
Y52803D01*
X48021Y52637D01*
X47687D01*
X47521Y52803D01*
X49187Y52637D02*
X48521D01*
X49187Y53303D01*
Y53470D01*
X49020Y53637D01*
X48687D01*
X48521Y53470D01*
X49520D02*
X49687Y53637D01*
X50020D01*
X50187Y53470D01*
Y52803D01*
X50020Y52637D01*
X49687D01*
X49520Y52803D01*
Y53470D01*
X166714Y54616D02*
Y55615D01*
X167214D01*
X167380Y55449D01*
Y55115D01*
X167214Y54949D01*
X166714D01*
X167047D02*
X167380Y54616D01*
X167714Y55449D02*
X167880Y55615D01*
X168214D01*
X168380Y55449D01*
Y55282D01*
X168214Y55115D01*
X168047D01*
X168214D01*
X168380Y54949D01*
Y54782D01*
X168214Y54616D01*
X167880D01*
X167714Y54782D01*
X168713Y54616D02*
X169047D01*
X168880D01*
Y55615D01*
X168713Y55449D01*
X169546Y54782D02*
X169713Y54616D01*
X170046D01*
X170213Y54782D01*
Y55449D01*
X170046Y55615D01*
X169713D01*
X169546Y55449D01*
Y55282D01*
X169713Y55115D01*
X170213D01*
X162816Y42075D02*
X161816D01*
Y42575D01*
X161982Y42741D01*
X162316D01*
X162482Y42575D01*
Y42075D01*
Y42408D02*
X162816Y42741D01*
X161982Y43075D02*
X161816Y43241D01*
Y43575D01*
X161982Y43741D01*
X162149D01*
X162316Y43575D01*
Y43408D01*
Y43575D01*
X162482Y43741D01*
X162649D01*
X162816Y43575D01*
Y43241D01*
X162649Y43075D01*
X162816Y44074D02*
Y44408D01*
Y44241D01*
X161816D01*
X161982Y44074D01*
Y44907D02*
X161816Y45074D01*
Y45407D01*
X161982Y45574D01*
X162149D01*
X162316Y45407D01*
X162482Y45574D01*
X162649D01*
X162816Y45407D01*
Y45074D01*
X162649Y44907D01*
X162482D01*
X162316Y45074D01*
X162149Y44907D01*
X161982D01*
X162316Y45074D02*
Y45407D01*
X158763Y46143D02*
X157764D01*
Y46642D01*
X157930Y46809D01*
X158263D01*
X158430Y46642D01*
Y46143D01*
Y46476D02*
X158763Y46809D01*
X157930Y47142D02*
X157764Y47309D01*
Y47642D01*
X157930Y47809D01*
X158097D01*
X158263Y47642D01*
Y47476D01*
Y47642D01*
X158430Y47809D01*
X158597D01*
X158763Y47642D01*
Y47309D01*
X158597Y47142D01*
X158763Y48142D02*
Y48475D01*
Y48309D01*
X157764D01*
X157930Y48142D01*
X157764Y48975D02*
Y49641D01*
X157930D01*
X158597Y48975D01*
X158763D01*
X155113Y40925D02*
X154113D01*
Y41425D01*
X154280Y41592D01*
X154613D01*
X154780Y41425D01*
Y40925D01*
Y41258D02*
X155113Y41592D01*
X154280Y41925D02*
X154113Y42091D01*
Y42425D01*
X154280Y42591D01*
X154447D01*
X154613Y42425D01*
Y42258D01*
Y42425D01*
X154780Y42591D01*
X154946D01*
X155113Y42425D01*
Y42091D01*
X154946Y41925D01*
X155113Y42924D02*
Y43258D01*
Y43091D01*
X154113D01*
X154280Y42924D01*
X154113Y44424D02*
X154280Y44091D01*
X154613Y43758D01*
X154946D01*
X155113Y43924D01*
Y44257D01*
X154946Y44424D01*
X154780D01*
X154613Y44257D01*
Y43758D01*
X150478Y46188D02*
Y47188D01*
X150978D01*
X151144Y47021D01*
Y46688D01*
X150978Y46521D01*
X150478D01*
X150811D02*
X151144Y46188D01*
X151478Y47021D02*
X151644Y47188D01*
X151977D01*
X152144Y47021D01*
Y46855D01*
X151977Y46688D01*
X151811D01*
X151977D01*
X152144Y46521D01*
Y46355D01*
X151977Y46188D01*
X151644D01*
X151478Y46355D01*
X152477Y46188D02*
X152810D01*
X152644D01*
Y47188D01*
X152477Y47021D01*
X153977Y47188D02*
X153310D01*
Y46688D01*
X153644Y46855D01*
X153810D01*
X153977Y46688D01*
Y46355D01*
X153810Y46188D01*
X153477D01*
X153310Y46355D01*
X145047Y46146D02*
Y47145D01*
X145547D01*
X145714Y46979D01*
Y46646D01*
X145547Y46479D01*
X145047D01*
X145380D02*
X145714Y46146D01*
X146047Y46979D02*
X146214Y47145D01*
X146547D01*
X146713Y46979D01*
Y46812D01*
X146547Y46646D01*
X146380D01*
X146547D01*
X146713Y46479D01*
Y46312D01*
X146547Y46146D01*
X146214D01*
X146047Y46312D01*
X147047Y46146D02*
X147380D01*
X147213D01*
Y47145D01*
X147047Y46979D01*
X147880D02*
X148046Y47145D01*
X148380D01*
X148546Y46979D01*
Y46812D01*
X148380Y46646D01*
X148213D01*
X148380D01*
X148546Y46479D01*
Y46312D01*
X148380Y46146D01*
X148046D01*
X147880Y46312D01*
X128983Y31121D02*
X127983D01*
Y31621D01*
X128150Y31788D01*
X128483D01*
X128649Y31621D01*
Y31121D01*
Y31454D02*
X128983Y31788D01*
X128150Y32121D02*
X127983Y32287D01*
Y32621D01*
X128150Y32787D01*
X128316D01*
X128483Y32621D01*
Y32454D01*
Y32621D01*
X128649Y32787D01*
X128816D01*
X128983Y32621D01*
Y32287D01*
X128816Y32121D01*
X128983Y33120D02*
Y33454D01*
Y33287D01*
X127983D01*
X128150Y33120D01*
X128983Y34620D02*
Y33953D01*
X128316Y34620D01*
X128150D01*
X127983Y34453D01*
Y34120D01*
X128150Y33953D01*
X142098Y34456D02*
Y35456D01*
X142598D01*
X142764Y35289D01*
Y34956D01*
X142598Y34789D01*
X142098D01*
X142431D02*
X142764Y34456D01*
X143098Y35289D02*
X143264Y35456D01*
X143597D01*
X143764Y35289D01*
Y35123D01*
X143597Y34956D01*
X143431D01*
X143597D01*
X143764Y34789D01*
Y34623D01*
X143597Y34456D01*
X143264D01*
X143098Y34623D01*
X144097Y34456D02*
X144430D01*
X144264D01*
Y35456D01*
X144097Y35289D01*
X144930D02*
X145097Y35456D01*
X145430D01*
X145597Y35289D01*
Y34623D01*
X145430Y34456D01*
X145097D01*
X144930Y34623D01*
Y35289D01*
X142490Y38345D02*
Y39345D01*
X142990D01*
X143156Y39178D01*
Y38845D01*
X142990Y38678D01*
X142490D01*
X142823D02*
X143156Y38345D01*
X143490Y39178D02*
X143656Y39345D01*
X143989D01*
X144156Y39178D01*
Y39011D01*
X143989Y38845D01*
X143823D01*
X143989D01*
X144156Y38678D01*
Y38512D01*
X143989Y38345D01*
X143656D01*
X143490Y38512D01*
X144489Y39178D02*
X144656Y39345D01*
X144989D01*
X145156Y39178D01*
Y38512D01*
X144989Y38345D01*
X144656D01*
X144489Y38512D01*
Y39178D01*
X145489Y38512D02*
X145655Y38345D01*
X145989D01*
X146155Y38512D01*
Y39178D01*
X145989Y39345D01*
X145655D01*
X145489Y39178D01*
Y39011D01*
X145655Y38845D01*
X146155D01*
X142461Y36357D02*
Y37357D01*
X142961D01*
X143127Y37190D01*
Y36857D01*
X142961Y36691D01*
X142461D01*
X142794D02*
X143127Y36357D01*
X143461Y37190D02*
X143627Y37357D01*
X143961D01*
X144127Y37190D01*
Y37024D01*
X143961Y36857D01*
X143794D01*
X143961D01*
X144127Y36691D01*
Y36524D01*
X143961Y36357D01*
X143627D01*
X143461Y36524D01*
X144460Y37190D02*
X144627Y37357D01*
X144960D01*
X145127Y37190D01*
Y36524D01*
X144960Y36357D01*
X144627D01*
X144460Y36524D01*
Y37190D01*
X145460D02*
X145627Y37357D01*
X145960D01*
X146127Y37190D01*
Y37024D01*
X145960Y36857D01*
X146127Y36691D01*
Y36524D01*
X145960Y36357D01*
X145627D01*
X145460Y36524D01*
Y36691D01*
X145627Y36857D01*
X145460Y37024D01*
Y37190D01*
X145627Y36857D02*
X145960D01*
X98264Y44529D02*
Y45529D01*
X98764D01*
X98931Y45362D01*
Y45029D01*
X98764Y44862D01*
X98264D01*
X98598D02*
X98931Y44529D01*
X99264Y45362D02*
X99431Y45529D01*
X99764D01*
X99931Y45362D01*
Y45195D01*
X99764Y45029D01*
X99597D01*
X99764D01*
X99931Y44862D01*
Y44696D01*
X99764Y44529D01*
X99431D01*
X99264Y44696D01*
X100264Y45362D02*
X100430Y45529D01*
X100764D01*
X100930Y45362D01*
Y44696D01*
X100764Y44529D01*
X100430D01*
X100264Y44696D01*
Y45362D01*
X101263Y45529D02*
X101930D01*
Y45362D01*
X101263Y44696D01*
Y44529D01*
X136228Y54789D02*
Y55788D01*
X136727D01*
X136894Y55622D01*
Y55289D01*
X136727Y55122D01*
X136228D01*
X136561D02*
X136894Y54789D01*
X137227Y55622D02*
X137394Y55788D01*
X137727D01*
X137894Y55622D01*
Y55455D01*
X137727Y55289D01*
X137560D01*
X137727D01*
X137894Y55122D01*
Y54955D01*
X137727Y54789D01*
X137394D01*
X137227Y54955D01*
X138227Y55622D02*
X138393Y55788D01*
X138727D01*
X138893Y55622D01*
Y54955D01*
X138727Y54789D01*
X138393D01*
X138227Y54955D01*
Y55622D01*
X139726Y54789D02*
Y55788D01*
X139227Y55289D01*
X139893D01*
X119891Y56021D02*
Y57020D01*
X120391D01*
X120557Y56854D01*
Y56520D01*
X120391Y56354D01*
X119891D01*
X120224D02*
X120557Y56021D01*
X120890Y56854D02*
X121057Y57020D01*
X121390D01*
X121557Y56854D01*
Y56687D01*
X121390Y56520D01*
X121224D01*
X121390D01*
X121557Y56354D01*
Y56187D01*
X121390Y56021D01*
X121057D01*
X120890Y56187D01*
X121890Y56854D02*
X122057Y57020D01*
X122390D01*
X122557Y56854D01*
Y56187D01*
X122390Y56021D01*
X122057D01*
X121890Y56187D01*
Y56854D01*
X123556Y56021D02*
X122890D01*
X123556Y56687D01*
Y56854D01*
X123390Y57020D01*
X123056D01*
X122890Y56854D01*
X120100Y34047D02*
Y35047D01*
X120600D01*
X120767Y34880D01*
Y34547D01*
X120600Y34380D01*
X120100D01*
X120434D02*
X120767Y34047D01*
X121100Y34880D02*
X121267Y35047D01*
X121600D01*
X121766Y34880D01*
Y34714D01*
X121600Y34547D01*
X121433D01*
X121600D01*
X121766Y34380D01*
Y34214D01*
X121600Y34047D01*
X121267D01*
X121100Y34214D01*
X122100Y34880D02*
X122266Y35047D01*
X122599D01*
X122766Y34880D01*
Y34214D01*
X122599Y34047D01*
X122266D01*
X122100Y34214D01*
Y34880D01*
X123099Y34047D02*
X123433D01*
X123266D01*
Y35047D01*
X123099Y34880D01*
X110497Y36641D02*
Y37640D01*
X110997D01*
X111164Y37474D01*
Y37141D01*
X110997Y36974D01*
X110497D01*
X110830D02*
X111164Y36641D01*
X111497Y37474D02*
X111663Y37640D01*
X111997D01*
X112163Y37474D01*
Y37307D01*
X111997Y37141D01*
X111830D01*
X111997D01*
X112163Y36974D01*
Y36807D01*
X111997Y36641D01*
X111663D01*
X111497Y36807D01*
X112497Y37474D02*
X112663Y37640D01*
X112996D01*
X113163Y37474D01*
Y36807D01*
X112996Y36641D01*
X112663D01*
X112497Y36807D01*
Y37474D01*
X113496D02*
X113663Y37640D01*
X113996D01*
X114163Y37474D01*
Y36807D01*
X113996Y36641D01*
X113663D01*
X113496Y36807D01*
Y37474D01*
X122167Y58784D02*
Y59784D01*
X122667D01*
X122834Y59617D01*
Y59284D01*
X122667Y59118D01*
X122167D01*
X122500D02*
X122834Y58784D01*
X123833D02*
X123167D01*
X123833Y59451D01*
Y59617D01*
X123667Y59784D01*
X123333D01*
X123167Y59617D01*
X124166Y58951D02*
X124333Y58784D01*
X124666D01*
X124833Y58951D01*
Y59617D01*
X124666Y59784D01*
X124333D01*
X124166Y59617D01*
Y59451D01*
X124333Y59284D01*
X124833D01*
X125166Y58951D02*
X125333Y58784D01*
X125666D01*
X125833Y58951D01*
Y59617D01*
X125666Y59784D01*
X125333D01*
X125166Y59617D01*
Y59451D01*
X125333Y59284D01*
X125833D01*
X100410Y51912D02*
Y52911D01*
X100910D01*
X101076Y52745D01*
Y52411D01*
X100910Y52245D01*
X100410D01*
X100743D02*
X101076Y51912D01*
X102076D02*
X101410D01*
X102076Y52578D01*
Y52745D01*
X101909Y52911D01*
X101576D01*
X101410Y52745D01*
X102409Y52078D02*
X102576Y51912D01*
X102909D01*
X103076Y52078D01*
Y52745D01*
X102909Y52911D01*
X102576D01*
X102409Y52745D01*
Y52578D01*
X102576Y52411D01*
X103076D01*
X103409Y52745D02*
X103575Y52911D01*
X103909D01*
X104075Y52745D01*
Y52578D01*
X103909Y52411D01*
X104075Y52245D01*
Y52078D01*
X103909Y51912D01*
X103575D01*
X103409Y52078D01*
Y52245D01*
X103575Y52411D01*
X103409Y52578D01*
Y52745D01*
X103575Y52411D02*
X103909D01*
X103854Y54960D02*
Y53960D01*
X103354D01*
X103188Y54127D01*
Y54460D01*
X103354Y54627D01*
X103854D01*
X103521D02*
X103188Y54960D01*
X102188D02*
X102855D01*
X102188Y54293D01*
Y54127D01*
X102355Y53960D01*
X102688D01*
X102855Y54127D01*
X101855Y54793D02*
X101688Y54960D01*
X101355D01*
X101188Y54793D01*
Y54127D01*
X101355Y53960D01*
X101688D01*
X101855Y54127D01*
Y54293D01*
X101688Y54460D01*
X101188D01*
X100855Y53960D02*
X100189D01*
Y54127D01*
X100855Y54793D01*
Y54960D01*
X103929Y56960D02*
Y55960D01*
X103429D01*
X103263Y56127D01*
Y56460D01*
X103429Y56627D01*
X103929D01*
X103596D02*
X103263Y56960D01*
X102263D02*
X102929D01*
X102263Y56293D01*
Y56127D01*
X102430Y55960D01*
X102763D01*
X102929Y56127D01*
X101930Y56793D02*
X101763Y56960D01*
X101430D01*
X101263Y56793D01*
Y56127D01*
X101430Y55960D01*
X101763D01*
X101930Y56127D01*
Y56293D01*
X101763Y56460D01*
X101263D01*
X100264Y55960D02*
X100597Y56127D01*
X100930Y56460D01*
Y56793D01*
X100763Y56960D01*
X100430D01*
X100264Y56793D01*
Y56627D01*
X100430Y56460D01*
X100930D01*
X93381Y37741D02*
Y38741D01*
X93881D01*
X94047Y38574D01*
Y38241D01*
X93881Y38074D01*
X93381D01*
X93714D02*
X94047Y37741D01*
X95047D02*
X94381D01*
X95047Y38407D01*
Y38574D01*
X94881Y38741D01*
X94547D01*
X94381Y38574D01*
X95380Y37908D02*
X95547Y37741D01*
X95880D01*
X96047Y37908D01*
Y38574D01*
X95880Y38741D01*
X95547D01*
X95380Y38574D01*
Y38407D01*
X95547Y38241D01*
X96047D01*
X96880Y37741D02*
Y38741D01*
X96380Y38241D01*
X97047D01*
X81905Y53261D02*
Y54260D01*
X82404D01*
X82571Y54094D01*
Y53761D01*
X82404Y53594D01*
X81905D01*
X82238D02*
X82571Y53261D01*
X83571D02*
X82904D01*
X83571Y53927D01*
Y54094D01*
X83404Y54260D01*
X83071D01*
X82904Y54094D01*
X83904Y53427D02*
X84071Y53261D01*
X84404D01*
X84570Y53427D01*
Y54094D01*
X84404Y54260D01*
X84071D01*
X83904Y54094D01*
Y53927D01*
X84071Y53761D01*
X84570D01*
X84904Y54094D02*
X85070Y54260D01*
X85403D01*
X85570Y54094D01*
Y53927D01*
X85403Y53761D01*
X85237D01*
X85403D01*
X85570Y53594D01*
Y53427D01*
X85403Y53261D01*
X85070D01*
X84904Y53427D01*
X91865Y56305D02*
Y57305D01*
X92365D01*
X92532Y57138D01*
Y56805D01*
X92365Y56638D01*
X91865D01*
X92198D02*
X92532Y56305D01*
X93531D02*
X92865D01*
X93531Y56971D01*
Y57138D01*
X93365Y57305D01*
X93031D01*
X92865Y57138D01*
X93864Y56471D02*
X94031Y56305D01*
X94364D01*
X94531Y56471D01*
Y57138D01*
X94364Y57305D01*
X94031D01*
X93864Y57138D01*
Y56971D01*
X94031Y56805D01*
X94531D01*
X95531Y56305D02*
X94864D01*
X95531Y56971D01*
Y57138D01*
X95364Y57305D01*
X95031D01*
X94864Y57138D01*
X132430Y57677D02*
Y58677D01*
X132930D01*
X133096Y58511D01*
Y58177D01*
X132930Y58011D01*
X132430D01*
X132763D02*
X133096Y57677D01*
X134096D02*
X133430D01*
X134096Y58344D01*
Y58511D01*
X133929Y58677D01*
X133596D01*
X133430Y58511D01*
X134429Y57844D02*
X134596Y57677D01*
X134929D01*
X135096Y57844D01*
Y58511D01*
X134929Y58677D01*
X134596D01*
X134429Y58511D01*
Y58344D01*
X134596Y58177D01*
X135096D01*
X135429Y57677D02*
X135762D01*
X135596D01*
Y58677D01*
X135429Y58511D01*
X117926Y51250D02*
X116926D01*
Y51750D01*
X117093Y51916D01*
X117426D01*
X117593Y51750D01*
Y51250D01*
Y51583D02*
X117926Y51916D01*
Y52916D02*
Y52249D01*
X117260Y52916D01*
X117093D01*
X116926Y52749D01*
Y52416D01*
X117093Y52249D01*
X117759Y53249D02*
X117926Y53416D01*
Y53749D01*
X117759Y53915D01*
X117093D01*
X116926Y53749D01*
Y53416D01*
X117093Y53249D01*
X117260D01*
X117426Y53416D01*
Y53915D01*
X117093Y54249D02*
X116926Y54415D01*
Y54749D01*
X117093Y54915D01*
X117759D01*
X117926Y54749D01*
Y54415D01*
X117759Y54249D01*
X117093D01*
X93345Y39663D02*
Y40663D01*
X93845D01*
X94012Y40496D01*
Y40163D01*
X93845Y39996D01*
X93345D01*
X93679D02*
X94012Y39663D01*
X95012D02*
X94345D01*
X95012Y40329D01*
Y40496D01*
X94845Y40663D01*
X94512D01*
X94345Y40496D01*
X95345D02*
X95511Y40663D01*
X95845D01*
X96011Y40496D01*
Y40329D01*
X95845Y40163D01*
X96011Y39996D01*
Y39829D01*
X95845Y39663D01*
X95511D01*
X95345Y39829D01*
Y39996D01*
X95511Y40163D01*
X95345Y40329D01*
Y40496D01*
X95511Y40163D02*
X95845D01*
X96344Y39829D02*
X96511Y39663D01*
X96844D01*
X97011Y39829D01*
Y40496D01*
X96844Y40663D01*
X96511D01*
X96344Y40496D01*
Y40329D01*
X96511Y40163D01*
X97011D01*
X86986Y56450D02*
Y57449D01*
X87486D01*
X87653Y57283D01*
Y56950D01*
X87486Y56783D01*
X86986D01*
X87320D02*
X87653Y56450D01*
X88653D02*
X87986D01*
X88653Y57116D01*
Y57283D01*
X88486Y57449D01*
X88153D01*
X87986Y57283D01*
X88986D02*
X89152Y57449D01*
X89486D01*
X89652Y57283D01*
Y57116D01*
X89486Y56950D01*
X89652Y56783D01*
Y56616D01*
X89486Y56450D01*
X89152D01*
X88986Y56616D01*
Y56783D01*
X89152Y56950D01*
X88986Y57116D01*
Y57283D01*
X89152Y56950D02*
X89486D01*
X89985Y57283D02*
X90152Y57449D01*
X90485D01*
X90652Y57283D01*
Y57116D01*
X90485Y56950D01*
X90652Y56783D01*
Y56616D01*
X90485Y56450D01*
X90152D01*
X89985Y56616D01*
Y56783D01*
X90152Y56950D01*
X89985Y57116D01*
Y57283D01*
X90152Y56950D02*
X90485D01*
X94416Y54503D02*
Y55503D01*
X94916D01*
X95082Y55336D01*
Y55003D01*
X94916Y54837D01*
X94416D01*
X94749D02*
X95082Y54503D01*
X96082D02*
X95416D01*
X96082Y55170D01*
Y55336D01*
X95916Y55503D01*
X95582D01*
X95416Y55336D01*
X96415D02*
X96582Y55503D01*
X96915D01*
X97082Y55336D01*
Y55170D01*
X96915Y55003D01*
X97082Y54837D01*
Y54670D01*
X96915Y54503D01*
X96582D01*
X96415Y54670D01*
Y54837D01*
X96582Y55003D01*
X96415Y55170D01*
Y55336D01*
X96582Y55003D02*
X96915D01*
X97415Y55503D02*
X98081D01*
Y55336D01*
X97415Y54670D01*
Y54503D01*
X154370Y36383D02*
Y37382D01*
X154869D01*
X155036Y37216D01*
Y36882D01*
X154869Y36716D01*
X154370D01*
X154703D02*
X155036Y36383D01*
X156036D02*
X155369D01*
X156036Y37049D01*
Y37216D01*
X155869Y37382D01*
X155536D01*
X155369Y37216D01*
X156369D02*
X156536Y37382D01*
X156869D01*
X157035Y37216D01*
Y37049D01*
X156869Y36882D01*
X157035Y36716D01*
Y36549D01*
X156869Y36383D01*
X156536D01*
X156369Y36549D01*
Y36716D01*
X156536Y36882D01*
X156369Y37049D01*
Y37216D01*
X156536Y36882D02*
X156869D01*
X158035Y37382D02*
X157702Y37216D01*
X157369Y36882D01*
Y36549D01*
X157535Y36383D01*
X157868D01*
X158035Y36549D01*
Y36716D01*
X157868Y36882D01*
X157369D01*
X129865Y54277D02*
X128865D01*
Y54777D01*
X129032Y54943D01*
X129365D01*
X129532Y54777D01*
Y54277D01*
Y54610D02*
X129865Y54943D01*
Y55943D02*
Y55277D01*
X129198Y55943D01*
X129032D01*
X128865Y55776D01*
Y55443D01*
X129032Y55277D01*
Y56276D02*
X128865Y56443D01*
Y56776D01*
X129032Y56943D01*
X129198D01*
X129365Y56776D01*
X129532Y56943D01*
X129698D01*
X129865Y56776D01*
Y56443D01*
X129698Y56276D01*
X129532D01*
X129365Y56443D01*
X129198Y56276D01*
X129032D01*
X129365Y56443D02*
Y56776D01*
X128865Y57942D02*
Y57276D01*
X129365D01*
X129198Y57609D01*
Y57776D01*
X129365Y57942D01*
X129698D01*
X129865Y57776D01*
Y57443D01*
X129698Y57276D01*
X108606Y44796D02*
X107606D01*
Y45296D01*
X107773Y45463D01*
X108106D01*
X108273Y45296D01*
Y44796D01*
Y45129D02*
X108606Y45463D01*
Y46462D02*
Y45796D01*
X107939Y46462D01*
X107773D01*
X107606Y46296D01*
Y45963D01*
X107773Y45796D01*
X107606Y46796D02*
Y47462D01*
X107773D01*
X108439Y46796D01*
X108606D01*
X107606Y48462D02*
Y47795D01*
X108106D01*
X107939Y48128D01*
Y48295D01*
X108106Y48462D01*
X108439D01*
X108606Y48295D01*
Y47962D01*
X108439Y47795D01*
X177322Y32357D02*
Y33357D01*
X177822D01*
X177989Y33191D01*
Y32857D01*
X177822Y32691D01*
X177322D01*
X177656D02*
X177989Y32357D01*
X178989D02*
X178322D01*
X178989Y33024D01*
Y33191D01*
X178822Y33357D01*
X178489D01*
X178322Y33191D01*
X179322Y33357D02*
X179988D01*
Y33191D01*
X179322Y32524D01*
Y32357D01*
X180821D02*
Y33357D01*
X180321Y32857D01*
X180988D01*
X177382Y35600D02*
Y36600D01*
X177882D01*
X178049Y36433D01*
Y36100D01*
X177882Y35933D01*
X177382D01*
X177715D02*
X178049Y35600D01*
X179048D02*
X178382D01*
X179048Y36266D01*
Y36433D01*
X178882Y36600D01*
X178549D01*
X178382Y36433D01*
X179382Y36600D02*
X180048D01*
Y36433D01*
X179382Y35767D01*
Y35600D01*
X180381Y36433D02*
X180548Y36600D01*
X180881D01*
X181048Y36433D01*
Y36266D01*
X180881Y36100D01*
X180714D01*
X180881D01*
X181048Y35933D01*
Y35767D01*
X180881Y35600D01*
X180548D01*
X180381Y35767D01*
X195660Y33749D02*
Y34749D01*
X196159D01*
X196326Y34582D01*
Y34249D01*
X196159Y34082D01*
X195660D01*
X195993D02*
X196326Y33749D01*
X197326D02*
X196659D01*
X197326Y34416D01*
Y34582D01*
X197159Y34749D01*
X196826D01*
X196659Y34582D01*
X197659Y34749D02*
X198325D01*
Y34582D01*
X197659Y33916D01*
Y33749D01*
X199325D02*
X198659D01*
X199325Y34416D01*
Y34582D01*
X199158Y34749D01*
X198825D01*
X198659Y34582D01*
X195874Y30258D02*
Y31258D01*
X196374D01*
X196540Y31091D01*
Y30758D01*
X196374Y30591D01*
X195874D01*
X196207D02*
X196540Y30258D01*
X197540D02*
X196874D01*
X197540Y30924D01*
Y31091D01*
X197373Y31258D01*
X197040D01*
X196874Y31091D01*
X197873Y31258D02*
X198540D01*
Y31091D01*
X197873Y30425D01*
Y30258D01*
X198873D02*
X199206D01*
X199039D01*
Y31258D01*
X198873Y31091D01*
X195798Y31992D02*
Y32991D01*
X196298D01*
X196464Y32825D01*
Y32492D01*
X196298Y32325D01*
X195798D01*
X196131D02*
X196464Y31992D01*
X197464D02*
X196798D01*
X197464Y32658D01*
Y32825D01*
X197297Y32991D01*
X196964D01*
X196798Y32825D01*
X197797Y32991D02*
X198464D01*
Y32825D01*
X197797Y32158D01*
Y31992D01*
X198797Y32825D02*
X198964Y32991D01*
X199297D01*
X199463Y32825D01*
Y32158D01*
X199297Y31992D01*
X198964D01*
X198797Y32158D01*
Y32825D01*
X195876Y28524D02*
Y29524D01*
X196376D01*
X196542Y29357D01*
Y29024D01*
X196376Y28857D01*
X195876D01*
X196209D02*
X196542Y28524D01*
X197542D02*
X196875D01*
X197542Y29191D01*
Y29357D01*
X197375Y29524D01*
X197042D01*
X196875Y29357D01*
X198542Y29524D02*
X198208Y29357D01*
X197875Y29024D01*
Y28691D01*
X198042Y28524D01*
X198375D01*
X198542Y28691D01*
Y28857D01*
X198375Y29024D01*
X197875D01*
X198875Y28691D02*
X199041Y28524D01*
X199375D01*
X199541Y28691D01*
Y29357D01*
X199375Y29524D01*
X199041D01*
X198875Y29357D01*
Y29191D01*
X199041Y29024D01*
X199541D01*
X177378Y30707D02*
Y31707D01*
X177878D01*
X178044Y31540D01*
Y31207D01*
X177878Y31040D01*
X177378D01*
X177711D02*
X178044Y30707D01*
X179044D02*
X178377D01*
X179044Y31374D01*
Y31540D01*
X178877Y31707D01*
X178544D01*
X178377Y31540D01*
X180043Y31707D02*
X179710Y31540D01*
X179377Y31207D01*
Y30874D01*
X179544Y30707D01*
X179877D01*
X180043Y30874D01*
Y31040D01*
X179877Y31207D01*
X179377D01*
X180377Y31540D02*
X180543Y31707D01*
X180877D01*
X181043Y31540D01*
Y31374D01*
X180877Y31207D01*
X181043Y31040D01*
Y30874D01*
X180877Y30707D01*
X180543D01*
X180377Y30874D01*
Y31040D01*
X180543Y31207D01*
X180377Y31374D01*
Y31540D01*
X180543Y31207D02*
X180877D01*
X177397Y34071D02*
Y35070D01*
X177897D01*
X178063Y34904D01*
Y34571D01*
X177897Y34404D01*
X177397D01*
X177730D02*
X178063Y34071D01*
X179063D02*
X178396D01*
X179063Y34737D01*
Y34904D01*
X178896Y35070D01*
X178563D01*
X178396Y34904D01*
X180063Y35070D02*
X179729Y34904D01*
X179396Y34571D01*
Y34237D01*
X179563Y34071D01*
X179896D01*
X180063Y34237D01*
Y34404D01*
X179896Y34571D01*
X179396D01*
X180396Y35070D02*
X181062D01*
Y34904D01*
X180396Y34237D01*
Y34071D01*
X195690Y35362D02*
Y36361D01*
X196190D01*
X196357Y36195D01*
Y35862D01*
X196190Y35695D01*
X195690D01*
X196023D02*
X196357Y35362D01*
X197356D02*
X196690D01*
X197356Y36028D01*
Y36195D01*
X197190Y36361D01*
X196856D01*
X196690Y36195D01*
X198356Y36361D02*
X198023Y36195D01*
X197689Y35862D01*
Y35528D01*
X197856Y35362D01*
X198189D01*
X198356Y35528D01*
Y35695D01*
X198189Y35862D01*
X197689D01*
X199356Y36361D02*
X199022Y36195D01*
X198689Y35862D01*
Y35528D01*
X198856Y35362D01*
X199189D01*
X199356Y35528D01*
Y35695D01*
X199189Y35862D01*
X198689D01*
X117012Y33045D02*
Y32045D01*
X116513D01*
X116346Y32212D01*
Y32545D01*
X116513Y32712D01*
X117012D01*
X116679D02*
X116346Y33045D01*
X115346D02*
X116013D01*
X115346Y32378D01*
Y32212D01*
X115513Y32045D01*
X115846D01*
X116013Y32212D01*
X114347Y32045D02*
X114680Y32212D01*
X115013Y32545D01*
Y32878D01*
X114846Y33045D01*
X114513D01*
X114347Y32878D01*
Y32712D01*
X114513Y32545D01*
X115013D01*
X113347Y32045D02*
X114013D01*
Y32545D01*
X113680Y32378D01*
X113513D01*
X113347Y32545D01*
Y32878D01*
X113513Y33045D01*
X113847D01*
X114013Y32878D01*
X116959Y29763D02*
Y28763D01*
X116459D01*
X116293Y28930D01*
Y29263D01*
X116459Y29430D01*
X116959D01*
X116626D02*
X116293Y29763D01*
X115293D02*
X115959D01*
X115293Y29097D01*
Y28930D01*
X115460Y28763D01*
X115793D01*
X115959Y28930D01*
X114293Y28763D02*
X114627Y28930D01*
X114960Y29263D01*
Y29596D01*
X114793Y29763D01*
X114460D01*
X114293Y29596D01*
Y29430D01*
X114460Y29263D01*
X114960D01*
X113460Y29763D02*
Y28763D01*
X113960Y29263D01*
X113294D01*
X98494Y30229D02*
Y29229D01*
X97995D01*
X97828Y29396D01*
Y29729D01*
X97995Y29896D01*
X98494D01*
X98161D02*
X97828Y30229D01*
X96828D02*
X97495D01*
X96828Y29562D01*
Y29396D01*
X96995Y29229D01*
X97328D01*
X97495Y29396D01*
X95829Y29229D02*
X96162Y29396D01*
X96495Y29729D01*
Y30062D01*
X96328Y30229D01*
X95995D01*
X95829Y30062D01*
Y29896D01*
X95995Y29729D01*
X96495D01*
X95495Y29396D02*
X95329Y29229D01*
X94996D01*
X94829Y29396D01*
Y29562D01*
X94996Y29729D01*
X95162D01*
X94996D01*
X94829Y29896D01*
Y30062D01*
X94996Y30229D01*
X95329D01*
X95495Y30062D01*
X98283Y33658D02*
Y32658D01*
X97783D01*
X97616Y32825D01*
Y33158D01*
X97783Y33325D01*
X98283D01*
X97950D02*
X97616Y33658D01*
X96617D02*
X97283D01*
X96617Y32992D01*
Y32825D01*
X96783Y32658D01*
X97117D01*
X97283Y32825D01*
X95617Y32658D02*
X95950Y32825D01*
X96284Y33158D01*
Y33491D01*
X96117Y33658D01*
X95784D01*
X95617Y33491D01*
Y33325D01*
X95784Y33158D01*
X96284D01*
X94617Y33658D02*
X95284D01*
X94617Y32992D01*
Y32825D01*
X94784Y32658D01*
X95117D01*
X95284Y32825D01*
X98340Y36924D02*
Y35924D01*
X97840D01*
X97674Y36091D01*
Y36424D01*
X97840Y36591D01*
X98340D01*
X98007D02*
X97674Y36924D01*
X96674D02*
X97340D01*
X96674Y36258D01*
Y36091D01*
X96841Y35924D01*
X97174D01*
X97340Y36091D01*
X95674Y35924D02*
X96008Y36091D01*
X96341Y36424D01*
Y36758D01*
X96174Y36924D01*
X95841D01*
X95674Y36758D01*
Y36591D01*
X95841Y36424D01*
X96341D01*
X95341Y36924D02*
X95008D01*
X95174D01*
Y35924D01*
X95341Y36091D01*
X116354Y35891D02*
Y34892D01*
X115854D01*
X115688Y35058D01*
Y35392D01*
X115854Y35558D01*
X116354D01*
X116021D02*
X115688Y35891D01*
X114688D02*
X115355D01*
X114688Y35225D01*
Y35058D01*
X114855Y34892D01*
X115188D01*
X115355Y35058D01*
X113689Y34892D02*
X114022Y35058D01*
X114355Y35392D01*
Y35725D01*
X114188Y35891D01*
X113855D01*
X113689Y35725D01*
Y35558D01*
X113855Y35392D01*
X114355D01*
X113355Y35058D02*
X113189Y34892D01*
X112855D01*
X112689Y35058D01*
Y35725D01*
X112855Y35891D01*
X113189D01*
X113355Y35725D01*
Y35058D01*
X116977Y31320D02*
Y30320D01*
X116477D01*
X116311Y30487D01*
Y30820D01*
X116477Y30987D01*
X116977D01*
X116644D02*
X116311Y31320D01*
X115311D02*
X115977D01*
X115311Y30654D01*
Y30487D01*
X115478Y30320D01*
X115811D01*
X115977Y30487D01*
X114311Y30320D02*
X114978D01*
Y30820D01*
X114644Y30654D01*
X114478D01*
X114311Y30820D01*
Y31154D01*
X114478Y31320D01*
X114811D01*
X114978Y31154D01*
X113978D02*
X113811Y31320D01*
X113478D01*
X113312Y31154D01*
Y30487D01*
X113478Y30320D01*
X113811D01*
X113978Y30487D01*
Y30654D01*
X113811Y30820D01*
X113312D01*
X98553Y28489D02*
Y27489D01*
X98053D01*
X97886Y27655D01*
Y27989D01*
X98053Y28155D01*
X98553D01*
X98219D02*
X97886Y28489D01*
X96886D02*
X97553D01*
X96886Y27822D01*
Y27655D01*
X97053Y27489D01*
X97386D01*
X97553Y27655D01*
X95887Y27489D02*
X96553D01*
Y27989D01*
X96220Y27822D01*
X96053D01*
X95887Y27989D01*
Y28322D01*
X96053Y28489D01*
X96387D01*
X96553Y28322D01*
X95554Y27655D02*
X95387Y27489D01*
X95054D01*
X94887Y27655D01*
Y27822D01*
X95054Y27989D01*
X94887Y28155D01*
Y28322D01*
X95054Y28489D01*
X95387D01*
X95554Y28322D01*
Y28155D01*
X95387Y27989D01*
X95554Y27822D01*
Y27655D01*
X95387Y27989D02*
X95054D01*
X98469Y31924D02*
Y30924D01*
X97969D01*
X97803Y31090D01*
Y31424D01*
X97969Y31590D01*
X98469D01*
X98136D02*
X97803Y31924D01*
X96803D02*
X97470D01*
X96803Y31257D01*
Y31090D01*
X96970Y30924D01*
X97303D01*
X97470Y31090D01*
X95803Y30924D02*
X96470D01*
Y31424D01*
X96137Y31257D01*
X95970D01*
X95803Y31424D01*
Y31757D01*
X95970Y31924D01*
X96303D01*
X96470Y31757D01*
X95470Y30924D02*
X94804D01*
Y31090D01*
X95470Y31757D01*
Y31924D01*
X98502Y35329D02*
Y34329D01*
X98003D01*
X97836Y34496D01*
Y34829D01*
X98003Y34996D01*
X98502D01*
X98169D02*
X97836Y35329D01*
X96836D02*
X97503D01*
X96836Y34663D01*
Y34496D01*
X97003Y34329D01*
X97336D01*
X97503Y34496D01*
X95837Y34329D02*
X96503D01*
Y34829D01*
X96170Y34663D01*
X96003D01*
X95837Y34829D01*
Y35163D01*
X96003Y35329D01*
X96336D01*
X96503Y35163D01*
X94837Y34329D02*
X95170Y34496D01*
X95503Y34829D01*
Y35163D01*
X95337Y35329D01*
X95004D01*
X94837Y35163D01*
Y34996D01*
X95004Y34829D01*
X95503D01*
X191548Y39450D02*
Y40450D01*
X192048D01*
X192215Y40283D01*
Y39950D01*
X192048Y39784D01*
X191548D01*
X191882D02*
X192215Y39450D01*
X193215D02*
X192548D01*
X193215Y40117D01*
Y40283D01*
X193048Y40450D01*
X192715D01*
X192548Y40283D01*
X194048Y39450D02*
Y40450D01*
X193548Y39950D01*
X194214D01*
X195214Y40450D02*
X194548D01*
Y39950D01*
X194881Y40117D01*
X195047D01*
X195214Y39950D01*
Y39617D01*
X195047Y39450D01*
X194714D01*
X194548Y39617D01*
X85302Y34171D02*
X84302D01*
Y34671D01*
X84469Y34837D01*
X84802D01*
X84969Y34671D01*
Y34171D01*
Y34504D02*
X85302Y34837D01*
Y35837D02*
Y35171D01*
X84636Y35837D01*
X84469D01*
X84302Y35671D01*
Y35337D01*
X84469Y35171D01*
X85302Y36670D02*
X84302D01*
X84802Y36170D01*
Y36837D01*
X84469Y37170D02*
X84302Y37337D01*
Y37670D01*
X84469Y37836D01*
X85135D01*
X85302Y37670D01*
Y37337D01*
X85135Y37170D01*
X84469D01*
X176669Y37386D02*
Y38386D01*
X177169D01*
X177336Y38219D01*
Y37886D01*
X177169Y37720D01*
X176669D01*
X177003D02*
X177336Y37386D01*
X178335D02*
X177669D01*
X178335Y38053D01*
Y38219D01*
X178169Y38386D01*
X177836D01*
X177669Y38219D01*
X178669D02*
X178835Y38386D01*
X179169D01*
X179335Y38219D01*
Y38053D01*
X179169Y37886D01*
X179002D01*
X179169D01*
X179335Y37720D01*
Y37553D01*
X179169Y37386D01*
X178835D01*
X178669Y37553D01*
X179668Y38219D02*
X179835Y38386D01*
X180168D01*
X180335Y38219D01*
Y38053D01*
X180168Y37886D01*
X180002D01*
X180168D01*
X180335Y37720D01*
Y37553D01*
X180168Y37386D01*
X179835D01*
X179668Y37553D01*
X163832Y42754D02*
Y43753D01*
X164332D01*
X164499Y43587D01*
Y43254D01*
X164332Y43087D01*
X163832D01*
X164166D02*
X164499Y42754D01*
X165499D02*
X164832D01*
X165499Y43420D01*
Y43587D01*
X165332Y43753D01*
X164999D01*
X164832Y43587D01*
X166498Y42754D02*
X165832D01*
X166498Y43420D01*
Y43587D01*
X166332Y43753D01*
X165998D01*
X165832Y43587D01*
X167498Y42754D02*
X166832D01*
X167498Y43420D01*
Y43587D01*
X167331Y43753D01*
X166998D01*
X166832Y43587D01*
X136108Y32714D02*
Y33714D01*
X136608D01*
X136775Y33547D01*
Y33214D01*
X136608Y33047D01*
X136108D01*
X136441D02*
X136775Y32714D01*
X137774D02*
X137108D01*
X137774Y33381D01*
Y33547D01*
X137608Y33714D01*
X137274D01*
X137108Y33547D01*
X138774Y32714D02*
X138107D01*
X138774Y33381D01*
Y33547D01*
X138607Y33714D01*
X138274D01*
X138107Y33547D01*
X139107Y32714D02*
X139440D01*
X139274D01*
Y33714D01*
X139107Y33547D01*
X182499Y26995D02*
Y27994D01*
X182998D01*
X183165Y27828D01*
Y27494D01*
X182998Y27328D01*
X182499D01*
X182832D02*
X183165Y26995D01*
X184165D02*
X183498D01*
X184165Y27661D01*
Y27828D01*
X183998Y27994D01*
X183665D01*
X183498Y27828D01*
X185164Y26995D02*
X184498D01*
X185164Y27661D01*
Y27828D01*
X184998Y27994D01*
X184664D01*
X184498Y27828D01*
X185498D02*
X185664Y27994D01*
X185997D01*
X186164Y27828D01*
Y27161D01*
X185997Y26995D01*
X185664D01*
X185498Y27161D01*
Y27828D01*
X42511Y71546D02*
Y72546D01*
X43011D01*
X43178Y72379D01*
Y72046D01*
X43011Y71879D01*
X42511D01*
X42844D02*
X43178Y71546D01*
X44177D02*
X43511D01*
X44177Y72212D01*
Y72379D01*
X44011Y72546D01*
X43677D01*
X43511Y72379D01*
X44511Y71546D02*
X44844D01*
X44677D01*
Y72546D01*
X44511Y72379D01*
X45344Y71713D02*
X45510Y71546D01*
X45843D01*
X46010Y71713D01*
Y72379D01*
X45843Y72546D01*
X45510D01*
X45344Y72379D01*
Y72212D01*
X45510Y72046D01*
X46010D01*
X39522Y60778D02*
Y61778D01*
X40022D01*
X40189Y61611D01*
Y61278D01*
X40022Y61111D01*
X39522D01*
X39856D02*
X40189Y60778D01*
X41189D02*
X40522D01*
X41189Y61445D01*
Y61611D01*
X41022Y61778D01*
X40689D01*
X40522Y61611D01*
X41522Y60778D02*
X41855D01*
X41688D01*
Y61778D01*
X41522Y61611D01*
X42355D02*
X42521Y61778D01*
X42855D01*
X43021Y61611D01*
Y61445D01*
X42855Y61278D01*
X43021Y61111D01*
Y60945D01*
X42855Y60778D01*
X42521D01*
X42355Y60945D01*
Y61111D01*
X42521Y61278D01*
X42355Y61445D01*
Y61611D01*
X42521Y61278D02*
X42855D01*
X28154Y67890D02*
Y68890D01*
X28654D01*
X28821Y68723D01*
Y68390D01*
X28654Y68224D01*
X28154D01*
X28488D02*
X28821Y67890D01*
X29820D02*
X29154D01*
X29820Y68557D01*
Y68723D01*
X29654Y68890D01*
X29321D01*
X29154Y68723D01*
X30154Y67890D02*
X30487D01*
X30320D01*
Y68890D01*
X30154Y68723D01*
X31653Y68890D02*
X31320Y68723D01*
X30987Y68390D01*
Y68057D01*
X31153Y67890D01*
X31487D01*
X31653Y68057D01*
Y68224D01*
X31487Y68390D01*
X30987D01*
X26416Y65564D02*
Y66564D01*
X26916D01*
X27082Y66397D01*
Y66064D01*
X26916Y65897D01*
X26416D01*
X26749D02*
X27082Y65564D01*
X28082D02*
X27415D01*
X28082Y66230D01*
Y66397D01*
X27915Y66564D01*
X27582D01*
X27415Y66397D01*
X28415Y65564D02*
X28748D01*
X28582D01*
Y66564D01*
X28415Y66397D01*
X29915Y66564D02*
X29248D01*
Y66064D01*
X29581Y66230D01*
X29748D01*
X29915Y66064D01*
Y65730D01*
X29748Y65564D01*
X29415D01*
X29248Y65730D01*
X72308Y57541D02*
Y58540D01*
X72808D01*
X72974Y58374D01*
Y58040D01*
X72808Y57874D01*
X72308D01*
X72641D02*
X72974Y57541D01*
X73974D02*
X73308D01*
X73974Y58207D01*
Y58374D01*
X73807Y58540D01*
X73474D01*
X73308Y58374D01*
X74307Y57541D02*
X74640D01*
X74474D01*
Y58540D01*
X74307Y58374D01*
X75640Y57541D02*
Y58540D01*
X75140Y58040D01*
X75807D01*
X41343Y58693D02*
Y59692D01*
X41843D01*
X42009Y59526D01*
Y59192D01*
X41843Y59026D01*
X41343D01*
X41676D02*
X42009Y58693D01*
X43009D02*
X42343D01*
X43009Y59359D01*
Y59526D01*
X42842Y59692D01*
X42509D01*
X42343Y59526D01*
X43342Y58693D02*
X43676D01*
X43509D01*
Y59692D01*
X43342Y59526D01*
X44175D02*
X44342Y59692D01*
X44675D01*
X44842Y59526D01*
Y59359D01*
X44675Y59192D01*
X44509D01*
X44675D01*
X44842Y59026D01*
Y58859D01*
X44675Y58693D01*
X44342D01*
X44175Y58859D01*
X72248Y39473D02*
Y40473D01*
X72747D01*
X72914Y40306D01*
Y39973D01*
X72747Y39806D01*
X72248D01*
X72581D02*
X72914Y39473D01*
X73914D02*
X73247D01*
X73914Y40140D01*
Y40306D01*
X73747Y40473D01*
X73414D01*
X73247Y40306D01*
X74247Y39473D02*
X74580D01*
X74414D01*
Y40473D01*
X74247Y40306D01*
X75746Y39473D02*
X75080D01*
X75746Y40140D01*
Y40306D01*
X75580Y40473D01*
X75247D01*
X75080Y40306D01*
X53109Y41055D02*
Y42055D01*
X53609D01*
X53775Y41888D01*
Y41555D01*
X53609Y41388D01*
X53109D01*
X53442D02*
X53775Y41055D01*
X54775D02*
X54109D01*
X54775Y41722D01*
Y41888D01*
X54609Y42055D01*
X54275D01*
X54109Y41888D01*
X55108Y41055D02*
X55442D01*
X55275D01*
Y42055D01*
X55108Y41888D01*
X55941Y41055D02*
X56275D01*
X56108D01*
Y42055D01*
X55941Y41888D01*
X203748Y59818D02*
X202749D01*
Y60318D01*
X202915Y60484D01*
X203249D01*
X203415Y60318D01*
Y59818D01*
Y60151D02*
X203748Y60484D01*
Y60817D02*
Y61151D01*
Y60984D01*
X202749D01*
X202915Y60817D01*
X203748Y61650D02*
Y61984D01*
Y61817D01*
X202749D01*
X202915Y61650D01*
X203748Y62983D02*
X202749D01*
X203249Y62484D01*
Y63150D01*
X194592Y66244D02*
X195592D01*
Y65744D01*
X195426Y65577D01*
X195092D01*
X194926Y65744D01*
Y66244D01*
Y65911D02*
X194592Y65577D01*
Y65244D02*
Y64911D01*
Y65078D01*
X195592D01*
X195426Y65244D01*
Y64411D02*
X195592Y64244D01*
Y63911D01*
X195426Y63745D01*
X194759D01*
X194592Y63911D01*
Y64244D01*
X194759Y64411D01*
X195426D01*
Y63411D02*
X195592Y63245D01*
Y62912D01*
X195426Y62745D01*
X195259D01*
X195092Y62912D01*
X194926Y62745D01*
X194759D01*
X194592Y62912D01*
Y63245D01*
X194759Y63411D01*
X194926D01*
X195092Y63245D01*
X195259Y63411D01*
X195426D01*
X195092Y63245D02*
Y62912D01*
X194918Y48927D02*
Y49927D01*
X195418D01*
X195584Y49760D01*
Y49427D01*
X195418Y49260D01*
X194918D01*
X195251D02*
X195584Y48927D01*
X195918D02*
X196251D01*
X196084D01*
Y49927D01*
X195918Y49760D01*
X196751D02*
X196917Y49927D01*
X197250D01*
X197417Y49760D01*
Y49094D01*
X197250Y48927D01*
X196917D01*
X196751Y49094D01*
Y49760D01*
X198417Y49927D02*
X197750D01*
Y49427D01*
X198084Y49594D01*
X198250D01*
X198417Y49427D01*
Y49094D01*
X198250Y48927D01*
X197917D01*
X197750Y49094D01*
X39213Y31222D02*
Y30222D01*
X39879D01*
X40879Y31222D02*
X40213D01*
Y30222D01*
X40879D01*
X40213Y30722D02*
X40546D01*
X41212Y31222D02*
Y30222D01*
X41712D01*
X41879Y30389D01*
Y31055D01*
X41712Y31222D01*
X41212D01*
X42878Y30222D02*
X42212D01*
X42878Y30888D01*
Y31055D01*
X42712Y31222D01*
X42379D01*
X42212Y31055D01*
X171733Y48075D02*
X172732D01*
Y48742D01*
X171733Y49741D02*
Y49075D01*
X172732D01*
Y49741D01*
X172232Y49075D02*
Y49408D01*
X171733Y50074D02*
X172732D01*
Y50574D01*
X172566Y50741D01*
X171899D01*
X171733Y50574D01*
Y50074D01*
X172732Y51074D02*
Y51407D01*
Y51241D01*
X171733D01*
X171899Y51074D01*
X24798Y37694D02*
Y36694D01*
X25465D01*
X25798Y37694D02*
X26464D01*
Y37527D01*
X25798Y36861D01*
Y36694D01*
X150450Y49543D02*
Y50542D01*
X149784D01*
X148784Y49543D02*
X149117Y49709D01*
X149451Y50043D01*
Y50376D01*
X149284Y50542D01*
X148951D01*
X148784Y50376D01*
Y50209D01*
X148951Y50043D01*
X149451D01*
X155620Y54558D02*
X156620D01*
Y55225D01*
X155620Y56225D02*
Y55558D01*
X156120D01*
X155953Y55891D01*
Y56058D01*
X156120Y56225D01*
X156453D01*
X156620Y56058D01*
Y55725D01*
X156453Y55558D01*
X140552Y44759D02*
Y43760D01*
X141218D01*
X142051D02*
Y44759D01*
X141552Y44259D01*
X142218D01*
X71187Y28642D02*
X72187D01*
Y29308D01*
Y30308D02*
Y29641D01*
X71520Y30308D01*
X71353D01*
X71187Y30141D01*
Y29808D01*
X71353Y29641D01*
X109880Y48375D02*
X109713Y48542D01*
X109380D01*
X109213Y48375D01*
Y47708D01*
X109380Y47542D01*
X109713D01*
X109880Y47708D01*
Y48042D01*
X109547D01*
X110213Y47542D02*
X110546D01*
X110380D01*
Y48542D01*
X110213Y48375D01*
X2569Y68387D02*
X1903D01*
Y67887D01*
X2236D01*
X1903D01*
Y67388D01*
X2902Y68387D02*
Y67554D01*
X3069Y67388D01*
X3402D01*
X3569Y67554D01*
Y68387D01*
X4568Y67388D02*
X3902D01*
X4568Y68054D01*
Y68221D01*
X4402Y68387D01*
X4069D01*
X3902Y68221D01*
X152241Y39753D02*
Y38753D01*
X152741D01*
X152907Y38920D01*
Y39586D01*
X152741Y39753D01*
X152241D01*
X153241D02*
Y38753D01*
X153740D01*
X153907Y38920D01*
Y39586D01*
X153740Y39753D01*
X153241D01*
X154240Y38753D02*
X154573D01*
X154407D01*
Y39753D01*
X154240Y39586D01*
X155073D02*
X155240Y39753D01*
X155573D01*
X155740Y39586D01*
Y38920D01*
X155573Y38753D01*
X155240D01*
X155073Y38920D01*
Y39586D01*
X137161Y53038D02*
Y52038D01*
X137661D01*
X137827Y52205D01*
Y52871D01*
X137661Y53038D01*
X137161D01*
X138161D02*
Y52038D01*
X138660D01*
X138827Y52205D01*
Y52871D01*
X138660Y53038D01*
X138161D01*
X139160Y52205D02*
X139327Y52038D01*
X139660D01*
X139827Y52205D01*
Y52871D01*
X139660Y53038D01*
X139327D01*
X139160Y52871D01*
Y52705D01*
X139327Y52538D01*
X139827D01*
X47322Y63017D02*
Y62017D01*
X47821D01*
X47988Y62184D01*
Y62850D01*
X47821Y63017D01*
X47322D01*
X48321D02*
Y62017D01*
X48821D01*
X48988Y62184D01*
Y62850D01*
X48821Y63017D01*
X48321D01*
X49321Y62850D02*
X49488Y63017D01*
X49821D01*
X49987Y62850D01*
Y62684D01*
X49821Y62517D01*
X49654D01*
X49821D01*
X49987Y62350D01*
Y62184D01*
X49821Y62017D01*
X49488D01*
X49321Y62184D01*
X71099Y42627D02*
X70099D01*
Y42128D01*
X70266Y41961D01*
X70932D01*
X71099Y42128D01*
Y42627D01*
Y41628D02*
X70099D01*
Y41128D01*
X70266Y40961D01*
X70932D01*
X71099Y41128D01*
Y41628D01*
X70099Y39962D02*
Y40628D01*
X70765Y39962D01*
X70932D01*
X71099Y40128D01*
Y40461D01*
X70932Y40628D01*
X62024Y58233D02*
X61025D01*
Y57734D01*
X61191Y57567D01*
X61858D01*
X62024Y57734D01*
Y58233D01*
Y57234D02*
X61025D01*
Y56734D01*
X61191Y56567D01*
X61858D01*
X62024Y56734D01*
Y57234D01*
X61025Y56234D02*
Y55901D01*
Y56067D01*
X62024D01*
X61858Y56234D01*
X31413Y64808D02*
Y63808D01*
X31913D01*
X32080Y63975D01*
Y64641D01*
X31913Y64808D01*
X31413D01*
X32413Y63808D02*
Y64474D01*
X32746Y64808D01*
X33079Y64474D01*
Y63808D01*
Y64308D01*
X32413D01*
X33412Y64808D02*
X34079D01*
Y64641D01*
X33412Y63975D01*
Y63808D01*
X34412D02*
X34745D01*
X34579D01*
Y64808D01*
X34412Y64641D01*
X115889Y12926D02*
X116888D01*
Y13426D01*
X116722Y13592D01*
X116055D01*
X115889Y13426D01*
Y12926D01*
X116888Y13925D02*
X116222D01*
X115889Y14259D01*
X116222Y14592D01*
X116888D01*
X116388D01*
Y13925D01*
X115889Y14925D02*
Y15592D01*
X116055D01*
X116722Y14925D01*
X116888D01*
X116055Y15925D02*
X115889Y16091D01*
Y16425D01*
X116055Y16591D01*
X116722D01*
X116888Y16425D01*
Y16091D01*
X116722Y15925D01*
X116055D01*
X86998Y12764D02*
X87998D01*
Y13264D01*
X87831Y13431D01*
X87165D01*
X86998Y13264D01*
Y12764D01*
X87998Y13764D02*
X87332D01*
X86998Y14097D01*
X87332Y14430D01*
X87998D01*
X87498D01*
Y13764D01*
X86998Y15430D02*
X87165Y15097D01*
X87498Y14764D01*
X87831D01*
X87998Y14930D01*
Y15264D01*
X87831Y15430D01*
X87665D01*
X87498Y15264D01*
Y14764D01*
X87831Y15763D02*
X87998Y15930D01*
Y16263D01*
X87831Y16430D01*
X87165D01*
X86998Y16263D01*
Y15930D01*
X87165Y15763D01*
X87332D01*
X87498Y15930D01*
Y16430D01*
X57009Y13457D02*
X58008D01*
Y13957D01*
X57842Y14123D01*
X57175D01*
X57009Y13957D01*
Y13457D01*
X58008Y14457D02*
X57342D01*
X57009Y14790D01*
X57342Y15123D01*
X58008D01*
X57508D01*
Y14457D01*
X57009Y16123D02*
X57175Y15790D01*
X57508Y15456D01*
X57842D01*
X58008Y15623D01*
Y15956D01*
X57842Y16123D01*
X57675D01*
X57508Y15956D01*
Y15456D01*
X57175Y16456D02*
X57009Y16623D01*
Y16956D01*
X57175Y17123D01*
X57342D01*
X57508Y16956D01*
X57675Y17123D01*
X57842D01*
X58008Y16956D01*
Y16623D01*
X57842Y16456D01*
X57675D01*
X57508Y16623D01*
X57342Y16456D01*
X57175D01*
X57508Y16623D02*
Y16956D01*
X106157Y12901D02*
X107156D01*
Y13401D01*
X106990Y13567D01*
X106323D01*
X106157Y13401D01*
Y12901D01*
X107156Y13900D02*
X106490D01*
X106157Y14234D01*
X106490Y14567D01*
X107156D01*
X106656D01*
Y13900D01*
X106157Y15567D02*
X106323Y15233D01*
X106656Y14900D01*
X106990D01*
X107156Y15067D01*
Y15400D01*
X106990Y15567D01*
X106823D01*
X106656Y15400D01*
Y14900D01*
X107156Y16400D02*
X106157D01*
X106656Y15900D01*
Y16566D01*
X76977Y13448D02*
X77977D01*
Y13948D01*
X77810Y14114D01*
X77144D01*
X76977Y13948D01*
Y13448D01*
X77977Y14448D02*
X77311D01*
X76977Y14781D01*
X77311Y15114D01*
X77977D01*
X77477D01*
Y14448D01*
X76977Y16114D02*
X77144Y15781D01*
X77477Y15447D01*
X77810D01*
X77977Y15614D01*
Y15947D01*
X77810Y16114D01*
X77644D01*
X77477Y15947D01*
Y15447D01*
X77144Y16447D02*
X76977Y16614D01*
Y16947D01*
X77144Y17114D01*
X77311D01*
X77477Y16947D01*
Y16780D01*
Y16947D01*
X77644Y17114D01*
X77810D01*
X77977Y16947D01*
Y16614D01*
X77810Y16447D01*
X46493Y13647D02*
X47493D01*
Y14147D01*
X47326Y14314D01*
X46660D01*
X46493Y14147D01*
Y13647D01*
X47493Y14647D02*
X46826D01*
X46493Y14980D01*
X46826Y15313D01*
X47493D01*
X46993D01*
Y14647D01*
X46493Y16313D02*
X46660Y15980D01*
X46993Y15647D01*
X47326D01*
X47493Y15813D01*
Y16146D01*
X47326Y16313D01*
X47160D01*
X46993Y16146D01*
Y15647D01*
X47493Y17313D02*
Y16646D01*
X46826Y17313D01*
X46660D01*
X46493Y17146D01*
Y16813D01*
X46660Y16646D01*
X96600Y12966D02*
X97599D01*
Y13466D01*
X97433Y13632D01*
X96766D01*
X96600Y13466D01*
Y12966D01*
X97599Y13966D02*
X96933D01*
X96600Y14299D01*
X96933Y14632D01*
X97599D01*
X97100D01*
Y13966D01*
X96600Y15632D02*
Y14965D01*
X97100D01*
X96933Y15298D01*
Y15465D01*
X97100Y15632D01*
X97433D01*
X97599Y15465D01*
Y15132D01*
X97433Y14965D01*
X96766Y15965D02*
X96600Y16132D01*
Y16465D01*
X96766Y16631D01*
X96933D01*
X97100Y16465D01*
X97266Y16631D01*
X97433D01*
X97599Y16465D01*
Y16132D01*
X97433Y15965D01*
X97266D01*
X97100Y16132D01*
X96933Y15965D01*
X96766D01*
X97100Y16132D02*
Y16465D01*
X67253Y13461D02*
X68253D01*
Y13961D01*
X68086Y14128D01*
X67420D01*
X67253Y13961D01*
Y13461D01*
X68253Y14461D02*
X67586D01*
X67253Y14794D01*
X67586Y15127D01*
X68253D01*
X67753D01*
Y14461D01*
X67253Y16127D02*
Y15461D01*
X67753D01*
X67586Y15794D01*
Y15960D01*
X67753Y16127D01*
X68086D01*
X68253Y15960D01*
Y15627D01*
X68086Y15461D01*
X67253Y16460D02*
Y17127D01*
X67420D01*
X68086Y16460D01*
X68253D01*
X36084Y13573D02*
X37084D01*
Y14073D01*
X36917Y14240D01*
X36251D01*
X36084Y14073D01*
Y13573D01*
X37084Y14573D02*
X36417D01*
X36084Y14906D01*
X36417Y15239D01*
X37084D01*
X36584D01*
Y14573D01*
X36084Y16239D02*
Y15573D01*
X36584D01*
X36417Y15906D01*
Y16072D01*
X36584Y16239D01*
X36917D01*
X37084Y16072D01*
Y15739D01*
X36917Y15573D01*
X36084Y17239D02*
X36251Y16905D01*
X36584Y16572D01*
X36917D01*
X37084Y16739D01*
Y17072D01*
X36917Y17239D01*
X36751D01*
X36584Y17072D01*
Y16572D01*
X13985Y13473D02*
X14984D01*
Y13973D01*
X14818Y14139D01*
X14151D01*
X13985Y13973D01*
Y13473D01*
X14984Y14472D02*
X14318D01*
X13985Y14806D01*
X14318Y15139D01*
X14984D01*
X14484D01*
Y14472D01*
X13985Y16138D02*
Y15472D01*
X14484D01*
X14318Y15805D01*
Y15972D01*
X14484Y16138D01*
X14818D01*
X14984Y15972D01*
Y15639D01*
X14818Y15472D01*
X14984Y17138D02*
Y16472D01*
X14318Y17138D01*
X14151D01*
X13985Y16972D01*
Y16638D01*
X14151Y16472D01*
X183675Y53195D02*
X184675D01*
Y53695D01*
X184508Y53862D01*
X183842D01*
X183675Y53695D01*
Y53195D01*
X184675Y54195D02*
X184009D01*
X183675Y54528D01*
X184009Y54862D01*
X184675D01*
X184175D01*
Y54195D01*
X183675Y55861D02*
Y55195D01*
X184175D01*
X184009Y55528D01*
Y55695D01*
X184175Y55861D01*
X184508D01*
X184675Y55695D01*
Y55361D01*
X184508Y55195D01*
X184675Y56195D02*
Y56528D01*
Y56361D01*
X183675D01*
X183842Y56195D01*
X171317Y70480D02*
X172317D01*
Y70979D01*
X172151Y71146D01*
X171484D01*
X171317Y70979D01*
Y70480D01*
X172317Y71479D02*
X171651D01*
X171317Y71813D01*
X171651Y72146D01*
X172317D01*
X171817D01*
Y71479D01*
X171317Y73145D02*
Y72479D01*
X171817D01*
X171651Y72812D01*
Y72979D01*
X171817Y73145D01*
X172151D01*
X172317Y72979D01*
Y72646D01*
X172151Y72479D01*
X171484Y73479D02*
X171317Y73645D01*
Y73979D01*
X171484Y74145D01*
X172151D01*
X172317Y73979D01*
Y73645D01*
X172151Y73479D01*
X171484D01*
X1450Y13491D02*
X2450D01*
Y13991D01*
X2283Y14157D01*
X1617D01*
X1450Y13991D01*
Y13491D01*
X2450Y14491D02*
X1784D01*
X1450Y14824D01*
X1784Y15157D01*
X2450D01*
X1950D01*
Y14491D01*
X2450Y15990D02*
X1450D01*
X1950Y15490D01*
Y16157D01*
X1450Y17156D02*
X1617Y16823D01*
X1950Y16490D01*
X2283D01*
X2450Y16657D01*
Y16990D01*
X2283Y17156D01*
X2117D01*
X1950Y16990D01*
Y16490D01*
X193896Y70520D02*
X194896D01*
Y71020D01*
X194729Y71186D01*
X194063D01*
X193896Y71020D01*
Y70520D01*
X194896Y71519D02*
X194229D01*
X193896Y71853D01*
X194229Y72186D01*
X194896D01*
X194396D01*
Y71519D01*
X194896Y73019D02*
X193896D01*
X194396Y72519D01*
Y73186D01*
X193896Y74185D02*
Y73519D01*
X194396D01*
X194229Y73852D01*
Y74019D01*
X194396Y74185D01*
X194729D01*
X194896Y74019D01*
Y73685D01*
X194729Y73519D01*
X160289Y70496D02*
X161289D01*
Y70996D01*
X161122Y71163D01*
X160456D01*
X160289Y70996D01*
Y70496D01*
X161289Y71496D02*
X160622D01*
X160289Y71829D01*
X160622Y72162D01*
X161289D01*
X160789D01*
Y71496D01*
X161289Y72996D02*
X160289D01*
X160789Y72496D01*
Y73162D01*
X161289Y73995D02*
X160289D01*
X160789Y73495D01*
Y74162D01*
X194550Y53444D02*
X195550D01*
Y53944D01*
X195383Y54110D01*
X194716D01*
X194550Y53944D01*
Y53444D01*
X195550Y54443D02*
X194883D01*
X194550Y54777D01*
X194883Y55110D01*
X195550D01*
X195050D01*
Y54443D01*
X195550Y55943D02*
X194550D01*
X195050Y55443D01*
Y56110D01*
X194716Y56443D02*
X194550Y56609D01*
Y56943D01*
X194716Y57109D01*
X195383D01*
X195550Y56943D01*
Y56609D01*
X195383Y56443D01*
X194716D01*
X182532Y70497D02*
X183532D01*
Y70997D01*
X183365Y71163D01*
X182699D01*
X182532Y70997D01*
Y70497D01*
X183532Y71496D02*
X182866D01*
X182532Y71830D01*
X182866Y72163D01*
X183532D01*
X183032D01*
Y71496D01*
X182699Y72496D02*
X182532Y72663D01*
Y72996D01*
X182699Y73163D01*
X182866D01*
X183032Y72996D01*
Y72829D01*
Y72996D01*
X183199Y73163D01*
X183365D01*
X183532Y72996D01*
Y72663D01*
X183365Y72496D01*
Y73496D02*
X183532Y73662D01*
Y73996D01*
X183365Y74162D01*
X182699D01*
X182532Y73996D01*
Y73662D01*
X182699Y73496D01*
X182866D01*
X183032Y73662D01*
Y74162D01*
X26390Y17379D02*
X25390D01*
Y16879D01*
X25557Y16713D01*
X26223D01*
X26390Y16879D01*
Y17379D01*
X25390Y16380D02*
X26057D01*
X26390Y16046D01*
X26057Y15713D01*
X25390D01*
X25890D01*
Y16380D01*
X26223Y15380D02*
X26390Y15213D01*
Y14880D01*
X26223Y14713D01*
X26057D01*
X25890Y14880D01*
Y15047D01*
Y14880D01*
X25723Y14713D01*
X25557D01*
X25390Y14880D01*
Y15213D01*
X25557Y15380D01*
X26223Y14380D02*
X26390Y14214D01*
Y13880D01*
X26223Y13714D01*
X26057D01*
X25890Y13880D01*
X25723Y13714D01*
X25557D01*
X25390Y13880D01*
Y14214D01*
X25557Y14380D01*
X25723D01*
X25890Y14214D01*
X26057Y14380D01*
X26223D01*
X25890Y14214D02*
Y13880D01*
X200533Y58371D02*
Y57371D01*
X201033D01*
X201199Y57538D01*
Y58204D01*
X201033Y58371D01*
X200533D01*
X201532Y57371D02*
Y58037D01*
X201866Y58371D01*
X202199Y58037D01*
Y57371D01*
Y57871D01*
X201532D01*
X202532Y58204D02*
X202699Y58371D01*
X203032D01*
X203199Y58204D01*
Y58037D01*
X203032Y57871D01*
X202865D01*
X203032D01*
X203199Y57704D01*
Y57538D01*
X203032Y57371D01*
X202699D01*
X202532Y57538D01*
X203532Y58371D02*
X204198D01*
Y58204D01*
X203532Y57538D01*
Y57371D01*
X149198Y70486D02*
X150198D01*
Y70985D01*
X150031Y71152D01*
X149365D01*
X149198Y70985D01*
Y70486D01*
X150198Y71485D02*
X149531D01*
X149198Y71819D01*
X149531Y72152D01*
X150198D01*
X149698D01*
Y71485D01*
X149365Y72485D02*
X149198Y72652D01*
Y72985D01*
X149365Y73151D01*
X149531D01*
X149698Y72985D01*
Y72818D01*
Y72985D01*
X149865Y73151D01*
X150031D01*
X150198Y72985D01*
Y72652D01*
X150031Y72485D01*
X150198Y73984D02*
X149198D01*
X149698Y73485D01*
Y74151D01*
X116020Y70469D02*
X117019D01*
Y70968D01*
X116853Y71135D01*
X116186D01*
X116020Y70968D01*
Y70469D01*
X117019Y71468D02*
X116353D01*
X116020Y71801D01*
X116353Y72135D01*
X117019D01*
X116519D01*
Y71468D01*
X116186Y72468D02*
X116020Y72635D01*
Y72968D01*
X116186Y73134D01*
X116353D01*
X116519Y72968D01*
Y72801D01*
Y72968D01*
X116686Y73134D01*
X116853D01*
X117019Y72968D01*
Y72635D01*
X116853Y72468D01*
X116186Y73468D02*
X116020Y73634D01*
Y73967D01*
X116186Y74134D01*
X116353D01*
X116519Y73967D01*
Y73801D01*
Y73967D01*
X116686Y74134D01*
X116853D01*
X117019Y73967D01*
Y73634D01*
X116853Y73468D01*
X83458Y70413D02*
X84457D01*
Y70913D01*
X84291Y71079D01*
X83624D01*
X83458Y70913D01*
Y70413D01*
X84457Y71413D02*
X83791D01*
X83458Y71746D01*
X83791Y72079D01*
X84457D01*
X83958D01*
Y71413D01*
X83624Y72412D02*
X83458Y72579D01*
Y72912D01*
X83624Y73079D01*
X83791D01*
X83958Y72912D01*
Y72746D01*
Y72912D01*
X84124Y73079D01*
X84291D01*
X84457Y72912D01*
Y72579D01*
X84291Y72412D01*
X84457Y74078D02*
Y73412D01*
X83791Y74078D01*
X83624D01*
X83458Y73912D01*
Y73579D01*
X83624Y73412D01*
X138347Y70517D02*
X139346D01*
Y71017D01*
X139180Y71183D01*
X138513D01*
X138347Y71017D01*
Y70517D01*
X139346Y71517D02*
X138680D01*
X138347Y71850D01*
X138680Y72183D01*
X139346D01*
X138847D01*
Y71517D01*
X139346Y73183D02*
Y72516D01*
X138680Y73183D01*
X138513D01*
X138347Y73016D01*
Y72683D01*
X138513Y72516D01*
Y73516D02*
X138347Y73683D01*
Y74016D01*
X138513Y74182D01*
X138680D01*
X138847Y74016D01*
X139013Y74182D01*
X139180D01*
X139346Y74016D01*
Y73683D01*
X139180Y73516D01*
X139013D01*
X138847Y73683D01*
X138680Y73516D01*
X138513D01*
X138847Y73683D02*
Y74016D01*
X105216Y70390D02*
X106216D01*
Y70890D01*
X106049Y71057D01*
X105383D01*
X105216Y70890D01*
Y70390D01*
X106216Y71390D02*
X105549D01*
X105216Y71723D01*
X105549Y72057D01*
X106216D01*
X105716D01*
Y71390D01*
X106216Y73056D02*
Y72390D01*
X105549Y73056D01*
X105383D01*
X105216Y72890D01*
Y72556D01*
X105383Y72390D01*
X105216Y73390D02*
Y74056D01*
X105383D01*
X106049Y73390D01*
X106216D01*
X72768Y70599D02*
X73767D01*
Y71099D01*
X73601Y71265D01*
X72934D01*
X72768Y71099D01*
Y70599D01*
X73767Y71599D02*
X73101D01*
X72768Y71932D01*
X73101Y72265D01*
X73767D01*
X73268D01*
Y71599D01*
X73767Y73265D02*
Y72598D01*
X73101Y73265D01*
X72934D01*
X72768Y73098D01*
Y72765D01*
X72934Y72598D01*
X72768Y74264D02*
X72934Y73931D01*
X73268Y73598D01*
X73601D01*
X73767Y73765D01*
Y74098D01*
X73601Y74264D01*
X73434D01*
X73268Y74098D01*
Y73598D01*
X127154Y70491D02*
X128154D01*
Y70991D01*
X127987Y71158D01*
X127320D01*
X127154Y70991D01*
Y70491D01*
X128154Y71491D02*
X127487D01*
X127154Y71824D01*
X127487Y72158D01*
X128154D01*
X127654D01*
Y71491D01*
X128154Y73157D02*
Y72491D01*
X127487Y73157D01*
X127320D01*
X127154Y72991D01*
Y72657D01*
X127320Y72491D01*
X128154Y74157D02*
Y73490D01*
X127487Y74157D01*
X127320D01*
X127154Y73990D01*
Y73657D01*
X127320Y73490D01*
X94128Y70338D02*
X95127D01*
Y70838D01*
X94961Y71005D01*
X94294D01*
X94128Y70838D01*
Y70338D01*
X95127Y71338D02*
X94461D01*
X94128Y71671D01*
X94461Y72004D01*
X95127D01*
X94627D01*
Y71338D01*
X95127Y73004D02*
Y72338D01*
X94461Y73004D01*
X94294D01*
X94128Y72837D01*
Y72504D01*
X94294Y72338D01*
X95127Y73337D02*
Y73670D01*
Y73504D01*
X94128D01*
X94294Y73337D01*
X62659Y70458D02*
X63659D01*
Y70958D01*
X63492Y71125D01*
X62826D01*
X62659Y70958D01*
Y70458D01*
X63659Y71458D02*
X62992D01*
X62659Y71791D01*
X62992Y72124D01*
X63659D01*
X63159D01*
Y71458D01*
X63659Y73124D02*
Y72457D01*
X62992Y73124D01*
X62826D01*
X62659Y72957D01*
Y72624D01*
X62826Y72457D01*
Y73457D02*
X62659Y73624D01*
Y73957D01*
X62826Y74124D01*
X63492D01*
X63659Y73957D01*
Y73624D01*
X63492Y73457D01*
X62826D01*
X173778Y12393D02*
X174778D01*
Y12893D01*
X174611Y13059D01*
X173945D01*
X173778Y12893D01*
Y12393D01*
X174778Y13392D02*
X174111D01*
X173778Y13726D01*
X174111Y14059D01*
X174778D01*
X174278D01*
Y13392D01*
X174778Y14392D02*
Y14725D01*
Y14559D01*
X173778D01*
X173945Y14392D01*
X173778Y15892D02*
X173945Y15558D01*
X174278Y15225D01*
X174611D01*
X174778Y15392D01*
Y15725D01*
X174611Y15892D01*
X174444D01*
X174278Y15725D01*
Y15225D01*
X144747Y12831D02*
X145747D01*
Y13331D01*
X145580Y13497D01*
X144914D01*
X144747Y13331D01*
Y12831D01*
X145747Y13830D02*
X145080D01*
X144747Y14164D01*
X145080Y14497D01*
X145747D01*
X145247D01*
Y13830D01*
X145747Y14830D02*
Y15163D01*
Y14997D01*
X144747D01*
X144914Y14830D01*
X144747Y16330D02*
Y15663D01*
X145247D01*
X145080Y15996D01*
Y16163D01*
X145247Y16330D01*
X145580D01*
X145747Y16163D01*
Y15830D01*
X145580Y15663D01*
X193198Y12468D02*
X194197D01*
Y12968D01*
X194031Y13135D01*
X193364D01*
X193198Y12968D01*
Y12468D01*
X194197Y13468D02*
X193531D01*
X193198Y13801D01*
X193531Y14135D01*
X194197D01*
X193698D01*
Y13468D01*
X194197Y14468D02*
Y14801D01*
Y14634D01*
X193198D01*
X193364Y14468D01*
X194197Y15967D02*
Y15301D01*
X193531Y15967D01*
X193364D01*
X193198Y15801D01*
Y15467D01*
X193364Y15301D01*
X164146Y12421D02*
X165146D01*
Y12920D01*
X164979Y13087D01*
X164313D01*
X164146Y12920D01*
Y12421D01*
X165146Y13420D02*
X164479D01*
X164146Y13753D01*
X164479Y14087D01*
X165146D01*
X164646D01*
Y13420D01*
X165146Y14420D02*
Y14753D01*
Y14587D01*
X164146D01*
X164313Y14420D01*
Y15253D02*
X164146Y15420D01*
Y15753D01*
X164313Y15919D01*
X164979D01*
X165146Y15753D01*
Y15420D01*
X164979Y15253D01*
X164313D01*
X135208Y12764D02*
X136208D01*
Y13264D01*
X136041Y13431D01*
X135375D01*
X135208Y13264D01*
Y12764D01*
X136208Y13764D02*
X135541D01*
X135208Y14097D01*
X135541Y14430D01*
X136208D01*
X135708D01*
Y13764D01*
X136041Y14764D02*
X136208Y14930D01*
Y15263D01*
X136041Y15430D01*
X135375D01*
X135208Y15263D01*
Y14930D01*
X135375Y14764D01*
X135541D01*
X135708Y14930D01*
Y15430D01*
X183632Y12505D02*
X184632D01*
Y13005D01*
X184465Y13172D01*
X183799D01*
X183632Y13005D01*
Y12505D01*
X184632Y13505D02*
X183966D01*
X183632Y13838D01*
X183966Y14171D01*
X184632D01*
X184132D01*
Y13505D01*
X183632Y15171D02*
X183799Y14838D01*
X184132Y14505D01*
X184465D01*
X184632Y14671D01*
Y15005D01*
X184465Y15171D01*
X184299D01*
X184132Y15005D01*
Y14505D01*
X154769Y12768D02*
X155768D01*
Y13268D01*
X155602Y13434D01*
X154935D01*
X154769Y13268D01*
Y12768D01*
X155768Y13767D02*
X155102D01*
X154769Y14101D01*
X155102Y14434D01*
X155768D01*
X155268D01*
Y13767D01*
X155768Y15267D02*
X154769D01*
X155268Y14767D01*
Y15434D01*
X125615Y12887D02*
X126615D01*
Y13386D01*
X126448Y13553D01*
X125782D01*
X125615Y13386D01*
Y12887D01*
X126615Y13886D02*
X125948D01*
X125615Y14219D01*
X125948Y14553D01*
X126615D01*
X126115D01*
Y13886D01*
X125782Y14886D02*
X125615Y15052D01*
Y15386D01*
X125782Y15552D01*
X125948D01*
X126115Y15386D01*
Y15219D01*
Y15386D01*
X126281Y15552D01*
X126448D01*
X126615Y15386D01*
Y15052D01*
X126448Y14886D01*
X24822Y54022D02*
Y53022D01*
X25322D01*
X25488Y53189D01*
Y53855D01*
X25322Y54022D01*
X24822D01*
X26322Y53022D02*
Y54022D01*
X25822Y53522D01*
X26488D01*
X3073Y56095D02*
Y55095D01*
X3573D01*
X3739Y55262D01*
Y55929D01*
X3573Y56095D01*
X3073D01*
X4072Y55929D02*
X4239Y56095D01*
X4572D01*
X4739Y55929D01*
Y55762D01*
X4572Y55595D01*
X4406D01*
X4572D01*
X4739Y55429D01*
Y55262D01*
X4572Y55095D01*
X4239D01*
X4072Y55262D01*
X63576Y56617D02*
Y55617D01*
X64076D01*
X64242Y55784D01*
Y56450D01*
X64076Y56617D01*
X63576D01*
X64576Y55617D02*
X64909D01*
X64742D01*
Y56617D01*
X64576Y56450D01*
X6613Y71367D02*
X6446Y71533D01*
X6113D01*
X5946Y71367D01*
Y70700D01*
X6113Y70533D01*
X6446D01*
X6613Y70700D01*
X6946Y71533D02*
X7612D01*
Y71367D01*
X6946Y70700D01*
Y70533D01*
X7946D02*
X8279D01*
X8112D01*
Y71533D01*
X7946Y71367D01*
X40167Y40439D02*
X40000Y40273D01*
Y39939D01*
X40167Y39773D01*
X40833D01*
X41000Y39939D01*
Y40273D01*
X40833Y40439D01*
X40000Y40772D02*
Y41439D01*
X40167D01*
X40833Y40772D01*
X41000D01*
X40167Y41772D02*
X40000Y41939D01*
Y42272D01*
X40167Y42439D01*
X40833D01*
X41000Y42272D01*
Y41939D01*
X40833Y41772D01*
X40167D01*
X40076Y53490D02*
X39909Y53657D01*
X39576D01*
X39409Y53490D01*
Y52824D01*
X39576Y52657D01*
X39909D01*
X40076Y52824D01*
X41075Y53657D02*
X40742Y53490D01*
X40409Y53157D01*
Y52824D01*
X40575Y52657D01*
X40909D01*
X41075Y52824D01*
Y52990D01*
X40909Y53157D01*
X40409D01*
X41409Y52824D02*
X41575Y52657D01*
X41908D01*
X42075Y52824D01*
Y53490D01*
X41908Y53657D01*
X41575D01*
X41409Y53490D01*
Y53324D01*
X41575Y53157D01*
X42075D01*
X22839Y50285D02*
X22672Y50452D01*
X22339D01*
X22172Y50285D01*
Y49619D01*
X22339Y49452D01*
X22672D01*
X22839Y49619D01*
X23838Y50452D02*
X23505Y50285D01*
X23172Y49952D01*
Y49619D01*
X23339Y49452D01*
X23672D01*
X23838Y49619D01*
Y49785D01*
X23672Y49952D01*
X23172D01*
X24172Y50285D02*
X24338Y50452D01*
X24671D01*
X24838Y50285D01*
Y50119D01*
X24671Y49952D01*
X24838Y49785D01*
Y49619D01*
X24671Y49452D01*
X24338D01*
X24172Y49619D01*
Y49785D01*
X24338Y49952D01*
X24172Y50119D01*
Y50285D01*
X24338Y49952D02*
X24671D01*
X2615Y51464D02*
X2449Y51631D01*
X2116D01*
X1949Y51464D01*
Y50797D01*
X2116Y50631D01*
X2449D01*
X2615Y50797D01*
X3615Y51631D02*
X3282Y51464D01*
X2949Y51131D01*
Y50797D01*
X3115Y50631D01*
X3449D01*
X3615Y50797D01*
Y50964D01*
X3449Y51131D01*
X2949D01*
X3948Y51631D02*
X4615D01*
Y51464D01*
X3948Y50797D01*
Y50631D01*
X18073Y51550D02*
X17906Y51717D01*
X17573D01*
X17406Y51550D01*
Y50884D01*
X17573Y50717D01*
X17906D01*
X18073Y50884D01*
X19072Y51717D02*
X18739Y51550D01*
X18406Y51217D01*
Y50884D01*
X18573Y50717D01*
X18906D01*
X19072Y50884D01*
Y51050D01*
X18906Y51217D01*
X18406D01*
X20072Y51717D02*
X19739Y51550D01*
X19406Y51217D01*
Y50884D01*
X19572Y50717D01*
X19905D01*
X20072Y50884D01*
Y51050D01*
X19905Y51217D01*
X19406D01*
X13732Y73215D02*
X13566Y73381D01*
X13232D01*
X13066Y73215D01*
Y72548D01*
X13232Y72382D01*
X13566D01*
X13732Y72548D01*
X14732Y73381D02*
X14399Y73215D01*
X14065Y72882D01*
Y72548D01*
X14232Y72382D01*
X14565D01*
X14732Y72548D01*
Y72715D01*
X14565Y72882D01*
X14065D01*
X15732Y73381D02*
X15065D01*
Y72882D01*
X15398Y73048D01*
X15565D01*
X15732Y72882D01*
Y72548D01*
X15565Y72382D01*
X15232D01*
X15065Y72548D01*
X143690Y49180D02*
X143856Y49346D01*
Y49680D01*
X143690Y49846D01*
X143023D01*
X142856Y49680D01*
Y49346D01*
X143023Y49180D01*
X143856Y48180D02*
X143690Y48513D01*
X143356Y48847D01*
X143023D01*
X142856Y48680D01*
Y48347D01*
X143023Y48180D01*
X143190D01*
X143356Y48347D01*
Y48847D01*
X142856Y47347D02*
X143856D01*
X143356Y47847D01*
Y47180D01*
X145105Y56847D02*
X145272Y57013D01*
Y57347D01*
X145105Y57513D01*
X144439D01*
X144272Y57347D01*
Y57013D01*
X144439Y56847D01*
X145272Y55847D02*
X145105Y56180D01*
X144772Y56513D01*
X144439D01*
X144272Y56347D01*
Y56014D01*
X144439Y55847D01*
X144606D01*
X144772Y56014D01*
Y56513D01*
X145105Y55514D02*
X145272Y55347D01*
Y55014D01*
X145105Y54847D01*
X144939D01*
X144772Y55014D01*
Y55181D01*
Y55014D01*
X144606Y54847D01*
X144439D01*
X144272Y55014D01*
Y55347D01*
X144439Y55514D01*
X151691Y57074D02*
X151525Y57240D01*
X151192D01*
X151025Y57074D01*
Y56407D01*
X151192Y56241D01*
X151525D01*
X151691Y56407D01*
X152691Y57240D02*
X152358Y57074D01*
X152025Y56740D01*
Y56407D01*
X152191Y56241D01*
X152524D01*
X152691Y56407D01*
Y56574D01*
X152524Y56740D01*
X152025D01*
X153024Y56241D02*
X153357D01*
X153191D01*
Y57240D01*
X153024Y57074D01*
X157577Y55597D02*
X157410Y55430D01*
Y55097D01*
X157577Y54930D01*
X158243D01*
X158410Y55097D01*
Y55430D01*
X158243Y55597D01*
X157410Y56597D02*
X157577Y56263D01*
X157910Y55930D01*
X158243D01*
X158410Y56097D01*
Y56430D01*
X158243Y56597D01*
X158076D01*
X157910Y56430D01*
Y55930D01*
X157577Y56930D02*
X157410Y57096D01*
Y57430D01*
X157577Y57596D01*
X158243D01*
X158410Y57430D01*
Y57096D01*
X158243Y56930D01*
X157577D01*
X144101Y41434D02*
X143934Y41600D01*
X143601D01*
X143434Y41434D01*
Y40767D01*
X143601Y40600D01*
X143934D01*
X144101Y40767D01*
X145100Y41600D02*
X144434D01*
Y41100D01*
X144767Y41267D01*
X144934D01*
X145100Y41100D01*
Y40767D01*
X144934Y40600D01*
X144600D01*
X144434Y40767D01*
X145433D02*
X145600Y40600D01*
X145933D01*
X146100Y40767D01*
Y41434D01*
X145933Y41600D01*
X145600D01*
X145433Y41434D01*
Y41267D01*
X145600Y41100D01*
X146100D01*
X113850Y51869D02*
X113684Y52036D01*
X113351D01*
X113184Y51869D01*
Y51203D01*
X113351Y51036D01*
X113684D01*
X113850Y51203D01*
X114850Y52036D02*
X114184D01*
Y51536D01*
X114517Y51703D01*
X114684D01*
X114850Y51536D01*
Y51203D01*
X114684Y51036D01*
X114350D01*
X114184Y51203D01*
X115183Y51869D02*
X115350Y52036D01*
X115683D01*
X115850Y51869D01*
Y51703D01*
X115683Y51536D01*
X115850Y51370D01*
Y51203D01*
X115683Y51036D01*
X115350D01*
X115183Y51203D01*
Y51370D01*
X115350Y51536D01*
X115183Y51703D01*
Y51869D01*
X115350Y51536D02*
X115683D01*
X150578Y32874D02*
X150412Y32707D01*
Y32374D01*
X150578Y32208D01*
X151245D01*
X151411Y32374D01*
Y32707D01*
X151245Y32874D01*
X150412Y33874D02*
Y33207D01*
X150911D01*
X150745Y33541D01*
Y33707D01*
X150911Y33874D01*
X151245D01*
X151411Y33707D01*
Y33374D01*
X151245Y33207D01*
X150412Y34207D02*
Y34873D01*
X150578D01*
X151245Y34207D01*
X151411D01*
X147592Y33134D02*
X147425Y32967D01*
Y32634D01*
X147592Y32467D01*
X148258D01*
X148425Y32634D01*
Y32967D01*
X148258Y33134D01*
X147425Y34133D02*
Y33467D01*
X147925D01*
X147759Y33800D01*
Y33967D01*
X147925Y34133D01*
X148258D01*
X148425Y33967D01*
Y33634D01*
X148258Y33467D01*
X147425Y35133D02*
X147592Y34800D01*
X147925Y34467D01*
X148258D01*
X148425Y34633D01*
Y34966D01*
X148258Y35133D01*
X148092D01*
X147925Y34966D01*
Y34467D01*
X101595Y47608D02*
X101429Y47441D01*
Y47108D01*
X101595Y46941D01*
X102262D01*
X102428Y47108D01*
Y47441D01*
X102262Y47608D01*
X101429Y48607D02*
Y47941D01*
X101928D01*
X101762Y48274D01*
Y48441D01*
X101928Y48607D01*
X102262D01*
X102428Y48441D01*
Y48107D01*
X102262Y47941D01*
X101429Y49607D02*
Y48941D01*
X101928D01*
X101762Y49274D01*
Y49440D01*
X101928Y49607D01*
X102262D01*
X102428Y49440D01*
Y49107D01*
X102262Y48941D01*
X109683Y50502D02*
X109517Y50668D01*
X109183D01*
X109017Y50502D01*
Y49835D01*
X109183Y49669D01*
X109517D01*
X109683Y49835D01*
X110683Y50668D02*
X110016D01*
Y50168D01*
X110350Y50335D01*
X110516D01*
X110683Y50168D01*
Y49835D01*
X110516Y49669D01*
X110183D01*
X110016Y49835D01*
X111016Y50502D02*
X111183Y50668D01*
X111516D01*
X111683Y50502D01*
Y49835D01*
X111516Y49669D01*
X111183D01*
X111016Y49835D01*
Y50502D01*
X196383Y38559D02*
X196216Y38726D01*
X195883D01*
X195716Y38559D01*
Y37893D01*
X195883Y37726D01*
X196216D01*
X196383Y37893D01*
X197216Y37726D02*
Y38726D01*
X196716Y38226D01*
X197382D01*
X197716Y38559D02*
X197882Y38726D01*
X198216D01*
X198382Y38559D01*
Y38393D01*
X198216Y38226D01*
X198382Y38059D01*
Y37893D01*
X198216Y37726D01*
X197882D01*
X197716Y37893D01*
Y38059D01*
X197882Y38226D01*
X197716Y38393D01*
Y38559D01*
X197882Y38226D02*
X198216D01*
X158948Y40225D02*
X158782Y40392D01*
X158449D01*
X158282Y40225D01*
Y39558D01*
X158449Y39392D01*
X158782D01*
X158948Y39558D01*
X159781Y39392D02*
Y40392D01*
X159282Y39892D01*
X159948D01*
X160281Y40392D02*
X160948D01*
Y40225D01*
X160281Y39558D01*
Y39392D01*
X49209Y37510D02*
X49043Y37677D01*
X48709D01*
X48543Y37510D01*
Y36844D01*
X48709Y36677D01*
X49043D01*
X49209Y36844D01*
X50042Y36677D02*
Y37677D01*
X49543Y37177D01*
X50209D01*
X51209Y37677D02*
X50875Y37510D01*
X50542Y37177D01*
Y36844D01*
X50709Y36677D01*
X51042D01*
X51209Y36844D01*
Y37010D01*
X51042Y37177D01*
X50542D01*
X79284Y42207D02*
X79117Y42374D01*
X78784D01*
X78618Y42207D01*
Y41541D01*
X78784Y41374D01*
X79117D01*
X79284Y41541D01*
X80117Y41374D02*
Y42374D01*
X79617Y41874D01*
X80284D01*
X81283Y42374D02*
X80617D01*
Y41874D01*
X80950Y42041D01*
X81117D01*
X81283Y41874D01*
Y41541D01*
X81117Y41374D01*
X80784D01*
X80617Y41541D01*
X96551Y26305D02*
X96384Y26472D01*
X96051D01*
X95884Y26305D01*
Y25639D01*
X96051Y25472D01*
X96384D01*
X96551Y25639D01*
X97384Y25472D02*
Y26472D01*
X96884Y25972D01*
X97550D01*
X98383Y25472D02*
Y26472D01*
X97884Y25972D01*
X98550D01*
X66487Y31025D02*
X66321Y31192D01*
X65987D01*
X65821Y31025D01*
Y30359D01*
X65987Y30192D01*
X66321D01*
X66487Y30359D01*
X67320Y30192D02*
Y31192D01*
X66821Y30692D01*
X67487D01*
X67820Y31025D02*
X67987Y31192D01*
X68320D01*
X68487Y31025D01*
Y30859D01*
X68320Y30692D01*
X68153D01*
X68320D01*
X68487Y30526D01*
Y30359D01*
X68320Y30192D01*
X67987D01*
X67820Y30359D01*
X50565Y68440D02*
X50398Y68273D01*
Y67940D01*
X50565Y67773D01*
X51231D01*
X51398Y67940D01*
Y68273D01*
X51231Y68440D01*
X51398Y69273D02*
X50398D01*
X50898Y68773D01*
Y69439D01*
X50565Y69772D02*
X50398Y69939D01*
Y70272D01*
X50565Y70439D01*
X51231D01*
X51398Y70272D01*
Y69939D01*
X51231Y69772D01*
X50565D01*
X68708Y58455D02*
X68541Y58622D01*
X68208D01*
X68041Y58455D01*
Y57789D01*
X68208Y57622D01*
X68541D01*
X68708Y57789D01*
X69041Y58455D02*
X69207Y58622D01*
X69541D01*
X69707Y58455D01*
Y58289D01*
X69541Y58122D01*
X69374D01*
X69541D01*
X69707Y57955D01*
Y57789D01*
X69541Y57622D01*
X69207D01*
X69041Y57789D01*
X70040Y58455D02*
X70207Y58622D01*
X70540D01*
X70707Y58455D01*
Y58289D01*
X70540Y58122D01*
X70707Y57955D01*
Y57789D01*
X70540Y57622D01*
X70207D01*
X70040Y57789D01*
Y57955D01*
X70207Y58122D01*
X70040Y58289D01*
Y58455D01*
X70207Y58122D02*
X70540D01*
X65235Y41894D02*
X65068Y42061D01*
X64735D01*
X64569Y41894D01*
Y41228D01*
X64735Y41061D01*
X65068D01*
X65235Y41228D01*
X65568Y41894D02*
X65735Y42061D01*
X66068D01*
X66235Y41894D01*
Y41728D01*
X66068Y41561D01*
X65901D01*
X66068D01*
X66235Y41394D01*
Y41228D01*
X66068Y41061D01*
X65735D01*
X65568Y41228D01*
X66568Y42061D02*
X67234D01*
Y41894D01*
X66568Y41228D01*
Y41061D01*
D13*
X47238Y47744D02*
G03*
X47238Y47744I-4000J0D01*
G01*
X29877Y46471D02*
G03*
X29877Y46471I-126J0D01*
G01*
X22256Y44725D02*
G03*
X22256Y44725I-4000J0D01*
G01*
X12308D02*
G03*
X12308Y44725I-5000J0D01*
G01*
X110799Y38935D02*
G03*
X110899Y38935I50J0D01*
G01*
D02*
G03*
X110799Y38935I-50J0D01*
G01*
D02*
G03*
X110899Y38935I50J0D01*
G01*
X184787Y38855D02*
X186312D01*
X186662Y28785D02*
Y38685D01*
Y28785D02*
X189862D01*
Y38685D01*
X186662D02*
X189862D01*
X108043Y26615D02*
X109568D01*
X107693Y26785D02*
Y36685D01*
X104493D02*
X107693D01*
X104493Y26785D02*
Y36685D01*
Y26785D02*
X107693D01*
X135375Y37732D02*
Y51032D01*
X122075Y37732D02*
X135375D01*
X122075D02*
Y51032D01*
X135375D01*
X100088Y30227D02*
X100488D01*
X100088Y29427D02*
X100488D01*
X124008Y28786D02*
Y31326D01*
X118928Y28786D02*
X124008D01*
X118928D02*
Y31326D01*
X124008D01*
X182110Y37436D02*
X182510D01*
X182110Y38236D02*
X182510D01*
X167556Y41988D02*
X167956D01*
X167556Y41188D02*
X167956D01*
X84430Y39502D02*
Y39902D01*
X85230Y39502D02*
Y39902D01*
X44283Y53576D02*
X44683D01*
X44283Y52776D02*
X44683D01*
X189412Y40197D02*
X189812D01*
X189412Y39397D02*
X189812D01*
X125526Y56577D02*
Y56977D01*
X124726Y56577D02*
Y56977D01*
X141179Y33614D02*
X141579D01*
X141179Y32814D02*
X141579D01*
X188058Y27947D02*
X188458D01*
X188058Y27147D02*
X188458D01*
X69630Y28220D02*
X70430D01*
X193733Y31179D02*
X194133D01*
X193733Y30379D02*
X194133D01*
X193690Y32901D02*
X194090D01*
X193690Y32101D02*
X194090D01*
X193668Y34570D02*
X194068D01*
X193668Y33770D02*
X194068D01*
X182709Y32378D02*
X183109D01*
X182709Y33178D02*
X183109D01*
X182729Y35641D02*
X183129D01*
X182729Y36441D02*
X183129D01*
X182695Y34006D02*
X183095D01*
X182695Y34806D02*
X183095D01*
X193636Y36271D02*
X194036D01*
X193636Y35471D02*
X194036D01*
X193809Y29478D02*
X194209D01*
X193809Y28678D02*
X194209D01*
X182690Y30765D02*
X183090D01*
X182690Y31565D02*
X183090D01*
X100086Y32758D02*
X100486D01*
X100086Y33558D02*
X100486D01*
X100066Y36110D02*
X100466D01*
X100066Y36910D02*
X100466D01*
X111236Y32952D02*
X111636D01*
X111236Y32152D02*
X111636D01*
X111248Y29764D02*
X111648D01*
X111248Y28964D02*
X111648D01*
X111230Y34560D02*
X111630D01*
X111230Y33760D02*
X111630D01*
X100086Y31103D02*
X100486D01*
X100086Y31903D02*
X100486D01*
X100066Y34434D02*
X100466D01*
X100066Y35234D02*
X100466D01*
X111247Y31361D02*
X111647D01*
X111247Y30561D02*
X111647D01*
X100138Y27725D02*
X100538D01*
X100138Y28525D02*
X100538D01*
X194701Y12545D02*
Y14145D01*
X194781Y14495D02*
X201901D01*
Y21895D01*
X194781D02*
X201901D01*
X194781Y14495D02*
Y21895D01*
X185137Y12545D02*
Y14145D01*
X185217Y14495D02*
X192337D01*
Y21895D01*
X185217D02*
X192337D01*
X185217Y14495D02*
Y21895D01*
X175343Y12545D02*
Y14145D01*
X175423Y14495D02*
X182543D01*
Y21895D01*
X175423D02*
X182543D01*
X175423Y14495D02*
Y21895D01*
X165699Y12545D02*
Y14145D01*
X165779Y14495D02*
X172899D01*
Y21895D01*
X165779D02*
X172899D01*
X165779Y14495D02*
Y21895D01*
X156306Y12545D02*
Y14145D01*
X156386Y14495D02*
X163506D01*
Y21895D01*
X156386D02*
X163506D01*
X156386Y14495D02*
Y21895D01*
X146498Y12713D02*
Y14313D01*
X146578Y14663D02*
X153698D01*
Y22063D01*
X146578D02*
X153698D01*
X146578Y14663D02*
Y22063D01*
X136857Y12713D02*
Y14313D01*
X136937Y14663D02*
X144057D01*
Y22063D01*
X136937D02*
X144057D01*
X136937Y14663D02*
Y22063D01*
X127281Y12928D02*
Y14528D01*
X127361Y14878D02*
X134481D01*
Y22278D01*
X127361D02*
X134481D01*
X127361Y14878D02*
Y22278D01*
X117480Y12928D02*
Y14528D01*
X117560Y14878D02*
X124680D01*
Y22278D01*
X117560D02*
X124680D01*
X117560Y14878D02*
Y22278D01*
X107777Y12928D02*
Y14528D01*
X107857Y14878D02*
X114977D01*
Y22278D01*
X107857D02*
X114977D01*
X107857Y14878D02*
Y22278D01*
X98278Y12928D02*
Y14528D01*
X98358Y14878D02*
X105478D01*
Y22278D01*
X98358D02*
X105478D01*
X98358Y14878D02*
Y22278D01*
X88671Y12928D02*
Y14528D01*
X88751Y14878D02*
X95871D01*
Y22278D01*
X88751D02*
X95871D01*
X88751Y14878D02*
Y22278D01*
X78689Y13144D02*
Y14744D01*
X78769Y15094D02*
X85889D01*
Y22494D01*
X78769D02*
X85889D01*
X78769Y15094D02*
Y22494D01*
X68943Y13144D02*
Y14744D01*
X69023Y15094D02*
X76143D01*
Y22494D01*
X69023D02*
X76143D01*
X69023Y15094D02*
Y22494D01*
X58862Y13144D02*
Y14744D01*
X58942Y15094D02*
X66062D01*
Y22494D01*
X58942D02*
X66062D01*
X58942Y15094D02*
Y22494D01*
X48360Y13350D02*
Y14950D01*
X48440Y15300D02*
X55560D01*
Y22700D01*
X48440D02*
X55560D01*
X48440Y15300D02*
Y22700D01*
X37876Y13350D02*
Y14950D01*
X37956Y15300D02*
X45076D01*
Y22700D01*
X37956D02*
X45076D01*
X37956Y15300D02*
Y22700D01*
X15746Y13350D02*
Y14950D01*
X15826Y15300D02*
X22946D01*
Y22700D01*
X15826D02*
X22946D01*
X15826Y15300D02*
Y22700D01*
X153118Y36319D02*
Y36719D01*
X152318Y36319D02*
Y36719D01*
X155789Y50755D02*
X156589D01*
X148802Y54797D02*
X151002D01*
X148802Y51597D02*
X151002D01*
X159852Y47932D02*
Y48332D01*
X160652Y47932D02*
Y48332D01*
X161992Y47932D02*
Y48332D01*
X162792Y47932D02*
Y48332D01*
X166270Y46641D02*
Y47441D01*
X165770Y46641D02*
X166270D01*
Y48841D02*
Y49641D01*
X165770D02*
X166270D01*
X168405Y52937D02*
X168805D01*
X168405Y53737D02*
X168805D01*
X170683Y47236D02*
Y48736D01*
X168233Y47236D02*
X170683D01*
X168233D02*
Y48736D01*
X126304Y33145D02*
Y33545D01*
X127104Y33145D02*
Y33545D01*
X152318Y41750D02*
Y42150D01*
X153118Y41750D02*
Y42150D01*
X146901Y44232D02*
X147301D01*
X146901Y45032D02*
X147301D01*
X151202Y45089D02*
X151602D01*
X151202Y44289D02*
X151602D01*
X149858Y40259D02*
X151058D01*
X149508Y40309D02*
Y43209D01*
X148908D02*
X149508D01*
X148908Y40309D02*
Y43209D01*
Y40309D02*
X149508D01*
X139928Y38460D02*
X140328D01*
X139928Y39260D02*
X140328D01*
X139936Y36622D02*
X140336D01*
X139936Y37422D02*
X140336D01*
X139461Y34785D02*
X139861D01*
X139461Y35585D02*
X139861D01*
X99338Y38638D02*
X99738D01*
X99338Y37838D02*
X99738D01*
X99333Y40607D02*
X99733D01*
X99333Y39807D02*
X99733D01*
X117996Y34668D02*
X118396D01*
X117996Y35468D02*
X118396D01*
X115888Y36594D02*
X116288D01*
X115888Y37394D02*
X116288D01*
X117800Y48647D02*
Y49047D01*
X117000Y48647D02*
Y49047D01*
X122192Y54218D02*
X122592D01*
X122192Y55018D02*
X122592D01*
X106269Y53060D02*
X106669D01*
X106269Y52260D02*
X106669D01*
X106228Y54890D02*
X106628D01*
X106228Y54090D02*
X106628D01*
X106225Y56709D02*
X106625D01*
X106225Y55909D02*
X106625D01*
X130651Y55309D02*
Y55709D01*
X131451Y55309D02*
Y55709D01*
X132413Y55327D02*
Y55727D01*
X133213Y55327D02*
Y55727D01*
X135071Y55370D02*
Y55770D01*
X134271Y55370D02*
Y55770D01*
X142525Y42135D02*
Y42935D01*
X107832Y42229D02*
Y42629D01*
X108632Y42229D02*
Y42629D01*
X99076Y42867D02*
X99476D01*
X99076Y43667D02*
X99476D01*
X3360Y13350D02*
Y14950D01*
X3440Y15300D02*
X10560D01*
Y22700D01*
X3440D02*
X10560D01*
X3440Y15300D02*
Y22700D01*
X203141Y27219D02*
Y37649D01*
X205941Y27219D02*
Y37649D01*
X203141Y27219D02*
X205941D01*
X203141Y37649D02*
X205941D01*
X205816Y38634D02*
Y53874D01*
X203276Y38634D02*
Y53874D01*
Y38634D02*
X205816D01*
X203276Y53874D02*
X205816D01*
X86874Y53715D02*
Y54115D01*
X87674Y53715D02*
Y54115D01*
X89325Y53708D02*
Y54108D01*
X90125Y53708D02*
Y54108D01*
X95371Y53626D02*
X95771D01*
X95371Y52826D02*
X95771D01*
X196390Y50864D02*
X196790D01*
X196390Y51664D02*
X196790D01*
X195128Y60643D02*
Y61043D01*
X195928Y60643D02*
Y61043D01*
X201879Y60736D02*
Y61136D01*
X201079Y60736D02*
Y61136D01*
X193930Y53016D02*
Y54616D01*
X186730Y52666D02*
X193850D01*
X186730Y45266D02*
Y52666D01*
Y45266D02*
X193850D01*
Y52666D01*
X182487Y53016D02*
Y54616D01*
X175287Y52666D02*
X182407D01*
X175287Y45266D02*
Y52666D01*
Y45266D02*
X182407D01*
Y52666D01*
X193255Y70050D02*
Y71650D01*
X186055Y69700D02*
X193175D01*
X186055Y62300D02*
Y69700D01*
Y62300D02*
X193175D01*
Y69700D01*
X181818Y70050D02*
Y71650D01*
X174618Y69700D02*
X181738D01*
X174618Y62300D02*
Y69700D01*
Y62300D02*
X181738D01*
Y69700D01*
X170581Y70050D02*
Y71650D01*
X163381Y69700D02*
X170501D01*
X163381Y62300D02*
Y69700D01*
Y62300D02*
X170501D01*
Y69700D01*
X159517Y70050D02*
Y71650D01*
X152317Y69700D02*
X159437D01*
X152317Y62300D02*
Y69700D01*
Y62300D02*
X159437D01*
Y69700D01*
X27268Y13350D02*
Y14950D01*
X27348Y15300D02*
X34468D01*
Y22700D01*
X27348D02*
X34468D01*
X27348Y15300D02*
Y22700D01*
X148461Y70050D02*
Y71650D01*
X141261Y69700D02*
X148381D01*
X141261Y62300D02*
Y69700D01*
Y62300D02*
X148381D01*
Y69700D01*
X137413Y70050D02*
Y71650D01*
X130213Y69700D02*
X137333D01*
X130213Y62300D02*
Y69700D01*
Y62300D02*
X137333D01*
Y69700D01*
X126301Y70101D02*
Y71701D01*
X119101Y69751D02*
X126221D01*
X119101Y62351D02*
Y69751D01*
Y62351D02*
X126221D01*
Y69751D01*
X115255Y70050D02*
Y71650D01*
X108055Y69700D02*
X115175D01*
X108055Y62300D02*
Y69700D01*
Y62300D02*
X115175D01*
Y69700D01*
X104355Y70050D02*
Y71650D01*
X97155Y69700D02*
X104275D01*
X97155Y62300D02*
Y69700D01*
Y62300D02*
X104275D01*
Y69700D01*
X93180Y62300D02*
Y69700D01*
X86060Y62300D02*
X93180D01*
X86060D02*
Y69700D01*
X93180D01*
X93260Y70050D02*
Y71650D01*
X82560Y62300D02*
Y69700D01*
X75440Y62300D02*
X82560D01*
X75440D02*
Y69700D01*
X82560D01*
X82640Y70050D02*
Y71650D01*
X71879Y62339D02*
Y69739D01*
X64759Y62339D02*
X71879D01*
X64759D02*
Y69739D01*
X71879D01*
X71959Y70089D02*
Y71689D01*
X61498Y62339D02*
Y69739D01*
X54378Y62339D02*
X61498D01*
X54378D02*
Y69739D01*
X61498D01*
X61578Y70089D02*
Y71689D01*
X73061Y42318D02*
X73461D01*
X73061Y41518D02*
X73461D01*
X73250Y56545D02*
X73650D01*
X73250Y55745D02*
X73650D01*
X63058Y42948D02*
X69358D01*
Y54948D01*
X63058D02*
X69358D01*
X63058Y42948D02*
Y54948D01*
X70723Y43573D02*
Y45623D01*
X70430Y45973D02*
X80086D01*
Y52373D01*
X70430D02*
X80086D01*
X70430Y45973D02*
Y52373D01*
X58145Y41187D02*
X58545D01*
X58145Y41987D02*
X58545D01*
X47206Y59499D02*
X47606D01*
X47206Y58699D02*
X47606D01*
X61747Y52723D02*
Y54773D01*
X52384Y52373D02*
X62040D01*
X52384Y45973D02*
Y52373D01*
Y45973D02*
X62040D01*
Y52373D01*
X44834Y62687D02*
X45234D01*
X44834Y61887D02*
X45234D01*
X43402Y69817D02*
X43802D01*
X43402Y70617D02*
X43802D01*
X46726Y63641D02*
X48253D01*
X46376Y63769D02*
Y68673D01*
X43180D02*
X46376D01*
X43180Y63769D02*
Y68673D01*
Y63769D02*
X46376D01*
X36651Y67249D02*
Y67749D01*
X37451D01*
X39651Y67249D02*
Y67749D01*
X38851D02*
X39651D01*
X32809Y65834D02*
X33209D01*
X32809Y66634D02*
X33209D01*
X33874Y67796D02*
X34274D01*
X33874Y68596D02*
X34274D01*
X35468Y71555D02*
X36268D01*
X35468Y69955D02*
X36268D01*
X39116Y34490D02*
X40616D01*
X39116Y32040D02*
Y34490D01*
Y32040D02*
X40616D01*
X43019Y37176D02*
Y37576D01*
X42219Y37176D02*
Y37576D01*
X16980Y38667D02*
X22160D01*
X16980Y35063D02*
X22745D01*
X27848Y35559D02*
X38048D01*
X27848Y45559D02*
X38048D01*
X28046Y52382D02*
X38206D01*
Y60266D01*
X28046Y52382D02*
Y60266D01*
X12859Y66025D02*
X18222D01*
X12859Y68601D02*
X17935D01*
X16397Y66025D02*
Y68513D01*
X5928Y66738D02*
X10528D01*
X5928D02*
Y68938D01*
X10528D01*
Y66738D02*
Y68938D01*
X92815Y53740D02*
Y54140D01*
X92015Y53740D02*
Y54140D01*
X197180Y61256D02*
Y61756D01*
X197980D01*
X200180Y61256D02*
Y61756D01*
X199380D02*
X200180D01*
D14*
X69108Y42448D02*
D03*
X200457Y7798D02*
D03*
X147957D02*
D03*
X95457D02*
D03*
X39443D02*
D03*
X165443Y79201D02*
D03*
X112943D02*
D03*
X60443D02*
D03*
X7943D02*
D03*
D15*
X65640Y28296D02*
X68690D01*
X65640D02*
Y29746D01*
X68690D01*
Y28296D02*
Y29746D01*
X192225Y38929D02*
X195275D01*
Y37479D02*
Y38929D01*
X192225Y37479D02*
X195275D01*
X192225D02*
Y38929D01*
X161439Y39209D02*
X164489D01*
X161439D02*
Y40659D01*
X164489D01*
Y39209D02*
Y40659D01*
X99097Y25257D02*
X102147D01*
X99097D02*
Y26707D01*
X102147D01*
Y25257D02*
Y26707D01*
X78419Y39482D02*
X81469D01*
X78419D02*
Y40932D01*
X81469D01*
Y39482D02*
Y40932D01*
X48447Y38280D02*
X51497D01*
X48447D02*
Y39730D01*
X51497D01*
Y38280D02*
Y39730D01*
X157366Y50813D02*
Y53863D01*
X158816D01*
Y50813D02*
Y53863D01*
X157366Y50813D02*
X158816D01*
X153328Y52529D02*
Y55579D01*
X154778D01*
Y52529D02*
Y55579D01*
X153328Y52529D02*
X154778D01*
X142361Y48107D02*
Y51157D01*
X140911Y48107D02*
X142361D01*
X140911D02*
Y51157D01*
X142361D01*
X145448Y50830D02*
Y53880D01*
X143998Y50830D02*
X145448D01*
X143998D02*
Y53880D01*
X145448D01*
X151258Y35972D02*
Y39022D01*
X149808Y35972D02*
X151258D01*
X149808D02*
Y39022D01*
X151258D01*
X148721Y35972D02*
Y39022D01*
X147271Y35972D02*
X148721D01*
X147271D02*
Y39022D01*
X148721D01*
X104625Y45931D02*
Y48981D01*
X103175Y45931D02*
X104625D01*
X103175D02*
Y48981D01*
X104625D01*
X139419Y40034D02*
X142469D01*
X139419D02*
Y41484D01*
X142469D01*
Y40034D02*
Y41484D01*
X113248Y48958D02*
X116298D01*
X113248D02*
Y50408D01*
X116298D01*
Y48958D02*
Y50408D01*
X111710Y48462D02*
X114760D01*
Y47012D02*
Y48462D01*
X111710Y47012D02*
X114760D01*
X111710D02*
Y48462D01*
X67802Y55471D02*
Y56921D01*
Y55471D02*
X70852D01*
Y56921D01*
X67802D02*
X70852D01*
X60732Y40862D02*
Y42312D01*
Y40862D02*
X63782D01*
Y42312D01*
X60732D02*
X63782D01*
X50275Y67025D02*
X51725D01*
X50275Y63975D02*
Y67025D01*
Y63975D02*
X51725D01*
Y67025D01*
X39857Y38930D02*
X41307D01*
X39857Y35880D02*
Y38930D01*
Y35880D02*
X41307D01*
Y38930D01*
X16611Y50365D02*
Y51815D01*
X13561D02*
X16611D01*
X13561Y50365D02*
Y51815D01*
Y50365D02*
X16611D01*
X15872Y70322D02*
Y71772D01*
X12822D02*
X15872D01*
X12822Y70322D02*
Y71772D01*
Y70322D02*
X15872D01*
X8951Y70322D02*
Y71772D01*
Y70322D02*
X12001D01*
Y71772D01*
X8951D02*
X12001D01*
X112499Y45135D02*
X114499D01*
X112499D02*
X114499D01*
X109999Y42135D02*
Y43135D01*
Y42135D02*
Y43135D01*
X112499Y40135D02*
X114499D01*
X112499D02*
X114499D01*
X116999Y42135D02*
Y43135D01*
Y42135D02*
Y43135D01*
D16*
X199602Y56918D02*
Y57858D01*
X198612Y54810D02*
X199602D01*
Y55750D01*
X199196Y57858D02*
X199602D01*
X198612D02*
X199196D01*
X198180Y56004D02*
Y56664D01*
D17*
X16482Y55201D02*
Y61201D01*
Y55201D02*
X24482D01*
Y61201D01*
X16482D02*
X24482D01*
X6145Y55201D02*
Y61201D01*
Y55201D02*
X14145D01*
Y61201D01*
X6145D02*
X14145D01*
D18*
X164844Y2231D02*
Y9616D01*
Y2231D02*
X201046D01*
Y9616D01*
X164844D02*
X201046D01*
X112344Y2231D02*
Y9616D01*
Y2231D02*
X148546D01*
Y9616D01*
X112344D02*
X148546D01*
X59844Y2231D02*
Y9616D01*
Y2231D02*
X96046D01*
Y9616D01*
X59844D02*
X96046D01*
X3831Y2231D02*
Y9616D01*
Y2231D02*
X40033D01*
Y9616D01*
X3831D02*
X40033D01*
X201056Y77383D02*
Y84768D01*
X164853D02*
X201056D01*
X164853Y77383D02*
Y84768D01*
Y77383D02*
X201056D01*
X148556D02*
Y84768D01*
X112353D02*
X148556D01*
X112353Y77383D02*
Y84768D01*
Y77383D02*
X148556D01*
X96056D02*
Y84768D01*
X59853D02*
X96056D01*
X59853Y77383D02*
Y84768D01*
Y77383D02*
X96056D01*
X43556D02*
Y84768D01*
X7353D02*
X43556D01*
X7353Y77383D02*
Y84768D01*
Y77383D02*
X43556D01*
M02*
