G04*
G04 #@! TF.GenerationSoftware,Altium Limited,Altium Designer,21.6.4 (81)*
G04*
G04 Layer_Color=32896*
%FSLAX43Y43*%
%MOMM*%
G71*
G04*
G04 #@! TF.SameCoordinates,38FC9672-5BFE-4C4D-A481-017CD4E88717*
G04*
G04*
G04 #@! TF.FilePolarity,Positive*
G04*
G01*
G75*
%ADD11C,0.250*%
%ADD12C,0.254*%
%ADD13C,0.200*%
%ADD15C,0.100*%
%ADD16C,0.152*%
%ADD17C,0.220*%
D11*
X193208Y11753D02*
G03*
X193208Y11753I-125J0D01*
G01*
X183664Y11769D02*
G03*
X183664Y11769I-125J0D01*
G01*
X173633Y11753D02*
G03*
X173633Y11753I-125J0D01*
G01*
X164047Y11753D02*
G03*
X164047Y11753I-125J0D01*
G01*
X155095D02*
G03*
X155095Y11753I-125J0D01*
G01*
X145321Y11753D02*
G03*
X145321Y11753I-125J0D01*
G01*
X135635Y11753D02*
G03*
X135635Y11753I-125J0D01*
G01*
X125442Y11753D02*
G03*
X125442Y11753I-125J0D01*
G01*
X115593Y11753D02*
G03*
X115593Y11753I-125J0D01*
G01*
X106410D02*
G03*
X106410Y11753I-125J0D01*
G01*
X96870Y11753D02*
G03*
X96870Y11753I-125J0D01*
G01*
X87002D02*
G03*
X87002Y11753I-125J0D01*
G01*
X77460Y11753D02*
G03*
X77460Y11753I-125J0D01*
G01*
X67510Y11753D02*
G03*
X67510Y11753I-125J0D01*
G01*
X57091Y11753D02*
G03*
X57091Y11753I-125J0D01*
G01*
X45613D02*
G03*
X45613Y11753I-125J0D01*
G01*
X35242Y11688D02*
G03*
X35242Y11688I-125J0D01*
G01*
X24686Y11753D02*
G03*
X24686Y11753I-125J0D01*
G01*
X11512Y11688D02*
G03*
X11512Y11688I-125J0D01*
G01*
X4251Y11337D02*
G03*
X4251Y11337I-125J0D01*
G01*
X201064Y72978D02*
G03*
X201064Y72978I-125J0D01*
G01*
X192215Y72976D02*
G03*
X192215Y72976I-125J0D01*
G01*
X180904Y73069D02*
G03*
X180904Y73069I-125J0D01*
G01*
X169733Y72926D02*
G03*
X169733Y72926I-125J0D01*
G01*
X158742Y72884D02*
G03*
X158742Y72884I-125J0D01*
G01*
X147541Y72920D02*
G03*
X147541Y72920I-125J0D01*
G01*
X136588Y72920D02*
G03*
X136588Y72920I-125J0D01*
G01*
X125534Y72920D02*
G03*
X125534Y72920I-125J0D01*
G01*
X114645Y73052D02*
G03*
X114645Y73052I-125J0D01*
G01*
X104001Y73055D02*
G03*
X104001Y73055I-125J0D01*
G01*
X93273Y73052D02*
G03*
X93273Y73052I-125J0D01*
G01*
X82633Y72959D02*
G03*
X82633Y72959I-125J0D01*
G01*
X73075Y73085D02*
G03*
X73075Y73085I-125J0D01*
G01*
X62698Y73417D02*
G03*
X62698Y73417I-125J0D01*
G01*
D12*
X9182Y67122D02*
Y68122D01*
X8682Y67622D02*
X9582D01*
X9282Y74322D02*
Y75422D01*
X119122Y8419D02*
Y7752D01*
X118789Y7419D01*
X118456Y7752D01*
Y8419D01*
X118122D02*
X117456D01*
X117789D01*
Y7419D01*
X117123Y8252D02*
X116956Y8419D01*
X116623D01*
X116456Y8252D01*
Y8086D01*
X116623Y7919D01*
X116790D01*
X116623D01*
X116456Y7752D01*
Y7586D01*
X116623Y7419D01*
X116956D01*
X117123Y7586D01*
X115457Y8419D02*
X116123D01*
Y7919D01*
X115790Y8086D01*
X115623D01*
X115457Y7919D01*
Y7586D01*
X115623Y7419D01*
X115956D01*
X116123Y7586D01*
X90443Y8487D02*
Y7821D01*
X90110Y7488D01*
X89777Y7821D01*
Y8487D01*
X89443D02*
X88777D01*
X89110D01*
Y7488D01*
X88444Y8321D02*
X88277Y8487D01*
X87944D01*
X87777Y8321D01*
Y8154D01*
X87944Y7987D01*
X88111D01*
X87944D01*
X87777Y7821D01*
Y7654D01*
X87944Y7488D01*
X88277D01*
X88444Y7654D01*
X86944Y7488D02*
Y8487D01*
X87444Y7987D01*
X86778D01*
X61265Y8440D02*
Y7774D01*
X60931Y7440D01*
X60598Y7774D01*
Y8440D01*
X60265D02*
X59598D01*
X59932D01*
Y7440D01*
X59265Y8273D02*
X59099Y8440D01*
X58765D01*
X58599Y8273D01*
Y8107D01*
X58765Y7940D01*
X58932D01*
X58765D01*
X58599Y7774D01*
Y7607D01*
X58765Y7440D01*
X59099D01*
X59265Y7607D01*
X58265Y8273D02*
X58099Y8440D01*
X57766D01*
X57599Y8273D01*
Y8107D01*
X57766Y7940D01*
X57932D01*
X57766D01*
X57599Y7774D01*
Y7607D01*
X57766Y7440D01*
X58099D01*
X58265Y7607D01*
X109653Y7594D02*
Y6928D01*
X109319Y6595D01*
X108986Y6928D01*
Y7594D01*
X108653D02*
X107986D01*
X108320D01*
Y6595D01*
X107653Y7428D02*
X107487Y7594D01*
X107153D01*
X106987Y7428D01*
Y7261D01*
X107153Y7094D01*
X107320D01*
X107153D01*
X106987Y6928D01*
Y6761D01*
X107153Y6595D01*
X107487D01*
X107653Y6761D01*
X105987Y6595D02*
X106654D01*
X105987Y7261D01*
Y7428D01*
X106154Y7594D01*
X106487D01*
X106654Y7428D01*
X81157Y8568D02*
Y7901D01*
X80824Y7568D01*
X80491Y7901D01*
Y8568D01*
X80158D02*
X79491D01*
X79824D01*
Y7568D01*
X79158Y8401D02*
X78991Y8568D01*
X78658D01*
X78491Y8401D01*
Y8235D01*
X78658Y8068D01*
X78825D01*
X78658D01*
X78491Y7901D01*
Y7735D01*
X78658Y7568D01*
X78991D01*
X79158Y7735D01*
X78158Y7568D02*
X77825D01*
X77992D01*
Y8568D01*
X78158Y8401D01*
X49648Y8285D02*
Y7619D01*
X49315Y7286D01*
X48981Y7619D01*
Y8285D01*
X48648D02*
X47982D01*
X48315D01*
Y7286D01*
X47648Y8119D02*
X47482Y8285D01*
X47149D01*
X46982Y8119D01*
Y7952D01*
X47149Y7786D01*
X47315D01*
X47149D01*
X46982Y7619D01*
Y7452D01*
X47149Y7286D01*
X47482D01*
X47648Y7452D01*
X46649Y8119D02*
X46482Y8285D01*
X46149D01*
X45982Y8119D01*
Y7452D01*
X46149Y7286D01*
X46482D01*
X46649Y7452D01*
Y8119D01*
X96712Y7409D02*
Y8075D01*
X97045Y8409D01*
X97378Y8075D01*
Y7409D01*
X97712D02*
X98378D01*
X98045D01*
Y8409D01*
X99378D02*
X98711D01*
X99378Y7742D01*
Y7576D01*
X99211Y7409D01*
X98878D01*
X98711Y7576D01*
X99711Y8242D02*
X99877Y8409D01*
X100211D01*
X100377Y8242D01*
Y7576D01*
X100211Y7409D01*
X99877D01*
X99711Y7576D01*
Y7742D01*
X99877Y7909D01*
X100377D01*
X71231Y8620D02*
Y7953D01*
X70898Y7620D01*
X70564Y7953D01*
Y8620D01*
X70231D02*
X69565D01*
X69898D01*
Y7620D01*
X68565D02*
X69231D01*
X68565Y8287D01*
Y8453D01*
X68732Y8620D01*
X69065D01*
X69231Y8453D01*
X68232D02*
X68065Y8620D01*
X67732D01*
X67565Y8453D01*
Y8287D01*
X67732Y8120D01*
X67565Y7953D01*
Y7787D01*
X67732Y7620D01*
X68065D01*
X68232Y7787D01*
Y7953D01*
X68065Y8120D01*
X68232Y8287D01*
Y8453D01*
X68065Y8120D02*
X67732D01*
X39291Y8241D02*
Y7575D01*
X38958Y7242D01*
X38624Y7575D01*
Y8241D01*
X38291D02*
X37625D01*
X37958D01*
Y7242D01*
X36625D02*
X37291D01*
X36625Y7908D01*
Y8075D01*
X36792Y8241D01*
X37125D01*
X37291Y8075D01*
X36292Y8241D02*
X35625D01*
Y8075D01*
X36292Y7408D01*
Y7242D01*
X16038Y8447D02*
Y7780D01*
X15705Y7447D01*
X15371Y7780D01*
Y8447D01*
X15038D02*
X14372D01*
X14705D01*
Y7447D01*
X13372D02*
X14039D01*
X13372Y8113D01*
Y8280D01*
X13539Y8447D01*
X13872D01*
X14039Y8280D01*
X12372Y8447D02*
X12706Y8280D01*
X13039Y7947D01*
Y7613D01*
X12872Y7447D01*
X12539D01*
X12372Y7613D01*
Y7780D01*
X12539Y7947D01*
X13039D01*
X201656Y77442D02*
Y76775D01*
X201322Y76442D01*
X200989Y76775D01*
Y77442D01*
X200656D02*
X199989D01*
X200323D01*
Y76442D01*
X198990D02*
X199656D01*
X198990Y77109D01*
Y77275D01*
X199156Y77442D01*
X199490D01*
X199656Y77275D01*
X197990Y77442D02*
X198656D01*
Y76942D01*
X198323Y77109D01*
X198157D01*
X197990Y76942D01*
Y76609D01*
X198157Y76442D01*
X198490D01*
X198656Y76609D01*
X167086Y78036D02*
Y77369D01*
X166753Y77036D01*
X166419Y77369D01*
Y78036D01*
X166086D02*
X165420D01*
X165753D01*
Y77036D01*
X164420D02*
X165086D01*
X164420Y77702D01*
Y77869D01*
X164587Y78036D01*
X164920D01*
X165086Y77869D01*
X163587Y77036D02*
Y78036D01*
X164087Y77536D01*
X163420D01*
X2253Y7202D02*
Y7869D01*
X2586Y8202D01*
X2919Y7869D01*
Y7202D01*
X3252D02*
X3919D01*
X3586D01*
Y8202D01*
X4919D02*
X4252D01*
X4919Y7536D01*
Y7369D01*
X4752Y7202D01*
X4419D01*
X4252Y7369D01*
X5252D02*
X5418Y7202D01*
X5752D01*
X5918Y7369D01*
Y7536D01*
X5752Y7702D01*
X5585D01*
X5752D01*
X5918Y7869D01*
Y8036D01*
X5752Y8202D01*
X5418D01*
X5252Y8036D01*
X189981Y77993D02*
Y77327D01*
X189648Y76994D01*
X189315Y77327D01*
Y77993D01*
X188981D02*
X188315D01*
X188648D01*
Y76994D01*
X187315D02*
X187982D01*
X187315Y77660D01*
Y77827D01*
X187482Y77993D01*
X187815D01*
X187982Y77827D01*
X186315Y76994D02*
X186982D01*
X186315Y77660D01*
Y77827D01*
X186482Y77993D01*
X186815D01*
X186982Y77827D01*
X156882Y77449D02*
Y76783D01*
X156549Y76450D01*
X156216Y76783D01*
Y77449D01*
X155883D02*
X155216D01*
X155550D01*
Y76450D01*
X154217D02*
X154883D01*
X154217Y77116D01*
Y77283D01*
X154383Y77449D01*
X154716D01*
X154883Y77283D01*
X153883Y76450D02*
X153550D01*
X153717D01*
Y77449D01*
X153883Y77283D01*
X178968Y77456D02*
Y76790D01*
X178635Y76457D01*
X178302Y76790D01*
Y77456D01*
X177969D02*
X177302D01*
X177635D01*
Y76457D01*
X176969D02*
X176636D01*
X176802D01*
Y77456D01*
X176969Y77290D01*
X176136Y76623D02*
X175969Y76457D01*
X175636D01*
X175469Y76623D01*
Y77290D01*
X175636Y77456D01*
X175969D01*
X176136Y77290D01*
Y77123D01*
X175969Y76956D01*
X175469D01*
X28383Y8415D02*
Y7748D01*
X28050Y7415D01*
X27717Y7748D01*
Y8415D01*
X27384D02*
X26717D01*
X27051D01*
Y7415D01*
X26384D02*
X26051D01*
X26217D01*
Y8415D01*
X26384Y8248D01*
X25551D02*
X25384Y8415D01*
X25051D01*
X24885Y8248D01*
Y8081D01*
X25051Y7915D01*
X24885Y7748D01*
Y7582D01*
X25051Y7415D01*
X25384D01*
X25551Y7582D01*
Y7748D01*
X25384Y7915D01*
X25551Y8081D01*
Y8248D01*
X25384Y7915D02*
X25051D01*
X145005Y77308D02*
Y76642D01*
X144671Y76309D01*
X144338Y76642D01*
Y77308D01*
X144005D02*
X143338D01*
X143672D01*
Y76309D01*
X143005D02*
X142672D01*
X142839D01*
Y77308D01*
X143005Y77142D01*
X142172Y77308D02*
X141506D01*
Y77142D01*
X142172Y76475D01*
Y76309D01*
X112109Y77405D02*
Y76738D01*
X111776Y76405D01*
X111443Y76738D01*
Y77405D01*
X111109D02*
X110443D01*
X110776D01*
Y76405D01*
X110110D02*
X109777D01*
X109943D01*
Y77405D01*
X110110Y77238D01*
X108610Y77405D02*
X108943Y77238D01*
X109277Y76905D01*
Y76572D01*
X109110Y76405D01*
X108777D01*
X108610Y76572D01*
Y76738D01*
X108777Y76905D01*
X109277D01*
X80824Y77303D02*
Y76637D01*
X80491Y76303D01*
X80157Y76637D01*
Y77303D01*
X79824D02*
X79158D01*
X79491D01*
Y76303D01*
X78825D02*
X78491D01*
X78658D01*
Y77303D01*
X78825Y77136D01*
X77325Y77303D02*
X77991D01*
Y76803D01*
X77658Y76970D01*
X77492D01*
X77325Y76803D01*
Y76470D01*
X77492Y76303D01*
X77825D01*
X77991Y76470D01*
X134011Y77229D02*
Y76563D01*
X133678Y76229D01*
X133345Y76563D01*
Y77229D01*
X133012D02*
X132345D01*
X132679D01*
Y76229D01*
X132012D02*
X131679D01*
X131845D01*
Y77229D01*
X132012Y77062D01*
X130679Y76229D02*
Y77229D01*
X131179Y76729D01*
X130513D01*
X101032Y77405D02*
Y76738D01*
X100699Y76405D01*
X100366Y76738D01*
Y77405D01*
X100033D02*
X99366D01*
X99700D01*
Y76405D01*
X99033D02*
X98700D01*
X98866D01*
Y77405D01*
X99033Y77238D01*
X98200D02*
X98033Y77405D01*
X97700D01*
X97534Y77238D01*
Y77072D01*
X97700Y76905D01*
X97867D01*
X97700D01*
X97534Y76738D01*
Y76572D01*
X97700Y76405D01*
X98033D01*
X98200Y76572D01*
X71453Y77509D02*
Y76843D01*
X71119Y76510D01*
X70786Y76843D01*
Y77509D01*
X70453D02*
X69786D01*
X70120D01*
Y76510D01*
X69453D02*
X69120D01*
X69287D01*
Y77509D01*
X69453Y77343D01*
X67954Y76510D02*
X68620D01*
X67954Y77176D01*
Y77343D01*
X68120Y77509D01*
X68454D01*
X68620Y77343D01*
X123046Y77233D02*
Y76566D01*
X122713Y76233D01*
X122380Y76566D01*
Y77233D01*
X122047D02*
X121380D01*
X121714D01*
Y76233D01*
X121047D02*
X120714D01*
X120880D01*
Y77233D01*
X121047Y77066D01*
X120214Y76233D02*
X119881D01*
X120047D01*
Y77233D01*
X120214Y77066D01*
X90521Y77364D02*
Y76698D01*
X90188Y76365D01*
X89855Y76698D01*
Y77364D01*
X89522D02*
X88855D01*
X89188D01*
Y76365D01*
X88522D02*
X88189D01*
X88355D01*
Y77364D01*
X88522Y77198D01*
X87689D02*
X87522Y77364D01*
X87189D01*
X87022Y77198D01*
Y76531D01*
X87189Y76365D01*
X87522D01*
X87689Y76531D01*
Y77198D01*
X62158Y77851D02*
Y77184D01*
X61825Y76851D01*
X61492Y77184D01*
Y77851D01*
X61158D02*
X60492D01*
X60825D01*
Y76851D01*
X60159Y77018D02*
X59992Y76851D01*
X59659D01*
X59492Y77018D01*
Y77684D01*
X59659Y77851D01*
X59992D01*
X60159Y77684D01*
Y77518D01*
X59992Y77351D01*
X59492D01*
X177013Y8455D02*
Y7789D01*
X176680Y7455D01*
X176347Y7789D01*
Y8455D01*
X176014D02*
X175347D01*
X175680D01*
Y7455D01*
X175014Y8288D02*
X174847Y8455D01*
X174514D01*
X174348Y8288D01*
Y8122D01*
X174514Y7955D01*
X174348Y7789D01*
Y7622D01*
X174514Y7455D01*
X174847D01*
X175014Y7622D01*
Y7789D01*
X174847Y7955D01*
X175014Y8122D01*
Y8288D01*
X174847Y7955D02*
X174514D01*
X148157Y8386D02*
Y7720D01*
X147823Y7386D01*
X147490Y7720D01*
Y8386D01*
X147157D02*
X146490D01*
X146824D01*
Y7386D01*
X146157Y8386D02*
X145491D01*
Y8219D01*
X146157Y7553D01*
Y7386D01*
X196193Y8398D02*
Y7731D01*
X195859Y7398D01*
X195526Y7731D01*
Y8398D01*
X195193D02*
X194526D01*
X194860D01*
Y7398D01*
X193527Y8398D02*
X193860Y8231D01*
X194193Y7898D01*
Y7565D01*
X194027Y7398D01*
X193693D01*
X193527Y7565D01*
Y7731D01*
X193693Y7898D01*
X194193D01*
X167084Y8321D02*
Y7655D01*
X166751Y7321D01*
X166418Y7655D01*
Y8321D01*
X166085D02*
X165418D01*
X165751D01*
Y7321D01*
X164419Y8321D02*
X165085D01*
Y7821D01*
X164752Y7988D01*
X164585D01*
X164419Y7821D01*
Y7488D01*
X164585Y7321D01*
X164918D01*
X165085Y7488D01*
X138612Y8430D02*
Y7763D01*
X138279Y7430D01*
X137945Y7763D01*
Y8430D01*
X137612D02*
X136946D01*
X137279D01*
Y7430D01*
X136113D02*
Y8430D01*
X136613Y7930D01*
X135946D01*
X186722Y8494D02*
Y7828D01*
X186389Y7495D01*
X186056Y7828D01*
Y8494D01*
X185723D02*
X185056D01*
X185389D01*
Y7495D01*
X184723Y8328D02*
X184556Y8494D01*
X184223D01*
X184057Y8328D01*
Y8161D01*
X184223Y7995D01*
X184390D01*
X184223D01*
X184057Y7828D01*
Y7661D01*
X184223Y7495D01*
X184556D01*
X184723Y7661D01*
X158085Y8467D02*
Y7801D01*
X157751Y7467D01*
X157418Y7801D01*
Y8467D01*
X157085D02*
X156419D01*
X156752D01*
Y7467D01*
X155419D02*
X156085D01*
X155419Y8134D01*
Y8300D01*
X155586Y8467D01*
X155919D01*
X156085Y8300D01*
X128186Y8425D02*
Y7759D01*
X127853Y7426D01*
X127519Y7759D01*
Y8425D01*
X127186D02*
X126520D01*
X126853D01*
Y7426D01*
X126186D02*
X125853D01*
X126020D01*
Y8425D01*
X126186Y8259D01*
X3175Y67016D02*
Y67682D01*
X3508Y68015D01*
X3841Y67682D01*
Y67016D01*
X4174D02*
Y68015D01*
X4674D01*
X4841Y67849D01*
Y67182D01*
X4674Y67016D01*
X4174D01*
X5840Y68015D02*
X5174D01*
X5840Y67349D01*
Y67182D01*
X5674Y67016D01*
X5341D01*
X5174Y67182D01*
X132486Y49463D02*
Y50462D01*
X131986D01*
X131819Y50296D01*
Y49963D01*
X131986Y49796D01*
X132486D01*
X132153D02*
X131819Y49463D01*
X131486Y50296D02*
X131320Y50462D01*
X130986D01*
X130820Y50296D01*
Y50129D01*
X130986Y49963D01*
X131153D01*
X130986D01*
X130820Y49796D01*
Y49629D01*
X130986Y49463D01*
X131320D01*
X131486Y49629D01*
X130486Y49463D02*
X130153D01*
X130320D01*
Y50462D01*
X130486Y50296D01*
X129154Y49463D02*
Y50462D01*
X129653Y49963D01*
X128987D01*
X145343Y37844D02*
Y38844D01*
X144844D01*
X144677Y38677D01*
Y38344D01*
X144844Y38177D01*
X145343D01*
X145010D02*
X144677Y37844D01*
X144344Y38677D02*
X144177Y38844D01*
X143844D01*
X143677Y38677D01*
Y38510D01*
X143844Y38344D01*
X144011D01*
X143844D01*
X143677Y38177D01*
Y38011D01*
X143844Y37844D01*
X144177D01*
X144344Y38011D01*
X143344Y37844D02*
X143011D01*
X143177D01*
Y38844D01*
X143344Y38677D01*
X142511Y37844D02*
X142178D01*
X142344D01*
Y38844D01*
X142511Y38677D01*
X101916Y48002D02*
Y49002D01*
X101416D01*
X101250Y48835D01*
Y48502D01*
X101416Y48335D01*
X101916D01*
X101583D02*
X101250Y48002D01*
X100916Y48835D02*
X100750Y49002D01*
X100417D01*
X100250Y48835D01*
Y48669D01*
X100417Y48502D01*
X100583D01*
X100417D01*
X100250Y48335D01*
Y48169D01*
X100417Y48002D01*
X100750D01*
X100916Y48169D01*
X99917Y48835D02*
X99750Y49002D01*
X99417D01*
X99250Y48835D01*
Y48169D01*
X99417Y48002D01*
X99750D01*
X99917Y48169D01*
Y48835D01*
X98251Y49002D02*
X98584Y48835D01*
X98917Y48502D01*
Y48169D01*
X98750Y48002D01*
X98417D01*
X98251Y48169D01*
Y48335D01*
X98417Y48502D01*
X98917D01*
X102122Y46105D02*
Y47105D01*
X101622D01*
X101456Y46938D01*
Y46605D01*
X101622Y46438D01*
X102122D01*
X101789D02*
X101456Y46105D01*
X101122Y46938D02*
X100956Y47105D01*
X100622D01*
X100456Y46938D01*
Y46772D01*
X100622Y46605D01*
X100789D01*
X100622D01*
X100456Y46438D01*
Y46272D01*
X100622Y46105D01*
X100956D01*
X101122Y46272D01*
X100123Y46938D02*
X99956Y47105D01*
X99623D01*
X99456Y46938D01*
Y46272D01*
X99623Y46105D01*
X99956D01*
X100123Y46272D01*
Y46938D01*
X98457Y47105D02*
X99123D01*
Y46605D01*
X98790Y46772D01*
X98623D01*
X98457Y46605D01*
Y46272D01*
X98623Y46105D01*
X98956D01*
X99123Y46272D01*
X81865Y46629D02*
Y47629D01*
X81365D01*
X81199Y47462D01*
Y47129D01*
X81365Y46963D01*
X81865D01*
X81532D02*
X81199Y46629D01*
X80866Y47462D02*
X80699Y47629D01*
X80366D01*
X80199Y47462D01*
Y47296D01*
X80366Y47129D01*
X80532D01*
X80366D01*
X80199Y46963D01*
Y46796D01*
X80366Y46629D01*
X80699D01*
X80866Y46796D01*
X79866Y47462D02*
X79699Y47629D01*
X79366D01*
X79200Y47462D01*
Y46796D01*
X79366Y46629D01*
X79699D01*
X79866Y46796D01*
Y47462D01*
X78866D02*
X78700Y47629D01*
X78366D01*
X78200Y47462D01*
Y47296D01*
X78366Y47129D01*
X78533D01*
X78366D01*
X78200Y46963D01*
Y46796D01*
X78366Y46629D01*
X78700D01*
X78866Y46796D01*
X81962Y48571D02*
Y49571D01*
X81462D01*
X81295Y49404D01*
Y49071D01*
X81462Y48904D01*
X81962D01*
X81628D02*
X81295Y48571D01*
X80295D02*
X80962D01*
X80295Y49237D01*
Y49404D01*
X80462Y49571D01*
X80795D01*
X80962Y49404D01*
X79962Y48738D02*
X79796Y48571D01*
X79462D01*
X79296Y48738D01*
Y49404D01*
X79462Y49571D01*
X79796D01*
X79962Y49404D01*
Y49237D01*
X79796Y49071D01*
X79296D01*
X78296Y49571D02*
X78963D01*
Y49071D01*
X78629Y49237D01*
X78463D01*
X78296Y49071D01*
Y48738D01*
X78463Y48571D01*
X78796D01*
X78963Y48738D01*
X199014Y47025D02*
Y48025D01*
X198514D01*
X198348Y47859D01*
Y47525D01*
X198514Y47359D01*
X199014D01*
X198681D02*
X198348Y47025D01*
X197348D02*
X198014D01*
X197348Y47692D01*
Y47859D01*
X197515Y48025D01*
X197848D01*
X198014Y47859D01*
X197015D02*
X196848Y48025D01*
X196515D01*
X196348Y47859D01*
Y47692D01*
X196515Y47525D01*
X196348Y47359D01*
Y47192D01*
X196515Y47025D01*
X196848D01*
X197015Y47192D01*
Y47359D01*
X196848Y47525D01*
X197015Y47692D01*
Y47859D01*
X196848Y47525D02*
X196515D01*
X195515Y47025D02*
Y48025D01*
X196015Y47525D01*
X195349D01*
X199023Y39092D02*
Y40092D01*
X198523D01*
X198356Y39925D01*
Y39592D01*
X198523Y39425D01*
X199023D01*
X198689D02*
X198356Y39092D01*
X197356D02*
X198023D01*
X197356Y39759D01*
Y39925D01*
X197523Y40092D01*
X197856D01*
X198023Y39925D01*
X197023D02*
X196857Y40092D01*
X196523D01*
X196357Y39925D01*
Y39759D01*
X196523Y39592D01*
X196357Y39425D01*
Y39259D01*
X196523Y39092D01*
X196857D01*
X197023Y39259D01*
Y39425D01*
X196857Y39592D01*
X197023Y39759D01*
Y39925D01*
X196857Y39592D02*
X196523D01*
X196024Y39925D02*
X195857Y40092D01*
X195524D01*
X195357Y39925D01*
Y39759D01*
X195524Y39592D01*
X195690D01*
X195524D01*
X195357Y39425D01*
Y39259D01*
X195524Y39092D01*
X195857D01*
X196024Y39259D01*
X198976Y49525D02*
Y50525D01*
X198476D01*
X198309Y50358D01*
Y50025D01*
X198476Y49858D01*
X198976D01*
X198642D02*
X198309Y49525D01*
X197310D02*
X197976D01*
X197310Y50191D01*
Y50358D01*
X197476Y50525D01*
X197809D01*
X197976Y50358D01*
X196976D02*
X196810Y50525D01*
X196476D01*
X196310Y50358D01*
Y50191D01*
X196476Y50025D01*
X196310Y49858D01*
Y49692D01*
X196476Y49525D01*
X196810D01*
X196976Y49692D01*
Y49858D01*
X196810Y50025D01*
X196976Y50191D01*
Y50358D01*
X196810Y50025D02*
X196476D01*
X195310Y49525D02*
X195977D01*
X195310Y50191D01*
Y50358D01*
X195477Y50525D01*
X195810D01*
X195977Y50358D01*
X199071Y44487D02*
Y45486D01*
X198571D01*
X198405Y45320D01*
Y44987D01*
X198571Y44820D01*
X199071D01*
X198738D02*
X198405Y44487D01*
X197405D02*
X198071D01*
X197405Y45153D01*
Y45320D01*
X197571Y45486D01*
X197905D01*
X198071Y45320D01*
X197072D02*
X196905Y45486D01*
X196572D01*
X196405Y45320D01*
Y45153D01*
X196572Y44987D01*
X196405Y44820D01*
Y44653D01*
X196572Y44487D01*
X196905D01*
X197072Y44653D01*
Y44820D01*
X196905Y44987D01*
X197072Y45153D01*
Y45320D01*
X196905Y44987D02*
X196572D01*
X196072Y44487D02*
X195739D01*
X195905D01*
Y45486D01*
X196072Y45320D01*
X198623Y35689D02*
Y36689D01*
X198123D01*
X197956Y36522D01*
Y36189D01*
X198123Y36022D01*
X198623D01*
X198290D02*
X197956Y35689D01*
X196957D02*
X197623D01*
X196957Y36355D01*
Y36522D01*
X197123Y36689D01*
X197456D01*
X197623Y36522D01*
X196623D02*
X196457Y36689D01*
X196124D01*
X195957Y36522D01*
Y36355D01*
X196124Y36189D01*
X195957Y36022D01*
Y35855D01*
X196124Y35689D01*
X196457D01*
X196623Y35855D01*
Y36022D01*
X196457Y36189D01*
X196623Y36355D01*
Y36522D01*
X196457Y36189D02*
X196124D01*
X195624Y36522D02*
X195457Y36689D01*
X195124D01*
X194957Y36522D01*
Y35855D01*
X195124Y35689D01*
X195457D01*
X195624Y35855D01*
Y36522D01*
X198722Y30678D02*
Y31678D01*
X198222D01*
X198055Y31511D01*
Y31178D01*
X198222Y31011D01*
X198722D01*
X198389D02*
X198055Y30678D01*
X197056D02*
X197722D01*
X197056Y31344D01*
Y31511D01*
X197222Y31678D01*
X197556D01*
X197722Y31511D01*
X196723Y31678D02*
X196056D01*
Y31511D01*
X196723Y30845D01*
Y30678D01*
X195723Y30845D02*
X195556Y30678D01*
X195223D01*
X195056Y30845D01*
Y31511D01*
X195223Y31678D01*
X195556D01*
X195723Y31511D01*
Y31344D01*
X195556Y31178D01*
X195056D01*
X198667Y28101D02*
Y29100D01*
X198167D01*
X198001Y28934D01*
Y28601D01*
X198167Y28434D01*
X198667D01*
X198334D02*
X198001Y28101D01*
X197001D02*
X197668D01*
X197001Y28767D01*
Y28934D01*
X197168Y29100D01*
X197501D01*
X197668Y28934D01*
X196668Y29100D02*
X196001D01*
Y28934D01*
X196668Y28267D01*
Y28101D01*
X195668Y28934D02*
X195502Y29100D01*
X195168D01*
X195002Y28934D01*
Y28767D01*
X195168Y28601D01*
X195002Y28434D01*
Y28267D01*
X195168Y28101D01*
X195502D01*
X195668Y28267D01*
Y28434D01*
X195502Y28601D01*
X195668Y28767D01*
Y28934D01*
X195502Y28601D02*
X195168D01*
X198748Y33208D02*
Y34208D01*
X198248D01*
X198081Y34041D01*
Y33708D01*
X198248Y33541D01*
X198748D01*
X198414D02*
X198081Y33208D01*
X197081D02*
X197748D01*
X197081Y33874D01*
Y34041D01*
X197248Y34208D01*
X197581D01*
X197748Y34041D01*
X196748Y34208D02*
X196082D01*
Y34041D01*
X196748Y33375D01*
Y33208D01*
X195748Y34208D02*
X195082D01*
Y34041D01*
X195748Y33375D01*
Y33208D01*
X106463Y50387D02*
X105463D01*
Y49887D01*
X105630Y49721D01*
X105963D01*
X106130Y49887D01*
Y50387D01*
Y50054D02*
X106463Y49721D01*
Y48721D02*
Y49388D01*
X105797Y48721D01*
X105630D01*
X105463Y48888D01*
Y49221D01*
X105630Y49388D01*
X105463Y48388D02*
Y47721D01*
X105630D01*
X106296Y48388D01*
X106463D01*
X105463Y46722D02*
X105630Y47055D01*
X105963Y47388D01*
X106296D01*
X106463Y47222D01*
Y46888D01*
X106296Y46722D01*
X106130D01*
X105963Y46888D01*
Y47388D01*
X66235Y32860D02*
Y33859D01*
X65735D01*
X65569Y33693D01*
Y33359D01*
X65735Y33193D01*
X66235D01*
X65902D02*
X65569Y32860D01*
X64569D02*
X65235D01*
X64569Y33526D01*
Y33693D01*
X64735Y33859D01*
X65069D01*
X65235Y33693D01*
X63569Y33859D02*
X64236D01*
Y33359D01*
X63902Y33526D01*
X63736D01*
X63569Y33359D01*
Y33026D01*
X63736Y32860D01*
X64069D01*
X64236Y33026D01*
X62569Y33859D02*
X63236D01*
Y33359D01*
X62903Y33526D01*
X62736D01*
X62569Y33359D01*
Y33026D01*
X62736Y32860D01*
X63069D01*
X63236Y33026D01*
X66188Y36051D02*
Y37050D01*
X65688D01*
X65522Y36884D01*
Y36551D01*
X65688Y36384D01*
X66188D01*
X65855D02*
X65522Y36051D01*
X64522D02*
X65189D01*
X64522Y36717D01*
Y36884D01*
X64689Y37050D01*
X65022D01*
X65189Y36884D01*
X63522Y37050D02*
X64189D01*
Y36551D01*
X63856Y36717D01*
X63689D01*
X63522Y36551D01*
Y36217D01*
X63689Y36051D01*
X64022D01*
X64189Y36217D01*
X62689Y36051D02*
Y37050D01*
X63189Y36551D01*
X62523D01*
X48081Y34980D02*
Y35979D01*
X47581D01*
X47415Y35813D01*
Y35479D01*
X47581Y35313D01*
X48081D01*
X47748D02*
X47415Y34980D01*
X46415D02*
X47082D01*
X46415Y35646D01*
Y35813D01*
X46582Y35979D01*
X46915D01*
X47082Y35813D01*
X45415Y35979D02*
X46082D01*
Y35479D01*
X45749Y35646D01*
X45582D01*
X45415Y35479D01*
Y35146D01*
X45582Y34980D01*
X45915D01*
X46082Y35146D01*
X45082Y35813D02*
X44916Y35979D01*
X44582D01*
X44416Y35813D01*
Y35646D01*
X44582Y35479D01*
X44749D01*
X44582D01*
X44416Y35313D01*
Y35146D01*
X44582Y34980D01*
X44916D01*
X45082Y35146D01*
X48210Y31707D02*
Y32706D01*
X47710D01*
X47544Y32540D01*
Y32207D01*
X47710Y32040D01*
X48210D01*
X47877D02*
X47544Y31707D01*
X46544D02*
X47210D01*
X46544Y32373D01*
Y32540D01*
X46711Y32706D01*
X47044D01*
X47210Y32540D01*
X45544Y32706D02*
X46211D01*
Y32207D01*
X45878Y32373D01*
X45711D01*
X45544Y32207D01*
Y31873D01*
X45711Y31707D01*
X46044D01*
X46211Y31873D01*
X44545Y31707D02*
X45211D01*
X44545Y32373D01*
Y32540D01*
X44711Y32706D01*
X45044D01*
X45211Y32540D01*
X48244Y28494D02*
Y29494D01*
X47744D01*
X47578Y29327D01*
Y28994D01*
X47744Y28828D01*
X48244D01*
X47911D02*
X47578Y28494D01*
X46578D02*
X47245D01*
X46578Y29161D01*
Y29327D01*
X46745Y29494D01*
X47078D01*
X47245Y29327D01*
X45578Y29494D02*
X46245D01*
Y28994D01*
X45912Y29161D01*
X45745D01*
X45578Y28994D01*
Y28661D01*
X45745Y28494D01*
X46078D01*
X46245Y28661D01*
X45245Y28494D02*
X44912D01*
X45079D01*
Y29494D01*
X45245Y29327D01*
X66359Y31347D02*
Y32347D01*
X65859D01*
X65692Y32180D01*
Y31847D01*
X65859Y31681D01*
X66359D01*
X66026D02*
X65692Y31347D01*
X64693D02*
X65359D01*
X64693Y32014D01*
Y32180D01*
X64859Y32347D01*
X65193D01*
X65359Y32180D01*
X63693Y32347D02*
X64359D01*
Y31847D01*
X64026Y32014D01*
X63860D01*
X63693Y31847D01*
Y31514D01*
X63860Y31347D01*
X64193D01*
X64359Y31514D01*
X63360Y32180D02*
X63193Y32347D01*
X62860D01*
X62693Y32180D01*
Y31514D01*
X62860Y31347D01*
X63193D01*
X63360Y31514D01*
Y32180D01*
X66195Y34422D02*
Y35421D01*
X65695D01*
X65528Y35255D01*
Y34922D01*
X65695Y34755D01*
X66195D01*
X65862D02*
X65528Y34422D01*
X64529D02*
X65195D01*
X64529Y35088D01*
Y35255D01*
X64695Y35421D01*
X65029D01*
X65195Y35255D01*
X63696Y34422D02*
Y35421D01*
X64196Y34922D01*
X63529D01*
X63196Y34588D02*
X63029Y34422D01*
X62696D01*
X62529Y34588D01*
Y35255D01*
X62696Y35421D01*
X63029D01*
X63196Y35255D01*
Y35088D01*
X63029Y34922D01*
X62529D01*
X48103Y36575D02*
Y37575D01*
X47603D01*
X47436Y37408D01*
Y37075D01*
X47603Y36909D01*
X48103D01*
X47770D02*
X47436Y36575D01*
X46437D02*
X47103D01*
X46437Y37242D01*
Y37408D01*
X46603Y37575D01*
X46937D01*
X47103Y37408D01*
X45604Y36575D02*
Y37575D01*
X46104Y37075D01*
X45437D01*
X45104Y37408D02*
X44937Y37575D01*
X44604D01*
X44437Y37408D01*
Y37242D01*
X44604Y37075D01*
X44437Y36909D01*
Y36742D01*
X44604Y36575D01*
X44937D01*
X45104Y36742D01*
Y36909D01*
X44937Y37075D01*
X45104Y37242D01*
Y37408D01*
X44937Y37075D02*
X44604D01*
X48090Y33327D02*
Y34327D01*
X47590D01*
X47423Y34160D01*
Y33827D01*
X47590Y33660D01*
X48090D01*
X47757D02*
X47423Y33327D01*
X46424D02*
X47090D01*
X46424Y33993D01*
Y34160D01*
X46590Y34327D01*
X46923D01*
X47090Y34160D01*
X45591Y33327D02*
Y34327D01*
X46090Y33827D01*
X45424D01*
X45091Y34327D02*
X44424D01*
Y34160D01*
X45091Y33493D01*
Y33327D01*
X48094Y30088D02*
Y31087D01*
X47594D01*
X47427Y30921D01*
Y30587D01*
X47594Y30421D01*
X48094D01*
X47760D02*
X47427Y30088D01*
X46427D02*
X47094D01*
X46427Y30754D01*
Y30921D01*
X46594Y31087D01*
X46927D01*
X47094Y30921D01*
X45594Y30088D02*
Y31087D01*
X46094Y30587D01*
X45428D01*
X44428Y31087D02*
X44761Y30921D01*
X45095Y30587D01*
Y30254D01*
X44928Y30088D01*
X44595D01*
X44428Y30254D01*
Y30421D01*
X44595Y30587D01*
X45095D01*
X161190Y32877D02*
Y33877D01*
X160690D01*
X160524Y33711D01*
Y33377D01*
X160690Y33211D01*
X161190D01*
X160857D02*
X160524Y32877D01*
X159524D02*
X160191D01*
X159524Y33544D01*
Y33711D01*
X159691Y33877D01*
X160024D01*
X160191Y33711D01*
X158691Y32877D02*
Y33877D01*
X159191Y33377D01*
X158524D01*
X157691Y32877D02*
Y33877D01*
X158191Y33377D01*
X157525D01*
X179350Y34369D02*
Y35368D01*
X178850D01*
X178684Y35202D01*
Y34869D01*
X178850Y34702D01*
X179350D01*
X179017D02*
X178684Y34369D01*
X177684D02*
X178350D01*
X177684Y35035D01*
Y35202D01*
X177851Y35368D01*
X178184D01*
X178350Y35202D01*
X176851Y34369D02*
Y35368D01*
X177351Y34869D01*
X176684D01*
X176351Y35202D02*
X176184Y35368D01*
X175851D01*
X175685Y35202D01*
Y35035D01*
X175851Y34869D01*
X176018D01*
X175851D01*
X175685Y34702D01*
Y34535D01*
X175851Y34369D01*
X176184D01*
X176351Y34535D01*
X179160Y37561D02*
Y38561D01*
X178660D01*
X178493Y38394D01*
Y38061D01*
X178660Y37894D01*
X179160D01*
X178826D02*
X178493Y37561D01*
X177493D02*
X178160D01*
X177493Y38227D01*
Y38394D01*
X177660Y38561D01*
X177993D01*
X178160Y38394D01*
X176660Y37561D02*
Y38561D01*
X177160Y38061D01*
X176494D01*
X175494Y37561D02*
X176161D01*
X175494Y38227D01*
Y38394D01*
X175661Y38561D01*
X175994D01*
X176161Y38394D01*
X161219Y36024D02*
Y37024D01*
X160719D01*
X160553Y36857D01*
Y36524D01*
X160719Y36357D01*
X161219D01*
X160886D02*
X160553Y36024D01*
X159553D02*
X160219D01*
X159553Y36691D01*
Y36857D01*
X159719Y37024D01*
X160053D01*
X160219Y36857D01*
X158720Y36024D02*
Y37024D01*
X159220Y36524D01*
X158553D01*
X158220Y36024D02*
X157887D01*
X158053D01*
Y37024D01*
X158220Y36857D01*
X161186Y29551D02*
Y30550D01*
X160686D01*
X160519Y30384D01*
Y30050D01*
X160686Y29884D01*
X161186D01*
X160852D02*
X160519Y29551D01*
X159519D02*
X160186D01*
X159519Y30217D01*
Y30384D01*
X159686Y30550D01*
X160019D01*
X160186Y30384D01*
X159186D02*
X159020Y30550D01*
X158686D01*
X158520Y30384D01*
Y30217D01*
X158686Y30050D01*
X158853D01*
X158686D01*
X158520Y29884D01*
Y29717D01*
X158686Y29551D01*
X159020D01*
X159186Y29717D01*
X158187D02*
X158020Y29551D01*
X157687D01*
X157520Y29717D01*
Y30384D01*
X157687Y30550D01*
X158020D01*
X158187Y30384D01*
Y30217D01*
X158020Y30050D01*
X157520D01*
X179221Y32677D02*
Y33677D01*
X178721D01*
X178555Y33510D01*
Y33177D01*
X178721Y33010D01*
X179221D01*
X178888D02*
X178555Y32677D01*
X177555D02*
X178222D01*
X177555Y33343D01*
Y33510D01*
X177722Y33677D01*
X178055D01*
X178222Y33510D01*
X177222D02*
X177055Y33677D01*
X176722D01*
X176555Y33510D01*
Y33343D01*
X176722Y33177D01*
X176889D01*
X176722D01*
X176555Y33010D01*
Y32844D01*
X176722Y32677D01*
X177055D01*
X177222Y32844D01*
X176222Y33510D02*
X176056Y33677D01*
X175722D01*
X175556Y33510D01*
Y33343D01*
X175722Y33177D01*
X175556Y33010D01*
Y32844D01*
X175722Y32677D01*
X176056D01*
X176222Y32844D01*
Y33010D01*
X176056Y33177D01*
X176222Y33343D01*
Y33510D01*
X176056Y33177D02*
X175722D01*
X179154Y35937D02*
Y36937D01*
X178654D01*
X178488Y36770D01*
Y36437D01*
X178654Y36270D01*
X179154D01*
X178821D02*
X178488Y35937D01*
X177488D02*
X178154D01*
X177488Y36604D01*
Y36770D01*
X177655Y36937D01*
X177988D01*
X178154Y36770D01*
X177155D02*
X176988Y36937D01*
X176655D01*
X176488Y36770D01*
Y36604D01*
X176655Y36437D01*
X176821D01*
X176655D01*
X176488Y36270D01*
Y36104D01*
X176655Y35937D01*
X176988D01*
X177155Y36104D01*
X176155Y36937D02*
X175489D01*
Y36770D01*
X176155Y36104D01*
Y35937D01*
X161202Y37686D02*
Y38686D01*
X160702D01*
X160536Y38519D01*
Y38186D01*
X160702Y38019D01*
X161202D01*
X160869D02*
X160536Y37686D01*
X159536D02*
X160202D01*
X159536Y38353D01*
Y38519D01*
X159703Y38686D01*
X160036D01*
X160202Y38519D01*
X159203D02*
X159036Y38686D01*
X158703D01*
X158536Y38519D01*
Y38353D01*
X158703Y38186D01*
X158869D01*
X158703D01*
X158536Y38019D01*
Y37853D01*
X158703Y37686D01*
X159036D01*
X159203Y37853D01*
X157537Y38686D02*
X157870Y38519D01*
X158203Y38186D01*
Y37853D01*
X158036Y37686D01*
X157703D01*
X157537Y37853D01*
Y38019D01*
X157703Y38186D01*
X158203D01*
X161181Y34465D02*
Y35464D01*
X160681D01*
X160514Y35298D01*
Y34964D01*
X160681Y34798D01*
X161181D01*
X160847D02*
X160514Y34465D01*
X159514D02*
X160181D01*
X159514Y35131D01*
Y35298D01*
X159681Y35464D01*
X160014D01*
X160181Y35298D01*
X159181D02*
X159015Y35464D01*
X158681D01*
X158515Y35298D01*
Y35131D01*
X158681Y34964D01*
X158848D01*
X158681D01*
X158515Y34798D01*
Y34631D01*
X158681Y34465D01*
X159015D01*
X159181Y34631D01*
X157515Y35464D02*
X158182D01*
Y34964D01*
X157848Y35131D01*
X157682D01*
X157515Y34964D01*
Y34631D01*
X157682Y34465D01*
X158015D01*
X158182Y34631D01*
X161214Y31178D02*
Y32178D01*
X160714D01*
X160548Y32011D01*
Y31678D01*
X160714Y31511D01*
X161214D01*
X160881D02*
X160548Y31178D01*
X159548D02*
X160214D01*
X159548Y31845D01*
Y32011D01*
X159715Y32178D01*
X160048D01*
X160214Y32011D01*
X159215D02*
X159048Y32178D01*
X158715D01*
X158548Y32011D01*
Y31845D01*
X158715Y31678D01*
X158881D01*
X158715D01*
X158548Y31511D01*
Y31345D01*
X158715Y31178D01*
X159048D01*
X159215Y31345D01*
X157715Y31178D02*
Y32178D01*
X158215Y31678D01*
X157549D01*
X96331Y34148D02*
Y35148D01*
X95831D01*
X95664Y34982D01*
Y34648D01*
X95831Y34482D01*
X96331D01*
X95998D02*
X95664Y34148D01*
X94665D02*
X95331D01*
X94665Y34815D01*
Y34982D01*
X94831Y35148D01*
X95165D01*
X95331Y34982D01*
X94332D02*
X94165Y35148D01*
X93832D01*
X93665Y34982D01*
Y34815D01*
X93832Y34648D01*
X93998D01*
X93832D01*
X93665Y34482D01*
Y34315D01*
X93832Y34148D01*
X94165D01*
X94332Y34315D01*
X92665Y34148D02*
X93332D01*
X92665Y34815D01*
Y34982D01*
X92832Y35148D01*
X93165D01*
X93332Y34982D01*
X95887Y37480D02*
Y38480D01*
X95388D01*
X95221Y38313D01*
Y37980D01*
X95388Y37814D01*
X95887D01*
X95554D02*
X95221Y37480D01*
X94221D02*
X94888D01*
X94221Y38147D01*
Y38313D01*
X94388Y38480D01*
X94721D01*
X94888Y38313D01*
X93888D02*
X93721Y38480D01*
X93388D01*
X93222Y38313D01*
Y38147D01*
X93388Y37980D01*
X93555D01*
X93388D01*
X93222Y37814D01*
Y37647D01*
X93388Y37480D01*
X93721D01*
X93888Y37647D01*
X92888Y37480D02*
X92555D01*
X92722D01*
Y38480D01*
X92888Y38313D01*
X78278Y36167D02*
Y37166D01*
X77779D01*
X77612Y37000D01*
Y36666D01*
X77779Y36500D01*
X78278D01*
X77945D02*
X77612Y36167D01*
X76612D02*
X77279D01*
X76612Y36833D01*
Y37000D01*
X76779Y37166D01*
X77112D01*
X77279Y37000D01*
X76279D02*
X76112Y37166D01*
X75779D01*
X75613Y37000D01*
Y36833D01*
X75779Y36666D01*
X75946D01*
X75779D01*
X75613Y36500D01*
Y36333D01*
X75779Y36167D01*
X76112D01*
X76279Y36333D01*
X75279Y37000D02*
X75113Y37166D01*
X74780D01*
X74613Y37000D01*
Y36333D01*
X74780Y36167D01*
X75113D01*
X75279Y36333D01*
Y37000D01*
X78233Y32968D02*
Y33967D01*
X77733D01*
X77566Y33801D01*
Y33467D01*
X77733Y33301D01*
X78233D01*
X77900D02*
X77566Y32968D01*
X76567D02*
X77233D01*
X76567Y33634D01*
Y33801D01*
X76733Y33967D01*
X77067D01*
X77233Y33801D01*
X75567Y32968D02*
X76234D01*
X75567Y33634D01*
Y33801D01*
X75734Y33967D01*
X76067D01*
X76234Y33801D01*
X75234Y33134D02*
X75067Y32968D01*
X74734D01*
X74567Y33134D01*
Y33801D01*
X74734Y33967D01*
X75067D01*
X75234Y33801D01*
Y33634D01*
X75067Y33467D01*
X74567D01*
X107877Y29679D02*
Y30678D01*
X107377D01*
X107210Y30512D01*
Y30178D01*
X107377Y30012D01*
X107877D01*
X107544D02*
X107210Y29679D01*
X106211D02*
X106877D01*
X106211Y30345D01*
Y30512D01*
X106377Y30678D01*
X106711D01*
X106877Y30512D01*
X105211Y29679D02*
X105878D01*
X105211Y30345D01*
Y30512D01*
X105378Y30678D01*
X105711D01*
X105878Y30512D01*
X104878D02*
X104711Y30678D01*
X104378D01*
X104211Y30512D01*
Y30345D01*
X104378Y30178D01*
X104211Y30012D01*
Y29845D01*
X104378Y29679D01*
X104711D01*
X104878Y29845D01*
Y30012D01*
X104711Y30178D01*
X104878Y30345D01*
Y30512D01*
X104711Y30178D02*
X104378D01*
X78259Y37852D02*
Y38852D01*
X77759D01*
X77593Y38685D01*
Y38352D01*
X77759Y38186D01*
X78259D01*
X77926D02*
X77593Y37852D01*
X76593D02*
X77259D01*
X76593Y38519D01*
Y38685D01*
X76760Y38852D01*
X77093D01*
X77259Y38685D01*
X75593Y37852D02*
X76260D01*
X75593Y38519D01*
Y38685D01*
X75760Y38852D01*
X76093D01*
X76260Y38685D01*
X75260Y38852D02*
X74594D01*
Y38685D01*
X75260Y38019D01*
Y37852D01*
X78298Y30711D02*
Y31711D01*
X77798D01*
X77631Y31544D01*
Y31211D01*
X77798Y31045D01*
X78298D01*
X77965D02*
X77631Y30711D01*
X76632D02*
X77298D01*
X76632Y31378D01*
Y31544D01*
X76798Y31711D01*
X77132D01*
X77298Y31544D01*
X75632Y30711D02*
X76298D01*
X75632Y31378D01*
Y31544D01*
X75799Y31711D01*
X76132D01*
X76298Y31544D01*
X74632Y31711D02*
X74966Y31544D01*
X75299Y31211D01*
Y30878D01*
X75132Y30711D01*
X74799D01*
X74632Y30878D01*
Y31045D01*
X74799Y31211D01*
X75299D01*
X96411Y32569D02*
Y33569D01*
X95911D01*
X95744Y33402D01*
Y33069D01*
X95911Y32902D01*
X96411D01*
X96078D02*
X95744Y32569D01*
X94745D02*
X95411D01*
X94745Y33235D01*
Y33402D01*
X94911Y33569D01*
X95245D01*
X95411Y33402D01*
X93745Y32569D02*
X94411D01*
X93745Y33235D01*
Y33402D01*
X93912Y33569D01*
X94245D01*
X94411Y33402D01*
X92745Y33569D02*
X93412D01*
Y33069D01*
X93079Y33235D01*
X92912D01*
X92745Y33069D01*
Y32736D01*
X92912Y32569D01*
X93245D01*
X93412Y32736D01*
X96211Y35764D02*
Y36763D01*
X95711D01*
X95544Y36597D01*
Y36263D01*
X95711Y36097D01*
X96211D01*
X95878D02*
X95544Y35764D01*
X94545D02*
X95211D01*
X94545Y36430D01*
Y36597D01*
X94711Y36763D01*
X95045D01*
X95211Y36597D01*
X93545Y35764D02*
X94212D01*
X93545Y36430D01*
Y36597D01*
X93712Y36763D01*
X94045D01*
X94212Y36597D01*
X92712Y35764D02*
Y36763D01*
X93212Y36263D01*
X92545D01*
X78286Y34621D02*
Y35620D01*
X77787D01*
X77620Y35454D01*
Y35121D01*
X77787Y34954D01*
X78286D01*
X77953D02*
X77620Y34621D01*
X76620D02*
X77287D01*
X76620Y35287D01*
Y35454D01*
X76787Y35620D01*
X77120D01*
X77287Y35454D01*
X75621Y34621D02*
X76287D01*
X75621Y35287D01*
Y35454D01*
X75787Y35620D01*
X76121D01*
X76287Y35454D01*
X75287D02*
X75121Y35620D01*
X74788D01*
X74621Y35454D01*
Y35287D01*
X74788Y35121D01*
X74954D01*
X74788D01*
X74621Y34954D01*
Y34787D01*
X74788Y34621D01*
X75121D01*
X75287Y34787D01*
X36184Y63481D02*
Y64481D01*
X35684D01*
X35518Y64314D01*
Y63981D01*
X35684Y63814D01*
X36184D01*
X35851D02*
X35518Y63481D01*
X34518D02*
X35185D01*
X34518Y64147D01*
Y64314D01*
X34685Y64481D01*
X35018D01*
X35185Y64314D01*
X34185Y63481D02*
X33852D01*
X34018D01*
Y64481D01*
X34185Y64314D01*
X33352Y64481D02*
X32685D01*
Y64314D01*
X33352Y63648D01*
Y63481D01*
X130124Y25279D02*
Y26279D01*
X129624D01*
X129457Y26112D01*
Y25779D01*
X129624Y25612D01*
X130124D01*
X129790D02*
X129457Y25279D01*
X128457D02*
X129124D01*
X128457Y25945D01*
Y26112D01*
X128624Y26279D01*
X128957D01*
X129124Y26112D01*
X128124Y25279D02*
X127791D01*
X127958D01*
Y26279D01*
X128124Y26112D01*
X127291D02*
X127125Y26279D01*
X126791D01*
X126625Y26112D01*
Y25446D01*
X126791Y25279D01*
X127125D01*
X127291Y25446D01*
Y26112D01*
X101201Y25317D02*
Y26317D01*
X100701D01*
X100535Y26150D01*
Y25817D01*
X100701Y25651D01*
X101201D01*
X100868D02*
X100535Y25317D01*
X99535D02*
X100201D01*
X99535Y25984D01*
Y26150D01*
X99702Y26317D01*
X100035D01*
X100201Y26150D01*
X99202D02*
X99035Y26317D01*
X98702D01*
X98535Y26150D01*
Y25484D01*
X98702Y25317D01*
X99035D01*
X99202Y25484D01*
Y26150D01*
X98202Y25484D02*
X98035Y25317D01*
X97702D01*
X97536Y25484D01*
Y26150D01*
X97702Y26317D01*
X98035D01*
X98202Y26150D01*
Y25984D01*
X98035Y25817D01*
X97536D01*
X71909Y25272D02*
Y26272D01*
X71409D01*
X71242Y26105D01*
Y25772D01*
X71409Y25605D01*
X71909D01*
X71576D02*
X71242Y25272D01*
X70243D02*
X70909D01*
X70243Y25938D01*
Y26105D01*
X70409Y26272D01*
X70743D01*
X70909Y26105D01*
X69910D02*
X69743Y26272D01*
X69410D01*
X69243Y26105D01*
Y25439D01*
X69410Y25272D01*
X69743D01*
X69910Y25439D01*
Y26105D01*
X68910D02*
X68743Y26272D01*
X68410D01*
X68243Y26105D01*
Y25938D01*
X68410Y25772D01*
X68243Y25605D01*
Y25439D01*
X68410Y25272D01*
X68743D01*
X68910Y25439D01*
Y25605D01*
X68743Y25772D01*
X68910Y25938D01*
Y26105D01*
X68743Y25772D02*
X68410D01*
X88822Y22898D02*
Y23898D01*
X88323D01*
X88156Y23731D01*
Y23398D01*
X88323Y23231D01*
X88822D01*
X88489D02*
X88156Y22898D01*
X87156D02*
X87823D01*
X87156Y23564D01*
Y23731D01*
X87323Y23898D01*
X87656D01*
X87823Y23731D01*
X86823D02*
X86656Y23898D01*
X86323D01*
X86157Y23731D01*
Y23065D01*
X86323Y22898D01*
X86656D01*
X86823Y23065D01*
Y23731D01*
X85823Y23898D02*
X85157D01*
Y23731D01*
X85823Y23065D01*
Y22898D01*
X117597Y22952D02*
Y23952D01*
X117097D01*
X116930Y23785D01*
Y23452D01*
X117097Y23286D01*
X117597D01*
X117264D02*
X116930Y22952D01*
X115931D02*
X116597D01*
X115931Y23619D01*
Y23785D01*
X116097Y23952D01*
X116431D01*
X116597Y23785D01*
X115597D02*
X115431Y23952D01*
X115098D01*
X114931Y23785D01*
Y23119D01*
X115098Y22952D01*
X115431D01*
X115597Y23119D01*
Y23785D01*
X113931Y23952D02*
X114265Y23785D01*
X114598Y23452D01*
Y23119D01*
X114431Y22952D01*
X114098D01*
X113931Y23119D01*
Y23286D01*
X114098Y23452D01*
X114598D01*
X58722Y23084D02*
Y24084D01*
X58223D01*
X58056Y23917D01*
Y23584D01*
X58223Y23418D01*
X58722D01*
X58389D02*
X58056Y23084D01*
X57056D02*
X57723D01*
X57056Y23751D01*
Y23917D01*
X57223Y24084D01*
X57556D01*
X57723Y23917D01*
X56723D02*
X56556Y24084D01*
X56223D01*
X56057Y23917D01*
Y23251D01*
X56223Y23084D01*
X56556D01*
X56723Y23251D01*
Y23917D01*
X55057Y24084D02*
X55723D01*
Y23584D01*
X55390Y23751D01*
X55223D01*
X55057Y23584D01*
Y23251D01*
X55223Y23084D01*
X55557D01*
X55723Y23251D01*
X125076Y15675D02*
Y16675D01*
X124576D01*
X124409Y16508D01*
Y16175D01*
X124576Y16008D01*
X125076D01*
X124743D02*
X124409Y15675D01*
X123410D02*
X124076D01*
X123410Y16342D01*
Y16508D01*
X123576Y16675D01*
X123910D01*
X124076Y16508D01*
X123077D02*
X122910Y16675D01*
X122577D01*
X122410Y16508D01*
Y15842D01*
X122577Y15675D01*
X122910D01*
X123077Y15842D01*
Y16508D01*
X121577Y15675D02*
Y16675D01*
X122077Y16175D01*
X121410D01*
X94256Y17367D02*
Y18366D01*
X93756D01*
X93589Y18200D01*
Y17866D01*
X93756Y17700D01*
X94256D01*
X93922D02*
X93589Y17367D01*
X92589D02*
X93256D01*
X92589Y18033D01*
Y18200D01*
X92756Y18366D01*
X93089D01*
X93256Y18200D01*
X92256D02*
X92090Y18366D01*
X91756D01*
X91590Y18200D01*
Y17533D01*
X91756Y17367D01*
X92090D01*
X92256Y17533D01*
Y18200D01*
X91257D02*
X91090Y18366D01*
X90757D01*
X90590Y18200D01*
Y18033D01*
X90757Y17866D01*
X90923D01*
X90757D01*
X90590Y17700D01*
Y17533D01*
X90757Y17367D01*
X91090D01*
X91257Y17533D01*
X64290Y17398D02*
Y18398D01*
X63790D01*
X63623Y18231D01*
Y17898D01*
X63790Y17732D01*
X64290D01*
X63956D02*
X63623Y17398D01*
X62623D02*
X63290D01*
X62623Y18065D01*
Y18231D01*
X62790Y18398D01*
X63123D01*
X63290Y18231D01*
X62290D02*
X62124Y18398D01*
X61790D01*
X61624Y18231D01*
Y17565D01*
X61790Y17398D01*
X62124D01*
X62290Y17565D01*
Y18231D01*
X60624Y17398D02*
X61291D01*
X60624Y18065D01*
Y18231D01*
X60791Y18398D01*
X61124D01*
X61291Y18231D01*
X124866Y13182D02*
Y14182D01*
X124366D01*
X124199Y14015D01*
Y13682D01*
X124366Y13515D01*
X124866D01*
X124533D02*
X124199Y13182D01*
X123200D02*
X123866D01*
X123200Y13848D01*
Y14015D01*
X123366Y14182D01*
X123700D01*
X123866Y14015D01*
X122867D02*
X122700Y14182D01*
X122367D01*
X122200Y14015D01*
Y13349D01*
X122367Y13182D01*
X122700D01*
X122867Y13349D01*
Y14015D01*
X121867Y13182D02*
X121534D01*
X121700D01*
Y14182D01*
X121867Y14015D01*
X95993Y13103D02*
Y14102D01*
X95494D01*
X95327Y13936D01*
Y13603D01*
X95494Y13436D01*
X95993D01*
X95660D02*
X95327Y13103D01*
X94327D02*
X94994D01*
X94327Y13769D01*
Y13936D01*
X94494Y14102D01*
X94827D01*
X94994Y13936D01*
X93994D02*
X93827Y14102D01*
X93494D01*
X93328Y13936D01*
Y13269D01*
X93494Y13103D01*
X93827D01*
X93994Y13269D01*
Y13936D01*
X92994D02*
X92828Y14102D01*
X92494D01*
X92328Y13936D01*
Y13269D01*
X92494Y13103D01*
X92828D01*
X92994Y13269D01*
Y13936D01*
X66466Y13027D02*
Y14026D01*
X65966D01*
X65800Y13860D01*
Y13527D01*
X65966Y13360D01*
X66466D01*
X66133D02*
X65800Y13027D01*
X65466D02*
X65133D01*
X65300D01*
Y14026D01*
X65466Y13860D01*
X64633Y13193D02*
X64467Y13027D01*
X64133D01*
X63967Y13193D01*
Y13860D01*
X64133Y14026D01*
X64467D01*
X64633Y13860D01*
Y13693D01*
X64467Y13527D01*
X63967D01*
X63634Y13193D02*
X63467Y13027D01*
X63134D01*
X62967Y13193D01*
Y13860D01*
X63134Y14026D01*
X63467D01*
X63634Y13860D01*
Y13693D01*
X63467Y13527D01*
X62967D01*
X113747Y9490D02*
Y10490D01*
X113247D01*
X113080Y10323D01*
Y9990D01*
X113247Y9823D01*
X113747D01*
X113413D02*
X113080Y9490D01*
X112747D02*
X112414D01*
X112580D01*
Y10490D01*
X112747Y10323D01*
X111914Y9657D02*
X111747Y9490D01*
X111414D01*
X111247Y9657D01*
Y10323D01*
X111414Y10490D01*
X111747D01*
X111914Y10323D01*
Y10156D01*
X111747Y9990D01*
X111247D01*
X110914Y10323D02*
X110748Y10490D01*
X110414D01*
X110248Y10323D01*
Y10156D01*
X110414Y9990D01*
X110248Y9823D01*
Y9657D01*
X110414Y9490D01*
X110748D01*
X110914Y9657D01*
Y9823D01*
X110748Y9990D01*
X110914Y10156D01*
Y10323D01*
X110748Y9990D02*
X110414D01*
X85022Y9328D02*
Y10328D01*
X84522D01*
X84356Y10161D01*
Y9828D01*
X84522Y9661D01*
X85022D01*
X84689D02*
X84356Y9328D01*
X84022D02*
X83689D01*
X83856D01*
Y10328D01*
X84022Y10161D01*
X83189Y9494D02*
X83023Y9328D01*
X82689D01*
X82523Y9494D01*
Y10161D01*
X82689Y10328D01*
X83023D01*
X83189Y10161D01*
Y9994D01*
X83023Y9828D01*
X82523D01*
X82190Y10328D02*
X81523D01*
Y10161D01*
X82190Y9494D01*
Y9328D01*
X55089Y9207D02*
Y10206D01*
X54589D01*
X54422Y10040D01*
Y9706D01*
X54589Y9540D01*
X55089D01*
X54756D02*
X54422Y9207D01*
X54089D02*
X53756D01*
X53923D01*
Y10206D01*
X54089Y10040D01*
X53256Y9373D02*
X53090Y9207D01*
X52756D01*
X52590Y9373D01*
Y10040D01*
X52756Y10206D01*
X53090D01*
X53256Y10040D01*
Y9873D01*
X53090Y9706D01*
X52590D01*
X51590Y10206D02*
X51923Y10040D01*
X52256Y9706D01*
Y9373D01*
X52090Y9207D01*
X51757D01*
X51590Y9373D01*
Y9540D01*
X51757Y9706D01*
X52256D01*
X120962Y14075D02*
Y15075D01*
X120462D01*
X120295Y14909D01*
Y14575D01*
X120462Y14409D01*
X120962D01*
X120628D02*
X120295Y14075D01*
X119962D02*
X119629D01*
X119795D01*
Y15075D01*
X119962Y14909D01*
X119129Y14242D02*
X118962Y14075D01*
X118629D01*
X118462Y14242D01*
Y14909D01*
X118629Y15075D01*
X118962D01*
X119129Y14909D01*
Y14742D01*
X118962Y14575D01*
X118462D01*
X117463Y15075D02*
X118129D01*
Y14575D01*
X117796Y14742D01*
X117629D01*
X117463Y14575D01*
Y14242D01*
X117629Y14075D01*
X117963D01*
X118129Y14242D01*
X91809Y14269D02*
Y15269D01*
X91310D01*
X91143Y15102D01*
Y14769D01*
X91310Y14602D01*
X91809D01*
X91476D02*
X91143Y14269D01*
X90810D02*
X90477D01*
X90643D01*
Y15269D01*
X90810Y15102D01*
X89977Y14436D02*
X89810Y14269D01*
X89477D01*
X89310Y14436D01*
Y15102D01*
X89477Y15269D01*
X89810D01*
X89977Y15102D01*
Y14936D01*
X89810Y14769D01*
X89310D01*
X88477Y14269D02*
Y15269D01*
X88977Y14769D01*
X88311D01*
X62263Y14273D02*
Y15272D01*
X61764D01*
X61597Y15106D01*
Y14773D01*
X61764Y14606D01*
X62263D01*
X61930D02*
X61597Y14273D01*
X61264D02*
X60931D01*
X61097D01*
Y15272D01*
X61264Y15106D01*
X60431Y14439D02*
X60264Y14273D01*
X59931D01*
X59764Y14439D01*
Y15106D01*
X59931Y15272D01*
X60264D01*
X60431Y15106D01*
Y14939D01*
X60264Y14773D01*
X59764D01*
X59431Y15106D02*
X59264Y15272D01*
X58931D01*
X58765Y15106D01*
Y14939D01*
X58931Y14773D01*
X59098D01*
X58931D01*
X58765Y14606D01*
Y14439D01*
X58931Y14273D01*
X59264D01*
X59431Y14439D01*
X120235Y25245D02*
Y26244D01*
X119735D01*
X119568Y26078D01*
Y25745D01*
X119735Y25578D01*
X120235D01*
X119901D02*
X119568Y25245D01*
X119235D02*
X118902D01*
X119068D01*
Y26244D01*
X119235Y26078D01*
X118402Y25411D02*
X118235Y25245D01*
X117902D01*
X117735Y25411D01*
Y26078D01*
X117902Y26244D01*
X118235D01*
X118402Y26078D01*
Y25911D01*
X118235Y25745D01*
X117735D01*
X116736Y25245D02*
X117402D01*
X116736Y25911D01*
Y26078D01*
X116902Y26244D01*
X117236D01*
X117402Y26078D01*
X91328Y25269D02*
Y26269D01*
X90828D01*
X90661Y26102D01*
Y25769D01*
X90828Y25602D01*
X91328D01*
X90995D02*
X90661Y25269D01*
X90328D02*
X89995D01*
X90162D01*
Y26269D01*
X90328Y26102D01*
X89495Y25436D02*
X89329Y25269D01*
X88995D01*
X88829Y25436D01*
Y26102D01*
X88995Y26269D01*
X89329D01*
X89495Y26102D01*
Y25936D01*
X89329Y25769D01*
X88829D01*
X88495Y25269D02*
X88162D01*
X88329D01*
Y26269D01*
X88495Y26102D01*
X61410Y25283D02*
Y26283D01*
X60910D01*
X60744Y26116D01*
Y25783D01*
X60910Y25616D01*
X61410D01*
X61077D02*
X60744Y25283D01*
X60411D02*
X60077D01*
X60244D01*
Y26283D01*
X60411Y26116D01*
X59577Y25450D02*
X59411Y25283D01*
X59078D01*
X58911Y25450D01*
Y26116D01*
X59078Y26283D01*
X59411D01*
X59577Y26116D01*
Y25950D01*
X59411Y25783D01*
X58911D01*
X58578Y26116D02*
X58411Y26283D01*
X58078D01*
X57911Y26116D01*
Y25450D01*
X58078Y25283D01*
X58411D01*
X58578Y25450D01*
Y26116D01*
X107990Y22808D02*
Y23808D01*
X107490D01*
X107324Y23641D01*
Y23308D01*
X107490Y23141D01*
X107990D01*
X107657D02*
X107324Y22808D01*
X106990D02*
X106657D01*
X106824D01*
Y23808D01*
X106990Y23641D01*
X106157D02*
X105991Y23808D01*
X105658D01*
X105491Y23641D01*
Y23475D01*
X105658Y23308D01*
X105491Y23141D01*
Y22975D01*
X105658Y22808D01*
X105991D01*
X106157Y22975D01*
Y23141D01*
X105991Y23308D01*
X106157Y23475D01*
Y23641D01*
X105991Y23308D02*
X105658D01*
X105158Y22975D02*
X104991Y22808D01*
X104658D01*
X104491Y22975D01*
Y23641D01*
X104658Y23808D01*
X104991D01*
X105158Y23641D01*
Y23475D01*
X104991Y23308D01*
X104491D01*
X78733Y23146D02*
Y24145D01*
X78233D01*
X78067Y23979D01*
Y23645D01*
X78233Y23479D01*
X78733D01*
X78400D02*
X78067Y23146D01*
X77734D02*
X77400D01*
X77567D01*
Y24145D01*
X77734Y23979D01*
X76900D02*
X76734Y24145D01*
X76401D01*
X76234Y23979D01*
Y23812D01*
X76401Y23645D01*
X76234Y23479D01*
Y23312D01*
X76401Y23146D01*
X76734D01*
X76900Y23312D01*
Y23479D01*
X76734Y23645D01*
X76900Y23812D01*
Y23979D01*
X76734Y23645D02*
X76401D01*
X75901Y23979D02*
X75734Y24145D01*
X75401D01*
X75234Y23979D01*
Y23812D01*
X75401Y23645D01*
X75234Y23479D01*
Y23312D01*
X75401Y23146D01*
X75734D01*
X75901Y23312D01*
Y23479D01*
X75734Y23645D01*
X75901Y23812D01*
Y23979D01*
X75734Y23645D02*
X75401D01*
X48327Y23323D02*
Y24322D01*
X47827D01*
X47661Y24156D01*
Y23823D01*
X47827Y23656D01*
X48327D01*
X47994D02*
X47661Y23323D01*
X47328D02*
X46994D01*
X47161D01*
Y24322D01*
X47328Y24156D01*
X46494D02*
X46328Y24322D01*
X45995D01*
X45828Y24156D01*
Y23989D01*
X45995Y23823D01*
X45828Y23656D01*
Y23489D01*
X45995Y23323D01*
X46328D01*
X46494Y23489D01*
Y23656D01*
X46328Y23823D01*
X46494Y23989D01*
Y24156D01*
X46328Y23823D02*
X45995D01*
X45495Y24322D02*
X44828D01*
Y24156D01*
X45495Y23489D01*
Y23323D01*
X115386Y15719D02*
Y16718D01*
X114886D01*
X114719Y16552D01*
Y16219D01*
X114886Y16052D01*
X115386D01*
X115052D02*
X114719Y15719D01*
X114386D02*
X114053D01*
X114219D01*
Y16718D01*
X114386Y16552D01*
X113553D02*
X113386Y16718D01*
X113053D01*
X112886Y16552D01*
Y16385D01*
X113053Y16219D01*
X112886Y16052D01*
Y15885D01*
X113053Y15719D01*
X113386D01*
X113553Y15885D01*
Y16052D01*
X113386Y16219D01*
X113553Y16385D01*
Y16552D01*
X113386Y16219D02*
X113053D01*
X111887Y16718D02*
X112220Y16552D01*
X112553Y16219D01*
Y15885D01*
X112387Y15719D01*
X112053D01*
X111887Y15885D01*
Y16052D01*
X112053Y16219D01*
X112553D01*
X115363Y13015D02*
Y14015D01*
X114864D01*
X114697Y13849D01*
Y13515D01*
X114864Y13349D01*
X115363D01*
X115030D02*
X114697Y13015D01*
X114364D02*
X114030D01*
X114197D01*
Y14015D01*
X114364Y13849D01*
X113531D02*
X113364Y14015D01*
X113031D01*
X112864Y13849D01*
Y13682D01*
X113031Y13515D01*
X112864Y13349D01*
Y13182D01*
X113031Y13015D01*
X113364D01*
X113531Y13182D01*
Y13349D01*
X113364Y13515D01*
X113531Y13682D01*
Y13849D01*
X113364Y13515D02*
X113031D01*
X111865Y14015D02*
X112531D01*
Y13515D01*
X112198Y13682D01*
X112031D01*
X111865Y13515D01*
Y13182D01*
X112031Y13015D01*
X112364D01*
X112531Y13182D01*
X84093Y17381D02*
Y18381D01*
X83593D01*
X83427Y18214D01*
Y17881D01*
X83593Y17714D01*
X84093D01*
X83760D02*
X83427Y17381D01*
X83093D02*
X82760D01*
X82927D01*
Y18381D01*
X83093Y18214D01*
X82260D02*
X82094Y18381D01*
X81761D01*
X81594Y18214D01*
Y18048D01*
X81761Y17881D01*
X81594Y17714D01*
Y17548D01*
X81761Y17381D01*
X82094D01*
X82260Y17548D01*
Y17714D01*
X82094Y17881D01*
X82260Y18048D01*
Y18214D01*
X82094Y17881D02*
X81761D01*
X80761Y17381D02*
Y18381D01*
X81261Y17881D01*
X80594D01*
X54479Y17340D02*
Y18340D01*
X53980D01*
X53813Y18173D01*
Y17840D01*
X53980Y17674D01*
X54479D01*
X54146D02*
X53813Y17340D01*
X53480D02*
X53147D01*
X53313D01*
Y18340D01*
X53480Y18173D01*
X52647D02*
X52480Y18340D01*
X52147D01*
X51980Y18173D01*
Y18007D01*
X52147Y17840D01*
X51980Y17674D01*
Y17507D01*
X52147Y17340D01*
X52480D01*
X52647Y17507D01*
Y17674D01*
X52480Y17840D01*
X52647Y18007D01*
Y18173D01*
X52480Y17840D02*
X52147D01*
X51647Y18173D02*
X51480Y18340D01*
X51147D01*
X50981Y18173D01*
Y18007D01*
X51147Y17840D01*
X51314D01*
X51147D01*
X50981Y17674D01*
Y17507D01*
X51147Y17340D01*
X51480D01*
X51647Y17507D01*
X86374Y13226D02*
Y14226D01*
X85874D01*
X85708Y14059D01*
Y13726D01*
X85874Y13559D01*
X86374D01*
X86041D02*
X85708Y13226D01*
X85375D02*
X85041D01*
X85208D01*
Y14226D01*
X85375Y14059D01*
X84542D02*
X84375Y14226D01*
X84042D01*
X83875Y14059D01*
Y13893D01*
X84042Y13726D01*
X83875Y13559D01*
Y13393D01*
X84042Y13226D01*
X84375D01*
X84542Y13393D01*
Y13559D01*
X84375Y13726D01*
X84542Y13893D01*
Y14059D01*
X84375Y13726D02*
X84042D01*
X82875Y13226D02*
X83542D01*
X82875Y13893D01*
Y14059D01*
X83042Y14226D01*
X83375D01*
X83542Y14059D01*
X56165Y13215D02*
Y14214D01*
X55665D01*
X55498Y14048D01*
Y13715D01*
X55665Y13548D01*
X56165D01*
X55831D02*
X55498Y13215D01*
X55165D02*
X54832D01*
X54998D01*
Y14214D01*
X55165Y14048D01*
X54332D02*
X54165Y14214D01*
X53832D01*
X53665Y14048D01*
Y13881D01*
X53832Y13715D01*
X53665Y13548D01*
Y13381D01*
X53832Y13215D01*
X54165D01*
X54332Y13381D01*
Y13548D01*
X54165Y13715D01*
X54332Y13881D01*
Y14048D01*
X54165Y13715D02*
X53832D01*
X53332Y13215D02*
X52999D01*
X53166D01*
Y14214D01*
X53332Y14048D01*
X104466Y9335D02*
Y10335D01*
X103966D01*
X103800Y10168D01*
Y9835D01*
X103966Y9668D01*
X104466D01*
X104133D02*
X103800Y9335D01*
X103467D02*
X103133D01*
X103300D01*
Y10335D01*
X103467Y10168D01*
X102634D02*
X102467Y10335D01*
X102134D01*
X101967Y10168D01*
Y10002D01*
X102134Y9835D01*
X101967Y9668D01*
Y9502D01*
X102134Y9335D01*
X102467D01*
X102634Y9502D01*
Y9668D01*
X102467Y9835D01*
X102634Y10002D01*
Y10168D01*
X102467Y9835D02*
X102134D01*
X101634Y10168D02*
X101467Y10335D01*
X101134D01*
X100967Y10168D01*
Y9502D01*
X101134Y9335D01*
X101467D01*
X101634Y9502D01*
Y10168D01*
X75517Y9076D02*
Y10076D01*
X75017D01*
X74850Y9909D01*
Y9576D01*
X75017Y9409D01*
X75517D01*
X75184D02*
X74850Y9076D01*
X74517D02*
X74184D01*
X74351D01*
Y10076D01*
X74517Y9909D01*
X73684Y10076D02*
X73018D01*
Y9909D01*
X73684Y9243D01*
Y9076D01*
X72684Y9243D02*
X72518Y9076D01*
X72185D01*
X72018Y9243D01*
Y9909D01*
X72185Y10076D01*
X72518D01*
X72684Y9909D01*
Y9743D01*
X72518Y9576D01*
X72018D01*
X43528Y9343D02*
Y10343D01*
X43028D01*
X42862Y10177D01*
Y9843D01*
X43028Y9677D01*
X43528D01*
X43195D02*
X42862Y9343D01*
X42529D02*
X42195D01*
X42362D01*
Y10343D01*
X42529Y10177D01*
X41695Y10343D02*
X41029D01*
Y10177D01*
X41695Y9510D01*
Y9343D01*
X40696Y10177D02*
X40529Y10343D01*
X40196D01*
X40029Y10177D01*
Y10010D01*
X40196Y9843D01*
X40029Y9677D01*
Y9510D01*
X40196Y9343D01*
X40529D01*
X40696Y9510D01*
Y9677D01*
X40529Y9843D01*
X40696Y10010D01*
Y10177D01*
X40529Y9843D02*
X40196D01*
X111181Y14082D02*
Y15082D01*
X110681D01*
X110514Y14915D01*
Y14582D01*
X110681Y14415D01*
X111181D01*
X110847D02*
X110514Y14082D01*
X110181D02*
X109848D01*
X110014D01*
Y15082D01*
X110181Y14915D01*
X109348Y15082D02*
X108681D01*
Y14915D01*
X109348Y14249D01*
Y14082D01*
X108348Y15082D02*
X107682D01*
Y14915D01*
X108348Y14249D01*
Y14082D01*
X82117Y13939D02*
Y14939D01*
X81618D01*
X81451Y14772D01*
Y14439D01*
X81618Y14272D01*
X82117D01*
X81784D02*
X81451Y13939D01*
X81118D02*
X80785D01*
X80951D01*
Y14939D01*
X81118Y14772D01*
X80285Y14939D02*
X79618D01*
Y14772D01*
X80285Y14106D01*
Y13939D01*
X78619Y14939D02*
X78952Y14772D01*
X79285Y14439D01*
Y14106D01*
X79118Y13939D01*
X78785D01*
X78619Y14106D01*
Y14272D01*
X78785Y14439D01*
X79285D01*
X51643Y14035D02*
Y15035D01*
X51143D01*
X50977Y14868D01*
Y14535D01*
X51143Y14368D01*
X51643D01*
X51310D02*
X50977Y14035D01*
X50643D02*
X50310D01*
X50477D01*
Y15035D01*
X50643Y14868D01*
X49810Y15035D02*
X49144D01*
Y14868D01*
X49810Y14202D01*
Y14035D01*
X48144Y15035D02*
X48811D01*
Y14535D01*
X48478Y14702D01*
X48311D01*
X48144Y14535D01*
Y14202D01*
X48311Y14035D01*
X48644D01*
X48811Y14202D01*
X110638Y25340D02*
Y26340D01*
X110138D01*
X109972Y26173D01*
Y25840D01*
X110138Y25673D01*
X110638D01*
X110305D02*
X109972Y25340D01*
X109639D02*
X109305D01*
X109472D01*
Y26340D01*
X109639Y26173D01*
X108806Y26340D02*
X108139D01*
Y26173D01*
X108806Y25507D01*
Y25340D01*
X107306D02*
Y26340D01*
X107806Y25840D01*
X107139D01*
X50839Y25399D02*
Y26398D01*
X50339D01*
X50172Y26232D01*
Y25898D01*
X50339Y25732D01*
X50839D01*
X50505D02*
X50172Y25399D01*
X49839D02*
X49506D01*
X49672D01*
Y26398D01*
X49839Y26232D01*
X49006Y26398D02*
X48340D01*
Y26232D01*
X49006Y25565D01*
Y25399D01*
X48006Y26232D02*
X47840Y26398D01*
X47506D01*
X47340Y26232D01*
Y26065D01*
X47506Y25898D01*
X47673D01*
X47506D01*
X47340Y25732D01*
Y25565D01*
X47506Y25399D01*
X47840D01*
X48006Y25565D01*
X81781Y25260D02*
Y26260D01*
X81281D01*
X81114Y26093D01*
Y25760D01*
X81281Y25593D01*
X81781D01*
X81447D02*
X81114Y25260D01*
X80781D02*
X80448D01*
X80614D01*
Y26260D01*
X80781Y26093D01*
X79948Y26260D02*
X79281D01*
Y26093D01*
X79948Y25427D01*
Y25260D01*
X78282D02*
X78948D01*
X78282Y25927D01*
Y26093D01*
X78448Y26260D01*
X78782D01*
X78948Y26093D01*
X98300Y22870D02*
Y23870D01*
X97800D01*
X97634Y23703D01*
Y23370D01*
X97800Y23203D01*
X98300D01*
X97967D02*
X97634Y22870D01*
X97300D02*
X96967D01*
X97134D01*
Y23870D01*
X97300Y23703D01*
X96467Y23870D02*
X95801D01*
Y23703D01*
X96467Y23037D01*
Y22870D01*
X95468D02*
X95134D01*
X95301D01*
Y23870D01*
X95468Y23703D01*
X68969Y23148D02*
Y24148D01*
X68469D01*
X68302Y23981D01*
Y23648D01*
X68469Y23482D01*
X68969D01*
X68635D02*
X68302Y23148D01*
X67969D02*
X67636D01*
X67802D01*
Y24148D01*
X67969Y23981D01*
X67136Y24148D02*
X66469D01*
Y23981D01*
X67136Y23315D01*
Y23148D01*
X66136Y23981D02*
X65970Y24148D01*
X65636D01*
X65470Y23981D01*
Y23315D01*
X65636Y23148D01*
X65970D01*
X66136Y23315D01*
Y23981D01*
X37587Y23308D02*
Y24307D01*
X37087D01*
X36921Y24141D01*
Y23807D01*
X37087Y23641D01*
X37587D01*
X37254D02*
X36921Y23308D01*
X36588D02*
X36254D01*
X36421D01*
Y24307D01*
X36588Y24141D01*
X35088Y24307D02*
X35421Y24141D01*
X35755Y23807D01*
Y23474D01*
X35588Y23308D01*
X35255D01*
X35088Y23474D01*
Y23641D01*
X35255Y23807D01*
X35755D01*
X34755Y23474D02*
X34588Y23308D01*
X34255D01*
X34088Y23474D01*
Y24141D01*
X34255Y24307D01*
X34588D01*
X34755Y24141D01*
Y23974D01*
X34588Y23807D01*
X34088D01*
X106205Y15704D02*
Y16704D01*
X105705D01*
X105538Y16537D01*
Y16204D01*
X105705Y16037D01*
X106205D01*
X105871D02*
X105538Y15704D01*
X105205D02*
X104872D01*
X105038D01*
Y16704D01*
X105205Y16537D01*
X103705Y16704D02*
X104039Y16537D01*
X104372Y16204D01*
Y15871D01*
X104205Y15704D01*
X103872D01*
X103705Y15871D01*
Y16037D01*
X103872Y16204D01*
X104372D01*
X103372Y16537D02*
X103205Y16704D01*
X102872D01*
X102706Y16537D01*
Y16370D01*
X102872Y16204D01*
X102706Y16037D01*
Y15871D01*
X102872Y15704D01*
X103205D01*
X103372Y15871D01*
Y16037D01*
X103205Y16204D01*
X103372Y16370D01*
Y16537D01*
X103205Y16204D02*
X102872D01*
X74172Y17396D02*
Y18396D01*
X73672D01*
X73505Y18229D01*
Y17896D01*
X73672Y17729D01*
X74172D01*
X73838D02*
X73505Y17396D01*
X73172D02*
X72839D01*
X73005D01*
Y18396D01*
X73172Y18229D01*
X71672Y18396D02*
X72006Y18229D01*
X72339Y17896D01*
Y17563D01*
X72172Y17396D01*
X71839D01*
X71672Y17563D01*
Y17729D01*
X71839Y17896D01*
X72339D01*
X71339Y18396D02*
X70673D01*
Y18229D01*
X71339Y17563D01*
Y17396D01*
X43182Y17603D02*
Y18603D01*
X42682D01*
X42515Y18436D01*
Y18103D01*
X42682Y17937D01*
X43182D01*
X42848D02*
X42515Y17603D01*
X42182D02*
X41849D01*
X42015D01*
Y18603D01*
X42182Y18436D01*
X40682Y18603D02*
X41016Y18436D01*
X41349Y18103D01*
Y17770D01*
X41182Y17603D01*
X40849D01*
X40682Y17770D01*
Y17937D01*
X40849Y18103D01*
X41349D01*
X39683Y18603D02*
X40016Y18436D01*
X40349Y18103D01*
Y17770D01*
X40183Y17603D01*
X39849D01*
X39683Y17770D01*
Y17937D01*
X39849Y18103D01*
X40349D01*
X105641Y13092D02*
Y14091D01*
X105141D01*
X104974Y13925D01*
Y13592D01*
X105141Y13425D01*
X105641D01*
X105308D02*
X104974Y13092D01*
X104641D02*
X104308D01*
X104475D01*
Y14091D01*
X104641Y13925D01*
X103142Y14091D02*
X103475Y13925D01*
X103808Y13592D01*
Y13258D01*
X103642Y13092D01*
X103308D01*
X103142Y13258D01*
Y13425D01*
X103308Y13592D01*
X103808D01*
X102142Y14091D02*
X102809D01*
Y13592D01*
X102475Y13758D01*
X102309D01*
X102142Y13592D01*
Y13258D01*
X102309Y13092D01*
X102642D01*
X102809Y13258D01*
X76407Y13071D02*
Y14070D01*
X75907D01*
X75740Y13904D01*
Y13570D01*
X75907Y13404D01*
X76407D01*
X76074D02*
X75740Y13071D01*
X75407D02*
X75074D01*
X75241D01*
Y14070D01*
X75407Y13904D01*
X73908Y14070D02*
X74241Y13904D01*
X74574Y13570D01*
Y13237D01*
X74407Y13071D01*
X74074D01*
X73908Y13237D01*
Y13404D01*
X74074Y13570D01*
X74574D01*
X73075Y13071D02*
Y14070D01*
X73574Y13570D01*
X72908D01*
X45517Y13170D02*
Y14169D01*
X45018D01*
X44851Y14003D01*
Y13670D01*
X45018Y13503D01*
X45517D01*
X45184D02*
X44851Y13170D01*
X44518D02*
X44185D01*
X44351D01*
Y14169D01*
X44518Y14003D01*
X43018Y14169D02*
X43352Y14003D01*
X43685Y13670D01*
Y13336D01*
X43518Y13170D01*
X43185D01*
X43018Y13336D01*
Y13503D01*
X43185Y13670D01*
X43685D01*
X42685Y14003D02*
X42518Y14169D01*
X42185D01*
X42019Y14003D01*
Y13836D01*
X42185Y13670D01*
X42352D01*
X42185D01*
X42019Y13503D01*
Y13336D01*
X42185Y13170D01*
X42518D01*
X42685Y13336D01*
X94698Y7963D02*
Y8963D01*
X94198D01*
X94031Y8796D01*
Y8463D01*
X94198Y8296D01*
X94698D01*
X94364D02*
X94031Y7963D01*
X93698D02*
X93365D01*
X93531D01*
Y8963D01*
X93698Y8796D01*
X92198Y8963D02*
X92532Y8796D01*
X92865Y8463D01*
Y8130D01*
X92698Y7963D01*
X92365D01*
X92198Y8130D01*
Y8296D01*
X92365Y8463D01*
X92865D01*
X91199Y7963D02*
X91865D01*
X91199Y8630D01*
Y8796D01*
X91365Y8963D01*
X91699D01*
X91865Y8796D01*
X65243Y9373D02*
Y10373D01*
X64744D01*
X64577Y10206D01*
Y9873D01*
X64744Y9707D01*
X65243D01*
X64910D02*
X64577Y9373D01*
X64244D02*
X63911D01*
X64077D01*
Y10373D01*
X64244Y10206D01*
X62744Y10373D02*
X63077Y10206D01*
X63411Y9873D01*
Y9540D01*
X63244Y9373D01*
X62911D01*
X62744Y9540D01*
Y9707D01*
X62911Y9873D01*
X63411D01*
X62411Y9373D02*
X62078D01*
X62244D01*
Y10373D01*
X62411Y10206D01*
X33469Y9271D02*
Y10271D01*
X32969D01*
X32803Y10104D01*
Y9771D01*
X32969Y9604D01*
X33469D01*
X33136D02*
X32803Y9271D01*
X32469D02*
X32136D01*
X32303D01*
Y10271D01*
X32469Y10104D01*
X30970Y10271D02*
X31303Y10104D01*
X31636Y9771D01*
Y9438D01*
X31470Y9271D01*
X31136D01*
X30970Y9438D01*
Y9604D01*
X31136Y9771D01*
X31636D01*
X30637Y10104D02*
X30470Y10271D01*
X30137D01*
X29970Y10104D01*
Y9438D01*
X30137Y9271D01*
X30470D01*
X30637Y9438D01*
Y10104D01*
X101640Y14329D02*
Y15328D01*
X101140D01*
X100974Y15162D01*
Y14828D01*
X101140Y14662D01*
X101640D01*
X101307D02*
X100974Y14329D01*
X100641D02*
X100307D01*
X100474D01*
Y15328D01*
X100641Y15162D01*
X99141Y15328D02*
X99808D01*
Y14828D01*
X99474Y14995D01*
X99308D01*
X99141Y14828D01*
Y14495D01*
X99308Y14329D01*
X99641D01*
X99808Y14495D01*
X98808D02*
X98641Y14329D01*
X98308D01*
X98141Y14495D01*
Y15162D01*
X98308Y15328D01*
X98641D01*
X98808Y15162D01*
Y14995D01*
X98641Y14828D01*
X98141D01*
X72309Y14043D02*
Y15043D01*
X71809D01*
X71643Y14876D01*
Y14543D01*
X71809Y14376D01*
X72309D01*
X71976D02*
X71643Y14043D01*
X71309D02*
X70976D01*
X71143D01*
Y15043D01*
X71309Y14876D01*
X69810Y15043D02*
X70476D01*
Y14543D01*
X70143Y14710D01*
X69976D01*
X69810Y14543D01*
Y14210D01*
X69976Y14043D01*
X70310D01*
X70476Y14210D01*
X69477Y14876D02*
X69310Y15043D01*
X68977D01*
X68810Y14876D01*
Y14710D01*
X68977Y14543D01*
X68810Y14376D01*
Y14210D01*
X68977Y14043D01*
X69310D01*
X69477Y14210D01*
Y14376D01*
X69310Y14543D01*
X69477Y14710D01*
Y14876D01*
X69310Y14543D02*
X68977D01*
X41173Y14122D02*
Y15122D01*
X40673D01*
X40507Y14955D01*
Y14622D01*
X40673Y14455D01*
X41173D01*
X40840D02*
X40507Y14122D01*
X40173D02*
X39840D01*
X40007D01*
Y15122D01*
X40173Y14955D01*
X38674Y15122D02*
X39340D01*
Y14622D01*
X39007Y14788D01*
X38840D01*
X38674Y14622D01*
Y14288D01*
X38840Y14122D01*
X39174D01*
X39340Y14288D01*
X38341Y15122D02*
X37674D01*
Y14955D01*
X38341Y14288D01*
Y14122D01*
X28821Y25270D02*
Y26270D01*
X28321D01*
X28154Y26103D01*
Y25770D01*
X28321Y25603D01*
X28821D01*
X28488D02*
X28154Y25270D01*
X27821D02*
X27488D01*
X27654D01*
Y26270D01*
X27821Y26103D01*
X26322Y26270D02*
X26988D01*
Y25770D01*
X26655Y25936D01*
X26488D01*
X26322Y25770D01*
Y25437D01*
X26488Y25270D01*
X26821D01*
X26988Y25437D01*
X25322Y26270D02*
X25655Y26103D01*
X25988Y25770D01*
Y25437D01*
X25822Y25270D01*
X25488D01*
X25322Y25437D01*
Y25603D01*
X25488Y25770D01*
X25988D01*
X178318Y40843D02*
Y39843D01*
X178818D01*
X178985Y40010D01*
Y40343D01*
X178818Y40509D01*
X178318D01*
X178652D02*
X178985Y40843D01*
X179318D02*
X179651D01*
X179485D01*
Y39843D01*
X179318Y40010D01*
X180818Y39843D02*
X180151D01*
Y40343D01*
X180484Y40176D01*
X180651D01*
X180818Y40343D01*
Y40676D01*
X180651Y40843D01*
X180318D01*
X180151Y40676D01*
X181817Y39843D02*
X181151D01*
Y40343D01*
X181484Y40176D01*
X181651D01*
X181817Y40343D01*
Y40676D01*
X181651Y40843D01*
X181317D01*
X181151Y40676D01*
X162890Y58642D02*
Y59642D01*
X162390D01*
X162224Y59475D01*
Y59142D01*
X162390Y58976D01*
X162890D01*
X162557D02*
X162224Y58642D01*
X161891D02*
X161557D01*
X161724D01*
Y59642D01*
X161891Y59475D01*
X160391Y59642D02*
X161058D01*
Y59142D01*
X160724Y59309D01*
X160558D01*
X160391Y59142D01*
Y58809D01*
X160558Y58642D01*
X160891D01*
X161058Y58809D01*
X159558Y58642D02*
Y59642D01*
X160058Y59142D01*
X159391D01*
X14882Y23115D02*
Y24114D01*
X14382D01*
X14216Y23948D01*
Y23614D01*
X14382Y23448D01*
X14882D01*
X14549D02*
X14216Y23115D01*
X13882D02*
X13549D01*
X13716D01*
Y24114D01*
X13882Y23948D01*
X12383Y24114D02*
X13049D01*
Y23614D01*
X12716Y23781D01*
X12550D01*
X12383Y23614D01*
Y23281D01*
X12550Y23115D01*
X12883D01*
X13049Y23281D01*
X12050Y23948D02*
X11883Y24114D01*
X11550D01*
X11383Y23948D01*
Y23781D01*
X11550Y23614D01*
X11717D01*
X11550D01*
X11383Y23448D01*
Y23281D01*
X11550Y23115D01*
X11883D01*
X12050Y23281D01*
X174947Y43710D02*
Y44710D01*
X174447D01*
X174280Y44543D01*
Y44210D01*
X174447Y44044D01*
X174947D01*
X174614D02*
X174280Y43710D01*
X173947D02*
X173614D01*
X173780D01*
Y44710D01*
X173947Y44543D01*
X172448Y44710D02*
X173114D01*
Y44210D01*
X172781Y44377D01*
X172614D01*
X172448Y44210D01*
Y43877D01*
X172614Y43710D01*
X172947D01*
X173114Y43877D01*
X171448Y43710D02*
X172114D01*
X171448Y44377D01*
Y44543D01*
X171615Y44710D01*
X171948D01*
X172114Y44543D01*
X163289Y60598D02*
Y61598D01*
X162790D01*
X162623Y61431D01*
Y61098D01*
X162790Y60931D01*
X163289D01*
X162956D02*
X162623Y60598D01*
X162290D02*
X161956D01*
X162123D01*
Y61598D01*
X162290Y61431D01*
X160790Y61598D02*
X161457D01*
Y61098D01*
X161123Y61264D01*
X160957D01*
X160790Y61098D01*
Y60764D01*
X160957Y60598D01*
X161290D01*
X161457Y60764D01*
X160457Y60598D02*
X160124D01*
X160290D01*
Y61598D01*
X160457Y61431D01*
X23844Y15863D02*
Y16863D01*
X23344D01*
X23178Y16696D01*
Y16363D01*
X23344Y16196D01*
X23844D01*
X23511D02*
X23178Y15863D01*
X22844D02*
X22511D01*
X22678D01*
Y16863D01*
X22844Y16696D01*
X21345Y16863D02*
X22011D01*
Y16363D01*
X21678Y16530D01*
X21511D01*
X21345Y16363D01*
Y16030D01*
X21511Y15863D01*
X21845D01*
X22011Y16030D01*
X21012Y16696D02*
X20845Y16863D01*
X20512D01*
X20345Y16696D01*
Y16030D01*
X20512Y15863D01*
X20845D01*
X21012Y16030D01*
Y16696D01*
X201775Y68803D02*
Y69803D01*
X201275D01*
X201109Y69636D01*
Y69303D01*
X201275Y69136D01*
X201775D01*
X201442D02*
X201109Y68803D01*
X200775D02*
X200442D01*
X200609D01*
Y69803D01*
X200775Y69636D01*
X199443Y68803D02*
Y69803D01*
X199942Y69303D01*
X199276D01*
X198943Y68970D02*
X198776Y68803D01*
X198443D01*
X198276Y68970D01*
Y69636D01*
X198443Y69803D01*
X198776D01*
X198943Y69636D01*
Y69470D01*
X198776Y69303D01*
X198276D01*
X170471Y69995D02*
Y70995D01*
X169971D01*
X169805Y70828D01*
Y70495D01*
X169971Y70328D01*
X170471D01*
X170138D02*
X169805Y69995D01*
X169471D02*
X169138D01*
X169305D01*
Y70995D01*
X169471Y70828D01*
X168139Y69995D02*
Y70995D01*
X168638Y70495D01*
X167972D01*
X167639Y70828D02*
X167472Y70995D01*
X167139D01*
X166972Y70828D01*
Y70661D01*
X167139Y70495D01*
X166972Y70328D01*
Y70162D01*
X167139Y69995D01*
X167472D01*
X167639Y70162D01*
Y70328D01*
X167472Y70495D01*
X167639Y70661D01*
Y70828D01*
X167472Y70495D02*
X167139D01*
X16466Y10642D02*
Y9643D01*
X16966D01*
X17132Y9809D01*
Y10142D01*
X16966Y10309D01*
X16466D01*
X16799D02*
X17132Y10642D01*
X17466D02*
X17799D01*
X17632D01*
Y9643D01*
X17466Y9809D01*
X18798Y10642D02*
Y9643D01*
X18299Y10142D01*
X18965D01*
X19298Y9643D02*
X19965D01*
Y9809D01*
X19298Y10476D01*
Y10642D01*
X196791Y79683D02*
X195792D01*
Y79183D01*
X195958Y79017D01*
X196292D01*
X196458Y79183D01*
Y79683D01*
Y79350D02*
X196791Y79017D01*
Y78683D02*
Y78350D01*
Y78517D01*
X195792D01*
X195958Y78683D01*
X196791Y77350D02*
X195792D01*
X196292Y77850D01*
Y77184D01*
X195792Y76184D02*
X195958Y76517D01*
X196292Y76851D01*
X196625D01*
X196791Y76684D01*
Y76351D01*
X196625Y76184D01*
X196458D01*
X196292Y76351D01*
Y76851D01*
X163421Y75867D02*
X162421D01*
Y75367D01*
X162588Y75201D01*
X162921D01*
X163088Y75367D01*
Y75867D01*
Y75534D02*
X163421Y75201D01*
Y74867D02*
Y74534D01*
Y74701D01*
X162421D01*
X162588Y74867D01*
X163421Y73534D02*
X162421D01*
X162921Y74034D01*
Y73368D01*
X162421Y72368D02*
Y73035D01*
X162921D01*
X162755Y72701D01*
Y72535D01*
X162921Y72368D01*
X163254D01*
X163421Y72535D01*
Y72868D01*
X163254Y73035D01*
X11478Y7991D02*
X10478D01*
Y7491D01*
X10645Y7325D01*
X10978D01*
X11144Y7491D01*
Y7991D01*
Y7658D02*
X11478Y7325D01*
Y6992D02*
Y6658D01*
Y6825D01*
X10478D01*
X10645Y6992D01*
X11478Y5659D02*
X10478D01*
X10978Y6158D01*
Y5492D01*
X11478Y4659D02*
X10478D01*
X10978Y5159D01*
Y4492D01*
X204553Y73750D02*
X203553D01*
Y73250D01*
X203720Y73084D01*
X204053D01*
X204220Y73250D01*
Y73750D01*
Y73417D02*
X204553Y73084D01*
Y72751D02*
Y72417D01*
Y72584D01*
X203553D01*
X203720Y72751D01*
X204553Y71418D02*
X203553D01*
X204053Y71917D01*
Y71251D01*
X203720Y70918D02*
X203553Y70751D01*
Y70418D01*
X203720Y70251D01*
X203887D01*
X204053Y70418D01*
Y70585D01*
Y70418D01*
X204220Y70251D01*
X204386D01*
X204553Y70418D01*
Y70751D01*
X204386Y70918D01*
X172355Y77776D02*
X171355D01*
Y77277D01*
X171521Y77110D01*
X171855D01*
X172021Y77277D01*
Y77776D01*
Y77443D02*
X172355Y77110D01*
Y76777D02*
Y76444D01*
Y76610D01*
X171355D01*
X171521Y76777D01*
X172355Y75444D02*
X171355D01*
X171855Y75944D01*
Y75277D01*
X172355Y74278D02*
Y74944D01*
X171688Y74278D01*
X171521D01*
X171355Y74444D01*
Y74777D01*
X171521Y74944D01*
X18473Y13936D02*
Y14936D01*
X17973D01*
X17807Y14769D01*
Y14436D01*
X17973Y14270D01*
X18473D01*
X18140D02*
X17807Y13936D01*
X17473D02*
X17140D01*
X17307D01*
Y14936D01*
X17473Y14769D01*
X16140Y13936D02*
Y14936D01*
X16640Y14436D01*
X15974D01*
X15641Y13936D02*
X15307D01*
X15474D01*
Y14936D01*
X15641Y14769D01*
X190522Y53247D02*
Y54247D01*
X190022D01*
X189855Y54080D01*
Y53747D01*
X190022Y53581D01*
X190522D01*
X190188D02*
X189855Y53247D01*
X189522D02*
X189189D01*
X189355D01*
Y54247D01*
X189522Y54080D01*
X188189Y53247D02*
Y54247D01*
X188689Y53747D01*
X188022D01*
X187689Y54080D02*
X187523Y54247D01*
X187189D01*
X187023Y54080D01*
Y53414D01*
X187189Y53247D01*
X187523D01*
X187689Y53414D01*
Y54080D01*
X176643Y69817D02*
Y70816D01*
X176143D01*
X175977Y70650D01*
Y70317D01*
X176143Y70150D01*
X176643D01*
X176310D02*
X175977Y69817D01*
X175644D02*
X175310D01*
X175477D01*
Y70816D01*
X175644Y70650D01*
X174811D02*
X174644Y70816D01*
X174311D01*
X174144Y70650D01*
Y70483D01*
X174311Y70317D01*
X174477D01*
X174311D01*
X174144Y70150D01*
Y69983D01*
X174311Y69817D01*
X174644D01*
X174811Y69983D01*
X173811D02*
X173644Y69817D01*
X173311D01*
X173144Y69983D01*
Y70650D01*
X173311Y70816D01*
X173644D01*
X173811Y70650D01*
Y70483D01*
X173644Y70317D01*
X173144D01*
X16196Y25351D02*
Y26351D01*
X15696D01*
X15529Y26184D01*
Y25851D01*
X15696Y25684D01*
X16196D01*
X15862D02*
X15529Y25351D01*
X15196D02*
X14863D01*
X15029D01*
Y26351D01*
X15196Y26184D01*
X14363D02*
X14196Y26351D01*
X13863D01*
X13696Y26184D01*
Y26018D01*
X13863Y25851D01*
X14030D01*
X13863D01*
X13696Y25684D01*
Y25518D01*
X13863Y25351D01*
X14196D01*
X14363Y25518D01*
X13363Y26184D02*
X13197Y26351D01*
X12863D01*
X12697Y26184D01*
Y26018D01*
X12863Y25851D01*
X12697Y25684D01*
Y25518D01*
X12863Y25351D01*
X13197D01*
X13363Y25518D01*
Y25684D01*
X13197Y25851D01*
X13363Y26018D01*
Y26184D01*
X13197Y25851D02*
X12863D01*
X185521Y58769D02*
Y59769D01*
X185022D01*
X184855Y59602D01*
Y59269D01*
X185022Y59102D01*
X185521D01*
X185188D02*
X184855Y58769D01*
X184522D02*
X184188D01*
X184355D01*
Y59769D01*
X184522Y59602D01*
X183689D02*
X183522Y59769D01*
X183189D01*
X183022Y59602D01*
Y59435D01*
X183189Y59269D01*
X183355D01*
X183189D01*
X183022Y59102D01*
Y58936D01*
X183189Y58769D01*
X183522D01*
X183689Y58936D01*
X182689Y59769D02*
X182023D01*
Y59602D01*
X182689Y58936D01*
Y58769D01*
X151791Y58673D02*
Y59672D01*
X151291D01*
X151125Y59506D01*
Y59172D01*
X151291Y59006D01*
X151791D01*
X151458D02*
X151125Y58673D01*
X150792D02*
X150458D01*
X150625D01*
Y59672D01*
X150792Y59506D01*
X149959D02*
X149792Y59672D01*
X149459D01*
X149292Y59506D01*
Y59339D01*
X149459Y59172D01*
X149625D01*
X149459D01*
X149292Y59006D01*
Y58839D01*
X149459Y58673D01*
X149792D01*
X149959Y58839D01*
X148292Y59672D02*
X148626Y59506D01*
X148959Y59172D01*
Y58839D01*
X148792Y58673D01*
X148459D01*
X148292Y58839D01*
Y59006D01*
X148459Y59172D01*
X148959D01*
X5303Y25225D02*
Y26224D01*
X4803D01*
X4636Y26058D01*
Y25725D01*
X4803Y25558D01*
X5303D01*
X4969D02*
X4636Y25225D01*
X4303D02*
X3970D01*
X4136D01*
Y26224D01*
X4303Y26058D01*
X3470D02*
X3303Y26224D01*
X2970D01*
X2803Y26058D01*
Y25891D01*
X2970Y25725D01*
X3137D01*
X2970D01*
X2803Y25558D01*
Y25391D01*
X2970Y25225D01*
X3303D01*
X3470Y25391D01*
X1804Y26224D02*
X2470D01*
Y25725D01*
X2137Y25891D01*
X1970D01*
X1804Y25725D01*
Y25391D01*
X1970Y25225D01*
X2303D01*
X2470Y25391D01*
X152203Y60652D02*
Y61652D01*
X151703D01*
X151537Y61485D01*
Y61152D01*
X151703Y60986D01*
X152203D01*
X151870D02*
X151537Y60652D01*
X151203D02*
X150870D01*
X151037D01*
Y61652D01*
X151203Y61485D01*
X150370D02*
X150204Y61652D01*
X149870D01*
X149704Y61485D01*
Y61319D01*
X149870Y61152D01*
X150037D01*
X149870D01*
X149704Y60986D01*
Y60819D01*
X149870Y60652D01*
X150204D01*
X150370Y60819D01*
X148871Y60652D02*
Y61652D01*
X149371Y61152D01*
X148704D01*
X185892Y60629D02*
Y61628D01*
X185392D01*
X185225Y61462D01*
Y61129D01*
X185392Y60962D01*
X185892D01*
X185559D02*
X185225Y60629D01*
X184892D02*
X184559D01*
X184725D01*
Y61628D01*
X184892Y61462D01*
X184059D02*
X183892Y61628D01*
X183559D01*
X183393Y61462D01*
Y61295D01*
X183559Y61129D01*
X183726D01*
X183559D01*
X183393Y60962D01*
Y60795D01*
X183559Y60629D01*
X183892D01*
X184059Y60795D01*
X183059Y61462D02*
X182893Y61628D01*
X182560D01*
X182393Y61462D01*
Y61295D01*
X182560Y61129D01*
X182726D01*
X182560D01*
X182393Y60962D01*
Y60795D01*
X182560Y60629D01*
X182893D01*
X183059Y60795D01*
X12631Y16030D02*
Y17029D01*
X12131D01*
X11965Y16863D01*
Y16530D01*
X12131Y16363D01*
X12631D01*
X12298D02*
X11965Y16030D01*
X11632D02*
X11298D01*
X11465D01*
Y17029D01*
X11632Y16863D01*
X10799D02*
X10632Y17029D01*
X10299D01*
X10132Y16863D01*
Y16696D01*
X10299Y16530D01*
X10465D01*
X10299D01*
X10132Y16363D01*
Y16196D01*
X10299Y16030D01*
X10632D01*
X10799Y16196D01*
X9132Y16030D02*
X9799D01*
X9132Y16696D01*
Y16863D01*
X9299Y17029D01*
X9632D01*
X9799Y16863D01*
X7879Y13094D02*
Y14094D01*
X7380D01*
X7213Y13927D01*
Y13594D01*
X7380Y13427D01*
X7879D01*
X7546D02*
X7213Y13094D01*
X6880D02*
X6547D01*
X6713D01*
Y14094D01*
X6880Y13927D01*
X6047D02*
X5880Y14094D01*
X5547D01*
X5380Y13927D01*
Y13761D01*
X5547Y13594D01*
X5713D01*
X5547D01*
X5380Y13427D01*
Y13261D01*
X5547Y13094D01*
X5880D01*
X6047Y13261D01*
X5047Y13094D02*
X4714D01*
X4880D01*
Y14094D01*
X5047Y13927D01*
X193241Y69874D02*
Y70873D01*
X192741D01*
X192574Y70707D01*
Y70374D01*
X192741Y70207D01*
X193241D01*
X192908D02*
X192574Y69874D01*
X192241D02*
X191908D01*
X192075D01*
Y70873D01*
X192241Y70707D01*
X191408D02*
X191242Y70873D01*
X190908D01*
X190742Y70707D01*
Y70540D01*
X190908Y70374D01*
X191075D01*
X190908D01*
X190742Y70207D01*
Y70040D01*
X190908Y69874D01*
X191242D01*
X191408Y70040D01*
X190408Y70707D02*
X190242Y70873D01*
X189909D01*
X189742Y70707D01*
Y70040D01*
X189909Y69874D01*
X190242D01*
X190408Y70040D01*
Y70707D01*
X159051Y70000D02*
Y71000D01*
X158551D01*
X158384Y70833D01*
Y70500D01*
X158551Y70333D01*
X159051D01*
X158717D02*
X158384Y70000D01*
X158051D02*
X157718D01*
X157884D01*
Y71000D01*
X158051Y70833D01*
X156551Y70000D02*
X157218D01*
X156551Y70666D01*
Y70833D01*
X156718Y71000D01*
X157051D01*
X157218Y70833D01*
X156218Y70167D02*
X156052Y70000D01*
X155718D01*
X155552Y70167D01*
Y70833D01*
X155718Y71000D01*
X156052D01*
X156218Y70833D01*
Y70666D01*
X156052Y70500D01*
X155552D01*
X186076Y75999D02*
X185077D01*
Y75499D01*
X185243Y75333D01*
X185576D01*
X185743Y75499D01*
Y75999D01*
Y75666D02*
X186076Y75333D01*
Y75000D02*
Y74666D01*
Y74833D01*
X185077D01*
X185243Y75000D01*
X186076Y73500D02*
Y74166D01*
X185410Y73500D01*
X185243D01*
X185077Y73667D01*
Y74000D01*
X185243Y74166D01*
Y73167D02*
X185077Y73000D01*
Y72667D01*
X185243Y72500D01*
X185410D01*
X185576Y72667D01*
X185743Y72500D01*
X185910D01*
X186076Y72667D01*
Y73000D01*
X185910Y73167D01*
X185743D01*
X185576Y73000D01*
X185410Y73167D01*
X185243D01*
X185576Y73000D02*
Y72667D01*
X152547Y75800D02*
X151548D01*
Y75300D01*
X151714Y75133D01*
X152047D01*
X152214Y75300D01*
Y75800D01*
Y75467D02*
X152547Y75133D01*
Y74800D02*
Y74467D01*
Y74634D01*
X151548D01*
X151714Y74800D01*
X152547Y73301D02*
Y73967D01*
X151881Y73301D01*
X151714D01*
X151548Y73467D01*
Y73801D01*
X151714Y73967D01*
X151548Y72967D02*
Y72301D01*
X151714D01*
X152381Y72967D01*
X152547D01*
X1223Y9450D02*
X2222D01*
Y9949D01*
X2056Y10116D01*
X1722D01*
X1556Y9949D01*
Y9450D01*
Y9783D02*
X1223Y10116D01*
Y10449D02*
Y10782D01*
Y10616D01*
X2222D01*
X2056Y10449D01*
X1223Y11949D02*
Y11282D01*
X1889Y11949D01*
X2056D01*
X2222Y11782D01*
Y11449D01*
X2056Y11282D01*
X2222Y12948D02*
X2056Y12615D01*
X1722Y12282D01*
X1389D01*
X1223Y12449D01*
Y12782D01*
X1389Y12948D01*
X1556D01*
X1722Y12782D01*
Y12282D01*
X194911Y77767D02*
X193911D01*
Y77267D01*
X194078Y77100D01*
X194411D01*
X194578Y77267D01*
Y77767D01*
Y77433D02*
X194911Y77100D01*
Y76767D02*
Y76434D01*
Y76600D01*
X193911D01*
X194078Y76767D01*
X194911Y75267D02*
Y75934D01*
X194245Y75267D01*
X194078D01*
X193911Y75434D01*
Y75767D01*
X194078Y75934D01*
X193911Y74268D02*
Y74934D01*
X194411D01*
X194245Y74601D01*
Y74434D01*
X194411Y74268D01*
X194744D01*
X194911Y74434D01*
Y74768D01*
X194744Y74934D01*
X161480Y77781D02*
X160480D01*
Y77281D01*
X160647Y77115D01*
X160980D01*
X161147Y77281D01*
Y77781D01*
Y77448D02*
X161480Y77115D01*
Y76781D02*
Y76448D01*
Y76615D01*
X160480D01*
X160647Y76781D01*
X161480Y75282D02*
Y75948D01*
X160814Y75282D01*
X160647D01*
X160480Y75448D01*
Y75782D01*
X160647Y75948D01*
X161480Y74449D02*
X160480D01*
X160980Y74949D01*
Y74282D01*
X2350Y17814D02*
X1351D01*
Y17314D01*
X1517Y17147D01*
X1850D01*
X2017Y17314D01*
Y17814D01*
Y17480D02*
X2350Y17147D01*
Y16814D02*
Y16481D01*
Y16647D01*
X1351D01*
X1517Y16814D01*
X2350Y15314D02*
Y15981D01*
X1684Y15314D01*
X1517D01*
X1351Y15481D01*
Y15814D01*
X1517Y15981D01*
Y14981D02*
X1351Y14815D01*
Y14481D01*
X1517Y14315D01*
X1684D01*
X1850Y14481D01*
Y14648D01*
Y14481D01*
X2017Y14315D01*
X2184D01*
X2350Y14481D01*
Y14815D01*
X2184Y14981D01*
X200623Y67155D02*
Y68155D01*
X200123D01*
X199956Y67988D01*
Y67655D01*
X200123Y67488D01*
X200623D01*
X200290D02*
X199956Y67155D01*
X199623D02*
X199290D01*
X199456D01*
Y68155D01*
X199623Y67988D01*
X198124Y67155D02*
X198790D01*
X198124Y67822D01*
Y67988D01*
X198290Y68155D01*
X198623D01*
X198790Y67988D01*
X197124Y67155D02*
X197790D01*
X197124Y67822D01*
Y67988D01*
X197291Y68155D01*
X197624D01*
X197790Y67988D01*
X165433Y70070D02*
Y71070D01*
X164933D01*
X164767Y70903D01*
Y70570D01*
X164933Y70403D01*
X165433D01*
X165100D02*
X164767Y70070D01*
X164434D02*
X164100D01*
X164267D01*
Y71070D01*
X164434Y70903D01*
X162934Y70070D02*
X163601D01*
X162934Y70736D01*
Y70903D01*
X163101Y71070D01*
X163434D01*
X163601Y70903D01*
X162601Y70070D02*
X162268D01*
X162434D01*
Y71070D01*
X162601Y70903D01*
X186159Y41572D02*
Y42571D01*
X185660D01*
X185493Y42405D01*
Y42072D01*
X185660Y41905D01*
X186159D01*
X185826D02*
X185493Y41572D01*
X185160D02*
X184827D01*
X184993D01*
Y42571D01*
X185160Y42405D01*
X183660Y41572D02*
X184327D01*
X183660Y42238D01*
Y42405D01*
X183827Y42571D01*
X184160D01*
X184327Y42405D01*
X183327D02*
X183160Y42571D01*
X182827D01*
X182661Y42405D01*
Y41738D01*
X182827Y41572D01*
X183160D01*
X183327Y41738D01*
Y42405D01*
X174152Y58651D02*
Y59651D01*
X173652D01*
X173485Y59484D01*
Y59151D01*
X173652Y58984D01*
X174152D01*
X173819D02*
X173485Y58651D01*
X173152D02*
X172819D01*
X172986D01*
Y59651D01*
X173152Y59484D01*
X172319Y58651D02*
X171986D01*
X172153D01*
Y59651D01*
X172319Y59484D01*
X171486Y58818D02*
X171319Y58651D01*
X170986D01*
X170820Y58818D01*
Y59484D01*
X170986Y59651D01*
X171319D01*
X171486Y59484D01*
Y59318D01*
X171319Y59151D01*
X170820D01*
X39898Y25354D02*
Y26354D01*
X39399D01*
X39232Y26187D01*
Y25854D01*
X39399Y25687D01*
X39898D01*
X39565D02*
X39232Y25354D01*
X38899D02*
X38566D01*
X38732D01*
Y26354D01*
X38899Y26187D01*
X38066Y25354D02*
X37732D01*
X37899D01*
Y26354D01*
X38066Y26187D01*
X37233D02*
X37066Y26354D01*
X36733D01*
X36566Y26187D01*
Y26020D01*
X36733Y25854D01*
X36566Y25687D01*
Y25520D01*
X36733Y25354D01*
X37066D01*
X37233Y25520D01*
Y25687D01*
X37066Y25854D01*
X37233Y26020D01*
Y26187D01*
X37066Y25854D02*
X36733D01*
X186564Y43645D02*
Y44645D01*
X186064D01*
X185897Y44478D01*
Y44145D01*
X186064Y43979D01*
X186564D01*
X186231D02*
X185897Y43645D01*
X185564D02*
X185231D01*
X185398D01*
Y44645D01*
X185564Y44478D01*
X184731Y43645D02*
X184398D01*
X184564D01*
Y44645D01*
X184731Y44478D01*
X183898Y44645D02*
X183232D01*
Y44478D01*
X183898Y43812D01*
Y43645D01*
X174689Y60703D02*
Y61703D01*
X174189D01*
X174023Y61536D01*
Y61203D01*
X174189Y61037D01*
X174689D01*
X174356D02*
X174023Y60703D01*
X173689D02*
X173356D01*
X173523D01*
Y61703D01*
X173689Y61536D01*
X172856Y60703D02*
X172523D01*
X172690D01*
Y61703D01*
X172856Y61536D01*
X171357Y61703D02*
X171690Y61536D01*
X172023Y61203D01*
Y60870D01*
X171857Y60703D01*
X171523D01*
X171357Y60870D01*
Y61037D01*
X171523Y61203D01*
X172023D01*
X23575Y24309D02*
Y23309D01*
X24075D01*
X24242Y23476D01*
Y23809D01*
X24075Y23976D01*
X23575D01*
X23909D02*
X24242Y24309D01*
X24575D02*
X24908D01*
X24742D01*
Y23309D01*
X24575Y23476D01*
X25408Y24309D02*
X25741D01*
X25575D01*
Y23309D01*
X25408Y23476D01*
X26908Y23309D02*
X26241D01*
Y23809D01*
X26574Y23643D01*
X26741D01*
X26908Y23809D01*
Y24142D01*
X26741Y24309D01*
X26408D01*
X26241Y24142D01*
X181721Y69839D02*
Y70839D01*
X181221D01*
X181054Y70672D01*
Y70339D01*
X181221Y70172D01*
X181721D01*
X181388D02*
X181054Y69839D01*
X180721D02*
X180388D01*
X180555D01*
Y70839D01*
X180721Y70672D01*
X179888Y69839D02*
X179555D01*
X179722D01*
Y70839D01*
X179888Y70672D01*
X179055D02*
X178888Y70839D01*
X178555D01*
X178389Y70672D01*
Y70506D01*
X178555Y70339D01*
X178722D01*
X178555D01*
X178389Y70172D01*
Y70006D01*
X178555Y69839D01*
X178888D01*
X179055Y70006D01*
X32402Y17605D02*
Y18605D01*
X31902D01*
X31735Y18438D01*
Y18105D01*
X31902Y17938D01*
X32402D01*
X32069D02*
X31735Y17605D01*
X31402D02*
X31069D01*
X31235D01*
Y18605D01*
X31402Y18438D01*
X30569Y17605D02*
X30236D01*
X30402D01*
Y18605D01*
X30569Y18438D01*
X29070Y17605D02*
X29736D01*
X29070Y18272D01*
Y18438D01*
X29236Y18605D01*
X29569D01*
X29736Y18438D01*
X188836Y55564D02*
Y56564D01*
X188336D01*
X188169Y56397D01*
Y56064D01*
X188336Y55897D01*
X188836D01*
X188503D02*
X188169Y55564D01*
X187836D02*
X187503D01*
X187669D01*
Y56564D01*
X187836Y56397D01*
X187003Y55564D02*
X186670D01*
X186836D01*
Y56564D01*
X187003Y56397D01*
X186170Y55564D02*
X185837D01*
X186003D01*
Y56564D01*
X186170Y56397D01*
X174601Y75708D02*
X173601D01*
Y75208D01*
X173768Y75042D01*
X174101D01*
X174268Y75208D01*
Y75708D01*
Y75375D02*
X174601Y75042D01*
Y74708D02*
Y74375D01*
Y74542D01*
X173601D01*
X173768Y74708D01*
X174601Y73875D02*
Y73542D01*
Y73709D01*
X173601D01*
X173768Y73875D01*
Y73042D02*
X173601Y72876D01*
Y72542D01*
X173768Y72376D01*
X174434D01*
X174601Y72542D01*
Y72876D01*
X174434Y73042D01*
X173768D01*
X34654Y12986D02*
Y13986D01*
X34154D01*
X33987Y13819D01*
Y13486D01*
X34154Y13320D01*
X34654D01*
X34321D02*
X33987Y12986D01*
X33654D02*
X33321D01*
X33488D01*
Y13986D01*
X33654Y13819D01*
X32821D02*
X32655Y13986D01*
X32321D01*
X32155Y13819D01*
Y13153D01*
X32321Y12986D01*
X32655D01*
X32821Y13153D01*
Y13819D01*
X31822Y13153D02*
X31655Y12986D01*
X31322D01*
X31155Y13153D01*
Y13819D01*
X31322Y13986D01*
X31655D01*
X31822Y13819D01*
Y13653D01*
X31655Y13486D01*
X31155D01*
X183561Y77451D02*
X182562D01*
Y76952D01*
X182728Y76785D01*
X183062D01*
X183228Y76952D01*
Y77451D01*
Y77118D02*
X183561Y76785D01*
Y76452D02*
Y76118D01*
Y76285D01*
X182562D01*
X182728Y76452D01*
Y75619D02*
X182562Y75452D01*
Y75119D01*
X182728Y74952D01*
X183395D01*
X183561Y75119D01*
Y75452D01*
X183395Y75619D01*
X182728D01*
X182562Y74619D02*
Y73952D01*
X182728D01*
X183395Y74619D01*
X183561D01*
X22346Y10914D02*
X21346D01*
Y10414D01*
X21512Y10248D01*
X21846D01*
X22012Y10414D01*
Y10914D01*
Y10581D02*
X22346Y10248D01*
Y9915D02*
Y9581D01*
Y9748D01*
X21346D01*
X21512Y9915D01*
Y9082D02*
X21346Y8915D01*
Y8582D01*
X21512Y8415D01*
X22179D01*
X22346Y8582D01*
Y8915D01*
X22179Y9082D01*
X21512D01*
X21346Y7415D02*
X21512Y7749D01*
X21846Y8082D01*
X22179D01*
X22346Y7915D01*
Y7582D01*
X22179Y7415D01*
X22012D01*
X21846Y7582D01*
Y8082D01*
X188457Y69727D02*
Y70726D01*
X187957D01*
X187790Y70560D01*
Y70226D01*
X187957Y70060D01*
X188457D01*
X188123D02*
X187790Y69727D01*
X187457D02*
X187124D01*
X187290D01*
Y70726D01*
X187457Y70560D01*
X186624D02*
X186457Y70726D01*
X186124D01*
X185957Y70560D01*
Y69893D01*
X186124Y69727D01*
X186457D01*
X186624Y69893D01*
Y70560D01*
X185124Y69727D02*
Y70726D01*
X185624Y70226D01*
X184958D01*
X30366Y14041D02*
Y15041D01*
X29866D01*
X29700Y14874D01*
Y14541D01*
X29866Y14374D01*
X30366D01*
X30033D02*
X29700Y14041D01*
X29367D02*
X29033D01*
X29200D01*
Y15041D01*
X29367Y14874D01*
X28533D02*
X28367Y15041D01*
X28034D01*
X27867Y14874D01*
Y14208D01*
X28034Y14041D01*
X28367D01*
X28533Y14208D01*
Y14874D01*
X27534D02*
X27367Y15041D01*
X27034D01*
X26867Y14874D01*
Y14707D01*
X27034Y14541D01*
X27201D01*
X27034D01*
X26867Y14374D01*
Y14208D01*
X27034Y14041D01*
X27367D01*
X27534Y14208D01*
X74787Y58566D02*
Y59566D01*
X74287D01*
X74121Y59399D01*
Y59066D01*
X74287Y58900D01*
X74787D01*
X74454D02*
X74121Y58566D01*
X73787D02*
X73454D01*
X73621D01*
Y59566D01*
X73787Y59399D01*
X72954D02*
X72788Y59566D01*
X72454D01*
X72288Y59399D01*
Y58733D01*
X72454Y58566D01*
X72788D01*
X72954Y58733D01*
Y59399D01*
X71288Y58566D02*
X71955D01*
X71288Y59233D01*
Y59399D01*
X71455Y59566D01*
X71788D01*
X71955Y59399D01*
X140270Y58677D02*
Y59677D01*
X139770D01*
X139604Y59510D01*
Y59177D01*
X139770Y59010D01*
X140270D01*
X139937D02*
X139604Y58677D01*
X139271D02*
X138937D01*
X139104D01*
Y59677D01*
X139271Y59510D01*
X138438D02*
X138271Y59677D01*
X137938D01*
X137771Y59510D01*
Y58844D01*
X137938Y58677D01*
X138271D01*
X138438Y58844D01*
Y59510D01*
X137438Y58677D02*
X137105D01*
X137271D01*
Y59677D01*
X137438Y59510D01*
X107476Y58670D02*
Y59669D01*
X106976D01*
X106809Y59503D01*
Y59169D01*
X106976Y59003D01*
X107476D01*
X107143D02*
X106809Y58670D01*
X106476D02*
X106143D01*
X106309D01*
Y59669D01*
X106476Y59503D01*
X105643D02*
X105476Y59669D01*
X105143D01*
X104977Y59503D01*
Y58836D01*
X105143Y58670D01*
X105476D01*
X105643Y58836D01*
Y59503D01*
X104643D02*
X104477Y59669D01*
X104143D01*
X103977Y59503D01*
Y58836D01*
X104143Y58670D01*
X104477D01*
X104643Y58836D01*
Y59503D01*
X74738Y60668D02*
Y61668D01*
X74238D01*
X74072Y61502D01*
Y61168D01*
X74238Y61002D01*
X74738D01*
X74405D02*
X74072Y60668D01*
X73739Y60835D02*
X73572Y60668D01*
X73239D01*
X73072Y60835D01*
Y61502D01*
X73239Y61668D01*
X73572D01*
X73739Y61502D01*
Y61335D01*
X73572Y61168D01*
X73072D01*
X72739Y60835D02*
X72572Y60668D01*
X72239D01*
X72072Y60835D01*
Y61502D01*
X72239Y61668D01*
X72572D01*
X72739Y61502D01*
Y61335D01*
X72572Y61168D01*
X72072D01*
X140776Y60683D02*
Y61683D01*
X140277D01*
X140110Y61517D01*
Y61183D01*
X140277Y61017D01*
X140776D01*
X140443D02*
X140110Y60683D01*
X139777Y60850D02*
X139610Y60683D01*
X139277D01*
X139110Y60850D01*
Y61517D01*
X139277Y61683D01*
X139610D01*
X139777Y61517D01*
Y61350D01*
X139610Y61183D01*
X139110D01*
X138777Y61517D02*
X138611Y61683D01*
X138277D01*
X138111Y61517D01*
Y61350D01*
X138277Y61183D01*
X138111Y61017D01*
Y60850D01*
X138277Y60683D01*
X138611D01*
X138777Y60850D01*
Y61017D01*
X138611Y61183D01*
X138777Y61350D01*
Y61517D01*
X138611Y61183D02*
X138277D01*
X107413Y60749D02*
Y61748D01*
X106913D01*
X106746Y61582D01*
Y61248D01*
X106913Y61082D01*
X107413D01*
X107080D02*
X106746Y60749D01*
X106413Y60915D02*
X106247Y60749D01*
X105913D01*
X105747Y60915D01*
Y61582D01*
X105913Y61748D01*
X106247D01*
X106413Y61582D01*
Y61415D01*
X106247Y61248D01*
X105747D01*
X105414Y61748D02*
X104747D01*
Y61582D01*
X105414Y60915D01*
Y60749D01*
X147498Y69850D02*
Y70850D01*
X146998D01*
X146832Y70683D01*
Y70350D01*
X146998Y70183D01*
X147498D01*
X147165D02*
X146832Y69850D01*
X146498Y70017D02*
X146332Y69850D01*
X145999D01*
X145832Y70017D01*
Y70683D01*
X145999Y70850D01*
X146332D01*
X146498Y70683D01*
Y70516D01*
X146332Y70350D01*
X145832D01*
X144832Y70850D02*
X145165Y70683D01*
X145499Y70350D01*
Y70017D01*
X145332Y69850D01*
X144999D01*
X144832Y70017D01*
Y70183D01*
X144999Y70350D01*
X145499D01*
X114500Y69996D02*
Y70995D01*
X114000D01*
X113833Y70829D01*
Y70495D01*
X114000Y70329D01*
X114500D01*
X114166D02*
X113833Y69996D01*
X113500Y70162D02*
X113333Y69996D01*
X113000D01*
X112833Y70162D01*
Y70829D01*
X113000Y70995D01*
X113333D01*
X113500Y70829D01*
Y70662D01*
X113333Y70495D01*
X112833D01*
X111834Y70995D02*
X112500D01*
Y70495D01*
X112167Y70662D01*
X112000D01*
X111834Y70495D01*
Y70162D01*
X112000Y69996D01*
X112334D01*
X112500Y70162D01*
X81996Y69743D02*
Y70743D01*
X81496D01*
X81330Y70576D01*
Y70243D01*
X81496Y70076D01*
X81996D01*
X81663D02*
X81330Y69743D01*
X80997Y69910D02*
X80830Y69743D01*
X80497D01*
X80330Y69910D01*
Y70576D01*
X80497Y70743D01*
X80830D01*
X80997Y70576D01*
Y70410D01*
X80830Y70243D01*
X80330D01*
X79497Y69743D02*
Y70743D01*
X79997Y70243D01*
X79330D01*
X141512Y75240D02*
X140512D01*
Y74740D01*
X140679Y74573D01*
X141012D01*
X141178Y74740D01*
Y75240D01*
Y74906D02*
X141512Y74573D01*
X141345Y74240D02*
X141512Y74073D01*
Y73740D01*
X141345Y73573D01*
X140679D01*
X140512Y73740D01*
Y74073D01*
X140679Y74240D01*
X140845D01*
X141012Y74073D01*
Y73573D01*
X140679Y73240D02*
X140512Y73074D01*
Y72740D01*
X140679Y72574D01*
X140845D01*
X141012Y72740D01*
Y72907D01*
Y72740D01*
X141178Y72574D01*
X141345D01*
X141512Y72740D01*
Y73074D01*
X141345Y73240D01*
X108634Y75076D02*
X107635D01*
Y74576D01*
X107801Y74410D01*
X108135D01*
X108301Y74576D01*
Y75076D01*
Y74743D02*
X108634Y74410D01*
X108468Y74077D02*
X108634Y73910D01*
Y73577D01*
X108468Y73410D01*
X107801D01*
X107635Y73577D01*
Y73910D01*
X107801Y74077D01*
X107968D01*
X108135Y73910D01*
Y73410D01*
X108634Y72410D02*
Y73077D01*
X107968Y72410D01*
X107801D01*
X107635Y72577D01*
Y72910D01*
X107801Y73077D01*
X76487Y74711D02*
X75487D01*
Y74211D01*
X75654Y74045D01*
X75987D01*
X76154Y74211D01*
Y74711D01*
Y74378D02*
X76487Y74045D01*
X76320Y73712D02*
X76487Y73545D01*
Y73212D01*
X76320Y73045D01*
X75654D01*
X75487Y73212D01*
Y73545D01*
X75654Y73712D01*
X75820D01*
X75987Y73545D01*
Y73045D01*
X76487Y72712D02*
Y72379D01*
Y72545D01*
X75487D01*
X75654Y72712D01*
X150391Y77245D02*
X149392D01*
Y76745D01*
X149558Y76579D01*
X149892D01*
X150058Y76745D01*
Y77245D01*
Y76912D02*
X150391Y76579D01*
X150225Y76245D02*
X150391Y76079D01*
Y75746D01*
X150225Y75579D01*
X149558D01*
X149392Y75746D01*
Y76079D01*
X149558Y76245D01*
X149725D01*
X149892Y76079D01*
Y75579D01*
X149558Y75246D02*
X149392Y75079D01*
Y74746D01*
X149558Y74579D01*
X150225D01*
X150391Y74746D01*
Y75079D01*
X150225Y75246D01*
X149558D01*
X116994Y77236D02*
X115994D01*
Y76736D01*
X116161Y76570D01*
X116494D01*
X116661Y76736D01*
Y77236D01*
Y76903D02*
X116994Y76570D01*
X116161Y76237D02*
X115994Y76070D01*
Y75737D01*
X116161Y75570D01*
X116327D01*
X116494Y75737D01*
X116661Y75570D01*
X116827D01*
X116994Y75737D01*
Y76070D01*
X116827Y76237D01*
X116661D01*
X116494Y76070D01*
X116327Y76237D01*
X116161D01*
X116494Y76070D02*
Y75737D01*
X116827Y75237D02*
X116994Y75070D01*
Y74737D01*
X116827Y74570D01*
X116161D01*
X115994Y74737D01*
Y75070D01*
X116161Y75237D01*
X116327D01*
X116494Y75070D01*
Y74570D01*
X84141Y77369D02*
X83141D01*
Y76869D01*
X83308Y76703D01*
X83641D01*
X83808Y76869D01*
Y77369D01*
Y77036D02*
X84141Y76703D01*
X83308Y76370D02*
X83141Y76203D01*
Y75870D01*
X83308Y75703D01*
X83475D01*
X83641Y75870D01*
X83808Y75703D01*
X83974D01*
X84141Y75870D01*
Y76203D01*
X83974Y76370D01*
X83808D01*
X83641Y76203D01*
X83475Y76370D01*
X83308D01*
X83641Y76203D02*
Y75870D01*
X83308Y75370D02*
X83141Y75203D01*
Y74870D01*
X83308Y74703D01*
X83475D01*
X83641Y74870D01*
X83808Y74703D01*
X83974D01*
X84141Y74870D01*
Y75203D01*
X83974Y75370D01*
X83808D01*
X83641Y75203D01*
X83475Y75370D01*
X83308D01*
X83641Y75203D02*
Y74870D01*
X153758Y69777D02*
Y70777D01*
X153258D01*
X153091Y70610D01*
Y70277D01*
X153258Y70110D01*
X153758D01*
X153424D02*
X153091Y69777D01*
X152758Y70610D02*
X152591Y70777D01*
X152258D01*
X152092Y70610D01*
Y70443D01*
X152258Y70277D01*
X152092Y70110D01*
Y69944D01*
X152258Y69777D01*
X152591D01*
X152758Y69944D01*
Y70110D01*
X152591Y70277D01*
X152758Y70443D01*
Y70610D01*
X152591Y70277D02*
X152258D01*
X151758Y70777D02*
X151092D01*
Y70610D01*
X151758Y69944D01*
Y69777D01*
X120507Y69971D02*
Y70971D01*
X120007D01*
X119841Y70804D01*
Y70471D01*
X120007Y70304D01*
X120507D01*
X120174D02*
X119841Y69971D01*
X119507Y70804D02*
X119341Y70971D01*
X119008D01*
X118841Y70804D01*
Y70638D01*
X119008Y70471D01*
X118841Y70304D01*
Y70138D01*
X119008Y69971D01*
X119341D01*
X119507Y70138D01*
Y70304D01*
X119341Y70471D01*
X119507Y70638D01*
Y70804D01*
X119341Y70471D02*
X119008D01*
X117841Y70971D02*
X118175Y70804D01*
X118508Y70471D01*
Y70138D01*
X118341Y69971D01*
X118008D01*
X117841Y70138D01*
Y70304D01*
X118008Y70471D01*
X118508D01*
X87461Y69936D02*
Y70936D01*
X86961D01*
X86794Y70769D01*
Y70436D01*
X86961Y70269D01*
X87461D01*
X87128D02*
X86794Y69936D01*
X86461Y70769D02*
X86295Y70936D01*
X85961D01*
X85795Y70769D01*
Y70602D01*
X85961Y70436D01*
X85795Y70269D01*
Y70102D01*
X85961Y69936D01*
X86295D01*
X86461Y70102D01*
Y70269D01*
X86295Y70436D01*
X86461Y70602D01*
Y70769D01*
X86295Y70436D02*
X85961D01*
X84795Y70936D02*
X85462D01*
Y70436D01*
X85128Y70602D01*
X84962D01*
X84795Y70436D01*
Y70102D01*
X84962Y69936D01*
X85295D01*
X85462Y70102D01*
X129568Y58655D02*
Y59655D01*
X129068D01*
X128901Y59488D01*
Y59155D01*
X129068Y58988D01*
X129568D01*
X129234D02*
X128901Y58655D01*
X128568Y59488D02*
X128401Y59655D01*
X128068D01*
X127902Y59488D01*
Y59321D01*
X128068Y59155D01*
X127902Y58988D01*
Y58822D01*
X128068Y58655D01*
X128401D01*
X128568Y58822D01*
Y58988D01*
X128401Y59155D01*
X128568Y59321D01*
Y59488D01*
X128401Y59155D02*
X128068D01*
X127068Y58655D02*
Y59655D01*
X127568Y59155D01*
X126902D01*
X96572Y58631D02*
Y59631D01*
X96072D01*
X95906Y59464D01*
Y59131D01*
X96072Y58964D01*
X96572D01*
X96239D02*
X95906Y58631D01*
X95572Y59464D02*
X95406Y59631D01*
X95072D01*
X94906Y59464D01*
Y59298D01*
X95072Y59131D01*
X94906Y58964D01*
Y58798D01*
X95072Y58631D01*
X95406D01*
X95572Y58798D01*
Y58964D01*
X95406Y59131D01*
X95572Y59298D01*
Y59464D01*
X95406Y59131D02*
X95072D01*
X94573Y59464D02*
X94406Y59631D01*
X94073D01*
X93906Y59464D01*
Y59298D01*
X94073Y59131D01*
X94239D01*
X94073D01*
X93906Y58964D01*
Y58798D01*
X94073Y58631D01*
X94406D01*
X94573Y58798D01*
X64084Y58655D02*
Y59655D01*
X63585D01*
X63418Y59488D01*
Y59155D01*
X63585Y58988D01*
X64084D01*
X63751D02*
X63418Y58655D01*
X63085Y59488D02*
X62918Y59655D01*
X62585D01*
X62418Y59488D01*
Y59322D01*
X62585Y59155D01*
X62418Y58988D01*
Y58822D01*
X62585Y58655D01*
X62918D01*
X63085Y58822D01*
Y58988D01*
X62918Y59155D01*
X63085Y59322D01*
Y59488D01*
X62918Y59155D02*
X62585D01*
X61419Y58655D02*
X62085D01*
X61419Y59322D01*
Y59488D01*
X61585Y59655D01*
X61918D01*
X62085Y59488D01*
X129613Y60620D02*
Y61620D01*
X129113D01*
X128947Y61453D01*
Y61120D01*
X129113Y60953D01*
X129613D01*
X129280D02*
X128947Y60620D01*
X128613Y61453D02*
X128447Y61620D01*
X128113D01*
X127947Y61453D01*
Y61286D01*
X128113Y61120D01*
X127947Y60953D01*
Y60787D01*
X128113Y60620D01*
X128447D01*
X128613Y60787D01*
Y60953D01*
X128447Y61120D01*
X128613Y61286D01*
Y61453D01*
X128447Y61120D02*
X128113D01*
X127614Y60620D02*
X127280D01*
X127447D01*
Y61620D01*
X127614Y61453D01*
X96598Y60670D02*
Y61669D01*
X96098D01*
X95931Y61503D01*
Y61170D01*
X96098Y61003D01*
X96598D01*
X96265D02*
X95931Y60670D01*
X95598Y61503D02*
X95432Y61669D01*
X95098D01*
X94932Y61503D01*
Y61336D01*
X95098Y61170D01*
X94932Y61003D01*
Y60836D01*
X95098Y60670D01*
X95432D01*
X95598Y60836D01*
Y61003D01*
X95432Y61170D01*
X95598Y61336D01*
Y61503D01*
X95432Y61170D02*
X95098D01*
X94598Y61503D02*
X94432Y61669D01*
X94099D01*
X93932Y61503D01*
Y60836D01*
X94099Y60670D01*
X94432D01*
X94598Y60836D01*
Y61503D01*
X65056Y60660D02*
Y61660D01*
X64556D01*
X64390Y61493D01*
Y61160D01*
X64556Y60993D01*
X65056D01*
X64723D02*
X64390Y60660D01*
X64057Y61660D02*
X63390D01*
Y61493D01*
X64057Y60826D01*
Y60660D01*
X63057Y60826D02*
X62890Y60660D01*
X62557D01*
X62391Y60826D01*
Y61493D01*
X62557Y61660D01*
X62890D01*
X63057Y61493D01*
Y61326D01*
X62890Y61160D01*
X62391D01*
X136590Y69837D02*
Y70837D01*
X136090D01*
X135923Y70670D01*
Y70337D01*
X136090Y70171D01*
X136590D01*
X136257D02*
X135923Y69837D01*
X135590Y70837D02*
X134924D01*
Y70670D01*
X135590Y70004D01*
Y69837D01*
X134590Y70670D02*
X134424Y70837D01*
X134091D01*
X133924Y70670D01*
Y70504D01*
X134091Y70337D01*
X133924Y70171D01*
Y70004D01*
X134091Y69837D01*
X134424D01*
X134590Y70004D01*
Y70171D01*
X134424Y70337D01*
X134590Y70504D01*
Y70670D01*
X134424Y70337D02*
X134091D01*
X130561Y74884D02*
X129562D01*
Y74384D01*
X129728Y74217D01*
X130062D01*
X130228Y74384D01*
Y74884D01*
Y74550D02*
X130561Y74217D01*
X129562Y73884D02*
Y73217D01*
X129728D01*
X130395Y73884D01*
X130561D01*
X129562Y72884D02*
Y72218D01*
X129728D01*
X130395Y72884D01*
X130561D01*
X103751Y69793D02*
Y70793D01*
X103251D01*
X103084Y70626D01*
Y70293D01*
X103251Y70126D01*
X103751D01*
X103418D02*
X103084Y69793D01*
X102751Y70793D02*
X102085D01*
Y70626D01*
X102751Y69960D01*
Y69793D01*
X101085Y70793D02*
X101418Y70626D01*
X101751Y70293D01*
Y69960D01*
X101585Y69793D01*
X101252D01*
X101085Y69960D01*
Y70126D01*
X101252Y70293D01*
X101751D01*
X72069Y69766D02*
Y70765D01*
X71569D01*
X71402Y70599D01*
Y70266D01*
X71569Y70099D01*
X72069D01*
X71735D02*
X71402Y69766D01*
X71069Y70765D02*
X70402D01*
Y70599D01*
X71069Y69932D01*
Y69766D01*
X69403Y70765D02*
X70069D01*
Y70266D01*
X69736Y70432D01*
X69569D01*
X69403Y70266D01*
Y69932D01*
X69569Y69766D01*
X69903D01*
X70069Y69932D01*
X97773Y75013D02*
X96773D01*
Y74513D01*
X96940Y74346D01*
X97273D01*
X97439Y74513D01*
Y75013D01*
Y74680D02*
X97773Y74346D01*
X96773Y74013D02*
Y73347D01*
X96940D01*
X97606Y74013D01*
X97773D01*
Y72514D02*
X96773D01*
X97273Y73014D01*
Y72347D01*
X67008Y75231D02*
X66009D01*
Y74731D01*
X66175Y74565D01*
X66509D01*
X66675Y74731D01*
Y75231D01*
Y74898D02*
X67008Y74565D01*
X66009Y74232D02*
Y73565D01*
X66175D01*
X66842Y74232D01*
X67008D01*
X66175Y73232D02*
X66009Y73065D01*
Y72732D01*
X66175Y72565D01*
X66342D01*
X66509Y72732D01*
Y72899D01*
Y72732D01*
X66675Y72565D01*
X66842D01*
X67008Y72732D01*
Y73065D01*
X66842Y73232D01*
X139153Y77262D02*
X138154D01*
Y76762D01*
X138320Y76596D01*
X138654D01*
X138820Y76762D01*
Y77262D01*
Y76929D02*
X139153Y76596D01*
X138154Y76262D02*
Y75596D01*
X138320D01*
X138987Y76262D01*
X139153D01*
Y74596D02*
Y75263D01*
X138487Y74596D01*
X138320D01*
X138154Y74763D01*
Y75096D01*
X138320Y75263D01*
X106198Y76840D02*
X105199D01*
Y76340D01*
X105365Y76173D01*
X105699D01*
X105865Y76340D01*
Y76840D01*
Y76507D02*
X106198Y76173D01*
X105199Y75840D02*
Y75174D01*
X105365D01*
X106032Y75840D01*
X106198D01*
Y74840D02*
Y74507D01*
Y74674D01*
X105199D01*
X105365Y74840D01*
X74565Y77375D02*
X73565D01*
Y76876D01*
X73732Y76709D01*
X74065D01*
X74232Y76876D01*
Y77375D01*
Y77042D02*
X74565Y76709D01*
X73565Y76376D02*
Y75709D01*
X73732D01*
X74398Y76376D01*
X74565D01*
X73732Y75376D02*
X73565Y75210D01*
Y74876D01*
X73732Y74710D01*
X74398D01*
X74565Y74876D01*
Y75210D01*
X74398Y75376D01*
X73732D01*
X142588Y70047D02*
Y71047D01*
X142089D01*
X141922Y70880D01*
Y70547D01*
X142089Y70381D01*
X142588D01*
X142255D02*
X141922Y70047D01*
X140922Y71047D02*
X141256Y70880D01*
X141589Y70547D01*
Y70214D01*
X141422Y70047D01*
X141089D01*
X140922Y70214D01*
Y70381D01*
X141089Y70547D01*
X141589D01*
X140589Y70214D02*
X140422Y70047D01*
X140089D01*
X139923Y70214D01*
Y70880D01*
X140089Y71047D01*
X140422D01*
X140589Y70880D01*
Y70714D01*
X140422Y70547D01*
X139923D01*
X109796Y70031D02*
Y71030D01*
X109296D01*
X109130Y70864D01*
Y70531D01*
X109296Y70364D01*
X109796D01*
X109463D02*
X109130Y70031D01*
X108130Y71030D02*
X108463Y70864D01*
X108797Y70531D01*
Y70197D01*
X108630Y70031D01*
X108297D01*
X108130Y70197D01*
Y70364D01*
X108297Y70531D01*
X108797D01*
X107797Y70864D02*
X107630Y71030D01*
X107297D01*
X107131Y70864D01*
Y70697D01*
X107297Y70531D01*
X107131Y70364D01*
Y70197D01*
X107297Y70031D01*
X107630D01*
X107797Y70197D01*
Y70364D01*
X107630Y70531D01*
X107797Y70697D01*
Y70864D01*
X107630Y70531D02*
X107297D01*
X77365Y69645D02*
Y70645D01*
X76865D01*
X76698Y70478D01*
Y70145D01*
X76865Y69978D01*
X77365D01*
X77031D02*
X76698Y69645D01*
X75698Y70645D02*
X76032Y70478D01*
X76365Y70145D01*
Y69812D01*
X76198Y69645D01*
X75865D01*
X75698Y69812D01*
Y69978D01*
X75865Y70145D01*
X76365D01*
X75365Y70645D02*
X74699D01*
Y70478D01*
X75365Y69812D01*
Y69645D01*
X118450Y58745D02*
Y59744D01*
X117950D01*
X117783Y59578D01*
Y59244D01*
X117950Y59078D01*
X118450D01*
X118116D02*
X117783Y58745D01*
X116783Y59744D02*
X117117Y59578D01*
X117450Y59244D01*
Y58911D01*
X117283Y58745D01*
X116950D01*
X116783Y58911D01*
Y59078D01*
X116950Y59244D01*
X117450D01*
X115784Y59744D02*
X116117Y59578D01*
X116450Y59244D01*
Y58911D01*
X116284Y58745D01*
X115950D01*
X115784Y58911D01*
Y59078D01*
X115950Y59244D01*
X116450D01*
X85388Y58653D02*
Y59653D01*
X84888D01*
X84722Y59486D01*
Y59153D01*
X84888Y58987D01*
X85388D01*
X85055D02*
X84722Y58653D01*
X83722Y59653D02*
X84055Y59486D01*
X84388Y59153D01*
Y58820D01*
X84222Y58653D01*
X83889D01*
X83722Y58820D01*
Y58987D01*
X83889Y59153D01*
X84388D01*
X82722Y59653D02*
X83389D01*
Y59153D01*
X83055Y59320D01*
X82889D01*
X82722Y59153D01*
Y58820D01*
X82889Y58653D01*
X83222D01*
X83389Y58820D01*
X53874Y58655D02*
Y59655D01*
X53374D01*
X53208Y59488D01*
Y59155D01*
X53374Y58988D01*
X53874D01*
X53541D02*
X53208Y58655D01*
X52208Y59655D02*
X52541Y59488D01*
X52874Y59155D01*
Y58822D01*
X52708Y58655D01*
X52374D01*
X52208Y58822D01*
Y58988D01*
X52374Y59155D01*
X52874D01*
X51375Y58655D02*
Y59655D01*
X51875Y59155D01*
X51208D01*
X118997Y60696D02*
Y61696D01*
X118497D01*
X118330Y61529D01*
Y61196D01*
X118497Y61029D01*
X118997D01*
X118663D02*
X118330Y60696D01*
X117331Y61696D02*
X117664Y61529D01*
X117997Y61196D01*
Y60863D01*
X117830Y60696D01*
X117497D01*
X117331Y60863D01*
Y61029D01*
X117497Y61196D01*
X117997D01*
X116997Y61529D02*
X116831Y61696D01*
X116498D01*
X116331Y61529D01*
Y61362D01*
X116498Y61196D01*
X116664D01*
X116498D01*
X116331Y61029D01*
Y60863D01*
X116498Y60696D01*
X116831D01*
X116997Y60863D01*
X53719Y60644D02*
Y61643D01*
X53219D01*
X53052Y61477D01*
Y61143D01*
X53219Y60977D01*
X53719D01*
X53385D02*
X53052Y60644D01*
X52053Y61643D02*
X52386Y61477D01*
X52719Y61143D01*
Y60810D01*
X52552Y60644D01*
X52219D01*
X52053Y60810D01*
Y60977D01*
X52219Y61143D01*
X52719D01*
X51053Y60644D02*
X51719D01*
X51053Y61310D01*
Y61477D01*
X51219Y61643D01*
X51553D01*
X51719Y61477D01*
X85426Y60709D02*
Y61709D01*
X84926D01*
X84759Y61542D01*
Y61209D01*
X84926Y61043D01*
X85426D01*
X85092D02*
X84759Y60709D01*
X83760Y61709D02*
X84093Y61542D01*
X84426Y61209D01*
Y60876D01*
X84259Y60709D01*
X83926D01*
X83760Y60876D01*
Y61043D01*
X83926Y61209D01*
X84426D01*
X83426Y60709D02*
X83093D01*
X83260D01*
Y61709D01*
X83426Y61542D01*
X125736Y69867D02*
Y70866D01*
X125236D01*
X125069Y70700D01*
Y70367D01*
X125236Y70200D01*
X125736D01*
X125403D02*
X125069Y69867D01*
X124070Y70866D02*
X124403Y70700D01*
X124736Y70367D01*
Y70033D01*
X124569Y69867D01*
X124236D01*
X124070Y70033D01*
Y70200D01*
X124236Y70367D01*
X124736D01*
X123736Y70700D02*
X123570Y70866D01*
X123237D01*
X123070Y70700D01*
Y70033D01*
X123237Y69867D01*
X123570D01*
X123736Y70033D01*
Y70700D01*
X93082Y69882D02*
Y70882D01*
X92583D01*
X92416Y70715D01*
Y70382D01*
X92583Y70216D01*
X93082D01*
X92749D02*
X92416Y69882D01*
X91416Y70882D02*
X92083D01*
Y70382D01*
X91749Y70549D01*
X91583D01*
X91416Y70382D01*
Y70049D01*
X91583Y69882D01*
X91916D01*
X92083Y70049D01*
X91083D02*
X90916Y69882D01*
X90583D01*
X90417Y70049D01*
Y70715D01*
X90583Y70882D01*
X90916D01*
X91083Y70715D01*
Y70549D01*
X90916Y70382D01*
X90417D01*
X56685Y68300D02*
Y69300D01*
X56185D01*
X56019Y69133D01*
Y68800D01*
X56185Y68633D01*
X56685D01*
X56352D02*
X56019Y68300D01*
X55019Y69300D02*
X55685D01*
Y68800D01*
X55352Y68967D01*
X55186D01*
X55019Y68800D01*
Y68467D01*
X55186Y68300D01*
X55519D01*
X55685Y68467D01*
X54686Y69133D02*
X54519Y69300D01*
X54186D01*
X54019Y69133D01*
Y68967D01*
X54186Y68800D01*
X54019Y68633D01*
Y68467D01*
X54186Y68300D01*
X54519D01*
X54686Y68467D01*
Y68633D01*
X54519Y68800D01*
X54686Y68967D01*
Y69133D01*
X54519Y68800D02*
X54186D01*
X119326Y75108D02*
X118326D01*
Y74609D01*
X118493Y74442D01*
X118826D01*
X118993Y74609D01*
Y75108D01*
Y74775D02*
X119326Y74442D01*
X118326Y73442D02*
Y74109D01*
X118826D01*
X118660Y73776D01*
Y73609D01*
X118826Y73442D01*
X119159D01*
X119326Y73609D01*
Y73942D01*
X119159Y74109D01*
X118326Y73109D02*
Y72443D01*
X118493D01*
X119159Y73109D01*
X119326D01*
X87159Y75247D02*
X86159D01*
Y74747D01*
X86326Y74580D01*
X86659D01*
X86825Y74747D01*
Y75247D01*
Y74914D02*
X87159Y74580D01*
X86159Y73581D02*
Y74247D01*
X86659D01*
X86492Y73914D01*
Y73747D01*
X86659Y73581D01*
X86992D01*
X87159Y73747D01*
Y74081D01*
X86992Y74247D01*
X86159Y72581D02*
X86326Y72914D01*
X86659Y73248D01*
X86992D01*
X87159Y73081D01*
Y72748D01*
X86992Y72581D01*
X86825D01*
X86659Y72748D01*
Y73248D01*
X56573Y75304D02*
X55573D01*
Y74804D01*
X55740Y74638D01*
X56073D01*
X56240Y74804D01*
Y75304D01*
Y74971D02*
X56573Y74638D01*
X55573Y73638D02*
Y74305D01*
X56073D01*
X55906Y73971D01*
Y73805D01*
X56073Y73638D01*
X56406D01*
X56573Y73805D01*
Y74138D01*
X56406Y74305D01*
X55573Y72638D02*
Y73305D01*
X56073D01*
X55906Y72972D01*
Y72805D01*
X56073Y72638D01*
X56406D01*
X56573Y72805D01*
Y73138D01*
X56406Y73305D01*
X127905Y77300D02*
X126905D01*
Y76801D01*
X127072Y76634D01*
X127405D01*
X127572Y76801D01*
Y77300D01*
Y76967D02*
X127905Y76634D01*
X126905Y75634D02*
Y76301D01*
X127405D01*
X127239Y75967D01*
Y75801D01*
X127405Y75634D01*
X127738D01*
X127905Y75801D01*
Y76134D01*
X127738Y76301D01*
X127905Y74801D02*
X126905D01*
X127405Y75301D01*
Y74635D01*
X94894Y77229D02*
X93894D01*
Y76729D01*
X94061Y76562D01*
X94394D01*
X94561Y76729D01*
Y77229D01*
Y76895D02*
X94894Y76562D01*
X93894Y75563D02*
Y76229D01*
X94394D01*
X94228Y75896D01*
Y75729D01*
X94394Y75563D01*
X94728D01*
X94894Y75729D01*
Y76062D01*
X94728Y76229D01*
X94061Y75229D02*
X93894Y75063D01*
Y74729D01*
X94061Y74563D01*
X94228D01*
X94394Y74729D01*
Y74896D01*
Y74729D01*
X94561Y74563D01*
X94728D01*
X94894Y74729D01*
Y75063D01*
X94728Y75229D01*
X64547Y77507D02*
X63547D01*
Y77007D01*
X63714Y76841D01*
X64047D01*
X64214Y77007D01*
Y77507D01*
Y77174D02*
X64547Y76841D01*
X63547Y75841D02*
Y76507D01*
X64047D01*
X63881Y76174D01*
Y76007D01*
X64047Y75841D01*
X64380D01*
X64547Y76007D01*
Y76341D01*
X64380Y76507D01*
X64547Y74841D02*
Y75508D01*
X63881Y74841D01*
X63714D01*
X63547Y75008D01*
Y75341D01*
X63714Y75508D01*
X130770Y69837D02*
Y70837D01*
X130271D01*
X130104Y70670D01*
Y70337D01*
X130271Y70171D01*
X130770D01*
X130437D02*
X130104Y69837D01*
X129104Y70837D02*
X129771D01*
Y70337D01*
X129437Y70504D01*
X129271D01*
X129104Y70337D01*
Y70004D01*
X129271Y69837D01*
X129604D01*
X129771Y70004D01*
X128771Y69837D02*
X128438D01*
X128604D01*
Y70837D01*
X128771Y70670D01*
X98385Y69857D02*
Y70857D01*
X97885D01*
X97718Y70690D01*
Y70357D01*
X97885Y70190D01*
X98385D01*
X98052D02*
X97718Y69857D01*
X96719Y70857D02*
X97385D01*
Y70357D01*
X97052Y70524D01*
X96885D01*
X96719Y70357D01*
Y70024D01*
X96885Y69857D01*
X97218D01*
X97385Y70024D01*
X96385Y70690D02*
X96219Y70857D01*
X95886D01*
X95719Y70690D01*
Y70024D01*
X95886Y69857D01*
X96219D01*
X96385Y70024D01*
Y70690D01*
X66892Y69766D02*
Y70765D01*
X66393D01*
X66226Y70599D01*
Y70266D01*
X66393Y70099D01*
X66892D01*
X66559D02*
X66226Y69766D01*
X65393D02*
Y70765D01*
X65893Y70266D01*
X65226D01*
X64893Y69932D02*
X64726Y69766D01*
X64393D01*
X64227Y69932D01*
Y70599D01*
X64393Y70765D01*
X64726D01*
X64893Y70599D01*
Y70432D01*
X64726Y70266D01*
X64227D01*
X158241Y25331D02*
Y26330D01*
X157741D01*
X157575Y26164D01*
Y25830D01*
X157741Y25664D01*
X158241D01*
X157908D02*
X157575Y25331D01*
X156742D02*
Y26330D01*
X157242Y25830D01*
X156575D01*
X156242Y26164D02*
X156075Y26330D01*
X155742D01*
X155576Y26164D01*
Y25997D01*
X155742Y25830D01*
X155576Y25664D01*
Y25497D01*
X155742Y25331D01*
X156075D01*
X156242Y25497D01*
Y25664D01*
X156075Y25830D01*
X156242Y25997D01*
Y26164D01*
X156075Y25830D02*
X155742D01*
X186909Y25353D02*
Y26352D01*
X186410D01*
X186243Y26186D01*
Y25852D01*
X186410Y25686D01*
X186909D01*
X186576D02*
X186243Y25353D01*
X185410D02*
Y26352D01*
X185910Y25852D01*
X185243D01*
X184910Y26352D02*
X184244D01*
Y26186D01*
X184910Y25519D01*
Y25353D01*
X146765Y22731D02*
Y23731D01*
X146265D01*
X146099Y23564D01*
Y23231D01*
X146265Y23064D01*
X146765D01*
X146432D02*
X146099Y22731D01*
X145265D02*
Y23731D01*
X145765Y23231D01*
X145099D01*
X144099Y23731D02*
X144432Y23564D01*
X144766Y23231D01*
Y22897D01*
X144599Y22731D01*
X144266D01*
X144099Y22897D01*
Y23064D01*
X144266Y23231D01*
X144766D01*
X175286Y22632D02*
Y23632D01*
X174787D01*
X174620Y23465D01*
Y23132D01*
X174787Y22965D01*
X175286D01*
X174953D02*
X174620Y22632D01*
X173787D02*
Y23632D01*
X174287Y23132D01*
X173620D01*
X172621Y23632D02*
X173287D01*
Y23132D01*
X172954Y23299D01*
X172787D01*
X172621Y23132D01*
Y22799D01*
X172787Y22632D01*
X173120D01*
X173287Y22799D01*
X182572Y15796D02*
Y16795D01*
X182072D01*
X181906Y16629D01*
Y16295D01*
X182072Y16129D01*
X182572D01*
X182239D02*
X181906Y15796D01*
X181073D02*
Y16795D01*
X181573Y16295D01*
X180906D01*
X180073Y15796D02*
Y16795D01*
X180573Y16295D01*
X179907D01*
X153486Y15795D02*
Y16795D01*
X152986D01*
X152819Y16628D01*
Y16295D01*
X152986Y16128D01*
X153486D01*
X153153D02*
X152819Y15795D01*
X151986D02*
Y16795D01*
X152486Y16295D01*
X151820D01*
X151487Y16628D02*
X151320Y16795D01*
X150987D01*
X150820Y16628D01*
Y16462D01*
X150987Y16295D01*
X151153D01*
X150987D01*
X150820Y16128D01*
Y15962D01*
X150987Y15795D01*
X151320D01*
X151487Y15962D01*
X182505Y13044D02*
Y14044D01*
X182005D01*
X181839Y13877D01*
Y13544D01*
X182005Y13377D01*
X182505D01*
X182172D02*
X181839Y13044D01*
X181006D02*
Y14044D01*
X181506Y13544D01*
X180839D01*
X179839Y13044D02*
X180506D01*
X179839Y13710D01*
Y13877D01*
X180006Y14044D01*
X180339D01*
X180506Y13877D01*
X153386Y13249D02*
Y14249D01*
X152887D01*
X152720Y14082D01*
Y13749D01*
X152887Y13583D01*
X153386D01*
X153053D02*
X152720Y13249D01*
X151887D02*
Y14249D01*
X152387Y13749D01*
X151720D01*
X151387Y13249D02*
X151054D01*
X151221D01*
Y14249D01*
X151387Y14082D01*
X206344Y25338D02*
Y26338D01*
X205844D01*
X205677Y26171D01*
Y25838D01*
X205844Y25671D01*
X206344D01*
X206010D02*
X205677Y25338D01*
X204844D02*
Y26338D01*
X205344Y25838D01*
X204678D01*
X204344Y26171D02*
X204178Y26338D01*
X203844D01*
X203678Y26171D01*
Y25505D01*
X203844Y25338D01*
X204178D01*
X204344Y25505D01*
Y26171D01*
X194850Y22877D02*
Y23877D01*
X194350D01*
X194183Y23710D01*
Y23377D01*
X194350Y23210D01*
X194850D01*
X194517D02*
X194183Y22877D01*
X193850Y23710D02*
X193684Y23877D01*
X193350D01*
X193184Y23710D01*
Y23544D01*
X193350Y23377D01*
X193517D01*
X193350D01*
X193184Y23210D01*
Y23044D01*
X193350Y22877D01*
X193684D01*
X193850Y23044D01*
X192850D02*
X192684Y22877D01*
X192351D01*
X192184Y23044D01*
Y23710D01*
X192351Y23877D01*
X192684D01*
X192850Y23710D01*
Y23544D01*
X192684Y23377D01*
X192184D01*
X169085Y10130D02*
Y9130D01*
X169584D01*
X169751Y9297D01*
Y9630D01*
X169584Y9797D01*
X169085D01*
X169418D02*
X169751Y10130D01*
X170084Y9297D02*
X170251Y9130D01*
X170584D01*
X170751Y9297D01*
Y9464D01*
X170584Y9630D01*
X170417D01*
X170584D01*
X170751Y9797D01*
Y9964D01*
X170584Y10130D01*
X170251D01*
X170084Y9964D01*
X171084Y9297D02*
X171251Y9130D01*
X171584D01*
X171750Y9297D01*
Y9464D01*
X171584Y9630D01*
X171750Y9797D01*
Y9964D01*
X171584Y10130D01*
X171251D01*
X171084Y9964D01*
Y9797D01*
X171251Y9630D01*
X171084Y9464D01*
Y9297D01*
X171251Y9630D02*
X171584D01*
X143364Y9159D02*
Y10158D01*
X142864D01*
X142698Y9992D01*
Y9658D01*
X142864Y9492D01*
X143364D01*
X143031D02*
X142698Y9159D01*
X142364Y9992D02*
X142198Y10158D01*
X141865D01*
X141698Y9992D01*
Y9825D01*
X141865Y9658D01*
X142031D01*
X141865D01*
X141698Y9492D01*
Y9325D01*
X141865Y9159D01*
X142198D01*
X142364Y9325D01*
X141365Y10158D02*
X140698D01*
Y9992D01*
X141365Y9325D01*
Y9159D01*
X178312Y14086D02*
Y15085D01*
X177812D01*
X177645Y14919D01*
Y14585D01*
X177812Y14419D01*
X178312D01*
X177979D02*
X177645Y14086D01*
X177312Y14919D02*
X177146Y15085D01*
X176812D01*
X176646Y14919D01*
Y14752D01*
X176812Y14585D01*
X176979D01*
X176812D01*
X176646Y14419D01*
Y14252D01*
X176812Y14086D01*
X177146D01*
X177312Y14252D01*
X175646Y15085D02*
X175979Y14919D01*
X176313Y14585D01*
Y14252D01*
X176146Y14086D01*
X175813D01*
X175646Y14252D01*
Y14419D01*
X175813Y14585D01*
X176313D01*
X149192Y13901D02*
Y14901D01*
X148692D01*
X148526Y14734D01*
Y14401D01*
X148692Y14234D01*
X149192D01*
X148859D02*
X148526Y13901D01*
X148192Y14734D02*
X148026Y14901D01*
X147692D01*
X147526Y14734D01*
Y14567D01*
X147692Y14401D01*
X147859D01*
X147692D01*
X147526Y14234D01*
Y14067D01*
X147692Y13901D01*
X148026D01*
X148192Y14067D01*
X146526Y14901D02*
X147193D01*
Y14401D01*
X146859Y14567D01*
X146693D01*
X146526Y14401D01*
Y14067D01*
X146693Y13901D01*
X147026D01*
X147193Y14067D01*
X201262Y15797D02*
Y16797D01*
X200762D01*
X200596Y16630D01*
Y16297D01*
X200762Y16131D01*
X201262D01*
X200929D02*
X200596Y15797D01*
X200263Y16630D02*
X200096Y16797D01*
X199763D01*
X199596Y16630D01*
Y16464D01*
X199763Y16297D01*
X199929D01*
X199763D01*
X199596Y16131D01*
Y15964D01*
X199763Y15797D01*
X200096D01*
X200263Y15964D01*
X198763Y15797D02*
Y16797D01*
X199263Y16297D01*
X198596D01*
X200522Y9905D02*
Y10904D01*
X200022D01*
X199855Y10738D01*
Y10405D01*
X200022Y10238D01*
X200522D01*
X200188D02*
X199855Y9905D01*
X199522Y10738D02*
X199355Y10904D01*
X199022D01*
X198855Y10738D01*
Y10571D01*
X199022Y10405D01*
X199189D01*
X199022D01*
X198855Y10238D01*
Y10071D01*
X199022Y9905D01*
X199355D01*
X199522Y10071D01*
X198522Y10738D02*
X198356Y10904D01*
X198022D01*
X197856Y10738D01*
Y10571D01*
X198022Y10405D01*
X198189D01*
X198022D01*
X197856Y10238D01*
Y10071D01*
X198022Y9905D01*
X198356D01*
X198522Y10071D01*
X177435Y25417D02*
Y26417D01*
X176935D01*
X176769Y26250D01*
Y25917D01*
X176935Y25750D01*
X177435D01*
X177102D02*
X176769Y25417D01*
X176435Y26250D02*
X176269Y26417D01*
X175935D01*
X175769Y26250D01*
Y26084D01*
X175935Y25917D01*
X176102D01*
X175935D01*
X175769Y25750D01*
Y25584D01*
X175935Y25417D01*
X176269D01*
X176435Y25584D01*
X174769Y25417D02*
X175436D01*
X174769Y26084D01*
Y26250D01*
X174936Y26417D01*
X175269D01*
X175436Y26250D01*
X148110Y25220D02*
Y26220D01*
X147610D01*
X147443Y26053D01*
Y25720D01*
X147610Y25553D01*
X148110D01*
X147777D02*
X147443Y25220D01*
X147110Y26053D02*
X146943Y26220D01*
X146610D01*
X146444Y26053D01*
Y25886D01*
X146610Y25720D01*
X146777D01*
X146610D01*
X146444Y25553D01*
Y25387D01*
X146610Y25220D01*
X146943D01*
X147110Y25387D01*
X146110Y25220D02*
X145777D01*
X145944D01*
Y26220D01*
X146110Y26053D01*
X188388Y10214D02*
Y9215D01*
X188888D01*
X189055Y9381D01*
Y9715D01*
X188888Y9881D01*
X188388D01*
X188721D02*
X189055Y10214D01*
X189388Y9381D02*
X189555Y9215D01*
X189888D01*
X190054Y9381D01*
Y9548D01*
X189888Y9715D01*
X189721D01*
X189888D01*
X190054Y9881D01*
Y10048D01*
X189888Y10214D01*
X189555D01*
X189388Y10048D01*
X190388Y9381D02*
X190554Y9215D01*
X190887D01*
X191054Y9381D01*
Y10048D01*
X190887Y10214D01*
X190554D01*
X190388Y10048D01*
Y9381D01*
X166061Y22810D02*
Y23810D01*
X165561D01*
X165394Y23643D01*
Y23310D01*
X165561Y23143D01*
X166061D01*
X165727D02*
X165394Y22810D01*
X164395D02*
X165061D01*
X164395Y23476D01*
Y23643D01*
X164561Y23810D01*
X164894D01*
X165061Y23643D01*
X164061Y22977D02*
X163895Y22810D01*
X163561D01*
X163395Y22977D01*
Y23643D01*
X163561Y23810D01*
X163895D01*
X164061Y23643D01*
Y23476D01*
X163895Y23310D01*
X163395D01*
X137160Y22676D02*
Y23676D01*
X136660D01*
X136493Y23509D01*
Y23176D01*
X136660Y23009D01*
X137160D01*
X136827D02*
X136493Y22676D01*
X135494D02*
X136160D01*
X135494Y23343D01*
Y23509D01*
X135660Y23676D01*
X135994D01*
X136160Y23509D01*
X135161D02*
X134994Y23676D01*
X134661D01*
X134494Y23509D01*
Y23343D01*
X134661Y23176D01*
X134494Y23009D01*
Y22843D01*
X134661Y22676D01*
X134994D01*
X135161Y22843D01*
Y23009D01*
X134994Y23176D01*
X135161Y23343D01*
Y23509D01*
X134994Y23176D02*
X134661D01*
X197100Y13051D02*
Y14050D01*
X196601D01*
X196434Y13884D01*
Y13551D01*
X196601Y13384D01*
X197100D01*
X196767D02*
X196434Y13051D01*
X195434D02*
X196101D01*
X195434Y13717D01*
Y13884D01*
X195601Y14050D01*
X195934D01*
X196101Y13884D01*
X195101Y14050D02*
X194435D01*
Y13884D01*
X195101Y13217D01*
Y13051D01*
X173001Y15825D02*
Y16825D01*
X172501D01*
X172335Y16658D01*
Y16325D01*
X172501Y16158D01*
X173001D01*
X172668D02*
X172335Y15825D01*
X171335D02*
X172001D01*
X171335Y16491D01*
Y16658D01*
X171502Y16825D01*
X171835D01*
X172001Y16658D01*
X170335Y16825D02*
X170668Y16658D01*
X171002Y16325D01*
Y15992D01*
X170835Y15825D01*
X170502D01*
X170335Y15992D01*
Y16158D01*
X170502Y16325D01*
X171002D01*
X143845Y15709D02*
Y16709D01*
X143345D01*
X143179Y16542D01*
Y16209D01*
X143345Y16043D01*
X143845D01*
X143512D02*
X143179Y15709D01*
X142179D02*
X142846D01*
X142179Y16376D01*
Y16542D01*
X142346Y16709D01*
X142679D01*
X142846Y16542D01*
X141179Y16709D02*
X141846D01*
Y16209D01*
X141513Y16376D01*
X141346D01*
X141179Y16209D01*
Y15876D01*
X141346Y15709D01*
X141679D01*
X141846Y15876D01*
X172646Y13141D02*
Y14141D01*
X172146D01*
X171979Y13974D01*
Y13641D01*
X172146Y13475D01*
X172646D01*
X172312D02*
X171979Y13141D01*
X170980D02*
X171646D01*
X170980Y13808D01*
Y13974D01*
X171146Y14141D01*
X171479D01*
X171646Y13974D01*
X170147Y13141D02*
Y14141D01*
X170646Y13641D01*
X169980D01*
X143630Y13064D02*
Y14064D01*
X143131D01*
X142964Y13897D01*
Y13564D01*
X143131Y13397D01*
X143630D01*
X143297D02*
X142964Y13064D01*
X141964D02*
X142631D01*
X141964Y13730D01*
Y13897D01*
X142131Y14064D01*
X142464D01*
X142631Y13897D01*
X141631D02*
X141464Y14064D01*
X141131D01*
X140965Y13897D01*
Y13730D01*
X141131Y13564D01*
X141298D01*
X141131D01*
X140965Y13397D01*
Y13231D01*
X141131Y13064D01*
X141464D01*
X141631Y13231D01*
X162132Y9272D02*
Y10272D01*
X161632D01*
X161466Y10105D01*
Y9772D01*
X161632Y9605D01*
X162132D01*
X161799D02*
X161466Y9272D01*
X160466D02*
X161132D01*
X160466Y9938D01*
Y10105D01*
X160632Y10272D01*
X160966D01*
X161132Y10105D01*
X159466Y9272D02*
X160133D01*
X159466Y9938D01*
Y10105D01*
X159633Y10272D01*
X159966D01*
X160133Y10105D01*
X133434Y9261D02*
Y10261D01*
X132934D01*
X132768Y10094D01*
Y9761D01*
X132934Y9595D01*
X133434D01*
X133101D02*
X132768Y9261D01*
X131768D02*
X132435D01*
X131768Y9928D01*
Y10094D01*
X131935Y10261D01*
X132268D01*
X132435Y10094D01*
X131435Y9261D02*
X131102D01*
X131268D01*
Y10261D01*
X131435Y10094D01*
X196773Y25345D02*
Y26344D01*
X196274D01*
X196107Y26178D01*
Y25844D01*
X196274Y25678D01*
X196773D01*
X196440D02*
X196107Y25345D01*
X195107D02*
X195774D01*
X195107Y26011D01*
Y26178D01*
X195274Y26344D01*
X195607D01*
X195774Y26178D01*
X194774D02*
X194607Y26344D01*
X194274D01*
X194108Y26178D01*
Y25511D01*
X194274Y25345D01*
X194607D01*
X194774Y25511D01*
Y26178D01*
X168391Y14046D02*
Y15046D01*
X167892D01*
X167725Y14879D01*
Y14546D01*
X167892Y14380D01*
X168391D01*
X168058D02*
X167725Y14046D01*
X167392D02*
X167059D01*
X167225D01*
Y15046D01*
X167392Y14879D01*
X166559Y14213D02*
X166392Y14046D01*
X166059D01*
X165892Y14213D01*
Y14879D01*
X166059Y15046D01*
X166392D01*
X166559Y14879D01*
Y14713D01*
X166392Y14546D01*
X165892D01*
X139420Y14107D02*
Y15106D01*
X138920D01*
X138753Y14940D01*
Y14607D01*
X138920Y14440D01*
X139420D01*
X139087D02*
X138753Y14107D01*
X138420D02*
X138087D01*
X138254D01*
Y15106D01*
X138420Y14940D01*
X137587D02*
X137421Y15106D01*
X137087D01*
X136921Y14940D01*
Y14773D01*
X137087Y14607D01*
X136921Y14440D01*
Y14273D01*
X137087Y14107D01*
X137421D01*
X137587Y14273D01*
Y14440D01*
X137421Y14607D01*
X137587Y14773D01*
Y14940D01*
X137421Y14607D02*
X137087D01*
X185264Y22769D02*
Y23769D01*
X184764D01*
X184598Y23602D01*
Y23269D01*
X184764Y23102D01*
X185264D01*
X184931D02*
X184598Y22769D01*
X184265D02*
X183931D01*
X184098D01*
Y23769D01*
X184265Y23602D01*
X183431Y23769D02*
X182765D01*
Y23602D01*
X183431Y22936D01*
Y22769D01*
X138950Y25326D02*
Y26326D01*
X138450D01*
X138283Y26159D01*
Y25826D01*
X138450Y25659D01*
X138950D01*
X138616D02*
X138283Y25326D01*
X137950D02*
X137617D01*
X137783D01*
Y26326D01*
X137950Y26159D01*
X136450Y26326D02*
X136784Y26159D01*
X137117Y25826D01*
Y25493D01*
X136950Y25326D01*
X136617D01*
X136450Y25493D01*
Y25659D01*
X136617Y25826D01*
X137117D01*
X167952Y25174D02*
Y26174D01*
X167452D01*
X167286Y26007D01*
Y25674D01*
X167452Y25507D01*
X167952D01*
X167619D02*
X167286Y25174D01*
X166953D02*
X166619D01*
X166786D01*
Y26174D01*
X166953Y26007D01*
X165453Y26174D02*
X166120D01*
Y25674D01*
X165786Y25840D01*
X165620D01*
X165453Y25674D01*
Y25341D01*
X165620Y25174D01*
X165953D01*
X166120Y25341D01*
X191517Y15796D02*
Y16796D01*
X191017D01*
X190851Y16629D01*
Y16296D01*
X191017Y16130D01*
X191517D01*
X191184D02*
X190851Y15796D01*
X190518D02*
X190184D01*
X190351D01*
Y16796D01*
X190518Y16629D01*
X189185Y15796D02*
Y16796D01*
X189685Y16296D01*
X189018D01*
X190892Y13040D02*
Y14040D01*
X190392D01*
X190225Y13873D01*
Y13540D01*
X190392Y13373D01*
X190892D01*
X190558D02*
X190225Y13040D01*
X189892D02*
X189559D01*
X189725D01*
Y14040D01*
X189892Y13873D01*
X189059D02*
X188892Y14040D01*
X188559D01*
X188392Y13873D01*
Y13707D01*
X188559Y13540D01*
X188726D01*
X188559D01*
X188392Y13373D01*
Y13207D01*
X188559Y13040D01*
X188892D01*
X189059Y13207D01*
X156504Y22780D02*
Y23780D01*
X156004D01*
X155837Y23613D01*
Y23280D01*
X156004Y23113D01*
X156504D01*
X156171D02*
X155837Y22780D01*
X155504D02*
X155171D01*
X155337D01*
Y23780D01*
X155504Y23613D01*
X154005Y22780D02*
X154671D01*
X154005Y23446D01*
Y23613D01*
X154171Y23780D01*
X154504D01*
X154671Y23613D01*
X127524Y22932D02*
Y23932D01*
X127024D01*
X126857Y23765D01*
Y23432D01*
X127024Y23265D01*
X127524D01*
X127190D02*
X126857Y22932D01*
X126524D02*
X126191D01*
X126357D01*
Y23932D01*
X126524Y23765D01*
X125691Y22932D02*
X125358D01*
X125524D01*
Y23932D01*
X125691Y23765D01*
X163051Y15721D02*
Y16721D01*
X162551D01*
X162385Y16554D01*
Y16221D01*
X162551Y16054D01*
X163051D01*
X162718D02*
X162385Y15721D01*
X162051D02*
X161718D01*
X161885D01*
Y16721D01*
X162051Y16554D01*
X161218D02*
X161052Y16721D01*
X160718D01*
X160552Y16554D01*
Y15887D01*
X160718Y15721D01*
X161052D01*
X161218Y15887D01*
Y16554D01*
X133081Y15793D02*
Y16793D01*
X132581D01*
X132415Y16626D01*
Y16293D01*
X132581Y16126D01*
X133081D01*
X132748D02*
X132415Y15793D01*
X132081Y15959D02*
X131915Y15793D01*
X131582D01*
X131415Y15959D01*
Y16626D01*
X131582Y16793D01*
X131915D01*
X132081Y16626D01*
Y16459D01*
X131915Y16293D01*
X131415D01*
X180112Y10179D02*
Y9179D01*
X180612D01*
X180779Y9346D01*
Y9679D01*
X180612Y9846D01*
X180112D01*
X180445D02*
X180779Y10179D01*
X181112Y9346D02*
X181278Y9179D01*
X181612D01*
X181778Y9346D01*
Y9512D01*
X181612Y9679D01*
X181778Y9846D01*
Y10012D01*
X181612Y10179D01*
X181278D01*
X181112Y10012D01*
Y9846D01*
X181278Y9679D01*
X181112Y9512D01*
Y9346D01*
X181278Y9679D02*
X181612D01*
X161458Y13079D02*
Y14079D01*
X160958D01*
X160791Y13912D01*
Y13579D01*
X160958Y13413D01*
X161458D01*
X161124D02*
X160791Y13079D01*
X160458Y14079D02*
X159791D01*
Y13912D01*
X160458Y13246D01*
Y13079D01*
X132965Y13373D02*
Y14372D01*
X132465D01*
X132298Y14206D01*
Y13873D01*
X132465Y13706D01*
X132965D01*
X132632D02*
X132298Y13373D01*
X131299Y14372D02*
X131632Y14206D01*
X131965Y13873D01*
Y13539D01*
X131799Y13373D01*
X131465D01*
X131299Y13539D01*
Y13706D01*
X131465Y13873D01*
X131965D01*
X187252Y13129D02*
Y14129D01*
X186752D01*
X186586Y13962D01*
Y13629D01*
X186752Y13462D01*
X187252D01*
X186919D02*
X186586Y13129D01*
X185586Y14129D02*
X186252D01*
Y13629D01*
X185919Y13796D01*
X185753D01*
X185586Y13629D01*
Y13296D01*
X185753Y13129D01*
X186086D01*
X186252Y13296D01*
X153153Y9427D02*
Y10427D01*
X152653D01*
X152487Y10260D01*
Y9927D01*
X152653Y9760D01*
X153153D01*
X152820D02*
X152487Y9427D01*
X151654D02*
Y10427D01*
X152154Y9927D01*
X151487D01*
X123466Y9403D02*
Y10402D01*
X122966D01*
X122799Y10236D01*
Y9902D01*
X122966Y9736D01*
X123466D01*
X123133D02*
X122799Y9403D01*
X122466Y10236D02*
X122300Y10402D01*
X121966D01*
X121800Y10236D01*
Y10069D01*
X121966Y9902D01*
X122133D01*
X121966D01*
X121800Y9736D01*
Y9569D01*
X121966Y9403D01*
X122300D01*
X122466Y9569D01*
X158227Y14023D02*
Y15023D01*
X157727D01*
X157561Y14856D01*
Y14523D01*
X157727Y14357D01*
X158227D01*
X157894D02*
X157561Y14023D01*
X156561D02*
X157227D01*
X156561Y14690D01*
Y14856D01*
X156727Y15023D01*
X157061D01*
X157227Y14856D01*
X129092Y13248D02*
Y14247D01*
X128592D01*
X128425Y14081D01*
Y13748D01*
X128592Y13581D01*
X129092D01*
X128759D02*
X128425Y13248D01*
X128092D02*
X127759D01*
X127925D01*
Y14247D01*
X128092Y14081D01*
X130506Y40207D02*
Y41206D01*
X131172D01*
X131506Y40373D02*
X131672Y40207D01*
X132005D01*
X132172Y40373D01*
Y40540D01*
X132005Y40707D01*
X131839D01*
X132005D01*
X132172Y40873D01*
Y41040D01*
X132005Y41206D01*
X131672D01*
X131506Y41040D01*
X4979Y60655D02*
X3979D01*
Y61322D01*
Y61655D02*
Y61988D01*
Y61822D01*
X4979D01*
X4812Y61655D01*
X19389Y73480D02*
Y74147D01*
X19889D01*
Y73813D01*
Y74147D01*
X20388D01*
X19389Y73147D02*
X20222D01*
X20388Y72980D01*
Y72647D01*
X20222Y72480D01*
X19389D01*
X20388Y72147D02*
Y71814D01*
Y71981D01*
X19389D01*
X19555Y72147D01*
X59805Y40798D02*
Y39798D01*
X59305D01*
X59138Y39965D01*
Y40631D01*
X59305Y40798D01*
X59805D01*
X58805D02*
Y39798D01*
X58305D01*
X58138Y39965D01*
Y40631D01*
X58305Y40798D01*
X58805D01*
X57139D02*
X57472Y40631D01*
X57805Y40298D01*
Y39965D01*
X57639Y39798D01*
X57305D01*
X57139Y39965D01*
Y40131D01*
X57305Y40298D01*
X57805D01*
X172985Y42096D02*
Y41097D01*
X172486D01*
X172319Y41263D01*
Y41930D01*
X172486Y42096D01*
X172985D01*
X171986D02*
Y41097D01*
X171486D01*
X171319Y41263D01*
Y41930D01*
X171486Y42096D01*
X171986D01*
X170320D02*
X170986D01*
Y41597D01*
X170653Y41763D01*
X170486D01*
X170320Y41597D01*
Y41263D01*
X170486Y41097D01*
X170819D01*
X170986Y41263D01*
X92171Y41920D02*
Y40921D01*
X91671D01*
X91505Y41087D01*
Y41754D01*
X91671Y41920D01*
X92171D01*
X91172D02*
Y40921D01*
X90672D01*
X90505Y41087D01*
Y41754D01*
X90672Y41920D01*
X91172D01*
X89672Y40921D02*
Y41920D01*
X90172Y41421D01*
X89505D01*
X122705Y19232D02*
Y18232D01*
X122205D01*
X122039Y18399D01*
Y19065D01*
X122205Y19232D01*
X122705D01*
X121705Y18232D02*
Y18899D01*
X121372Y19232D01*
X121039Y18899D01*
Y18232D01*
Y18732D01*
X121705D01*
X120039Y19232D02*
X120372Y19065D01*
X120706Y18732D01*
Y18399D01*
X120539Y18232D01*
X120206D01*
X120039Y18399D01*
Y18566D01*
X120206Y18732D01*
X120706D01*
X119706Y19232D02*
X119040D01*
Y19065D01*
X119706Y18399D01*
Y18232D01*
X94195Y19976D02*
Y18976D01*
X93696D01*
X93529Y19143D01*
Y19809D01*
X93696Y19976D01*
X94195D01*
X93196Y18976D02*
Y19643D01*
X92862Y19976D01*
X92529Y19643D01*
Y18976D01*
Y19476D01*
X93196D01*
X91530Y19976D02*
X91863Y19809D01*
X92196Y19476D01*
Y19143D01*
X92029Y18976D01*
X91696D01*
X91530Y19143D01*
Y19310D01*
X91696Y19476D01*
X92196D01*
X90530Y19976D02*
X90863Y19809D01*
X91196Y19476D01*
Y19143D01*
X91030Y18976D01*
X90696D01*
X90530Y19143D01*
Y19310D01*
X90696Y19476D01*
X91196D01*
X64362Y20180D02*
Y19180D01*
X63862D01*
X63696Y19347D01*
Y20013D01*
X63862Y20180D01*
X64362D01*
X63362Y19180D02*
Y19846D01*
X63029Y20180D01*
X62696Y19846D01*
Y19180D01*
Y19680D01*
X63362D01*
X61696Y20180D02*
X62029Y20013D01*
X62363Y19680D01*
Y19347D01*
X62196Y19180D01*
X61863D01*
X61696Y19347D01*
Y19513D01*
X61863Y19680D01*
X62363D01*
X60697Y20180D02*
X61363D01*
Y19680D01*
X61030Y19846D01*
X60863D01*
X60697Y19680D01*
Y19347D01*
X60863Y19180D01*
X61196D01*
X61363Y19347D01*
X112682Y19378D02*
Y18378D01*
X112182D01*
X112015Y18545D01*
Y19211D01*
X112182Y19378D01*
X112682D01*
X111682Y18378D02*
Y19045D01*
X111349Y19378D01*
X111016Y19045D01*
Y18378D01*
Y18878D01*
X111682D01*
X110016Y19378D02*
X110349Y19211D01*
X110682Y18878D01*
Y18545D01*
X110516Y18378D01*
X110182D01*
X110016Y18545D01*
Y18712D01*
X110182Y18878D01*
X110682D01*
X109683Y18378D02*
X109349D01*
X109516D01*
Y19378D01*
X109683Y19211D01*
X84013Y20112D02*
Y19112D01*
X83514D01*
X83347Y19279D01*
Y19945D01*
X83514Y20112D01*
X84013D01*
X83014Y19112D02*
Y19779D01*
X82681Y20112D01*
X82347Y19779D01*
Y19112D01*
Y19612D01*
X83014D01*
X81348Y20112D02*
X81681Y19945D01*
X82014Y19612D01*
Y19279D01*
X81848Y19112D01*
X81514D01*
X81348Y19279D01*
Y19446D01*
X81514Y19612D01*
X82014D01*
X81014Y19945D02*
X80848Y20112D01*
X80515D01*
X80348Y19945D01*
Y19279D01*
X80515Y19112D01*
X80848D01*
X81014Y19279D01*
Y19945D01*
X53672Y20192D02*
Y19192D01*
X53172D01*
X53006Y19359D01*
Y20025D01*
X53172Y20192D01*
X53672D01*
X52672Y19192D02*
Y19859D01*
X52339Y20192D01*
X52006Y19859D01*
Y19192D01*
Y19692D01*
X52672D01*
X51006Y20192D02*
X51673D01*
Y19692D01*
X51339Y19859D01*
X51173D01*
X51006Y19692D01*
Y19359D01*
X51173Y19192D01*
X51506D01*
X51673Y19359D01*
X50673D02*
X50506Y19192D01*
X50173D01*
X50007Y19359D01*
Y20025D01*
X50173Y20192D01*
X50506D01*
X50673Y20025D01*
Y19859D01*
X50506Y19692D01*
X50007D01*
X103547Y19263D02*
Y18263D01*
X103047D01*
X102880Y18430D01*
Y19096D01*
X103047Y19263D01*
X103547D01*
X102547Y18263D02*
Y18929D01*
X102214Y19263D01*
X101880Y18929D01*
Y18263D01*
Y18763D01*
X102547D01*
X100881Y19263D02*
X101547D01*
Y18763D01*
X101214Y18929D01*
X101047D01*
X100881Y18763D01*
Y18430D01*
X101047Y18263D01*
X101381D01*
X101547Y18430D01*
X99881Y19263D02*
X100548D01*
Y18763D01*
X100214Y18929D01*
X100048D01*
X99881Y18763D01*
Y18430D01*
X100048Y18263D01*
X100381D01*
X100548Y18430D01*
X74296Y20072D02*
Y19072D01*
X73797D01*
X73630Y19239D01*
Y19905D01*
X73797Y20072D01*
X74296D01*
X73297Y19072D02*
Y19739D01*
X72963Y20072D01*
X72630Y19739D01*
Y19072D01*
Y19572D01*
X73297D01*
X71631Y20072D02*
X72297D01*
Y19572D01*
X71964Y19739D01*
X71797D01*
X71631Y19572D01*
Y19239D01*
X71797Y19072D01*
X72130D01*
X72297Y19239D01*
X70797Y19072D02*
Y20072D01*
X71297Y19572D01*
X70631D01*
X43086Y20180D02*
Y19180D01*
X42587D01*
X42420Y19347D01*
Y20014D01*
X42587Y20180D01*
X43086D01*
X42087Y19180D02*
Y19847D01*
X41753Y20180D01*
X41420Y19847D01*
Y19180D01*
Y19680D01*
X42087D01*
X40421Y20180D02*
X41087D01*
Y19680D01*
X40754Y19847D01*
X40587D01*
X40421Y19680D01*
Y19347D01*
X40587Y19180D01*
X40920D01*
X41087Y19347D01*
X40087Y20014D02*
X39921Y20180D01*
X39588D01*
X39421Y20014D01*
Y19847D01*
X39588Y19680D01*
X39754D01*
X39588D01*
X39421Y19514D01*
Y19347D01*
X39588Y19180D01*
X39921D01*
X40087Y19347D01*
X21418Y19455D02*
Y18455D01*
X20918D01*
X20751Y18622D01*
Y19288D01*
X20918Y19455D01*
X21418D01*
X20418Y18455D02*
Y19122D01*
X20085Y19455D01*
X19752Y19122D01*
Y18455D01*
Y18955D01*
X20418D01*
X18919Y18455D02*
Y19455D01*
X19418Y18955D01*
X18752D01*
X18419Y18622D02*
X18252Y18455D01*
X17919D01*
X17752Y18622D01*
Y19288D01*
X17919Y19455D01*
X18252D01*
X18419Y19288D01*
Y19122D01*
X18252Y18955D01*
X17752D01*
X180465Y50582D02*
Y49583D01*
X179965D01*
X179799Y49749D01*
Y50416D01*
X179965Y50582D01*
X180465D01*
X179465Y49583D02*
Y50249D01*
X179132Y50582D01*
X178799Y50249D01*
Y49583D01*
Y50083D01*
X179465D01*
X177966Y49583D02*
Y50582D01*
X178466Y50083D01*
X177799D01*
X177466Y50416D02*
X177299Y50582D01*
X176966D01*
X176799Y50416D01*
Y50249D01*
X176966Y50083D01*
X176799Y49916D01*
Y49749D01*
X176966Y49583D01*
X177299D01*
X177466Y49749D01*
Y49916D01*
X177299Y50083D01*
X177466Y50249D01*
Y50416D01*
X177299Y50083D02*
X176966D01*
X168906Y66573D02*
Y65573D01*
X168406D01*
X168239Y65740D01*
Y66406D01*
X168406Y66573D01*
X168906D01*
X167906Y65573D02*
Y66240D01*
X167573Y66573D01*
X167240Y66240D01*
Y65573D01*
Y66073D01*
X167906D01*
X166407Y65573D02*
Y66573D01*
X166906Y66073D01*
X166240D01*
X165907Y66573D02*
X165240D01*
Y66406D01*
X165907Y65740D01*
Y65573D01*
X11021Y19369D02*
Y18369D01*
X10521D01*
X10354Y18536D01*
Y19202D01*
X10521Y19369D01*
X11021D01*
X10021Y18369D02*
Y19036D01*
X9688Y19369D01*
X9354Y19036D01*
Y18369D01*
Y18869D01*
X10021D01*
X8521Y18369D02*
Y19369D01*
X9021Y18869D01*
X8355D01*
X8022Y19202D02*
X7855Y19369D01*
X7522D01*
X7355Y19202D01*
Y19036D01*
X7522Y18869D01*
X7688D01*
X7522D01*
X7355Y18702D01*
Y18536D01*
X7522Y18369D01*
X7855D01*
X8022Y18536D01*
X191386Y66506D02*
Y65507D01*
X190886D01*
X190719Y65673D01*
Y66340D01*
X190886Y66506D01*
X191386D01*
X190386Y65507D02*
Y66173D01*
X190053Y66506D01*
X189720Y66173D01*
Y65507D01*
Y66006D01*
X190386D01*
X188887Y65507D02*
Y66506D01*
X189387Y66006D01*
X188720D01*
X187720Y65507D02*
X188387D01*
X187720Y66173D01*
Y66340D01*
X187887Y66506D01*
X188220D01*
X188387Y66340D01*
X157686Y66235D02*
Y65235D01*
X157186D01*
X157019Y65401D01*
Y66068D01*
X157186Y66235D01*
X157686D01*
X156686Y65235D02*
Y65901D01*
X156353Y66235D01*
X156019Y65901D01*
Y65235D01*
Y65735D01*
X156686D01*
X155186Y65235D02*
Y66235D01*
X155686Y65735D01*
X155020D01*
X154686Y65235D02*
X154353D01*
X154520D01*
Y66235D01*
X154686Y66068D01*
X180025Y66553D02*
Y65553D01*
X179525D01*
X179359Y65720D01*
Y66386D01*
X179525Y66553D01*
X180025D01*
X179025Y65553D02*
Y66220D01*
X178692Y66553D01*
X178359Y66220D01*
Y65553D01*
Y66053D01*
X179025D01*
X178026Y66386D02*
X177859Y66553D01*
X177526D01*
X177359Y66386D01*
Y66220D01*
X177526Y66053D01*
X177692D01*
X177526D01*
X177359Y65887D01*
Y65720D01*
X177526Y65553D01*
X177859D01*
X178026Y65720D01*
X176360Y66553D02*
X176693Y66386D01*
X177026Y66053D01*
Y65720D01*
X176859Y65553D01*
X176526D01*
X176360Y65720D01*
Y65887D01*
X176526Y66053D01*
X177026D01*
X33213Y20372D02*
Y19372D01*
X32714D01*
X32547Y19539D01*
Y20205D01*
X32714Y20372D01*
X33213D01*
X32214Y19372D02*
Y20039D01*
X31880Y20372D01*
X31547Y20039D01*
Y19372D01*
Y19872D01*
X32214D01*
X31214Y20205D02*
X31047Y20372D01*
X30714D01*
X30548Y20205D01*
Y20039D01*
X30714Y19872D01*
X30881D01*
X30714D01*
X30548Y19706D01*
Y19539D01*
X30714Y19372D01*
X31047D01*
X31214Y19539D01*
X29548Y20372D02*
X30214D01*
Y19872D01*
X29881Y20039D01*
X29714D01*
X29548Y19872D01*
Y19539D01*
X29714Y19372D01*
X30048D01*
X30214Y19539D01*
X146618Y66391D02*
Y65392D01*
X146118D01*
X145952Y65558D01*
Y66225D01*
X146118Y66391D01*
X146618D01*
X145618Y65392D02*
Y66058D01*
X145285Y66391D01*
X144952Y66058D01*
Y65392D01*
Y65892D01*
X145618D01*
X144619Y66225D02*
X144452Y66391D01*
X144119D01*
X143952Y66225D01*
Y66058D01*
X144119Y65892D01*
X144285D01*
X144119D01*
X143952Y65725D01*
Y65558D01*
X144119Y65392D01*
X144452D01*
X144619Y65558D01*
X143619Y65392D02*
X143286D01*
X143452D01*
Y66391D01*
X143619Y66225D01*
X113420Y66713D02*
Y65714D01*
X112920D01*
X112754Y65880D01*
Y66547D01*
X112920Y66713D01*
X113420D01*
X112420Y65714D02*
Y66380D01*
X112087Y66713D01*
X111754Y66380D01*
Y65714D01*
Y66213D01*
X112420D01*
X111421Y66547D02*
X111254Y66713D01*
X110921D01*
X110754Y66547D01*
Y66380D01*
X110921Y66213D01*
X111087D01*
X110921D01*
X110754Y66047D01*
Y65880D01*
X110921Y65714D01*
X111254D01*
X111421Y65880D01*
X110421Y66547D02*
X110254Y66713D01*
X109921D01*
X109754Y66547D01*
Y65880D01*
X109921Y65714D01*
X110254D01*
X110421Y65880D01*
Y66547D01*
X80830Y66650D02*
Y65651D01*
X80330D01*
X80163Y65817D01*
Y66484D01*
X80330Y66650D01*
X80830D01*
X79830Y65651D02*
Y66317D01*
X79497Y66650D01*
X79164Y66317D01*
Y65651D01*
Y66150D01*
X79830D01*
X78164Y65651D02*
X78830D01*
X78164Y66317D01*
Y66484D01*
X78330Y66650D01*
X78664D01*
X78830Y66484D01*
X77831Y65817D02*
X77664Y65651D01*
X77331D01*
X77164Y65817D01*
Y66484D01*
X77331Y66650D01*
X77664D01*
X77831Y66484D01*
Y66317D01*
X77664Y66150D01*
X77164D01*
X135591Y66747D02*
Y65748D01*
X135091D01*
X134924Y65914D01*
Y66581D01*
X135091Y66747D01*
X135591D01*
X134591Y65748D02*
Y66414D01*
X134258Y66747D01*
X133925Y66414D01*
Y65748D01*
Y66247D01*
X134591D01*
X132925Y65748D02*
X133591D01*
X132925Y66414D01*
Y66581D01*
X133092Y66747D01*
X133425D01*
X133591Y66581D01*
X131925Y66747D02*
X132592D01*
Y66247D01*
X132259Y66414D01*
X132092D01*
X131925Y66247D01*
Y65914D01*
X132092Y65748D01*
X132425D01*
X132592Y65914D01*
X102580Y66680D02*
Y65680D01*
X102080D01*
X101913Y65847D01*
Y66513D01*
X102080Y66680D01*
X102580D01*
X101580Y65680D02*
Y66347D01*
X101247Y66680D01*
X100914Y66347D01*
Y65680D01*
Y66180D01*
X101580D01*
X99914Y65680D02*
X100580D01*
X99914Y66347D01*
Y66513D01*
X100081Y66680D01*
X100414D01*
X100580Y66513D01*
X99081Y65680D02*
Y66680D01*
X99581Y66180D01*
X98914D01*
X70115Y66816D02*
Y65816D01*
X69615D01*
X69449Y65983D01*
Y66649D01*
X69615Y66816D01*
X70115D01*
X69115Y65816D02*
Y66483D01*
X68782Y66816D01*
X68449Y66483D01*
Y65816D01*
Y66316D01*
X69115D01*
X67449Y65816D02*
X68116D01*
X67449Y66483D01*
Y66649D01*
X67616Y66816D01*
X67949D01*
X68116Y66649D01*
X67116D02*
X66949Y66816D01*
X66616D01*
X66450Y66649D01*
Y66483D01*
X66616Y66316D01*
X66783D01*
X66616D01*
X66450Y66150D01*
Y65983D01*
X66616Y65816D01*
X66949D01*
X67116Y65983D01*
X124427Y66684D02*
Y65684D01*
X123927D01*
X123760Y65850D01*
Y66517D01*
X123927Y66684D01*
X124427D01*
X123427Y65684D02*
Y66350D01*
X123094Y66684D01*
X122761Y66350D01*
Y65684D01*
Y66184D01*
X123427D01*
X122427Y65684D02*
X122094D01*
X122261D01*
Y66684D01*
X122427Y66517D01*
X121594Y65850D02*
X121428Y65684D01*
X121095D01*
X120928Y65850D01*
Y66517D01*
X121095Y66684D01*
X121428D01*
X121594Y66517D01*
Y66350D01*
X121428Y66184D01*
X120928D01*
X91598Y66867D02*
Y65867D01*
X91098D01*
X90932Y66034D01*
Y66700D01*
X91098Y66867D01*
X91598D01*
X90599Y65867D02*
Y66533D01*
X90265Y66867D01*
X89932Y66533D01*
Y65867D01*
Y66367D01*
X90599D01*
X89599Y65867D02*
X89266D01*
X89432D01*
Y66867D01*
X89599Y66700D01*
X88766D02*
X88599Y66867D01*
X88266D01*
X88099Y66700D01*
Y66533D01*
X88266Y66367D01*
X88099Y66200D01*
Y66034D01*
X88266Y65867D01*
X88599D01*
X88766Y66034D01*
Y66200D01*
X88599Y66367D01*
X88766Y66533D01*
Y66700D01*
X88599Y66367D02*
X88266D01*
X59608Y66553D02*
Y65553D01*
X59108D01*
X58941Y65720D01*
Y66386D01*
X59108Y66553D01*
X59608D01*
X58608Y65553D02*
Y66220D01*
X58275Y66553D01*
X57942Y66220D01*
Y65553D01*
Y66053D01*
X58608D01*
X57608Y65553D02*
X57275D01*
X57442D01*
Y66553D01*
X57608Y66386D01*
X56775Y66553D02*
X56109D01*
Y66386D01*
X56775Y65720D01*
Y65553D01*
X180347Y19066D02*
Y18067D01*
X179847D01*
X179680Y18233D01*
Y18900D01*
X179847Y19066D01*
X180347D01*
X179347Y18067D02*
Y18733D01*
X179014Y19066D01*
X178680Y18733D01*
Y18067D01*
Y18567D01*
X179347D01*
X178347Y18067D02*
X178014D01*
X178181D01*
Y19066D01*
X178347Y18900D01*
X177014Y18067D02*
Y19066D01*
X177514Y18567D01*
X176848D01*
X151600Y19085D02*
Y18086D01*
X151100D01*
X150933Y18252D01*
Y18919D01*
X151100Y19085D01*
X151600D01*
X150600Y18086D02*
Y18752D01*
X150267Y19085D01*
X149934Y18752D01*
Y18086D01*
Y18586D01*
X150600D01*
X149600Y18086D02*
X149267D01*
X149434D01*
Y19085D01*
X149600Y18919D01*
X148767D02*
X148601Y19085D01*
X148268D01*
X148101Y18919D01*
Y18752D01*
X148268Y18586D01*
X148434D01*
X148268D01*
X148101Y18419D01*
Y18252D01*
X148268Y18086D01*
X148601D01*
X148767Y18252D01*
X199542Y19111D02*
Y18111D01*
X199042D01*
X198875Y18278D01*
Y18944D01*
X199042Y19111D01*
X199542D01*
X198542Y18111D02*
Y18778D01*
X198209Y19111D01*
X197876Y18778D01*
Y18111D01*
Y18611D01*
X198542D01*
X197542Y18111D02*
X197209D01*
X197376D01*
Y19111D01*
X197542Y18944D01*
X196709Y18111D02*
X196376D01*
X196543D01*
Y19111D01*
X196709Y18944D01*
X170006Y19175D02*
Y18175D01*
X169506D01*
X169339Y18342D01*
Y19008D01*
X169506Y19175D01*
X170006D01*
X169006Y18175D02*
Y18841D01*
X168673Y19175D01*
X168340Y18841D01*
Y18175D01*
Y18675D01*
X169006D01*
X168007Y19008D02*
X167840Y19175D01*
X167507D01*
X167340Y19008D01*
Y18841D01*
X167507Y18675D01*
X167340Y18508D01*
Y18342D01*
X167507Y18175D01*
X167840D01*
X168007Y18342D01*
Y18508D01*
X167840Y18675D01*
X168007Y18841D01*
Y19008D01*
X167840Y18675D02*
X167507D01*
X141149Y19030D02*
Y18030D01*
X140649D01*
X140482Y18197D01*
Y18863D01*
X140649Y19030D01*
X141149D01*
X140149Y18030D02*
Y18697D01*
X139816Y19030D01*
X139483Y18697D01*
Y18030D01*
Y18530D01*
X140149D01*
X139149Y19030D02*
X138483D01*
Y18863D01*
X139149Y18197D01*
Y18030D01*
X189394Y18661D02*
Y17661D01*
X188894D01*
X188728Y17828D01*
Y18494D01*
X188894Y18661D01*
X189394D01*
X188395Y17661D02*
Y18328D01*
X188061Y18661D01*
X187728Y18328D01*
Y17661D01*
Y18161D01*
X188395D01*
X186729Y18661D02*
X187395D01*
Y18161D01*
X187062Y18328D01*
X186895D01*
X186729Y18161D01*
Y17828D01*
X186895Y17661D01*
X187228D01*
X187395Y17828D01*
X160712Y19235D02*
Y18235D01*
X160213D01*
X160046Y18402D01*
Y19068D01*
X160213Y19235D01*
X160712D01*
X159713Y18235D02*
Y18902D01*
X159380Y19235D01*
X159046Y18902D01*
Y18235D01*
Y18735D01*
X159713D01*
X158047Y18235D02*
X158713D01*
X158047Y18902D01*
Y19068D01*
X158213Y19235D01*
X158546D01*
X158713Y19068D01*
X131305Y19286D02*
Y18287D01*
X130806D01*
X130639Y18453D01*
Y19120D01*
X130806Y19286D01*
X131305D01*
X130306Y18287D02*
Y18953D01*
X129972Y19286D01*
X129639Y18953D01*
Y18287D01*
Y18786D01*
X130306D01*
X129306Y18287D02*
X128973D01*
X129139D01*
Y19286D01*
X129306Y19120D01*
X9029Y66333D02*
Y65333D01*
X8529D01*
X8363Y65500D01*
Y66166D01*
X8529Y66333D01*
X9029D01*
X7363Y65333D02*
X8030D01*
X7363Y65999D01*
Y66166D01*
X7530Y66333D01*
X7863D01*
X8030Y66166D01*
X138768Y53615D02*
X138602Y53782D01*
Y54115D01*
X138768Y54282D01*
X139435D01*
X139601Y54115D01*
Y53782D01*
X139435Y53615D01*
X138602Y52616D02*
X138768Y52949D01*
X139102Y53282D01*
X139435D01*
X139601Y53116D01*
Y52782D01*
X139435Y52616D01*
X139268D01*
X139102Y52782D01*
Y53282D01*
X139601Y51616D02*
Y52282D01*
X138935Y51616D01*
X138768D01*
X138602Y51783D01*
Y52116D01*
X138768Y52282D01*
X126100Y52406D02*
X125933Y52572D01*
Y52906D01*
X126100Y53072D01*
X126766D01*
X126933Y52906D01*
Y52572D01*
X126766Y52406D01*
X125933Y51406D02*
Y52073D01*
X126433D01*
X126266Y51739D01*
Y51573D01*
X126433Y51406D01*
X126766D01*
X126933Y51573D01*
Y51906D01*
X126766Y52073D01*
X126933Y50573D02*
X125933D01*
X126433Y51073D01*
Y50407D01*
X123441Y45066D02*
X123274Y45232D01*
Y45566D01*
X123441Y45732D01*
X124107D01*
X124274Y45566D01*
Y45232D01*
X124107Y45066D01*
X123274Y44066D02*
Y44733D01*
X123774D01*
X123608Y44399D01*
Y44233D01*
X123774Y44066D01*
X124107D01*
X124274Y44233D01*
Y44566D01*
X124107Y44733D01*
X123441Y43733D02*
X123274Y43566D01*
Y43233D01*
X123441Y43066D01*
X123608D01*
X123774Y43233D01*
Y43400D01*
Y43233D01*
X123941Y43066D01*
X124107D01*
X124274Y43233D01*
Y43566D01*
X124107Y43733D01*
X105456Y40966D02*
X105290Y41133D01*
Y41466D01*
X105456Y41633D01*
X106123D01*
X106290Y41466D01*
Y41133D01*
X106123Y40966D01*
X105290Y39967D02*
Y40633D01*
X105790D01*
X105623Y40300D01*
Y40133D01*
X105790Y39967D01*
X106123D01*
X106290Y40133D01*
Y40467D01*
X106123Y40633D01*
X106290Y38967D02*
Y39633D01*
X105623Y38967D01*
X105456D01*
X105290Y39134D01*
Y39467D01*
X105456Y39633D01*
X131833Y47998D02*
X131999Y48165D01*
X132333D01*
X132499Y47998D01*
Y47332D01*
X132333Y47165D01*
X131999D01*
X131833Y47332D01*
X130833Y48165D02*
X131500D01*
Y47665D01*
X131166Y47832D01*
X131000D01*
X130833Y47665D01*
Y47332D01*
X131000Y47165D01*
X131333D01*
X131500Y47332D01*
X130500Y47165D02*
X130167D01*
X130333D01*
Y48165D01*
X130500Y47998D01*
X128187Y43764D02*
X128353Y43930D01*
X128687D01*
X128853Y43764D01*
Y43097D01*
X128687Y42931D01*
X128353D01*
X128187Y43097D01*
X127354Y42931D02*
Y43930D01*
X127854Y43430D01*
X127187D01*
X126854Y43097D02*
X126687Y42931D01*
X126354D01*
X126187Y43097D01*
Y43764D01*
X126354Y43930D01*
X126687D01*
X126854Y43764D01*
Y43597D01*
X126687Y43430D01*
X126187D01*
X6488Y57138D02*
X6321Y57305D01*
Y57638D01*
X6488Y57805D01*
X7154D01*
X7321Y57638D01*
Y57305D01*
X7154Y57138D01*
X7321Y56305D02*
X6321D01*
X6821Y56805D01*
Y56138D01*
X7321Y55139D02*
Y55805D01*
X6654Y55139D01*
X6488D01*
X6321Y55305D01*
Y55639D01*
X6488Y55805D01*
X14508Y63499D02*
X14342Y63332D01*
X14009D01*
X13842Y63499D01*
Y64165D01*
X14009Y64332D01*
X14342D01*
X14508Y64165D01*
X15342Y64332D02*
Y63332D01*
X14842Y63832D01*
X15508D01*
X15841Y64332D02*
X16175D01*
X16008D01*
Y63332D01*
X15841Y63499D01*
X63396Y52185D02*
X63229Y52352D01*
Y52685D01*
X63396Y52851D01*
X64062D01*
X64229Y52685D01*
Y52352D01*
X64062Y52185D01*
X63396Y51852D02*
X63229Y51685D01*
Y51352D01*
X63396Y51185D01*
X63562D01*
X63729Y51352D01*
Y51518D01*
Y51352D01*
X63896Y51185D01*
X64062D01*
X64229Y51352D01*
Y51685D01*
X64062Y51852D01*
Y50852D02*
X64229Y50685D01*
Y50352D01*
X64062Y50186D01*
X63396D01*
X63229Y50352D01*
Y50685D01*
X63396Y50852D01*
X63562D01*
X63729Y50685D01*
Y50186D01*
X63289Y46979D02*
X63123Y47145D01*
Y47479D01*
X63289Y47645D01*
X63956D01*
X64122Y47479D01*
Y47145D01*
X63956Y46979D01*
X63289Y46646D02*
X63123Y46479D01*
Y46146D01*
X63289Y45979D01*
X63456D01*
X63622Y46146D01*
Y46312D01*
Y46146D01*
X63789Y45979D01*
X63956D01*
X64122Y46146D01*
Y46479D01*
X63956Y46646D01*
X63123Y44979D02*
X63289Y45313D01*
X63622Y45646D01*
X63956D01*
X64122Y45479D01*
Y45146D01*
X63956Y44979D01*
X63789D01*
X63622Y45146D01*
Y45646D01*
X117234Y21638D02*
X117401Y21805D01*
X117734D01*
X117901Y21638D01*
Y20972D01*
X117734Y20805D01*
X117401D01*
X117234Y20972D01*
X116901Y21638D02*
X116734Y21805D01*
X116401D01*
X116234Y21638D01*
Y21472D01*
X116401Y21305D01*
X116568D01*
X116401D01*
X116234Y21139D01*
Y20972D01*
X116401Y20805D01*
X116734D01*
X116901Y20972D01*
X115235Y21805D02*
X115901D01*
Y21305D01*
X115568Y21472D01*
X115401D01*
X115235Y21305D01*
Y20972D01*
X115401Y20805D01*
X115735D01*
X115901Y20972D01*
X88239Y21682D02*
X88406Y21849D01*
X88739D01*
X88905Y21682D01*
Y21016D01*
X88739Y20849D01*
X88406D01*
X88239Y21016D01*
X87906Y21682D02*
X87739Y21849D01*
X87406D01*
X87239Y21682D01*
Y21515D01*
X87406Y21349D01*
X87573D01*
X87406D01*
X87239Y21182D01*
Y21016D01*
X87406Y20849D01*
X87739D01*
X87906Y21016D01*
X86406Y20849D02*
Y21849D01*
X86906Y21349D01*
X86240D01*
X57903Y21968D02*
X58070Y22135D01*
X58403D01*
X58569Y21968D01*
Y21302D01*
X58403Y21135D01*
X58070D01*
X57903Y21302D01*
X57570Y21968D02*
X57403Y22135D01*
X57070D01*
X56903Y21968D01*
Y21801D01*
X57070Y21635D01*
X57236D01*
X57070D01*
X56903Y21468D01*
Y21302D01*
X57070Y21135D01*
X57403D01*
X57570Y21302D01*
X56570Y21968D02*
X56403Y22135D01*
X56070D01*
X55904Y21968D01*
Y21801D01*
X56070Y21635D01*
X56237D01*
X56070D01*
X55904Y21468D01*
Y21302D01*
X56070Y21135D01*
X56403D01*
X56570Y21302D01*
X107445Y21794D02*
X107611Y21961D01*
X107945D01*
X108111Y21794D01*
Y21127D01*
X107945Y20961D01*
X107611D01*
X107445Y21127D01*
X107112Y21794D02*
X106945Y21961D01*
X106612D01*
X106445Y21794D01*
Y21627D01*
X106612Y21461D01*
X106778D01*
X106612D01*
X106445Y21294D01*
Y21127D01*
X106612Y20961D01*
X106945D01*
X107112Y21127D01*
X105445Y20961D02*
X106112D01*
X105445Y21627D01*
Y21794D01*
X105612Y21961D01*
X105945D01*
X106112Y21794D01*
X78221Y21814D02*
X78388Y21981D01*
X78721D01*
X78887Y21814D01*
Y21148D01*
X78721Y20981D01*
X78388D01*
X78221Y21148D01*
X77888Y21814D02*
X77721Y21981D01*
X77388D01*
X77221Y21814D01*
Y21648D01*
X77388Y21481D01*
X77555D01*
X77388D01*
X77221Y21314D01*
Y21148D01*
X77388Y20981D01*
X77721D01*
X77888Y21148D01*
X76888Y20981D02*
X76555D01*
X76721D01*
Y21981D01*
X76888Y21814D01*
X47261Y21958D02*
X47427Y22124D01*
X47761D01*
X47927Y21958D01*
Y21291D01*
X47761Y21125D01*
X47427D01*
X47261Y21291D01*
X46928Y21958D02*
X46761Y22124D01*
X46428D01*
X46261Y21958D01*
Y21791D01*
X46428Y21625D01*
X46594D01*
X46428D01*
X46261Y21458D01*
Y21291D01*
X46428Y21125D01*
X46761D01*
X46928Y21291D01*
X45928Y21958D02*
X45761Y22124D01*
X45428D01*
X45261Y21958D01*
Y21291D01*
X45428Y21125D01*
X45761D01*
X45928Y21291D01*
Y21958D01*
X97961Y21766D02*
X98127Y21933D01*
X98461D01*
X98627Y21766D01*
Y21100D01*
X98461Y20933D01*
X98127D01*
X97961Y21100D01*
X96961Y20933D02*
X97627D01*
X96961Y21600D01*
Y21766D01*
X97128Y21933D01*
X97461D01*
X97627Y21766D01*
X96628Y21100D02*
X96461Y20933D01*
X96128D01*
X95961Y21100D01*
Y21766D01*
X96128Y21933D01*
X96461D01*
X96628Y21766D01*
Y21600D01*
X96461Y21433D01*
X95961D01*
X68415Y21771D02*
X68581Y21937D01*
X68915D01*
X69081Y21771D01*
Y21104D01*
X68915Y20938D01*
X68581D01*
X68415Y21104D01*
X67415Y20938D02*
X68082D01*
X67415Y21604D01*
Y21771D01*
X67582Y21937D01*
X67915D01*
X68082Y21771D01*
X67082D02*
X66915Y21937D01*
X66582D01*
X66415Y21771D01*
Y21604D01*
X66582Y21438D01*
X66415Y21271D01*
Y21104D01*
X66582Y20938D01*
X66915D01*
X67082Y21104D01*
Y21271D01*
X66915Y21438D01*
X67082Y21604D01*
Y21771D01*
X66915Y21438D02*
X66582D01*
X37611Y22088D02*
X37778Y22254D01*
X38111D01*
X38278Y22088D01*
Y21421D01*
X38111Y21255D01*
X37778D01*
X37611Y21421D01*
X36612Y21255D02*
X37278D01*
X36612Y21921D01*
Y22088D01*
X36778Y22254D01*
X37111D01*
X37278Y22088D01*
X36278Y22254D02*
X35612D01*
Y22088D01*
X36278Y21421D01*
Y21255D01*
X15153Y21895D02*
X15320Y22061D01*
X15653D01*
X15820Y21895D01*
Y21228D01*
X15653Y21062D01*
X15320D01*
X15153Y21228D01*
X14154Y21062D02*
X14820D01*
X14154Y21728D01*
Y21895D01*
X14320Y22061D01*
X14653D01*
X14820Y21895D01*
X13154Y22061D02*
X13487Y21895D01*
X13820Y21562D01*
Y21228D01*
X13654Y21062D01*
X13321D01*
X13154Y21228D01*
Y21395D01*
X13321Y21562D01*
X13820D01*
X180605Y48426D02*
X180772Y48592D01*
X181105D01*
X181272Y48426D01*
Y47759D01*
X181105Y47593D01*
X180772D01*
X180605Y47759D01*
X179606Y47593D02*
X180272D01*
X179606Y48259D01*
Y48426D01*
X179772Y48592D01*
X180106D01*
X180272Y48426D01*
X178606Y48592D02*
X179273D01*
Y48092D01*
X178939Y48259D01*
X178773D01*
X178606Y48092D01*
Y47759D01*
X178773Y47593D01*
X179106D01*
X179273Y47759D01*
X165147Y63577D02*
X165314Y63744D01*
X165647D01*
X165814Y63577D01*
Y62911D01*
X165647Y62744D01*
X165314D01*
X165147Y62911D01*
X164148Y62744D02*
X164814D01*
X164148Y63410D01*
Y63577D01*
X164314Y63744D01*
X164647D01*
X164814Y63577D01*
X163314Y62744D02*
Y63744D01*
X163814Y63244D01*
X163148D01*
X2815Y21939D02*
X2982Y22106D01*
X3315D01*
X3482Y21939D01*
Y21273D01*
X3315Y21106D01*
X2982D01*
X2815Y21273D01*
X1816Y21106D02*
X2482D01*
X1816Y21773D01*
Y21939D01*
X1982Y22106D01*
X2316D01*
X2482Y21939D01*
X1482D02*
X1316Y22106D01*
X983D01*
X816Y21939D01*
Y21773D01*
X983Y21606D01*
X1149D01*
X983D01*
X816Y21439D01*
Y21273D01*
X983Y21106D01*
X1316D01*
X1482Y21273D01*
X188111Y63649D02*
X188277Y63815D01*
X188611D01*
X188777Y63649D01*
Y62982D01*
X188611Y62816D01*
X188277D01*
X188111Y62982D01*
X187111Y62816D02*
X187778D01*
X187111Y63482D01*
Y63649D01*
X187278Y63815D01*
X187611D01*
X187778Y63649D01*
X186112Y62816D02*
X186778D01*
X186112Y63482D01*
Y63649D01*
X186278Y63815D01*
X186611D01*
X186778Y63649D01*
X154282Y63462D02*
X154448Y63629D01*
X154782D01*
X154948Y63462D01*
Y62796D01*
X154782Y62629D01*
X154448D01*
X154282Y62796D01*
X153282Y62629D02*
X153948D01*
X153282Y63296D01*
Y63462D01*
X153449Y63629D01*
X153782D01*
X153948Y63462D01*
X152949Y62629D02*
X152616D01*
X152782D01*
Y63629D01*
X152949Y63462D01*
X192132Y48378D02*
X192298Y48544D01*
X192631D01*
X192798Y48378D01*
Y47711D01*
X192631Y47544D01*
X192298D01*
X192132Y47711D01*
X191132Y47544D02*
X191798D01*
X191132Y48211D01*
Y48378D01*
X191298Y48544D01*
X191632D01*
X191798Y48378D01*
X190799D02*
X190632Y48544D01*
X190299D01*
X190132Y48378D01*
Y47711D01*
X190299Y47544D01*
X190632D01*
X190799Y47711D01*
Y48378D01*
X176622Y63482D02*
X176789Y63648D01*
X177122D01*
X177288Y63482D01*
Y62815D01*
X177122Y62649D01*
X176789D01*
X176622Y62815D01*
X176289Y62649D02*
X175955D01*
X176122D01*
Y63648D01*
X176289Y63482D01*
X175456Y62815D02*
X175289Y62649D01*
X174956D01*
X174789Y62815D01*
Y63482D01*
X174956Y63648D01*
X175289D01*
X175456Y63482D01*
Y63315D01*
X175289Y63148D01*
X174789D01*
X25406Y21351D02*
X25240Y21184D01*
X24907D01*
X24740Y21351D01*
Y22017D01*
X24907Y22184D01*
X25240D01*
X25406Y22017D01*
X25740Y22184D02*
X26073D01*
X25906D01*
Y21184D01*
X25740Y21351D01*
X26573D02*
X26739Y21184D01*
X27073D01*
X27239Y21351D01*
Y21518D01*
X27073Y21684D01*
X27239Y21851D01*
Y22017D01*
X27073Y22184D01*
X26739D01*
X26573Y22017D01*
Y21851D01*
X26739Y21684D01*
X26573Y21518D01*
Y21351D01*
X26739Y21684D02*
X27073D01*
X143124Y63480D02*
X143290Y63647D01*
X143624D01*
X143790Y63480D01*
Y62814D01*
X143624Y62647D01*
X143290D01*
X143124Y62814D01*
X142791Y62647D02*
X142457D01*
X142624D01*
Y63647D01*
X142791Y63480D01*
X141957Y63647D02*
X141291D01*
Y63480D01*
X141957Y62814D01*
Y62647D01*
X110006Y63699D02*
X110172Y63866D01*
X110506D01*
X110672Y63699D01*
Y63033D01*
X110506Y62866D01*
X110172D01*
X110006Y63033D01*
X109673Y62866D02*
X109339D01*
X109506D01*
Y63866D01*
X109673Y63699D01*
X108173Y63866D02*
X108506Y63699D01*
X108840Y63366D01*
Y63033D01*
X108673Y62866D01*
X108340D01*
X108173Y63033D01*
Y63199D01*
X108340Y63366D01*
X108840D01*
X77449Y63848D02*
X77616Y64014D01*
X77949D01*
X78116Y63848D01*
Y63181D01*
X77949Y63015D01*
X77616D01*
X77449Y63181D01*
X77116Y63015D02*
X76783D01*
X76950D01*
Y64014D01*
X77116Y63848D01*
X75617Y64014D02*
X76283D01*
Y63514D01*
X75950Y63681D01*
X75783D01*
X75617Y63514D01*
Y63181D01*
X75783Y63015D01*
X76116D01*
X76283Y63181D01*
X132231Y63781D02*
X132397Y63947D01*
X132730D01*
X132897Y63781D01*
Y63114D01*
X132730Y62948D01*
X132397D01*
X132231Y63114D01*
X131897Y62948D02*
X131564D01*
X131731D01*
Y63947D01*
X131897Y63781D01*
X130564Y62948D02*
Y63947D01*
X131064Y63448D01*
X130398D01*
X99084Y63802D02*
X99251Y63968D01*
X99584D01*
X99751Y63802D01*
Y63135D01*
X99584Y62969D01*
X99251D01*
X99084Y63135D01*
X98751Y62969D02*
X98418D01*
X98584D01*
Y63968D01*
X98751Y63802D01*
X97918D02*
X97751Y63968D01*
X97418D01*
X97251Y63802D01*
Y63635D01*
X97418Y63468D01*
X97585D01*
X97418D01*
X97251Y63302D01*
Y63135D01*
X97418Y62969D01*
X97751D01*
X97918Y63135D01*
X66744Y63729D02*
X66911Y63895D01*
X67244D01*
X67410Y63729D01*
Y63062D01*
X67244Y62895D01*
X66911D01*
X66744Y63062D01*
X66411Y62895D02*
X66078D01*
X66244D01*
Y63895D01*
X66411Y63729D01*
X64911Y62895D02*
X65578D01*
X64911Y63562D01*
Y63729D01*
X65078Y63895D01*
X65411D01*
X65578Y63729D01*
X121213Y63762D02*
X121380Y63929D01*
X121713D01*
X121880Y63762D01*
Y63096D01*
X121713Y62929D01*
X121380D01*
X121213Y63096D01*
X120880Y62929D02*
X120547D01*
X120713D01*
Y63929D01*
X120880Y63762D01*
X120047Y62929D02*
X119714D01*
X119880D01*
Y63929D01*
X120047Y63762D01*
X88005Y63648D02*
X88171Y63815D01*
X88504D01*
X88671Y63648D01*
Y62982D01*
X88504Y62815D01*
X88171D01*
X88005Y62982D01*
X87671Y62815D02*
X87338D01*
X87505D01*
Y63815D01*
X87671Y63648D01*
X86838D02*
X86672Y63815D01*
X86338D01*
X86172Y63648D01*
Y62982D01*
X86338Y62815D01*
X86672D01*
X86838Y62982D01*
Y63648D01*
X56317Y63966D02*
X56483Y64132D01*
X56816D01*
X56983Y63966D01*
Y63299D01*
X56816Y63133D01*
X56483D01*
X56317Y63299D01*
X55983D02*
X55817Y63133D01*
X55483D01*
X55317Y63299D01*
Y63966D01*
X55483Y64132D01*
X55817D01*
X55983Y63966D01*
Y63799D01*
X55817Y63632D01*
X55317D01*
X175063Y21466D02*
X175230Y21632D01*
X175563D01*
X175730Y21466D01*
Y20799D01*
X175563Y20633D01*
X175230D01*
X175063Y20799D01*
X174730Y21466D02*
X174564Y21632D01*
X174230D01*
X174064Y21466D01*
Y21299D01*
X174230Y21132D01*
X174064Y20966D01*
Y20799D01*
X174230Y20633D01*
X174564D01*
X174730Y20799D01*
Y20966D01*
X174564Y21132D01*
X174730Y21299D01*
Y21466D01*
X174564Y21132D02*
X174230D01*
X146066Y21542D02*
X146232Y21709D01*
X146566D01*
X146732Y21542D01*
Y20876D01*
X146566Y20709D01*
X146232D01*
X146066Y20876D01*
X145733Y21709D02*
X145066D01*
Y21542D01*
X145733Y20876D01*
Y20709D01*
X194336Y21572D02*
X194503Y21738D01*
X194836D01*
X195003Y21572D01*
Y20905D01*
X194836Y20739D01*
X194503D01*
X194336Y20905D01*
X193337Y21738D02*
X193670Y21572D01*
X194003Y21239D01*
Y20905D01*
X193837Y20739D01*
X193503D01*
X193337Y20905D01*
Y21072D01*
X193503Y21239D01*
X194003D01*
X165454Y21470D02*
X165621Y21636D01*
X165954D01*
X166120Y21470D01*
Y20803D01*
X165954Y20636D01*
X165621D01*
X165454Y20803D01*
X164454Y21636D02*
X165121D01*
Y21136D01*
X164787Y21303D01*
X164621D01*
X164454Y21136D01*
Y20803D01*
X164621Y20636D01*
X164954D01*
X165121Y20803D01*
X136366Y21539D02*
X136533Y21706D01*
X136866D01*
X137033Y21539D01*
Y20873D01*
X136866Y20706D01*
X136533D01*
X136366Y20873D01*
X135533Y20706D02*
Y21706D01*
X136033Y21206D01*
X135367D01*
X184686Y21610D02*
X184853Y21777D01*
X185186D01*
X185352Y21610D01*
Y20944D01*
X185186Y20777D01*
X184853D01*
X184686Y20944D01*
X184353Y21610D02*
X184186Y21777D01*
X183853D01*
X183686Y21610D01*
Y21444D01*
X183853Y21277D01*
X184020D01*
X183853D01*
X183686Y21110D01*
Y20944D01*
X183853Y20777D01*
X184186D01*
X184353Y20944D01*
X155971Y21648D02*
X156138Y21814D01*
X156471D01*
X156638Y21648D01*
Y20981D01*
X156471Y20815D01*
X156138D01*
X155971Y20981D01*
X154972Y20815D02*
X155638D01*
X154972Y21481D01*
Y21648D01*
X155138Y21814D01*
X155472D01*
X155638Y21648D01*
X126847Y21655D02*
X127014Y21821D01*
X127347D01*
X127514Y21655D01*
Y20988D01*
X127347Y20822D01*
X127014D01*
X126847Y20988D01*
X126514Y20822D02*
X126181D01*
X126347D01*
Y21821D01*
X126514Y21655D01*
D13*
X90551Y33455D02*
X90951D01*
X90551Y32655D02*
X90951D01*
X53802Y39038D02*
X57002D01*
X53802Y29138D02*
Y39038D01*
Y29138D02*
X57002D01*
Y39038D01*
X57352Y39208D02*
X58877D01*
X106054Y28911D02*
X106454D01*
X106054Y28111D02*
X106454D01*
X139928Y38696D02*
X140328D01*
X139928Y37896D02*
X140328D01*
X38023Y64427D02*
X38423D01*
X38023Y63627D02*
X38423D01*
X60537Y31299D02*
X60937D01*
X60537Y32099D02*
X60937D01*
X60546Y32899D02*
X60946D01*
X60546Y33699D02*
X60946D01*
X60532Y34523D02*
X60932D01*
X60532Y35323D02*
X60932D01*
X60547Y36141D02*
X60947D01*
X60547Y36941D02*
X60947D01*
X49776Y37535D02*
X50176D01*
X49776Y36735D02*
X50176D01*
X49811Y34263D02*
X50211D01*
X49811Y33463D02*
X50211D01*
X49772Y35913D02*
X50172D01*
X49772Y35113D02*
X50172D01*
X49822Y31020D02*
X50222D01*
X49822Y30220D02*
X50222D01*
X49818Y32635D02*
X50218D01*
X49818Y31835D02*
X50218D01*
X49834Y29408D02*
X50234D01*
X49834Y28608D02*
X50234D01*
X162780Y36997D02*
X163180D01*
X162780Y36197D02*
X163180D01*
X162764Y38613D02*
X163164D01*
X162764Y37813D02*
X163164D01*
X162799Y30462D02*
X163199D01*
X162799Y29662D02*
X163199D01*
X173525Y37736D02*
X173925D01*
X173525Y38536D02*
X173925D01*
X173515Y36102D02*
X173915D01*
X173515Y36902D02*
X173915D01*
X170344Y40579D02*
X171869D01*
X169994Y30509D02*
Y40409D01*
X166794Y30509D02*
X169994D01*
X166794D02*
Y40409D01*
X169994D01*
X162776Y35386D02*
X163176D01*
X162776Y34586D02*
X163176D01*
X162793Y32147D02*
X163193D01*
X162793Y31347D02*
X163193D01*
X162772Y33772D02*
X163172D01*
X162772Y32972D02*
X163172D01*
X173520Y34477D02*
X173920D01*
X173520Y35277D02*
X173920D01*
X173520Y32867D02*
X173920D01*
X173520Y33667D02*
X173920D01*
X79864Y37117D02*
X80264D01*
X79864Y36317D02*
X80264D01*
X79883Y35490D02*
X80283D01*
X79883Y34690D02*
X80283D01*
X79873Y38739D02*
X80273D01*
X79873Y37939D02*
X80273D01*
X79878Y33846D02*
X80278D01*
X79878Y33046D02*
X80278D01*
X87371Y40852D02*
X88896D01*
X87021Y30782D02*
Y40682D01*
X83821Y30782D02*
X87021D01*
X83821D02*
Y40682D01*
X87021D01*
X79894Y31656D02*
X80294D01*
X79894Y30856D02*
X80294D01*
X90557Y37554D02*
X90957D01*
X90557Y38354D02*
X90957D01*
X90555Y34317D02*
X90955D01*
X90555Y35117D02*
X90955D01*
X90565Y35939D02*
X90965D01*
X90565Y36739D02*
X90965D01*
X192577Y13982D02*
Y14382D01*
X193377Y13982D02*
Y14382D01*
X191818Y9432D02*
Y9832D01*
X192618Y9432D02*
Y9832D01*
X196502Y16625D02*
X196902D01*
X196502Y15825D02*
X196902D01*
X195583Y10103D02*
X196383D01*
Y10603D01*
X193383Y10103D02*
X194183D01*
X193383D02*
Y10603D01*
X199001Y11603D02*
X199401D01*
X199001Y12403D02*
X199401D01*
X196725Y23670D02*
X197125D01*
X196725Y22870D02*
X197125D01*
X201509Y25406D02*
X201909D01*
X201509Y26206D02*
X201909D01*
X173899Y15220D02*
Y15620D01*
X174699Y15220D02*
Y15620D01*
X183778Y14625D02*
Y15025D01*
X184578Y14625D02*
Y15025D01*
X182400Y9417D02*
Y9817D01*
X183200Y9417D02*
Y9817D01*
X186922Y16625D02*
X187322D01*
X186922Y15825D02*
X187322D01*
X186039Y10119D02*
X186839D01*
Y10619D01*
X183839Y10119D02*
X184639D01*
X183839D02*
Y10619D01*
X189444Y11603D02*
X189844D01*
X189444Y12403D02*
X189844D01*
X187135Y23670D02*
X187535D01*
X187135Y22870D02*
X187535D01*
X191976Y25406D02*
X192376D01*
X191976Y26206D02*
X192376D01*
X170031Y11619D02*
X170431D01*
X170031Y12419D02*
X170431D01*
X172406Y9395D02*
Y9795D01*
X173206Y9395D02*
Y9795D01*
X177745Y16625D02*
X178145D01*
X177745Y15825D02*
X178145D01*
X176008Y10103D02*
X176808D01*
Y10603D01*
X173808Y10103D02*
X174608D01*
X173808D02*
Y10603D01*
X179824Y11603D02*
X180224D01*
X179824Y12403D02*
X180224D01*
X177270Y23670D02*
X177670D01*
X177270Y22870D02*
X177670D01*
X182149Y25406D02*
X182549D01*
X182149Y26206D02*
X182549D01*
X164231Y14621D02*
Y15021D01*
X165031Y14621D02*
Y15021D01*
X168112Y16625D02*
X168512D01*
X168112Y15825D02*
X168512D01*
X163613Y9387D02*
Y9787D01*
X162813Y9387D02*
Y9787D01*
X166422Y10103D02*
X167222D01*
Y10603D01*
X164222Y10103D02*
X165022D01*
X164222D02*
Y10603D01*
X167944Y23670D02*
X168344D01*
X167944Y22870D02*
X168344D01*
X172508Y25406D02*
X172908D01*
X172508Y26206D02*
X172908D01*
X154818Y14580D02*
Y14980D01*
X155618Y14580D02*
Y14980D01*
X154607Y9388D02*
Y9788D01*
X153807Y9388D02*
Y9788D01*
X158408Y16625D02*
X158808D01*
X158408Y15825D02*
X158808D01*
X157470Y10103D02*
X158270D01*
Y10603D01*
X155270Y10103D02*
X156070D01*
X155270D02*
Y10603D01*
X160386Y11610D02*
X160786D01*
X160386Y12410D02*
X160786D01*
X158408Y23670D02*
X158808D01*
X158408Y22870D02*
X158808D01*
X163139Y25406D02*
X163539D01*
X163139Y26206D02*
X163539D01*
X145011Y14559D02*
Y14959D01*
X145811Y14559D02*
Y14959D01*
X144869Y9401D02*
Y9801D01*
X144069Y9401D02*
Y9801D01*
X148596Y16625D02*
X148996D01*
X148596Y15825D02*
X148996D01*
X147696Y10103D02*
X148496D01*
Y10603D01*
X145496Y10103D02*
X146296D01*
X145496D02*
Y10603D01*
X150983Y11603D02*
X151383D01*
X150983Y12403D02*
X151383D01*
X148596Y23670D02*
X148996D01*
X148596Y22870D02*
X148996D01*
X153318Y25406D02*
X153718D01*
X153318Y26206D02*
X153718D01*
X141659Y11603D02*
X142059D01*
X141659Y12403D02*
X142059D01*
X135359Y14594D02*
Y14994D01*
X136159Y14594D02*
Y14994D01*
X135182Y9430D02*
Y9830D01*
X134382Y9430D02*
Y9830D01*
X139007Y16625D02*
X139407D01*
X139007Y15825D02*
X139407D01*
X138010Y10103D02*
X138810D01*
Y10603D01*
X135810Y10103D02*
X136610D01*
X135810D02*
Y10603D01*
X139007Y23670D02*
X139407D01*
X139007Y22870D02*
X139407D01*
X143661Y25406D02*
X144061D01*
X143661Y26206D02*
X144061D01*
X125740Y14566D02*
Y14966D01*
X126540Y14566D02*
Y14966D01*
X124168Y9448D02*
Y9848D01*
X124968Y9448D02*
Y9848D01*
X129315Y16625D02*
X129715D01*
X129315Y15825D02*
X129715D01*
X127817Y10103D02*
X128617D01*
Y10603D01*
X125617Y10103D02*
X126417D01*
X125617D02*
Y10603D01*
X131529Y11603D02*
X131929D01*
X131529Y12403D02*
X131929D01*
X129315Y23838D02*
X129715D01*
X129315Y23038D02*
X129715D01*
X134154Y25406D02*
X134554D01*
X134154Y26206D02*
X134554D01*
X115966Y14582D02*
Y14982D01*
X116766Y14582D02*
Y14982D01*
X115233Y9488D02*
Y9888D01*
X114433Y9488D02*
Y9888D01*
X119314Y16625D02*
X119714D01*
X119314Y15825D02*
X119714D01*
X117968Y10103D02*
X118768D01*
Y10603D01*
X115768Y10103D02*
X116568D01*
X115768D02*
Y10603D01*
X122009Y11603D02*
X122409D01*
X122009Y12403D02*
X122409D01*
X119611Y23838D02*
X120011D01*
X119611Y23038D02*
X120011D01*
X124363Y25406D02*
X124763D01*
X124363Y26206D02*
X124763D01*
X106281Y14590D02*
Y14990D01*
X107081Y14590D02*
Y14990D01*
X105951Y9487D02*
Y9887D01*
X105151Y9487D02*
Y9887D01*
X109619Y16625D02*
X110019D01*
X109619Y15825D02*
X110019D01*
X108785Y10103D02*
X109585D01*
Y10603D01*
X106585Y10103D02*
X107385D01*
X106585D02*
Y10603D01*
X111769Y11586D02*
X112169D01*
X111769Y12386D02*
X112169D01*
X109800Y23838D02*
X110200D01*
X109800Y23038D02*
X110200D01*
X114573Y25406D02*
X114973D01*
X114573Y26206D02*
X114973D01*
X96800Y14615D02*
Y15015D01*
X97600Y14615D02*
Y15015D01*
X96391Y9513D02*
Y9913D01*
X95591Y9513D02*
Y9913D01*
X100564Y16625D02*
X100964D01*
X100564Y15825D02*
X100964D01*
X99245Y10103D02*
X100045D01*
Y10603D01*
X97045Y10103D02*
X97845D01*
X97045D02*
Y10603D01*
X102588Y12403D02*
X102988D01*
X102588Y11603D02*
X102988D01*
X100250Y23838D02*
X100650D01*
X100250Y23038D02*
X100650D01*
X105019Y25406D02*
X105419D01*
X105019Y26206D02*
X105419D01*
X87016Y14586D02*
Y14986D01*
X87816Y14586D02*
Y14986D01*
X86344Y9432D02*
Y9832D01*
X85544Y9432D02*
Y9832D01*
X91285Y16625D02*
X91685D01*
X91285Y15825D02*
X91685D01*
X89377Y10103D02*
X90177D01*
Y10603D01*
X87177Y10103D02*
X87977D01*
X87177D02*
Y10603D01*
X93090Y12403D02*
X93490D01*
X93090Y11603D02*
X93490D01*
X90682Y23838D02*
X91082D01*
X90682Y23038D02*
X91082D01*
X95370Y25406D02*
X95770D01*
X95370Y26206D02*
X95770D01*
X77174Y14551D02*
Y14951D01*
X77974Y14551D02*
Y14951D01*
X76984Y9455D02*
Y9855D01*
X76184Y9455D02*
Y9855D01*
X83071Y12403D02*
X83471D01*
X83071Y11603D02*
X83471D01*
X79835Y10103D02*
X80635D01*
Y10603D01*
X77635Y10103D02*
X78435D01*
X77635D02*
Y10603D01*
X81093Y16625D02*
X81493D01*
X81093Y15825D02*
X81493D01*
X80826Y24053D02*
X81226D01*
X80826Y23253D02*
X81226D01*
X85628Y25406D02*
X86028D01*
X85628Y26206D02*
X86028D01*
X67444Y14544D02*
Y14944D01*
X68244Y14544D02*
Y14944D01*
X66773Y9459D02*
Y9859D01*
X65973Y9459D02*
Y9859D01*
X71306Y16625D02*
X71706D01*
X71306Y15825D02*
X71706D01*
X69885Y10103D02*
X70685D01*
Y10603D01*
X67685Y10103D02*
X68485D01*
X67685D02*
Y10603D01*
X73306Y12403D02*
X73706D01*
X73306Y11603D02*
X73706D01*
X71097Y24053D02*
X71497D01*
X71097Y23253D02*
X71497D01*
X75649Y25406D02*
X76049D01*
X75649Y26206D02*
X76049D01*
X57362Y14811D02*
Y15211D01*
X58162Y14811D02*
Y15211D01*
X56513Y9377D02*
Y9777D01*
X55713Y9377D02*
Y9777D01*
X60994Y15825D02*
X61394D01*
X60994Y16625D02*
X61394D01*
X59466Y10103D02*
X60266D01*
Y10603D01*
X57266Y10103D02*
X58066D01*
X57266D02*
Y10603D01*
X63254Y11603D02*
X63654D01*
X63254Y12403D02*
X63654D01*
X60856Y24053D02*
X61256D01*
X60856Y23253D02*
X61256D01*
X65594Y25406D02*
X65994D01*
X65594Y26206D02*
X65994D01*
X46723Y14811D02*
Y15211D01*
X47523Y14811D02*
Y15211D01*
X44268Y9432D02*
Y9832D01*
X45068Y9432D02*
Y9832D01*
X50612Y16625D02*
X51012D01*
X50612Y15825D02*
X51012D01*
X47988Y10103D02*
X48788D01*
Y10603D01*
X45788Y10103D02*
X46588D01*
X45788D02*
Y10603D01*
X51085Y12403D02*
X51485D01*
X51085Y11603D02*
X51485D01*
X50429Y24269D02*
X50829D01*
X50429Y23469D02*
X50829D01*
X55170Y25406D02*
X55570D01*
X55170Y26206D02*
X55570D01*
X36289Y14811D02*
Y15211D01*
X37089Y14811D02*
Y15211D01*
X34777Y9396D02*
Y9796D01*
X33977Y9396D02*
Y9796D01*
X40008Y16731D02*
X40408D01*
X40008Y15931D02*
X40408D01*
X37617Y10038D02*
X38417D01*
Y10538D01*
X35417Y10038D02*
X36217D01*
X35417D02*
Y10538D01*
X40756Y12403D02*
X41156D01*
X40756Y11603D02*
X41156D01*
X39758Y24269D02*
X40158D01*
X39758Y23469D02*
X40158D01*
X44673Y25406D02*
X45073D01*
X44673Y26206D02*
X45073D01*
X25348Y14811D02*
Y15211D01*
X26148Y14811D02*
Y15211D01*
X23958Y9415D02*
Y9815D01*
X23158Y9415D02*
Y9815D01*
X29268Y16731D02*
X29668D01*
X29268Y15931D02*
X29668D01*
X30323Y12338D02*
X30723D01*
X30323Y11538D02*
X30723D01*
X27061Y10103D02*
X27861D01*
Y10603D01*
X24861Y10103D02*
X25661D01*
X24861D02*
Y10603D01*
X13787Y14811D02*
Y15211D01*
X14587Y14811D02*
Y15211D01*
X10216Y9645D02*
Y10045D01*
X11016Y9645D02*
Y10045D01*
X17776Y16731D02*
X18176D01*
X17776Y15931D02*
X18176D01*
X13887Y10038D02*
X14687D01*
Y10538D01*
X11687Y10038D02*
X12487D01*
X11687D02*
Y10538D01*
X18056Y12338D02*
X18456D01*
X18056Y11538D02*
X18456D01*
X17776Y24269D02*
X18176D01*
X17776Y23469D02*
X18176D01*
X22627Y25406D02*
X23027D01*
X22627Y26206D02*
X23027D01*
X134538Y48836D02*
Y49236D01*
X133738Y48836D02*
Y49236D01*
X138407Y48029D02*
Y48829D01*
X140007Y48029D02*
Y48829D01*
X104114Y41407D02*
Y42207D01*
X102514Y41407D02*
Y42207D01*
X106419Y43977D02*
Y44377D01*
X105619Y43977D02*
Y44377D01*
X131524Y42577D02*
X132324D01*
X131524Y44177D02*
X132324D01*
X132754Y40359D02*
Y41159D01*
X3365Y15160D02*
Y15560D01*
X4165Y15160D02*
Y15560D01*
X2891Y11125D02*
Y11525D01*
X3691Y11125D02*
Y11525D01*
X6919Y16788D02*
X7319D01*
X6919Y15988D02*
X7319D01*
X6626Y9687D02*
X7426D01*
Y10187D01*
X4426Y9687D02*
X5226D01*
X4426D02*
Y10187D01*
X8289Y11092D02*
Y11492D01*
X9089Y11092D02*
Y11492D01*
X5472Y24269D02*
X5872D01*
X5472Y23469D02*
X5872D01*
X10140Y25406D02*
X10540D01*
X10140Y26206D02*
X10540D01*
X200927Y35789D02*
X201327D01*
X200927Y36589D02*
X201327D01*
X200927Y33319D02*
X201327D01*
X200927Y34119D02*
X201327D01*
X200927Y30793D02*
X201327D01*
X200927Y31593D02*
X201327D01*
X200927Y28220D02*
X201327D01*
X200927Y29020D02*
X201327D01*
X201194Y49646D02*
X201594D01*
X201194Y50446D02*
X201594D01*
X201194Y47184D02*
X201594D01*
X201194Y47984D02*
X201594D01*
X201194Y44610D02*
X201594D01*
X201194Y45410D02*
X201594D01*
X201194Y39254D02*
X201594D01*
X201194Y40054D02*
X201594D01*
X84197Y48651D02*
X84597D01*
X84197Y49451D02*
X84597D01*
X84217Y46757D02*
X84617D01*
X84217Y47557D02*
X84617D01*
X95657Y47056D02*
X96057D01*
X95657Y46256D02*
X96057D01*
X95642Y48860D02*
X96042D01*
X95642Y48060D02*
X96042D01*
X190918Y55622D02*
X191318D01*
X190918Y56422D02*
X191318D01*
X188706Y43753D02*
X189106D01*
X188706Y44553D02*
X189106D01*
X188288Y41696D02*
X188688D01*
X188288Y42496D02*
X188688D01*
X184551Y54147D02*
X184951D01*
X184551Y53347D02*
X184951D01*
X202692Y71948D02*
Y72348D01*
X201892Y71948D02*
Y72348D01*
X197145Y70395D02*
X197545D01*
X197145Y71195D02*
X197545D01*
X197639Y74628D02*
X198439D01*
X197639Y74128D02*
Y74628D01*
X199839D02*
X200639D01*
Y74128D02*
Y74628D01*
X196723Y73687D02*
Y74087D01*
X195923Y73687D02*
Y74087D01*
X176921Y41696D02*
X177321D01*
X176921Y42496D02*
X177321D01*
X177270Y43702D02*
X177670D01*
X177270Y44502D02*
X177670D01*
X195202Y69091D02*
X195602D01*
X195202Y68291D02*
X195602D01*
X194823Y71694D02*
Y72094D01*
X194023Y71694D02*
Y72094D01*
X191800Y68287D02*
X192200D01*
X191800Y69087D02*
X192200D01*
X188790Y74626D02*
X189590D01*
X188790Y74126D02*
Y74626D01*
X190990D02*
X191790D01*
Y74126D02*
Y74626D01*
X187838Y73427D02*
Y73827D01*
X187038Y73427D02*
Y73827D01*
X188038Y60792D02*
X188438D01*
X188038Y61592D02*
X188438D01*
X187673Y58755D02*
X188073D01*
X187673Y59555D02*
X188073D01*
X183818Y69103D02*
X184218D01*
X183818Y68303D02*
X184218D01*
X183457Y71822D02*
Y72222D01*
X182657Y71822D02*
Y72222D01*
X180415Y68287D02*
X180815D01*
X180415Y69087D02*
X180815D01*
X177479Y74719D02*
X178279D01*
X177479Y74219D02*
Y74719D01*
X179679D02*
X180479D01*
Y74219D02*
Y74719D01*
X176575Y73427D02*
Y73827D01*
X175775Y73427D02*
Y73827D01*
X176775Y60797D02*
X177175D01*
X176775Y61597D02*
X177175D01*
X176262Y58755D02*
X176662D01*
X176262Y59555D02*
X176662D01*
X172520Y69091D02*
X172920D01*
X172520Y68291D02*
X172920D01*
X172286Y71822D02*
Y72222D01*
X171486Y71822D02*
Y72222D01*
X169008Y68287D02*
X169408D01*
X169008Y69087D02*
X169408D01*
X166308Y74576D02*
X167108D01*
X166308Y74076D02*
Y74576D01*
X168508D02*
X169308D01*
Y74076D02*
Y74576D01*
X165424Y73427D02*
Y73827D01*
X164624Y73427D02*
Y73827D01*
X165485Y60776D02*
X165885D01*
X165485Y61576D02*
X165885D01*
X165053Y58755D02*
X165453D01*
X165053Y59555D02*
X165453D01*
X161204Y69092D02*
X161604D01*
X161204Y68292D02*
X161604D01*
X161316Y71822D02*
Y72222D01*
X160516Y71822D02*
Y72222D01*
X157576Y68304D02*
X157976D01*
X157576Y69104D02*
X157976D01*
X155317Y74534D02*
X156117D01*
X155317Y74034D02*
Y74534D01*
X157517D02*
X158317D01*
Y74034D02*
Y74534D01*
X154296Y73427D02*
Y73827D01*
X153496Y73427D02*
Y73827D01*
X154354Y60769D02*
X154754D01*
X154354Y61569D02*
X154754D01*
X153909Y58755D02*
X154309D01*
X153909Y59555D02*
X154309D01*
X29268Y24269D02*
X29668D01*
X29268Y23469D02*
X29668D01*
X34071Y25406D02*
X34471D01*
X34071Y26206D02*
X34471D01*
X150134Y69087D02*
X150534D01*
X150134Y68287D02*
X150534D01*
X143250Y73427D02*
Y73827D01*
X142450Y73427D02*
Y73827D01*
X150310Y72171D02*
Y72571D01*
X149510Y72171D02*
Y72571D01*
X146084Y68287D02*
X146484D01*
X146084Y69087D02*
X146484D01*
X144116Y74570D02*
X144916D01*
X144116Y74070D02*
Y74570D01*
X146316D02*
X147116D01*
Y74070D02*
Y74570D01*
X143200Y60824D02*
X143600D01*
X143200Y61624D02*
X143600D01*
X142415Y58755D02*
X142815D01*
X142415Y59555D02*
X142815D01*
X132308Y73467D02*
Y73867D01*
X131508Y73467D02*
Y73867D01*
X139115Y69104D02*
X139515D01*
X139115Y68304D02*
X139515D01*
X139026Y72171D02*
Y72571D01*
X138226Y72171D02*
Y72571D01*
X134913Y68287D02*
X135313D01*
X134913Y69087D02*
X135313D01*
X133163Y74570D02*
X133963D01*
X133163Y74070D02*
Y74570D01*
X135363D02*
X136163D01*
Y74070D02*
Y74570D01*
X132216Y60746D02*
X132616D01*
X132216Y61546D02*
X132616D01*
X131608Y58755D02*
X132008D01*
X131608Y59555D02*
X132008D01*
X121087Y73480D02*
Y73880D01*
X120287Y73480D02*
Y73880D01*
X128050Y69097D02*
X128450D01*
X128050Y68297D02*
X128450D01*
X127713Y72171D02*
Y72571D01*
X126913Y72171D02*
Y72571D01*
X124025Y68304D02*
X124425D01*
X124025Y69104D02*
X124425D01*
X122109Y74570D02*
X122909D01*
X122109Y74070D02*
Y74570D01*
X124309D02*
X125109D01*
Y74070D02*
Y74570D01*
X120566Y58755D02*
X120966D01*
X120566Y59555D02*
X120966D01*
X121112Y60808D02*
X121512D01*
X121112Y61608D02*
X121512D01*
X116992Y69104D02*
X117392D01*
X116992Y68304D02*
X117392D01*
X116920Y72141D02*
Y72541D01*
X116120Y72141D02*
Y72541D01*
X112873Y68287D02*
X113273D01*
X112873Y69087D02*
X113273D01*
X110202Y73481D02*
Y73881D01*
X109402Y73481D02*
Y73881D01*
X111220Y74702D02*
X112020D01*
X111220Y74202D02*
Y74702D01*
X113420D02*
X114220D01*
Y74202D02*
Y74702D01*
X110067Y60774D02*
X110467D01*
X110067Y61574D02*
X110467D01*
X109550Y58755D02*
X109950D01*
X109550Y59555D02*
X109950D01*
X105906Y69087D02*
X106306D01*
X105906Y68287D02*
X106306D01*
X101776Y68287D02*
X102176D01*
X101776Y69087D02*
X102176D01*
X106069Y72171D02*
Y72571D01*
X105269Y72171D02*
Y72571D01*
X100576Y74705D02*
X101376D01*
X100576Y74205D02*
Y74705D01*
X102776D02*
X103576D01*
Y74205D02*
Y74705D01*
X99405Y73502D02*
Y73902D01*
X98605Y73502D02*
Y73902D01*
X99218Y60759D02*
X99618D01*
X99218Y61559D02*
X99618D01*
X98805Y58755D02*
X99205D01*
X98805Y59555D02*
X99205D01*
X94884Y72171D02*
Y72571D01*
X94084Y72171D02*
Y72571D01*
X91300Y68345D02*
X91700D01*
X91300Y69145D02*
X91700D01*
X95062Y69214D02*
X95462D01*
X95062Y68414D02*
X95462D01*
X89848Y74702D02*
X90648D01*
X89848Y74202D02*
Y74702D01*
X92048D02*
X92848D01*
Y74202D02*
Y74702D01*
X88929Y73502D02*
Y73902D01*
X88129Y73502D02*
Y73902D01*
X88151Y60794D02*
X88551D01*
X88151Y61594D02*
X88551D01*
X87529Y59555D02*
X87929D01*
X87529Y58755D02*
X87929D01*
X82208Y74109D02*
Y74609D01*
X81408D02*
X82208D01*
X79208Y74109D02*
Y74609D01*
X80008D01*
X83258Y72281D02*
Y72681D01*
X84058Y72281D02*
Y72681D01*
X77427Y73442D02*
Y73842D01*
X78227Y73442D02*
Y73842D01*
X77039Y59555D02*
X77439D01*
X77039Y58755D02*
X77439D01*
X77380Y61557D02*
X77780D01*
X77380Y60757D02*
X77780D01*
X80293Y69087D02*
X80693D01*
X80293Y68287D02*
X80693D01*
X83989Y68414D02*
X84389D01*
X83989Y69214D02*
X84389D01*
X73010Y68345D02*
X73410D01*
X73010Y69145D02*
X73410D01*
X73633Y72274D02*
Y72674D01*
X74433Y72274D02*
Y72674D01*
X69127Y69106D02*
X69527D01*
X69127Y68306D02*
X69527D01*
X72650Y74235D02*
Y74735D01*
X71850D02*
X72650D01*
X69650Y74235D02*
Y74735D01*
X70450D01*
X67919Y73502D02*
Y73902D01*
X68719Y73502D02*
Y73902D01*
X66228Y61575D02*
X66628D01*
X66228Y60775D02*
X66628D01*
X66131Y59555D02*
X66531D01*
X66131Y58755D02*
X66531D01*
X62426Y68421D02*
X62826D01*
X62426Y69221D02*
X62826D01*
X63106Y72371D02*
Y72771D01*
X63906Y72371D02*
Y72771D01*
X58782Y69214D02*
X59182D01*
X58782Y68414D02*
X59182D01*
X62273Y74567D02*
Y75067D01*
X61473D02*
X62273D01*
X59273Y74567D02*
Y75067D01*
X60073D01*
X57538Y73800D02*
Y74200D01*
X58338Y73800D02*
Y74200D01*
X55987Y61583D02*
X56387D01*
X55987Y60783D02*
X56387D01*
X55990Y59555D02*
X56390D01*
X55990Y58755D02*
X56390D01*
X4005Y56894D02*
X4805D01*
X6340Y68674D02*
Y74037D01*
X3764Y68961D02*
Y74037D01*
X3852Y70499D02*
X6340D01*
X23302Y70889D02*
Y75489D01*
X21103D02*
X23302D01*
X21103Y70889D02*
Y75489D01*
Y70889D02*
X23302D01*
D15*
X79362Y20661D02*
X82412D01*
Y22111D01*
X79362D02*
X82412D01*
X79362Y20661D02*
Y22111D01*
X195524Y20600D02*
X198574D01*
Y22050D01*
X195524D02*
X198574D01*
X195524Y20600D02*
Y22050D01*
X186091Y20588D02*
X189141D01*
Y22038D01*
X186091D02*
X189141D01*
X186091Y20588D02*
Y22038D01*
X176182Y20552D02*
X179232D01*
Y22002D01*
X176182D02*
X179232D01*
X176182Y20552D02*
Y22002D01*
X166615Y20550D02*
X169665D01*
Y22000D01*
X166615D02*
X169665D01*
X166615Y20550D02*
Y22000D01*
X157131Y20569D02*
X160181D01*
Y22019D01*
X157131D02*
X160181D01*
X157131Y20569D02*
Y22019D01*
X147269Y20534D02*
X150319D01*
Y21984D01*
X147269D02*
X150319D01*
X147269Y20534D02*
Y21984D01*
X137734Y20572D02*
X140784D01*
Y22022D01*
X137734D02*
X140784D01*
X137734Y20572D02*
Y22022D01*
X128116Y20630D02*
X131166D01*
Y22080D01*
X128116D02*
X131166D01*
X128116Y20630D02*
Y22080D01*
X118381Y20597D02*
X121431D01*
Y22046D01*
X118381D02*
X121431D01*
X118381Y20597D02*
Y22046D01*
X108641Y20630D02*
X111691D01*
Y22080D01*
X108641D02*
X111691D01*
X108641Y20630D02*
Y22080D01*
X99112Y20676D02*
X102162D01*
Y22125D01*
X99112D02*
X102162D01*
X99112Y20676D02*
Y22125D01*
X89440Y20636D02*
X92490D01*
Y22086D01*
X89440D02*
X92490D01*
X89440Y20636D02*
Y22086D01*
X69981Y20674D02*
X73031D01*
Y22124D01*
X69981D02*
X73031D01*
X69981Y20674D02*
Y22124D01*
X59531Y20674D02*
X62581D01*
Y22124D01*
X59531D02*
X62581D01*
X59531Y20674D02*
Y22124D01*
X48917Y20858D02*
X51967D01*
Y22308D01*
X48917D02*
X51967D01*
X48917Y20858D02*
Y22308D01*
X39057Y20674D02*
X42107D01*
Y22124D01*
X39057D02*
X42107D01*
X39057Y20674D02*
Y22124D01*
X16731Y20674D02*
X19781D01*
Y22124D01*
X16731D02*
X19781D01*
X16731Y20674D02*
Y22124D01*
X124488Y46508D02*
Y49558D01*
X123038D02*
X124488D01*
X123038Y46508D02*
Y49558D01*
Y46508D02*
X124488D01*
X127189D02*
Y49558D01*
X125739D02*
X127189D01*
X125739Y46508D02*
Y49558D01*
Y46508D02*
X127189D01*
X130394Y46539D02*
X133444D01*
X130394Y45089D02*
Y46539D01*
Y45089D02*
X133444D01*
Y46539D01*
X4292Y20858D02*
X7342D01*
Y22308D01*
X4292D02*
X7342D01*
X4292Y20858D02*
Y22308D01*
X189982Y47009D02*
X193032D01*
X189982Y45559D02*
Y47009D01*
Y45559D02*
X193032D01*
Y47009D01*
X178399D02*
X181449D01*
X178399Y45559D02*
Y47009D01*
Y45559D02*
X181449D01*
Y47009D01*
X189485Y64029D02*
X192535D01*
X189485Y62579D02*
Y64029D01*
Y62579D02*
X192535D01*
Y64029D01*
X177970Y63905D02*
X181020D01*
X177970Y62455D02*
Y63905D01*
Y62455D02*
X181020D01*
Y63905D01*
X166673Y63862D02*
X169723D01*
X166673Y62412D02*
Y63862D01*
Y62412D02*
X169723D01*
Y63862D01*
X155681Y63853D02*
X158731D01*
X155681Y62403D02*
Y63853D01*
Y62403D02*
X158731D01*
Y63853D01*
X28284Y20858D02*
X31334D01*
Y22308D01*
X28284D02*
X31334D01*
X28284Y20858D02*
Y22308D01*
X144714Y63827D02*
X147764D01*
X144714Y62377D02*
Y63827D01*
Y62377D02*
X147764D01*
Y63827D01*
X133588Y64142D02*
X136638D01*
X133588Y62692D02*
Y64142D01*
Y62692D02*
X136638D01*
Y64142D01*
X122534D02*
X125584D01*
X122534Y62692D02*
Y64142D01*
Y62692D02*
X125584D01*
Y64142D01*
X111426D02*
X114476D01*
X111426Y62692D02*
Y64142D01*
Y62692D02*
X114476D01*
Y64142D01*
X100539D02*
X103589D01*
X100539Y62692D02*
Y64142D01*
Y62692D02*
X103589D01*
Y64142D01*
X89431Y64040D02*
X92481D01*
X89431Y62590D02*
Y64040D01*
Y62590D02*
X92481D01*
Y64040D01*
X81876Y62692D02*
Y64142D01*
X78826Y62692D02*
X81876D01*
X78826D02*
Y64142D01*
X81876D01*
X71233Y62692D02*
Y64142D01*
X68183Y62692D02*
X71233D01*
X68183D02*
Y64142D01*
X71233D01*
X60827Y62878D02*
Y64328D01*
X57777Y62878D02*
X60827D01*
X57777D02*
Y64328D01*
X60827D01*
X13475Y64775D02*
Y66225D01*
X16525D01*
Y64775D02*
Y66225D01*
X13475Y64775D02*
X16525D01*
X6031Y58582D02*
X7481D01*
X6031D02*
Y61632D01*
X7481D01*
Y58582D02*
Y61632D01*
X65069Y50044D02*
X66519D01*
X65069D02*
Y53094D01*
X66519D01*
Y50044D02*
Y53094D01*
X65069Y44929D02*
X66519D01*
X65069D02*
Y47979D01*
X66519D01*
Y44929D02*
Y47979D01*
D16*
X194824Y16805D02*
Y17745D01*
X193834Y19853D02*
X194824D01*
Y18913D02*
Y19853D01*
X194418Y16805D02*
X194824D01*
X193834D02*
X194418D01*
X193402Y17999D02*
Y18659D01*
X175438Y17043D02*
Y17982D01*
X174447Y20091D02*
X175438D01*
Y19151D02*
Y20091D01*
X175031Y17043D02*
X175438D01*
X174447D02*
X175031D01*
X174015Y18236D02*
Y18897D01*
X185162Y16745D02*
Y17685D01*
X184172Y19793D02*
X185162D01*
Y18853D02*
Y19793D01*
X184756Y16745D02*
X185162D01*
X184172D02*
X184756D01*
X183740Y17939D02*
Y18599D01*
X165781Y17069D02*
Y18009D01*
X164790Y20117D02*
X165781D01*
Y19177D02*
Y20117D01*
X165375Y17069D02*
X165781D01*
X164790D02*
X165375D01*
X164359Y18263D02*
Y18923D01*
X156418Y17031D02*
Y17970D01*
X155427Y20079D02*
X156418D01*
Y19139D02*
Y20079D01*
X156011Y17031D02*
X156418D01*
X155427D02*
X156011D01*
X154995Y18224D02*
Y18885D01*
X146600Y16973D02*
Y17913D01*
X145609Y20021D02*
X146600D01*
Y19081D02*
Y20021D01*
X146193Y16973D02*
X146600D01*
X145609D02*
X146193D01*
X145177Y18167D02*
Y18827D01*
X136986Y17024D02*
Y17964D01*
X135995Y20072D02*
X136986D01*
Y19132D02*
Y20072D01*
X136580Y17024D02*
X136986D01*
X135995D02*
X136580D01*
X135564Y18218D02*
Y18878D01*
X127361Y17036D02*
Y17976D01*
X126370Y20084D02*
X127361D01*
Y19144D02*
Y20084D01*
X126954Y17036D02*
X127361D01*
X126370D02*
X126954D01*
X125938Y18230D02*
Y18890D01*
X117572Y17030D02*
Y17970D01*
X116581Y20078D02*
X117572D01*
Y19138D02*
Y20078D01*
X117166Y17030D02*
X117572D01*
X116581D02*
X117166D01*
X116150Y18224D02*
Y18884D01*
X107844Y17190D02*
Y18130D01*
X106854Y20238D02*
X107844D01*
Y19299D02*
Y20238D01*
X107438Y17190D02*
X107844D01*
X106854D02*
X107438D01*
X106422Y18384D02*
Y19045D01*
X98343Y17158D02*
Y18098D01*
X97352Y20206D02*
X98343D01*
Y19266D02*
Y20206D01*
X97937Y17158D02*
X98343D01*
X97352D02*
X97937D01*
X96921Y18352D02*
Y19012D01*
X88771Y17213D02*
Y18152D01*
X87780Y20261D02*
X88771D01*
Y19321D02*
Y20261D01*
X88365Y17213D02*
X88771D01*
X87780D02*
X88365D01*
X87349Y18406D02*
Y19067D01*
X78774Y17136D02*
Y18076D01*
X77784Y20184D02*
X78774D01*
Y19244D02*
Y20184D01*
X78368Y17136D02*
X78774D01*
X77784D02*
X78368D01*
X77352Y18330D02*
Y18990D01*
X68995Y17207D02*
Y18147D01*
X68004Y20255D02*
X68995D01*
Y19315D02*
Y20255D01*
X68588Y17207D02*
X68995D01*
X68004D02*
X68588D01*
X67572Y18401D02*
Y19061D01*
X58911Y17497D02*
Y18437D01*
X57920Y20545D02*
X58911D01*
Y19605D02*
Y20545D01*
X58504Y17497D02*
X58911D01*
X57920D02*
X58504D01*
X57488Y18691D02*
Y19351D01*
X48406Y17491D02*
Y18431D01*
X47416Y20539D02*
X48406D01*
Y19599D02*
Y20539D01*
X48000Y17491D02*
X48406D01*
X47416D02*
X48000D01*
X46984Y18685D02*
Y19345D01*
X37937Y17534D02*
Y18474D01*
X36946Y20582D02*
X37937D01*
Y19643D02*
Y20582D01*
X37530Y17534D02*
X37937D01*
X36946D02*
X37530D01*
X36514Y18728D02*
Y19389D01*
X27334Y17567D02*
Y18507D01*
X26344Y20615D02*
X27334D01*
Y19675D02*
Y20615D01*
X26928Y17567D02*
X27334D01*
X26344D02*
X26928D01*
X25912Y18761D02*
Y19421D01*
X15826Y17448D02*
Y18387D01*
X14836Y20496D02*
X15826D01*
Y19556D02*
Y20496D01*
X15420Y17448D02*
X15826D01*
X14836D02*
X15420D01*
X14404Y18641D02*
Y19302D01*
X5354Y17437D02*
Y18377D01*
X4364Y20485D02*
X5354D01*
Y19545D02*
Y20485D01*
X4948Y17437D02*
X5354D01*
X4364D02*
X4948D01*
X3932Y18631D02*
Y19291D01*
X182401Y50552D02*
Y51492D01*
Y48444D02*
X183392D01*
X182401D02*
Y49384D01*
Y51492D02*
X182808D01*
X183392D01*
X183824Y49638D02*
Y50298D01*
X193254Y66407D02*
Y67346D01*
Y64298D02*
X194244D01*
X193254D02*
Y65238D01*
Y67346D02*
X193660D01*
X194244D01*
X194676Y65492D02*
Y66153D01*
X181711Y66360D02*
Y67300D01*
Y64252D02*
X182702D01*
X181711D02*
Y65192D01*
Y67300D02*
X182118D01*
X182702D01*
X183134Y65446D02*
Y66106D01*
X170521Y66325D02*
Y67265D01*
Y64216D02*
X171512D01*
X170521D02*
Y65156D01*
Y67265D02*
X170928D01*
X171512D01*
X171944Y65410D02*
Y66071D01*
X159476Y66339D02*
Y67279D01*
Y64231D02*
X160466D01*
X159476D02*
Y65170D01*
Y67279D02*
X159882D01*
X160466D01*
X160898Y65424D02*
Y66085D01*
X148353Y66371D02*
Y67310D01*
Y64262D02*
X149343D01*
X148353D02*
Y65202D01*
Y67310D02*
X148759D01*
X149343D01*
X149775Y65456D02*
Y66117D01*
X137423Y66433D02*
Y67373D01*
Y64325D02*
X138413D01*
X137423D02*
Y65265D01*
Y67373D02*
X137829D01*
X138413D01*
X138845Y65519D02*
Y66179D01*
X126207Y66445D02*
Y67385D01*
Y64337D02*
X127198D01*
X126207D02*
Y65277D01*
Y67385D02*
X126613D01*
X127198D01*
X127629Y65531D02*
Y66191D01*
X115174Y66507D02*
Y67447D01*
Y64399D02*
X116164D01*
X115174D02*
Y65338D01*
Y67447D02*
X115580D01*
X116164D01*
X116596Y65592D02*
Y66253D01*
X104234Y66476D02*
Y67416D01*
Y64368D02*
X105224D01*
X104234D02*
Y65308D01*
Y67416D02*
X104640D01*
X105224D01*
X105656Y65562D02*
Y66222D01*
X93253Y66609D02*
Y67549D01*
Y64501D02*
X94244D01*
X93253D02*
Y65441D01*
Y67549D02*
X93660D01*
X94244D01*
X94676Y65695D02*
Y66355D01*
X84031Y65686D02*
Y66346D01*
X83015Y67540D02*
X83599D01*
X82608D02*
X83015D01*
X82608Y64492D02*
Y65432D01*
Y64492D02*
X83599D01*
X82608Y66600D02*
Y67540D01*
X73324Y65685D02*
Y66346D01*
X72308Y67540D02*
X72892D01*
X71901D02*
X72308D01*
X71901Y64492D02*
Y65431D01*
Y64492D02*
X72892D01*
X71901Y66600D02*
Y67540D01*
X63067Y65579D02*
Y66240D01*
X62050Y67434D02*
X62635D01*
X61644D02*
X62050D01*
X61644Y64386D02*
Y65325D01*
Y64386D02*
X62635D01*
X61644Y66494D02*
Y67434D01*
D17*
X15982Y67422D02*
Y75422D01*
X9982D02*
X15982D01*
X9982Y67422D02*
Y75422D01*
Y67422D02*
X15982D01*
M02*
