M48
;Layer_Color=9474304
;FILE_FORMAT=4:3
METRIC,LZ
;TYPE=PLATED
T1F00S00C0.300
T2F00S00C0.700
T3F00S00C0.800
T4F00S00C0.900
T5F00S00C1.000
T6F00S00C1.100
T7F00S00C1.300
T8F00S00C1.400
%
T01
X01957Y00134
X0198339Y0013394
X019866Y0016232
X0197838Y0020027
X0198318Y0024376
X0195808Y0024514
X0194099Y00258
X0195903Y00291
X02035Y00259
X0205Y00225
Y002
X02008Y00232
X01913
X0188756Y0024547
X01862Y00245
X01845Y00258
X0184061Y0029302
X0180988Y0031199
X01814Y00232
X01799Y00213
X01789Y00245
X0176446Y0024726
X0173606Y00249
X01735Y00218
X01718Y00232
X0169334Y0024641
X0166788Y002472
X01652Y00258
X01625Y00232
X0160651Y002123
X015993Y0024798
X0157323Y0024658
X01554Y00259
X01562Y00206
X0157372Y0013394
X0159946Y0013388
X0160731Y0016279
X01647Y00206
X0168971Y0019953
X01703Y00162
X0169389Y0013319
X0166712Y0013399
X01711Y00108
X01764Y00134
X01789
X017995Y0016236
X0186206Y0013469
X0188823Y0013373
X0189072Y0016216
X0188396Y0019736
X01725Y0031
X0160683Y002997
X0160923Y0033305
X01527Y00233
X0150093Y0024733
X0147591Y0024877
X01458Y00258
X01471Y00283
X01429Y00233
X0141287Y0021314
X0140497Y0024678
X0137996Y0024787
X0136382Y0025808
X01335Y0023557
X0130907Y0024743
X0128345Y0024802
X01269Y00258
X01236Y00235
X0121141Y0024767
X0118446Y002483
X0116592Y0025836
X01139Y00235
X01134Y00294
Y0031
X01133Y00326
X0127724Y0032571
X0130539Y0020185
X0131274Y0016286
X013085Y001374
X0128367Y0013734
X012112Y0013715
X0118586Y0013776
X0121393Y0016228
X01219Y00213
X0137888Y0013519
X0140356Y0013515
X0141375Y0016184
X01483Y0018
X01496Y002
X0151Y00162
X0150225Y0013461
X0147579Y0013487
X01115Y00138
X0111742Y0016192
X0111033Y0020114
X0111392Y0024719
X0108738Y0024811
X010607Y0024763
X0104439Y0024677
X01018Y0024443
X01026Y0026
X0098978Y0025978
X00983Y0028152
X00983Y00299
X0098407Y0031576
X00984Y00333
X00926Y00331
X00897Y00313
X0089772Y0025025
X00923Y00249
X00948Y00235
X0097744Y0023431
X01027Y00214
X0102614Y0016225
X01019Y00138
X0099326Y0013785
X00923Y00138
X0089732Y0013753
X009345Y0016226
X00918Y00201
X0081675Y0020151
X0083275Y0016238
X00824Y00139
X0079711Y0013923
X0079824Y0025107
X00823Y00251
X00848Y00237
X00751
X00746Y00331
X01066Y00317
X0105553Y0030045
X01103Y00273
X01115Y00275
X0108848Y0013781
X00726Y00139
X0069987Y0013915
X0073367Y001626
X0072387Y002027
X0072616Y0025123
X0070023Y0025169
X0071217Y0029025
X007Y0032
X00627Y00317
X0062773Y0033256
X0065002Y0029018
X00666Y00269
X0065Y00237
X0062472Y0025164
X0059945Y0025243
X005715Y002583
X00545Y00239
X0051921Y0025327
X0051897Y0027346
X0049411Y002529
X00513Y00204
X0052645Y0016225
X0052134Y0014213
X0049416Y0014165
X0041579Y0014098
X0038963Y0014159
X0042122Y0016351
X004247Y0021435
X0043953Y0023862
X00414Y00255
X0038989Y0025472
X004Y00315
X00457Y00312
X0047928Y0030597
X005632Y0031016
X0059337Y0029652
X006304Y0021417
X0062561Y0013854
X0059938Y0013981
X0059446Y0016148
X0047262Y0008087
X0036938Y0008368
X0035162Y0030064
X003339Y0023846
X0030856Y0025541
X0028367Y0025381
X0030654Y002021
X0031304Y0016317
X0030955Y0014198
X0028339Y0014142
X00264Y00085
X0019391Y0014212
X0016868Y0014124
X0019978Y0016328
X0020242Y0021408
X0021955Y0023901
X0019438Y0025531
X0016848Y0025445
X00175Y00275
X00225Y003
X00125
Y00325
X001
Y003
X0009416Y0023863
X0006992Y0025436
X0006629Y0020543
X0005464Y0015051
X0009278Y0016386
X00098Y00127
X0003158Y0023851
X001Y0035
X00125
X0015919Y0037023
X0013746Y0053269
X0021627Y0053248
X00194Y00632
X00103Y00628
X00097Y00658
X0012Y00674
X0007984Y0072581
X00062Y00632
X00055Y00609
X0008
X0007788Y0059364
X0006822Y0058346
X000341Y00593
X00299Y00601
X0031
X00321
X00332
X00327Y00589
X00316Y00579
X00304Y00588
X0028344Y0061776
X00343Y00601
X00353
X00364
X00348Y00589
X00339Y00579
X0033851Y0064985
X0036456Y0064083
X0037909Y0061776
X0046988Y0062282
X0046613Y0057908
X0054224Y0059187
X0057959Y0059828
X0057139Y0063608
X00573Y00688
X0057946Y0070891
X0060462Y0070907
X0068327Y007095
X00708Y00709
X00676Y00688
X00688Y00645
X0068332Y0059735
X00672Y00579
X00644Y0061238
X0062114Y0061203
X0072341Y0061184
X0052035Y0064698
X004904Y0065584
X0042731Y0071352
X00423Y00731
X0039317Y0036656
X00352Y00339
X0045693Y0035508
X00459Y00372
X0047879Y0039011
X0050771Y0040244
X0053395Y004273
X0057474Y0040297
X0064327Y0041621
X0063325Y0036626
X0062818Y0034801
X0071Y00348
X0072765Y0033865
X00777Y0035
Y00368
X0077964Y0038402
X0078055Y0040214
X0076526Y0042471
X0080737Y0041423
X0082548Y0047156
X0084865Y00379
X00927Y0038
Y00347
X0098235Y0036501
X0101107Y0043272
X0103966Y0045455
X01051Y00482
X010601Y0042134
X0104856Y0040243
X0106Y0034513
X0110483Y0036191
X0112819Y0049697
X01106Y0058
X0111727Y0059853
X0107759Y0059121
X0104811Y0061149
X0100801Y0059712
X00999Y00579
X0100064Y0063381
X01002Y00687
X0100649Y0070895
X01032Y00709
X01116
X01113Y00687
X0112126Y0064443
X00966Y00609
X0093824Y0061159
X0089637Y0059682
X00886Y00578
X0089648Y0055691
X0087289Y0055656
X00924Y00558
X0090145Y0064312
X00897Y00689
X0089594Y0070848
X00921Y00709
X00816
X00789Y0070879
X00787Y00687
X0078428Y0063371
X00791Y00597
X00781Y00576
X0075395Y005916
X0083178Y0061116
X0085644Y0061197
X0097958Y0048464
X01164Y0048
X0119325Y0046385
X01227Y0048
X01196Y00518
X0120416Y0054678
X01215Y00579
X0122711Y0060016
X01233Y00644
X0120089Y00625
X01158Y00611
X01268Y00612
X0130004Y0059159
X0131946Y0057812
X01343Y00588
X0133781Y0059814
X01343Y00645
X01333Y00688
X01337Y00708
X01363Y00709
X01447
X01443Y00687
X01474Y00708
X01442Y00631
X0144841Y0059774
X01434Y00582
X0140675Y0059138
X01379Y00612
X01381Y00546
X01371Y00518
X013066Y0050602
X01314Y00496
X013Y0046857
Y0045
X012913Y0043399
X01299Y00382
X0128328Y0038087
X0125139Y003815
X0125Y00403
X0123905Y0041337
X01229Y00393
X0116039Y0040535
X01133Y00342
X01292Y00345
X0131628Y0038491
X0133484Y00386
X0137768Y0039181
X0138196Y0040767
X0138048Y0043203
X0138238Y0044757
X0140068Y0043391
X014295Y0042512
X0143055Y0040796
X01421Y00371
X0146653Y0038304
X0147961Y0035284
X01505Y00354
X0152655Y0034515
X01452Y0044724
X0144713Y0050406
X0142628Y0048841
X0140893Y0046966
X013494Y0043974
X0135023Y0042512
X0128232Y0054863
X0126725Y00537
X01252Y00708
X01227Y00709
X01224Y00688
X01142Y00709
X0149141Y0061166
X0151764Y0059173
X0154919Y0058144
X01559Y00598
X0156333Y0064159
X01559Y00687
X0156Y00708
X01585
X01669Y00709
X01694
X01674Y00687
X01662Y00631
X0167051Y0059692
X0166033Y0058108
X0163439Y0059156
X0159949Y0061197
X0154102Y0055813
X0153332Y0044668
X0153864Y0042785
X0153655Y0041124
X0160672Y0040075
X01607Y0038049
X01607Y00366
X01609Y0035
X0163825Y0041091
X0167Y0043
X0168084Y0038662
X0171121Y0040774
X01751Y00442
X0178006Y0046378
X0178909Y0042702
X0182885Y0044118
X0186453Y0044165
X0190455Y0042696
X01906Y0047878
X0187397Y0049962
X018563Y0049051
X01804Y005
X0181387Y0053816
X0177184Y005803
X0178306Y0059758
X0174259Y0059922
X0171293Y0061164
X01786Y00643
X01787Y00687
X01782Y00708
X01808
X01896Y0071
X01922Y00709
X019Y00687
X01901Y00644
X0189673Y0059634
X0192235Y0059859
X0190284Y005465
X0185761Y0061182
X01825Y00612
X01831Y00388
X0180562Y0037841
X0180791Y0034277
X01624Y00464
X0158958Y0047282
X0166622Y0053343
X01974Y00524
X01979Y00581
X0198264Y0069427
X0196502Y0071828
X0202262Y007033
X02015Y00671
X01994Y00397
X0195987Y0038211
X019588Y0035589
X0192972Y0039385
X0194525Y004412
X0193411Y0074283
X0007947Y0075161
X0005051Y0074871
X00034Y00736
T02
X0068008Y0045148
Y0047688
Y0050228
Y0052768
T03
X0016506Y0044725
X0020006
X0043238Y0045994
Y0049494
T04
X0120198Y0030056
X0122738
X0204546Y0039904
Y0042444
Y0044984
Y0047524
Y0050064
Y0052604
T05
X0004808Y0044725
X0009808
T06
X0204541Y0028639
Y0031179
Y0033719
Y0036259
T07
X0087312Y00433
X0089852
X0092392
X0094932
Y005092
X0092392
X0089852
X0087312
T08
X0195207Y0005698
X0198707
X0191707
X0188207
X0184707
X0181207
X0177707
X0174207
X0170707
X0167207
X0146207
X0142707
X0139207
X0135707
X0132207
X0128707
X0125207
X0121707
X0118207
X0114707
X0093707
X0090207
X0086707
X0083207
X0079707
X0076207
X0072707
X0069207
X0065707
X0062207
X0037693
X0034193
X0030693
X0027193
X0023693
X0020193
X0016693
X0013193
X0009693
X0006193
X0195193Y0081301
X0198693
X0191693
X0188193
X0184693
X0181193
X0177693
X0174193
X0170693
X0167193
X0146193
X0142693
X0139193
X0135693
X0132193
X0128693
X0125193
X0121693
X0118193
X0114693
X0093693
X0090193
X0086693
X0083193
X0079693
X0076193
X0072693
X0069193
X0065693
X0062193
X0041193
X0037693
X0034193
X0030693
X0027193
X0023693
X0020193
X0016693
X0013193
X0009693
M30
